<svg version="1.1" xmlns="http://www.w3.org/2000/svg" viewBox="0 0 687 587" width="687" height="587">
  <!-- svg-source:excalidraw -->
  
  <defs>
    <style class="style-fonts">
      @font-face {
        font-family: "Virgil";
        src: url("https://excalidraw.com/Virgil.woff2");
      }
      @font-face {
        font-family: "Cascadia";
        src: url("https://excalidraw.com/Cascadia.woff2");
      }
    </style>
    
  </defs>
  <rect x="0" y="0" width="687" height="587" fill="#ffffff"></rect><g stroke-linecap="round" transform="translate(10 43) rotate(0 333.5 267)"><path d="M32 0 M32 0 C229.35 -0.73, 425.47 -1.16, 635 0 M32 0 C261.44 -0.02, 491.15 -0.08, 635 0 M635 0 C655.71 0.67, 668.01 11.55, 667 32 M635 0 C658.51 1.61, 665.22 12.53, 667 32 M667 32 C668.54 203.32, 669.51 372.54, 667 502 M667 32 C665.28 194.44, 665.34 356.58, 667 502 M667 502 C665.12 521.78, 655.41 534.3, 635 534 M667 502 C666.54 524.44, 656.02 533.94, 635 534 M635 534 C403.03 533.5, 169.14 534.96, 32 534 M635 534 C419.25 533.94, 204.23 533.41, 32 534 M32 534 C11.37 535.79, 1.94 524.24, 0 502 M32 534 C11.03 533.97, -2.06 522.07, 0 502 M0 502 C1.28 402.06, 0.88 302.05, 0 32 M0 502 C0.68 355.77, 0.92 208.83, 0 32 M0 32 C-0.15 8.73, 8.95 -1.96, 32 0 M0 32 C0.37 9.69, 9.9 0.02, 32 0" stroke="#1e1e1e" stroke-width="1" fill="none"></path></g><g stroke-linecap="round" transform="translate(32.42394209332906 455.0000000000009) rotate(0 52 52)"><path d="M6.26 6.77 C6.26 6.77, 6.26 6.77, 6.26 6.77 M6.26 6.77 C6.26 6.77, 6.26 6.77, 6.26 6.77 M3.38 16.19 C7.53 11.31, 10.9 9.58, 12.56 5.62 M3.38 16.19 C7.63 12.36, 10.2 8.13, 12.56 5.62 M-0.16 26.36 C4.61 19.99, 7.96 14.3, 18.86 4.47 M-0.16 26.36 C3.97 21.95, 8.26 16.57, 18.86 4.47 M0.23 32 C12.34 18.3, 19.43 10, 27.13 1.06 M0.23 32 C9 21.72, 19.62 9.34, 27.13 1.06 M-0.03 38.4 C11.33 26, 21.17 11.5, 32.12 1.42 M-0.03 38.4 C7.9 29.24, 15.81 19.73, 32.12 1.42 M0.36 44.04 C10.86 32.35, 20.05 22.86, 37.76 1.02 M0.36 44.04 C10.08 31.3, 21.64 19.73, 37.76 1.02 M0.1 50.44 C12.59 38.6, 24.43 23.65, 42.75 1.38 M0.1 50.44 C9.39 39.98, 18 29.51, 42.75 1.38 M-0.16 56.84 C8.71 45.88, 20.87 32.67, 48.39 0.99 M-0.16 56.84 C17.18 35.11, 34.93 15.15, 48.39 0.99 M0.24 62.48 C15.09 45.68, 32.23 28.73, 53.38 1.35 M0.24 62.48 C18.57 41.18, 36.86 19.63, 53.38 1.35 M-0.02 68.88 C12.34 51.98, 26.71 37.21, 59.02 0.96 M-0.02 68.88 C22.59 41.66, 46.25 15.28, 59.02 0.96 M0.37 74.52 C11.9 58.29, 27.85 44.22, 64.01 1.32 M0.37 74.52 C16.4 56.87, 31.97 37.03, 64.01 1.32 M1.42 79.41 C21.92 56.62, 43.32 32.19, 68.99 1.68 M1.42 79.41 C17.88 63.03, 31.33 44.24, 68.99 1.68 M2.47 84.3 C23.46 58.98, 47.29 34.12, 74.64 1.28 M2.47 84.3 C25.39 55.54, 51.09 27.99, 74.64 1.28 M3.52 89.19 C25.2 64.89, 48.46 41.32, 79.62 1.64 M3.52 89.19 C24.16 65.88, 45.78 42.26, 79.62 1.64 M4.57 94.08 C31.76 64.57, 58.23 34.6, 85.27 1.25 M4.57 94.08 C30.59 62.74, 55.85 32.27, 85.27 1.25 M6.94 97.45 C26.74 79.68, 44.68 56.44, 89.6 2.36 M6.94 97.45 C30.84 72.05, 53.66 45.7, 89.6 2.36 M9.95 100.08 C37.18 67.57, 64.14 34.24, 93.27 4.23 M9.95 100.08 C42.63 62.07, 77.3 23.87, 93.27 4.23 M12.97 102.7 C36.42 78.19, 55.04 51.02, 96.95 6.1 M12.97 102.7 C39.39 71.32, 67.48 40.75, 96.95 6.1 M17.3 103.82 C45.54 71.93, 73.98 41.18, 99.97 8.72 M17.3 103.82 C36.52 81.36, 55.86 57.19, 99.97 8.72 M21.63 104.93 C51.38 69.05, 78.59 35.63, 102.33 12.1 M21.63 104.93 C52.43 71.32, 83.91 35.71, 102.33 12.1 M26.62 105.29 C52.49 72.89, 77.96 43.05, 103.38 16.99 M26.62 105.29 C56.44 71.39, 85.52 37.19, 103.38 16.99 M32.26 104.9 C59.99 75.95, 85.11 41.89, 104.43 21.88 M32.26 104.9 C47.04 88.87, 62.88 69.78, 104.43 21.88 M37.25 105.26 C62.62 79.55, 85.32 51.67, 105.48 26.77 M37.25 105.26 C58.72 82, 78.65 58.43, 105.48 26.77 M42.89 104.86 C64.23 83.24, 82.54 58.53, 105.22 33.17 M42.89 104.86 C58.04 86.69, 73.35 68.68, 105.22 33.17 M47.88 105.22 C70.32 81.93, 90.59 55.96, 104.96 39.56 M47.88 105.22 C62.1 88.5, 77.3 71.79, 104.96 39.56 M52.87 105.58 C69.6 84.98, 90.69 63.19, 105.35 45.21 M52.87 105.58 C69.26 87.4, 84.65 68.21, 105.35 45.21 M58.51 105.19 C75.19 83.72, 92.14 64.2, 105.09 51.6 M58.51 105.19 C71.68 90.83, 82.52 77.57, 105.09 51.6 M63.5 105.55 C80.56 89.2, 94.31 67.69, 104.83 58 M63.5 105.55 C75.38 91.7, 86.32 79.41, 104.83 58 M69.14 105.15 C83.22 87.64, 97.3 72.92, 105.23 63.65 M69.14 105.15 C82.46 88.29, 97.9 72.95, 105.23 63.65 M74.13 105.51 C83.29 98.61, 89.78 88.55, 104.96 70.04 M74.13 105.51 C81.85 96.34, 89.23 89.15, 104.96 70.04 M79.77 105.12 C87.85 97.09, 95.82 84.62, 104.7 76.44 M79.77 105.12 C89.19 93.38, 99.32 83.08, 104.7 76.44 M86.07 103.97 C92.05 96.05, 100.62 88.62, 105.1 82.08 M86.07 103.97 C92.94 96.71, 97.87 88.53, 105.1 82.08 M94.34 100.56 C97.02 96.03, 99.43 94.43, 106.15 86.97 M94.34 100.56 C97.9 96.68, 102.35 92.73, 106.15 86.97" stroke="#ffc9c9" stroke-width="0.5" fill="none"></path><path d="M26 0 M26 0 C39.47 -0.4, 50.98 -0.27, 78 0 M26 0 C40.66 0.72, 57.98 0.96, 78 0 M78 0 C95.87 1.52, 104.2 9.99, 104 26 M78 0 C97.23 0.45, 105.39 6.91, 104 26 M104 26 C105.48 42.97, 102.62 63.19, 104 78 M104 26 C104.97 39.76, 104.55 53, 104 78 M104 78 C106 97.1, 95.69 102.01, 78 104 M104 78 C104.12 94.73, 94.98 103.46, 78 104 M78 104 C62.38 102, 51.5 103.88, 26 104 M78 104 C65.81 104.34, 54.34 103.53, 26 104 M26 104 C6.83 103.79, 1.92 95.91, 0 78 M26 104 C8.04 103.64, -2.26 95.76, 0 78 M0 78 C1.58 60.6, 0.77 44.34, 0 26 M0 78 C0.35 66.23, 0.01 54.17, 0 26 M0 26 C1.65 8.44, 8.68 -1.31, 26 0 M0 26 C1.04 10.46, 9.91 -0.16, 26 0" stroke="#1e1e1e" stroke-width="1" fill="none"></path></g><g transform="translate(61.27394247479879 494.5000000000009) rotate(0 23.149999618530273 12.5)"><text x="23.149999618530273" y="0" font-family="Virgil, Segoe UI Emoji" font-size="20px" fill="#1e1e1e" text-anchor="middle" style="white-space: pre;" direction="ltr" dominant-baseline="text-before-edge">Deck</text></g><g stroke-linecap="round" transform="translate(543.4239420933291 62) rotate(0 52 52)"><path d="M26.25 1.61 L85.54 0.73 L93.42 5.51 L100.83 11.74 L103.38 26.67 L104.6 84.98 L102.23 95.24 L92.3 101.96 L79.26 105.98 L19.08 102.36 L11.71 101.28 L2.09 94.75 L-1.28 77.4 L-1.61 26.22 L0.26 13.71 L4.62 4.95 L9.24 3.95 L25.6 0.96" stroke="none" stroke-width="0" fill="#a5d8ff"></path><path d="M26 0 M26 0 C39.61 -0.28, 57.32 -2.19, 78 0 M26 0 C37.01 -0.44, 47.26 0.44, 78 0 M78 0 C95.64 -1.18, 104.71 10.46, 104 26 M78 0 C97.56 1.04, 104.36 8.64, 104 26 M104 26 C102.21 36.41, 103.02 47.42, 104 78 M104 26 C103.26 38.15, 103.06 49.63, 104 78 M104 78 C103.75 94.97, 95.18 102.07, 78 104 M104 78 C102.03 93.08, 95.71 103.02, 78 104 M78 104 C65.27 105.69, 51.89 103.82, 26 104 M78 104 C67.79 104.2, 57.14 103.71, 26 104 M26 104 C6.78 105.14, -1.68 94.54, 0 78 M26 104 C8.8 105.6, -1.86 96.93, 0 78 M0 78 C-1.99 60.51, -0.65 45.78, 0 26 M0 78 C0.44 64.57, 0.85 50.73, 0 26 M0 26 C0.5 8.3, 8.74 -0.35, 26 0 M0 26 C-0.27 7.5, 7.24 1.99, 26 0" stroke="#1e1e1e" stroke-width="1" fill="none"></path></g><g transform="translate(570.1239428562685 101.5) rotate(0 25.299999237060547 12.5)"><text x="25.299999237060547" y="0" font-family="Virgil, Segoe UI Emoji" font-size="20px" fill="#1e1e1e" text-anchor="middle" style="white-space: pre;" direction="ltr" dominant-baseline="text-before-edge">Row0</text></g><g stroke-linecap="round" transform="translate(545.4239420933291 189) rotate(0 52 52)"><path d="M25.58 1.86 L84.58 1.99 L93.22 4.33 L101.35 11.04 L105.89 27.4 L102.05 85.71 L101.6 95.82 L93.02 99.11 L79.55 104.94 L18.34 104.5 L8.88 99.74 L2.04 94.06 L-1.36 77.08 L-1.88 24.45 L0.71 14.92 L6.1 7.46 L9.88 3.6 L27.71 -1.28" stroke="none" stroke-width="0" fill="#a5d8ff"></path><path d="M26 0 M26 0 C40.29 2.35, 59.22 0.37, 78 0 M26 0 C40.99 -0.97, 56.03 0.51, 78 0 M78 0 C97.27 0.91, 104.31 8.64, 104 26 M78 0 C93.28 -1.27, 101.98 6.94, 104 26 M104 26 C102.23 39.1, 104.06 53.46, 104 78 M104 26 C103.54 44.99, 103.58 63.38, 104 78 M104 78 C102.29 93.37, 95.66 103.15, 78 104 M104 78 C103.23 95.36, 96.46 105.29, 78 104 M78 104 C56.73 102.96, 40.74 104.64, 26 104 M78 104 C62.35 104.23, 47.75 103.26, 26 104 M26 104 C8.79 105.39, -1.62 96.72, 0 78 M26 104 C8.85 104.98, -1.29 93.3, 0 78 M0 78 C-0.56 66.64, -0.7 55.55, 0 26 M0 78 C-0.25 59.94, -0.47 42.08, 0 26 M0 26 C-0.24 7.65, 7.43 1.73, 26 0 M0 26 C-1.73 7.4, 7.32 -0.91, 26 0" stroke="#1e1e1e" stroke-width="1" fill="none"></path></g><g transform="translate(576.2989420933291 228.5) rotate(0 21.125 12.5)"><text x="21.125" y="0" font-family="Virgil, Segoe UI Emoji" font-size="20px" fill="#1e1e1e" text-anchor="middle" style="white-space: pre;" direction="ltr" dominant-baseline="text-before-edge">Row1</text></g><g stroke-linecap="round" transform="translate(545.4239420933291 315.0000000000009) rotate(0 52 52)"><path d="M25.38 0.67 L85.1 1.29 L95.73 5.06 L98.8 11.77 L105.26 27.98 L102.77 82.86 L101.89 94.78 L92.27 101.25 L76.72 103.4 L18.29 103.81 L8.79 99.43 L1.77 92.29 L-0.92 78.3 L-0.4 26.96 L1.35 14.57 L8.21 5.22 L10.32 5.19 L24.26 -1.75" stroke="none" stroke-width="0" fill="#a5d8ff"></path><path d="M26 0 M26 0 C46.23 -1.68, 68.51 0.33, 78 0 M26 0 C39.49 -0.01, 51.21 -0.48, 78 0 M78 0 C93.54 -1.1, 102.24 7.16, 104 26 M78 0 C94.71 -0.8, 103.45 6.84, 104 26 M104 26 C105.44 37.44, 105.45 51.26, 104 78 M104 26 C103.1 39.68, 104.12 54.89, 104 78 M104 78 C103.33 95.35, 96.31 105.13, 78 104 M104 78 C105.66 97.18, 94.83 101.78, 78 104 M78 104 C64.45 104.81, 50.28 102.31, 26 104 M78 104 C59.49 104.49, 40.05 104.49, 26 104 M26 104 C8.83 104.85, -1.12 93.57, 0 78 M26 104 C6.97 103.51, -0.21 94.57, 0 78 M0 78 C1.08 63.25, 1.15 45.15, 0 26 M0 78 C-0.14 62.85, -0.64 49.58, 0 26 M0 26 C-1.5 7.56, 7.49 -0.79, 26 0 M0 26 C0.26 10.89, 8.65 -0.36, 26 0" stroke="#1e1e1e" stroke-width="1" fill="none"></path></g><g transform="translate(571.890609268622 354.5000000000009) rotate(0 25.53333282470703 12.5)"><text x="25.53333282470703" y="0" font-family="Virgil, Segoe UI Emoji" font-size="20px" fill="#1e1e1e" text-anchor="middle" style="white-space: pre;" direction="ltr" dominant-baseline="text-before-edge">Row2</text></g><g stroke-linecap="round" transform="translate(546.4239420933291 440.0000000000009) rotate(0 52 52)"><path d="M27.89 1.4 L82.55 2.02 L95.1 5.63 L99.52 8.92 L105.55 26.94 L102.02 85 L99.06 93.24 L92.23 100.56 L76.64 103.08 L18.02 102.04 L9.24 100.64 L3.25 94.81 L-0.27 77.95 L1.71 24.72 L1.79 16.16 L4.76 4.75 L12.05 4.8 L25.92 -0.29" stroke="none" stroke-width="0" fill="#a5d8ff"></path><path d="M26 0 M26 0 C36.01 0.63, 50.17 1.85, 78 0 M26 0 C43.07 -0.54, 61.04 -0.75, 78 0 M78 0 C94.79 -0.69, 103.52 7.08, 104 26 M78 0 C94.08 0.27, 102.94 10.25, 104 26 M104 26 C104 38.03, 102.43 48.66, 104 78 M104 26 C103.75 36.51, 104.57 47.57, 104 78 M104 78 C105.44 96.94, 94.9 102.07, 78 104 M104 78 C102.94 96.97, 96.2 103.6, 78 104 M78 104 C61.95 101.83, 42.82 103.63, 26 104 M78 104 C58.86 104.79, 39 103.48, 26 104 M26 104 C7.19 103.58, -0.18 94.67, 0 78 M26 104 C9.14 103.07, 1.25 96.34, 0 78 M0 78 C-0.61 57.46, -0.6 36.55, 0 26 M0 78 C-0.43 64.49, -0.27 51.68, 0 26 M0 26 C0.23 10.6, 8.65 -0.32, 26 0 M0 26 C-1.86 7.79, 7.38 0.41, 26 0" stroke="#1e1e1e" stroke-width="1" fill="none"></path></g><g transform="translate(573.1989417118593 479.5000000000009) rotate(0 25.225000381469727 12.5)"><text x="25.225000381469727" y="0" font-family="Virgil, Segoe UI Emoji" font-size="20px" fill="#1e1e1e" text-anchor="middle" style="white-space: pre;" direction="ltr" dominant-baseline="text-before-edge">Row3</text></g><g transform="translate(37.42394209332906 56) rotate(0 26.358333587646484 12.5)"><text x="0" y="0" font-family="Virgil, Segoe UI Emoji" font-size="20px" fill="#1e1e1e" text-anchor="start" style="white-space: pre;" direction="ltr" dominant-baseline="text-before-edge">Game</text></g><g stroke-linecap="round" transform="translate(42.27640110972243 275.96721311475494) rotate(0 51.147540983606575 51.14754098360652)"><path d="M24.75 -1.23 L84.27 1.34 L90.73 4.51 L97.42 9.39 L100.68 25.79 L100.53 81.8 L96.82 90.75 L91.39 98.99 L76.32 103.26 L19.31 101.84 L11.7 97.42 L3.76 93.84 L-1.74 74.97 L1.89 26.72 L1.52 14.09 L1.9 11.46 L10.3 2.41 L26.28 1.79" stroke="none" stroke-width="0" fill="#b2f2bb"></path><path d="M25.57 0 M25.57 0 C45.84 -1.87, 65.06 -1.84, 76.72 0 M25.57 0 C36.83 -0.62, 48.02 0.3, 76.72 0 M76.72 0 C92.85 1.37, 100.98 9.91, 102.3 25.57 M76.72 0 C93.49 -0.42, 102.12 6.3, 102.3 25.57 M102.3 25.57 C100.94 35.86, 101.81 48.47, 102.3 76.72 M102.3 25.57 C102.45 42.83, 102.2 62.73, 102.3 76.72 M102.3 76.72 C103.05 93.43, 94.38 100.98, 76.72 102.3 M102.3 76.72 C100.12 95.09, 91.84 101.38, 76.72 102.3 M76.72 102.3 C62.46 102.04, 46.28 100.76, 25.57 102.3 M76.72 102.3 C65.8 101.85, 55.27 101.78, 25.57 102.3 M25.57 102.3 C9.61 103.17, 1.92 94.71, 0 76.72 M25.57 102.3 C9.1 101.87, 0.08 93.37, 0 76.72 M0 76.72 C1.99 60.48, -0.84 46.08, 0 25.57 M0 76.72 C-0.06 63.24, -0.87 49.7, 0 25.57 M0 25.57 C-1.12 8.88, 6.83 0.58, 25.57 0 M0 25.57 C-1.09 6.26, 7.65 0.32, 25.57 0" stroke="#1e1e1e" stroke-width="1" fill="none"></path></g><g transform="translate(63.057275299505704 314.6147540983616) rotate(0 30.366666793823242 12.5)"><text x="30.366666793823242" y="0" font-family="Virgil, Segoe UI Emoji" font-size="20px" fill="#1e1e1e" text-anchor="middle" style="white-space: pre;" direction="ltr" dominant-baseline="text-before-edge">Player</text></g><g stroke-linecap="round" transform="translate(27.42394209332906 207) rotate(0 252.4999999999999 118.03278688524586)"><path d="M32 0 M32 0 C129.37 0.6, 227.45 0.73, 473 0 M32 0 C143.82 1.78, 256 1.95, 473 0 M473 0 C494.06 -0.05, 506.71 9.38, 505 32 M473 0 C494.53 1.76, 502.99 8.66, 505 32 M505 32 C505.69 98.21, 507.46 168.12, 505 204.07 M505 32 C506.58 73.9, 505.76 114.88, 505 204.07 M505 204.07 C503.21 224.3, 492.58 234.56, 473 236.07 M505 204.07 C504.38 224.6, 493.78 234.24, 473 236.07 M473 236.07 C365.5 234.4, 257.33 234.93, 32 236.07 M473 236.07 C348.28 233.45, 224.5 233.73, 32 236.07 M32 236.07 C10 236.08, 0.98 226.52, 0 204.07 M32 236.07 C12.32 237.91, -0.5 223.18, 0 204.07 M0 204.07 C-1.57 161, -2.54 114.81, 0 32 M0 204.07 C1.5 143.31, 0.64 81.85, 0 32 M0 32 C0.16 11.52, 9.55 -1.76, 32 0 M0 32 C-1.69 10.18, 10.46 -0.77, 32 0" stroke="#1e1e1e" stroke-width="1" fill="none"></path></g><g transform="translate(47.09607324087028 230.6065573770502) rotate(0 35.349998474121094 12.29508196721315)"><text x="0" y="0" font-family="Virgil, Segoe UI Emoji" font-size="19.672131147540984px" fill="#1e1e1e" text-anchor="start" style="white-space: pre;" direction="ltr" dominant-baseline="text-before-edge">Players</text></g><g stroke-linecap="round" transform="translate(167.26000766709967 273.6885245901649) rotate(0 51.147540983606575 51.14754098360652)"><path d="M23.96 0.22 L81.35 -0.52 L90.42 2.04 L97.78 10.29 L101.89 26.54 L101.62 82.66 L100.41 91.02 L92.47 100.23 L74.98 100.55 L21.47 103.04 L9.91 98.41 L1.9 93.78 L0.31 75.54 L0.71 27.36 L3.53 15.29 L3.91 9.97 L8.2 2.5 L23.82 -1.5" stroke="none" stroke-width="0" fill="#b2f2bb"></path><path d="M25.57 0 M25.57 0 C37.94 -0.97, 53.73 -0.8, 76.72 0 M25.57 0 C44.31 -0.54, 63.21 -1.32, 76.72 0 M76.72 0 C92.06 -1.96, 102.62 7.67, 102.3 25.57 M76.72 0 C93 0.02, 103.42 9.82, 102.3 25.57 M102.3 25.57 C100.78 43.68, 104.13 64.38, 102.3 76.72 M102.3 25.57 C101.51 40.61, 101.61 54.1, 102.3 76.72 M102.3 76.72 C102.41 95.16, 92.15 103.68, 76.72 102.3 M102.3 76.72 C102.48 94.75, 92.49 100.27, 76.72 102.3 M76.72 102.3 C64.48 102.66, 52.76 103.34, 25.57 102.3 M76.72 102.3 C59.39 102.35, 41.6 102.36, 25.57 102.3 M25.57 102.3 C8.29 101.28, -1.24 95.5, 0 76.72 M25.57 102.3 C6.8 101.03, -1.35 92.86, 0 76.72 M0 76.72 C-0.81 59.18, -1.25 43.75, 0 25.57 M0 76.72 C-0.04 59.47, 0.05 44.33, 0 25.57 M0 25.57 C0.94 7.62, 8.85 -0.72, 25.57 0 M0 25.57 C-0.11 10.27, 6.95 -1.01, 25.57 0" stroke="#1e1e1e" stroke-width="1" fill="none"></path></g><g transform="translate(188.04088185688295 312.3360655737715) rotate(0 30.366666793823242 12.5)"><text x="30.366666793823242" y="0" font-family="Virgil, Segoe UI Emoji" font-size="20px" fill="#1e1e1e" text-anchor="middle" style="white-space: pre;" direction="ltr" dominant-baseline="text-before-edge">Player</text></g><g stroke-linecap="round" transform="translate(293.26000766709967 273.4262295081976) rotate(0 51.147540983606575 51.14754098360652)"><path d="M23.69 -1.55 L81.8 0.7 L91.9 4.56 L98.43 9.94 L104.01 24.29 L102.06 84.25 L96.95 90.56 L94.2 99.84 L76.64 102 L17.88 103.37 L10.3 97.52 L4.3 94.1 L1.94 77.63 L0.31 25.55 L-0.19 13.28 L1.84 8.49 L9.45 2.9 L25.1 -1.59" stroke="none" stroke-width="0" fill="#b2f2bb"></path><path d="M25.57 0 M25.57 0 C39.49 -1.08, 52.06 -0.01, 76.72 0 M25.57 0 C39.13 -0.49, 54.57 0.07, 76.72 0 M76.72 0 C93.1 0.02, 103.27 9.65, 102.3 25.57 M76.72 0 C95.43 1.85, 101.8 6.31, 102.3 25.57 M102.3 25.57 C102.31 39.17, 101.34 49.65, 102.3 76.72 M102.3 25.57 C101.93 44.54, 101.06 62.8, 102.3 76.72 M102.3 76.72 C102.46 94.63, 92.65 100.53, 76.72 102.3 M102.3 76.72 C100.6 93.28, 93.56 101.53, 76.72 102.3 M76.72 102.3 C61.19 104.5, 44.86 103.07, 25.57 102.3 M76.72 102.3 C62.2 101.7, 47.29 103.07, 25.57 102.3 M25.57 102.3 C7.02 101.19, -1.17 92.98, 0 76.72 M25.57 102.3 C8.79 104.52, -0.01 93.41, 0 76.72 M0 76.72 C0.55 63.82, 0.77 53.34, 0 25.57 M0 76.72 C0.66 65.95, 0.36 55.74, 0 25.57 M0 25.57 C-0.1 10.04, 7.16 -0.88, 25.57 0 M0 25.57 C0.22 9.55, 7.51 -0.09, 25.57 0" stroke="#1e1e1e" stroke-width="1" fill="none"></path></g><g transform="translate(314.04088185688295 312.0737704918042) rotate(0 30.366666793823242 12.5)"><text x="30.366666793823242" y="0" font-family="Virgil, Segoe UI Emoji" font-size="20px" fill="#1e1e1e" text-anchor="middle" style="white-space: pre;" direction="ltr" dominant-baseline="text-before-edge">Player</text></g><g stroke-linecap="round" transform="translate(415.26000766709967 272.13114754098433) rotate(0 51.147540983606575 51.14754098360652)"><path d="M25.17 0.96 L82.44 0.35 L94.02 2.31 L98.87 11.52 L100.55 23.83 L103.79 83.86 L98.62 92.01 L90.61 100.17 L77.03 101.11 L20.29 103.69 L11.93 99.61 L3.91 92.28 L-1.79 75.62 L-1.76 24.07 L1.06 13.69 L3.12 8.4 L8.9 3.83 L24.65 1.37" stroke="none" stroke-width="0" fill="#b2f2bb"></path><path d="M25.57 0 M25.57 0 C37.2 -0.09, 47.62 -1.65, 76.72 0 M25.57 0 C35.57 0.23, 46.72 0.78, 76.72 0 M76.72 0 C95.21 1.61, 101.86 6.6, 102.3 25.57 M76.72 0 C92.71 1.63, 103.16 8.13, 102.3 25.57 M102.3 25.57 C103.1 40.81, 101.16 59.52, 102.3 76.72 M102.3 25.57 C101.96 44.91, 101.32 62.5, 102.3 76.72 M102.3 76.72 C100.82 93.35, 93.59 101.63, 76.72 102.3 M102.3 76.72 C102.77 92.84, 95.02 103.3, 76.72 102.3 M76.72 102.3 C56.09 102.49, 35.84 102.18, 25.57 102.3 M76.72 102.3 C63.22 102.19, 50.64 102.34, 25.57 102.3 M25.57 102.3 C8.75 104.23, -0.01 93.45, 0 76.72 M25.57 102.3 C6.67 101.42, -1.29 94.18, 0 76.72 M0 76.72 C-2.11 64.94, 0.13 55.62, 0 25.57 M0 76.72 C-0.13 64.46, -0.77 50.24, 0 25.57 M0 25.57 C0.2 9.42, 7.64 -0.08, 25.57 0 M0 25.57 C1.14 8.96, 9.26 -1.86, 25.57 0" stroke="#1e1e1e" stroke-width="1" fill="none"></path></g><g transform="translate(436.41588185688295 310.9836065573777) rotate(0 29.991666793823242 12.29508196721315)"><text x="29.991666793823242" y="0" font-family="Virgil, Segoe UI Emoji" font-size="19.672131147540984px" fill="#1e1e1e" text-anchor="middle" style="white-space: pre;" direction="ltr" dominant-baseline="text-before-edge">Player</text></g><g stroke-linecap="round" transform="translate(160.42394209332906 51) rotate(0 184.5 44.5)"><path d="M23.96 -1.28 L352.13 1.88 L361.69 3.81 L369.5 13.66 L368.92 21.96 L366.96 73.44 L363.75 82.25 L357.19 89.4 L348.69 89.91 L17.35 88.63 L3.77 82.34 L-0.37 74.98 L-0.54 66.06 L-0.48 20.66 L0.3 12.75 L4.64 6.94 L11.2 2.78 L22 -0.36" stroke="none" stroke-width="0" fill="#ffec99"></path><path d="M22.25 0 M22.25 0 C115.73 2.15, 211.34 1.46, 346.75 0 M22.25 0 C120.41 -0.71, 217.43 -1.93, 346.75 0 M346.75 0 C360.66 1.42, 369.75 7.07, 369 22.25 M346.75 0 C362.29 -1.51, 366.83 8.73, 369 22.25 M369 22.25 C370.22 30.24, 370.21 41.64, 369 66.75 M369 22.25 C368.01 37.29, 368.66 52.42, 369 66.75 M369 66.75 C369.41 80.78, 362.67 89.87, 346.75 89 M369 66.75 C371.21 82.67, 362.16 88.58, 346.75 89 M346.75 89 C247.58 87.87, 151.02 87.69, 22.25 89 M346.75 89 C267.36 88.78, 187.82 88, 22.25 89 M22.25 89 C5.8 88.24, -1.12 81.94, 0 66.75 M22.25 89 C5.47 89.66, -1.09 79.32, 0 66.75 M0 66.75 C-0.97 55.42, -0.78 43.33, 0 22.25 M0 66.75 C0.4 50.46, -0.14 33.24, 0 22.25 M0 22.25 C0.99 7.8, 8.06 -1.61, 22.25 0 M0 22.25 C-1.9 8.28, 9.71 2.12, 22.25 0" stroke="#1e1e1e" stroke-width="1" fill="none"></path></g><g transform="translate(315.40727568097554 56) rotate(0 29.516666412353516 12.5)"><text x="29.516666412353516" y="0" font-family="Virgil, Segoe UI Emoji" font-size="20px" fill="#1e1e1e" text-anchor="middle" style="white-space: pre;" direction="ltr" dominant-baseline="text-before-edge">State</text></g><g stroke-linecap="round" transform="translate(173.42394209332906 96) rotate(0 51.5 17.5)"><path d="M7.01 -1.75 L99.97 1.69 L102.37 4.63 L100.76 31.55 L98.39 33.27 L94.96 36.79 L6.86 35.36 L0.86 30.05 L-1.79 7.65 L0.43 0.68 L8.21 -0.69" stroke="none" stroke-width="0" fill="#e9ecef"></path><path d="M8.75 0 M8.75 0 C32.59 -0.45, 57.34 -0.84, 94.25 0 M8.75 0 C40.27 -0.81, 71.08 -0.82, 94.25 0 M94.25 0 C100.41 -0.85, 102.33 2.94, 103 8.75 M94.25 0 C101.21 1.29, 104.66 4.76, 103 8.75 M103 8.75 C104.07 14.28, 102.53 19.03, 103 26.25 M103 8.75 C102.1 12.5, 102.89 17.56, 103 26.25 M103 26.25 C101.38 33.47, 100.24 35.85, 94.25 35 M103 26.25 C101.71 30.05, 98.39 34.51, 94.25 35 M94.25 35 C68.57 36.27, 45.38 37.1, 8.75 35 M94.25 35 C64.6 34.67, 34.77 34.34, 8.75 35 M8.75 35 C1.68 36.73, -1.5 30.98, 0 26.25 M8.75 35 C1.57 34.09, 0.26 34.3, 0 26.25 M0 26.25 C-0.64 20.03, 0.34 14.29, 0 8.75 M0 26.25 C-0.25 20.62, 0.49 14.34, 0 8.75 M0 8.75 C0.33 2.2, 2.82 1.52, 8.75 0 M0 8.75 C-1.57 1.91, 3.14 1.03, 8.75 0" stroke="#1e1e1e" stroke-width="1" fill="none"></path></g><g transform="translate(190.6239428562685 101) rotate(0 34.29999923706055 12.5)"><text x="34.29999923706055" y="0" font-family="Virgil, Segoe UI Emoji" font-size="20px" fill="#1e1e1e" text-anchor="middle" style="white-space: pre;" direction="ltr" dominant-baseline="text-before-edge">Pending</text></g><g stroke-linecap="round" transform="translate(294.92394209332906 95.5) rotate(0 51.5 17.5)"><path d="M8.67 -0.29 L96.38 2.02 L102.76 3.74 L103.16 31.87 L100.01 35.36 L94.56 34.98 L3.13 33.35 L-1.21 28.57 L-0.54 8.06 L1.71 0.6 L7.66 0.24" stroke="none" stroke-width="0" fill="#b2f2bb"></path><path d="M8.75 0 M8.75 0 C31.85 0.31, 51.81 0.41, 94.25 0 M8.75 0 C26.29 0.41, 43.17 0.85, 94.25 0 M94.25 0 C101.06 1.13, 104.44 4.52, 103 8.75 M94.25 0 C99.58 -2.22, 101.94 4.55, 103 8.75 M103 8.75 C101.82 13.01, 103.97 19.1, 103 26.25 M103 8.75 C102.3 13.91, 103.08 18.23, 103 26.25 M103 26.25 C101.88 30.32, 98.61 34.58, 94.25 35 M103 26.25 C102.79 31.32, 100.56 34.07, 94.25 35 M94.25 35 C64.89 36.32, 33.28 35.89, 8.75 35 M94.25 35 C69.48 35.43, 45.2 34.01, 8.75 35 M8.75 35 C1.74 34.21, 0.23 34.02, 0 26.25 M8.75 35 C2.9 34.64, -1.86 31.21, 0 26.25 M0 26.25 C0.47 21.15, -1.75 17.04, 0 8.75 M0 26.25 C0.06 20.44, -0.13 15.93, 0 8.75 M0 8.75 C-1.37 2.04, 3.11 0.89, 8.75 0 M0 8.75 C-1.02 2.82, 4.05 0.44, 8.75 0" stroke="#2f9e44" stroke-width="1" fill="none"></path></g><g transform="translate(316.3072752995058 100.5) rotate(0 30.116666793823242 12.5)"><text x="30.116666793823242" y="0" font-family="Virgil, Segoe UI Emoji" font-size="20px" fill="#2f9e44" text-anchor="middle" style="white-space: pre;" direction="ltr" dominant-baseline="text-before-edge">Active</text></g><g stroke-linecap="round" transform="translate(414.92394209332906 94.5) rotate(0 51.5 17.5)"><path d="M9.06 -1.18 L98.78 2.34 L104.39 5.83 L102.77 30.05 L96.29 33.35 L92.49 33.5 L4.38 33.76 L0.07 28.49 L-1.09 8.99 L1.27 3.56 L7.44 1.39" stroke="none" stroke-width="0" fill="#e9ecef"></path><path d="M8.75 0 M8.75 0 C31.41 -1.65, 55.97 0.39, 94.25 0 M8.75 0 C31.25 0.55, 53.5 0.79, 94.25 0 M94.25 0 C99.65 -1.93, 102.08 4.34, 103 8.75 M94.25 0 C100.95 -0.4, 103.7 1.4, 103 8.75 M103 8.75 C102.4 12.45, 104.32 14.53, 103 26.25 M103 8.75 C102.53 14.44, 102.37 21.5, 103 26.25 M103 26.25 C102.82 31.42, 100.5 34.19, 94.25 35 M103 26.25 C104.25 33.09, 102.3 36.08, 94.25 35 M94.25 35 C66.12 34.79, 37.67 33.79, 8.75 35 M94.25 35 C60.6 34.13, 28.25 35.49, 8.75 35 M8.75 35 C2.9 34.68, -1.61 31.33, 0 26.25 M8.75 35 C1.63 35.41, -1.95 32.75, 0 26.25 M0 26.25 C0.42 22.65, -0.62 17.7, 0 8.75 M0 26.25 C-0.59 21.24, 0.09 17.39, 0 8.75 M0 8.75 C-0.88 2.83, 3.9 0.38, 8.75 0 M0 8.75 C0.74 1.06, 1.02 0.86, 8.75 0" stroke="#1e1e1e" stroke-width="1" fill="none"></path></g><g transform="translate(430.0989413303896 99.5) rotate(0 36.32500076293945 12.5)"><text x="36.32500076293945" y="0" font-family="Virgil, Segoe UI Emoji" font-size="20px" fill="#1e1e1e" text-anchor="middle" style="white-space: pre;" direction="ltr" dominant-baseline="text-before-edge">Finished</text></g><g transform="translate(47.646692799569564 10) rotate(0 79.01667022705078 12.5)"><text x="79.01667022705078" y="0" font-family="Virgil, Segoe UI Emoji" font-size="20px" fill="#1e1e1e" text-anchor="middle" style="white-space: pre;" direction="ltr" dominant-baseline="text-before-edge">All cards played</text></g><g transform="translate(111.0406088871523 346.0000000000009) rotate(0 6.883333206176758 12.5)"><text x="6.883333206176758" y="0" font-family="Virgil, Segoe UI Emoji" font-size="20px" fill="#e03131" text-anchor="middle" style="white-space: pre;" direction="ltr" dominant-baseline="text-before-edge">0</text></g><g transform="translate(236.0406088871523 342.5000000000009) rotate(0 6.883333206176758 12.5)"><text x="6.883333206176758" y="0" font-family="Virgil, Segoe UI Emoji" font-size="20px" fill="#e03131" text-anchor="middle" style="white-space: pre;" direction="ltr" dominant-baseline="text-before-edge">0</text></g><g transform="translate(359.0406088871523 342.5000000000009) rotate(0 6.883333206176758 12.5)"><text x="6.883333206176758" y="0" font-family="Virgil, Segoe UI Emoji" font-size="20px" fill="#e03131" text-anchor="middle" style="white-space: pre;" direction="ltr" dominant-baseline="text-before-edge">0</text></g><g transform="translate(483.0406088871523 341.5000000000009) rotate(0 6.883333206176758 12.5)"><text x="6.883333206176758" y="0" font-family="Virgil, Segoe UI Emoji" font-size="20px" fill="#e03131" text-anchor="middle" style="white-space: pre;" direction="ltr" dominant-baseline="text-before-edge">0</text></g><g stroke-linecap="round" transform="translate(54.439755054185525 359.0013362931404) rotate(0 23.495044539930745 34.174610239899266)"><path d="M11.27 -1.59 L36.9 0.42 L43.13 4.31 L44.94 8 L46.56 58.99 L45.18 61.83 L38.67 65.65 L9.32 67.31 L2.27 65.43 L1.71 62.87 L1.62 10.6 L2.5 1.01 L10.82 1.42" stroke="none" stroke-width="0" fill="#ffc9c9"></path><path d="M11.75 0 M11.75 0 C18.36 -1.96, 28.76 -1.75, 35.24 0 M11.75 0 C17.05 0.53, 24.06 0.26, 35.24 0 M35.24 0 C41.96 -1.76, 45.52 3.49, 46.99 11.75 M35.24 0 C42.87 -0.77, 47.47 2.99, 46.99 11.75 M46.99 11.75 C48.13 28.14, 46.82 43.61, 46.99 56.6 M46.99 11.75 C46.32 25.28, 46.18 36.54, 46.99 56.6 M46.99 56.6 C45.82 63.64, 43.3 70.28, 35.24 68.35 M46.99 56.6 C46.98 64.07, 41.22 67.48, 35.24 68.35 M35.24 68.35 C30.08 67.2, 21.81 67.39, 11.75 68.35 M35.24 68.35 C28.03 67.88, 20.44 69, 11.75 68.35 M11.75 68.35 C2.55 67.47, 0.2 65.33, 0 56.6 M11.75 68.35 C2.9 68.25, 1.14 64.87, 0 56.6 M0 56.6 C1.11 43.69, 2.2 26.06, 0 11.75 M0 56.6 C-0.16 46.4, -0.57 38.01, 0 11.75 M0 11.75 C-1.83 4.6, 5.22 0.12, 11.75 0 M0 11.75 C-1.55 1.72, 5.99 -1.72, 11.75 0" stroke="#1e1e1e" stroke-width="1" fill="none"></path></g><g stroke-linecap="round" transform="translate(180.45863031381418 356.1534521064823) rotate(0 23.495044539930745 34.174610239899266)"><path d="M10.65 0.24 L37.07 1.56 L42.74 4.33 L46.01 6.24 L46.65 57.42 L43.62 61.8 L40.71 66.76 L8.32 68.18 L3.91 66.54 L2.17 63.35 L-0.25 7.06 L2.01 4.36 L12.5 -0.34" stroke="none" stroke-width="0" fill="#ffc9c9"></path><path d="M11.75 0 M11.75 0 C20.66 -1.46, 26.49 0.34, 35.24 0 M11.75 0 C20.51 0.26, 28.56 -1.05, 35.24 0 M35.24 0 C41.6 -0.42, 46.81 3.25, 46.99 11.75 M35.24 0 C43.55 -0.93, 48.24 4.92, 46.99 11.75 M46.99 11.75 C46.83 29.59, 46.85 47.05, 46.99 56.6 M46.99 11.75 C45.96 22.38, 46.12 33.71, 46.99 56.6 M46.99 56.6 C47.22 66.37, 43.06 68.03, 35.24 68.35 M46.99 56.6 C45.13 63.56, 41.79 68.76, 35.24 68.35 M35.24 68.35 C28.21 67.48, 25.4 69.18, 11.75 68.35 M35.24 68.35 C29.21 69.03, 22.6 67.83, 11.75 68.35 M11.75 68.35 C4.11 69.24, -0.88 64.35, 0 56.6 M11.75 68.35 C5.05 68.79, 0.74 62.58, 0 56.6 M0 56.6 C1.67 46.11, -1.81 36.93, 0 11.75 M0 56.6 C-0.52 48.18, -0.83 38.19, 0 11.75 M0 11.75 C1.3 4.04, 2.57 -1.91, 11.75 0 M0 11.75 C2.08 2.19, 3.52 -2.18, 11.75 0" stroke="#1e1e1e" stroke-width="1" fill="none"></path></g><g stroke-linecap="round" transform="translate(307.1894766201076 353.30556791982417) rotate(0 23.495044539930745 34.174610239899266)"><path d="M10.83 1.37 L36.68 1.57 L43.81 2.57 L46.1 4.67 L45.09 57.39 L45.66 62.91 L39.71 67.63 L9.97 69.29 L4.38 67.02 L0.3 59.81 L-0.74 10.42 L3.69 2.59 L12.36 -1.32" stroke="none" stroke-width="0" fill="#ffc9c9"></path><path d="M11.75 0 M11.75 0 C15.78 0.32, 22.8 -1.42, 35.24 0 M11.75 0 C19.87 -0.98, 28.37 -0.31, 35.24 0 M35.24 0 C42.89 -0.67, 47.4 3.11, 46.99 11.75 M35.24 0 C44.33 1.01, 49.2 5, 46.99 11.75 M46.99 11.75 C46.56 26.08, 45.89 39.66, 46.99 56.6 M46.99 11.75 C46.07 28.69, 46.77 47.4, 46.99 56.6 M46.99 56.6 C46.98 64.12, 41.46 67.59, 35.24 68.35 M46.99 56.6 C45.7 64.85, 41.13 69.01, 35.24 68.35 M35.24 68.35 C29.59 69.2, 22.47 68.59, 11.75 68.35 M35.24 68.35 C28.35 68.09, 22.92 68.97, 11.75 68.35 M11.75 68.35 C3.03 68.27, 0.99 64.82, 0 56.6 M11.75 68.35 C4.66 66.49, -1.9 65.3, 0 56.6 M0 56.6 C-2.05 38.52, -2.23 20.36, 0 11.75 M0 56.6 C-0.64 45.38, 0.92 33.54, 0 11.75 M0 11.75 C-1.35 2.01, 5.72 -1.5, 11.75 0 M0 11.75 C-0.39 1.74, 4.6 -0.78, 11.75 0" stroke="#1e1e1e" stroke-width="1" fill="none"></path></g><g stroke-linecap="round" transform="translate(428.22455455308386 350.45768373316514) rotate(0 23.495044539930745 34.174610239899266)"><path d="M10.44 1.39 L37.75 -0.18 L43.9 1 L44.54 4.65 L47.13 58.5 L44.67 63.78 L41.36 68.74 L10.43 69.77 L2.5 63.48 L-0.19 63.16 L0.94 8.65 L3.55 1.62 L9.86 1.14" stroke="none" stroke-width="0" fill="#ffc9c9"></path><path d="M11.75 0 M11.75 0 C18.22 -1.63, 23.29 0.15, 35.24 0 M11.75 0 C19.06 0, 27.76 -0.13, 35.24 0 M35.24 0 C43.49 -0.81, 48.08 4.79, 46.99 11.75 M35.24 0 C45.29 1.08, 47.56 3.49, 46.99 11.75 M46.99 11.75 C45.9 24.12, 48.64 37.46, 46.99 56.6 M46.99 11.75 C46.84 23.7, 46.72 33.56, 46.99 56.6 M46.99 56.6 C45.38 63.68, 41.96 68.71, 35.24 68.35 M46.99 56.6 C45.04 65.1, 41.98 66.09, 35.24 68.35 M35.24 68.35 C28.18 68.79, 22.22 68.36, 11.75 68.35 M35.24 68.35 C26.51 68.69, 17.13 68.21, 11.75 68.35 M11.75 68.35 C4.9 68.73, 0.64 62.82, 0 56.6 M11.75 68.35 C2.02 69.21, 2.29 66.55, 0 56.6 M0 56.6 C-1.45 44.41, -0.48 31.79, 0 11.75 M0 56.6 C1.06 38.92, -0.26 20.16, 0 11.75 M0 11.75 C1.8 2.42, 3.57 -1.89, 11.75 0 M0 11.75 C0.69 3.14, 4.72 1.21, 11.75 0" stroke="#1e1e1e" stroke-width="1" fill="none"></path></g><g stroke-linecap="round"><g transform="translate(415.9331667655372 514.2110244660171) rotate(0 23.441437300489667 -59.929293573002155)"><path d="M-0.09 -1.16 C7.39 -7.49, 38.01 -18.61, 44.73 -38.2 C51.44 -57.79, 41.06 -105.37, 40.21 -118.7" stroke="#1e1e1e" stroke-width="1.5" fill="none" stroke-dasharray="8 9"></path></g><g transform="translate(415.9331667655372 514.2110244660171) rotate(0 23.441437300489667 -59.929293573002155)"><path d="M52.19 -93.83 C48.21 -99.45, 45.32 -108.09, 40.23 -117.72" stroke="#1e1e1e" stroke-width="1.5" fill="none"></path></g><g transform="translate(415.9331667655372 514.2110244660171) rotate(0 23.441437300489667 -59.929293573002155)"><path d="M31.85 -91.11 C33.72 -97.49, 36.68 -106.92, 40.23 -117.72" stroke="#1e1e1e" stroke-width="1.5" fill="none"></path></g></g><mask></mask><g transform="translate(367.765625271893 518.4828507460038) rotate(0 66.86666870117188 25)"><text x="66.86666870117188" y="0" font-family="Virgil, Segoe UI Emoji" font-size="20px" fill="#1e1e1e" text-anchor="middle" style="white-space: pre;" direction="ltr" dominant-baseline="text-before-edge">played card</text><text x="66.86666870117188" y="25" font-family="Virgil, Segoe UI Emoji" font-size="20px" fill="#1e1e1e" text-anchor="middle" style="white-space: pre;" direction="ltr" dominant-baseline="text-before-edge">(hidden value)</text></g></svg>