<svg version="1.1" xmlns="http://www.w3.org/2000/svg" viewBox="0 0 687 590" width="687" height="590">
  <!-- svg-source:excalidraw -->
  
  <defs>
    <style class="style-fonts">
      @font-face {
        font-family: "Virgil";
        src: url("https://excalidraw.com/Virgil.woff2");
      }
      @font-face {
        font-family: "Cascadia";
        src: url("https://excalidraw.com/Cascadia.woff2");
      }
    </style>
    
  </defs>
  <rect x="0" y="0" width="687" height="590" fill="#ffffff"></rect><g stroke-linecap="round" transform="translate(10 46) rotate(0 333.5 267)"><path d="M32 0 M32 0 C256.28 -0.45, 479.45 -1.07, 635 0 M32 0 C198.47 0.58, 364.37 0.39, 635 0 M635 0 C654.57 1.18, 665.35 10.8, 667 32 M635 0 C656.3 0.06, 665.13 8.68, 667 32 M667 32 C665.44 206.79, 665.14 379.15, 667 502 M667 32 C666.36 168.83, 666.94 305.39, 667 502 M667 502 C667.8 522.44, 655.11 533.16, 635 534 M667 502 C668.66 521.21, 658.25 534.85, 635 534 M635 534 C405.8 535.39, 177.41 534.25, 32 534 M635 534 C404.19 532.67, 173.85 532.46, 32 534 M32 534 C12.54 532.38, -1.74 523.92, 0 502 M32 534 C10.6 535.44, -1.17 523.03, 0 502 M0 502 C-0.88 375.32, -0.56 250.66, 0 32 M0 502 C1.02 397.03, 1.07 292.74, 0 32 M0 32 C0.92 12.05, 10.8 -1.43, 32 0 M0 32 C2.2 9.56, 11.85 -1.89, 32 0" stroke="#1e1e1e" stroke-width="1" fill="none"></path></g><g stroke-linecap="round" transform="translate(296 258) rotate(0 52 52)"><path d="M25.17 1.45 L85.02 2.06 L95.6 4.86 L99 10.66 L105.82 26.52 L103.2 84.92 L101.83 93.54 L92.77 100.5 L78.4 102.02 L20.18 103.59 L11.91 100.06 L5.51 93.67 L-1.73 78.01 L-1.6 25.1 L-0.17 13.71 L5.68 5.72 L9.47 3.73 L27.99 1.58" stroke="none" stroke-width="0" fill="#ffc9c9"></path><path d="M26 0 M26 0 C40.36 0.12, 50.94 -0.23, 78 0 M26 0 C36.64 0.56, 49.18 -1.08, 78 0 M78 0 C95.39 -0.07, 104.27 8.55, 104 26 M78 0 C93.68 1.28, 103.62 9.57, 104 26 M104 26 C104.82 45.22, 102.34 60.62, 104 78 M104 26 C104.47 37.66, 104.12 49.8, 104 78 M104 78 C102.56 94.45, 96.12 102.06, 78 104 M104 78 C101.97 95.5, 93.53 105.56, 78 104 M78 104 C63.71 103.54, 47.07 103.76, 26 104 M78 104 C62.47 104.97, 45.82 103.83, 26 104 M26 104 C7.56 102.16, -0.73 97.08, 0 78 M26 104 C8.66 102.74, -1.32 95.25, 0 78 M0 78 C0.72 59.06, 0.49 40.1, 0 26 M0 78 C1.02 66.62, -0.01 53.87, 0 26 M0 26 C-1.52 8.28, 9.02 1.14, 26 0 M0 26 C-0.51 9.04, 10.45 -0.7, 26 0" stroke="#1e1e1e" stroke-width="1" fill="none"></path></g><g transform="translate(324.8500003814697 297.5) rotate(0 23.149999618530273 12.5)"><text x="23.149999618530273" y="0" font-family="Virgil, Segoe UI Emoji" font-size="20px" fill="#1e1e1e" text-anchor="middle" style="white-space: pre;" direction="ltr" dominant-baseline="text-before-edge">Deck</text></g><g stroke-linecap="round" transform="translate(542 65) rotate(0 52 52)"><path d="M26.51 -0.48 L83.13 1.88 L93.18 3.91 L102.22 10.99 L104.79 25.27 L102.38 82.91 L100.47 93.83 L95.39 100.91 L79.16 105.77 L21.36 103.8 L8.36 102.33 L3.03 92.65 L-1.89 79.96 L-0.34 24.44 L-0.08 15.6 L6.74 6.62 L10.81 1.94 L24.53 1.84" stroke="none" stroke-width="0" fill="#a5d8ff"></path><path d="M26 0 M26 0 C46.45 -2.13, 66.45 -0.72, 78 0 M26 0 C37.5 0.34, 48.42 -0.21, 78 0 M78 0 C96.55 -1.1, 105.65 7.86, 104 26 M78 0 C96.78 0.72, 103.09 9.79, 104 26 M104 26 C102.66 47.22, 105.54 66.53, 104 78 M104 26 C103.21 43.12, 103.92 59.28, 104 78 M104 78 C102.92 95.7, 96.31 104.4, 78 104 M104 78 C101.76 94.28, 96.43 105.34, 78 104 M78 104 C64.19 103.01, 45.75 105.29, 26 104 M78 104 C57.76 104.03, 36.47 105.07, 26 104 M26 104 C10.63 104.08, -1.59 97, 0 78 M26 104 C9.47 103.98, 0.75 95.69, 0 78 M0 78 C-1.44 61.22, 1.61 47.56, 0 26 M0 78 C0.57 65.05, -0.48 51.63, 0 26 M0 26 C-1.45 8.09, 8.4 -1.36, 26 0 M0 26 C-1.93 9.16, 7.12 -2.09, 26 0" stroke="#1e1e1e" stroke-width="1" fill="none"></path></g><g transform="translate(568.7000007629395 104.5) rotate(0 25.299999237060547 12.5)"><text x="25.299999237060547" y="0" font-family="Virgil, Segoe UI Emoji" font-size="20px" fill="#1e1e1e" text-anchor="middle" style="white-space: pre;" direction="ltr" dominant-baseline="text-before-edge">Row0</text></g><g stroke-linecap="round" transform="translate(544 192) rotate(0 52 52)"><path d="M27.63 1.39 L85.51 0.99 L93.47 4.95 L99.65 10.64 L103.72 26.59 L104.08 82.56 L99.89 94.17 L95.17 98.98 L76.71 103.1 L21.07 105.17 L10.93 99.38 L3.96 92.29 L-0.72 77.78 L-1.98 26.91 L1.36 15.16 L5.06 5.67 L11.78 1.67 L27.13 -0.04" stroke="none" stroke-width="0" fill="#a5d8ff"></path><path d="M26 0 M26 0 C43.16 0.95, 60.9 -0.45, 78 0 M26 0 C38.11 -0.31, 51.52 -0.17, 78 0 M78 0 C95.18 1.7, 104.01 9.23, 104 26 M78 0 C96.08 -1.45, 106 7.76, 104 26 M104 26 C102.97 45.61, 106.04 61.98, 104 78 M104 26 C104.54 39.05, 104.48 54.3, 104 78 M104 78 C103.71 96.72, 95.01 104.34, 78 104 M104 78 C103.84 93.2, 94.88 103.24, 78 104 M78 104 C59.61 105.3, 43.63 103.56, 26 104 M78 104 C63.37 104.34, 49.49 104.75, 26 104 M26 104 C8.16 104.15, -1.68 96.45, 0 78 M26 104 C10.75 102.55, -2.06 93.67, 0 78 M0 78 C-0.94 59.5, -1.34 42.65, 0 26 M0 78 C-0.65 58.25, 0.06 38.69, 0 26 M0 26 C1.16 7.67, 10.22 -0.1, 26 0 M0 26 C-1.23 10.21, 6.41 -0.82, 26 0" stroke="#1e1e1e" stroke-width="1" fill="none"></path></g><g transform="translate(574.875 231.5) rotate(0 21.125 12.5)"><text x="21.125" y="0" font-family="Virgil, Segoe UI Emoji" font-size="20px" fill="#1e1e1e" text-anchor="middle" style="white-space: pre;" direction="ltr" dominant-baseline="text-before-edge">Row1</text></g><g stroke-linecap="round" transform="translate(544 318) rotate(0 52 52)"><path d="M26.98 -1.77 L84.45 -1.06 L92.19 2.64 L100 11.68 L103.67 25.16 L105.06 82.13 L99.04 95.3 L94.4 100.33 L76.7 103.5 L20.11 102.85 L8.65 100.27 L1.91 95.54 L-1.58 78.31 L1.06 27.14 L-0.02 13.84 L8.01 7.86 L9.86 1.82 L27.02 -1.88" stroke="none" stroke-width="0" fill="#a5d8ff"></path><path d="M26 0 M26 0 C41.21 0.04, 55.23 1.71, 78 0 M26 0 C41.07 -0.88, 58.47 0.11, 78 0 M78 0 C96.11 0.67, 104.06 7.34, 104 26 M78 0 C94.81 -0.67, 105.35 8.8, 104 26 M104 26 C103.56 42.83, 103.93 62.16, 104 78 M104 26 C104.09 47.02, 103.46 66.52, 104 78 M104 78 C103.13 95.17, 96.75 104.03, 78 104 M104 78 C104.87 94.04, 93.51 103.85, 78 104 M78 104 C61.03 104.74, 47 103.68, 26 104 M78 104 C66.62 103.67, 54.25 103.68, 26 104 M26 104 C10.62 102.6, -0.07 96.69, 0 78 M26 104 C10.22 105.91, -2.07 96.35, 0 78 M0 78 C-0.03 64.99, 2.36 49.59, 0 26 M0 78 C-0.33 64.79, -0.01 49.74, 0 26 M0 26 C-0.48 7.11, 10.3 -0.82, 26 0 M0 26 C-1.26 9.36, 8.07 -0.61, 26 0" stroke="#1e1e1e" stroke-width="1" fill="none"></path></g><g transform="translate(570.466667175293 357.5) rotate(0 25.53333282470703 12.5)"><text x="25.53333282470703" y="0" font-family="Virgil, Segoe UI Emoji" font-size="20px" fill="#1e1e1e" text-anchor="middle" style="white-space: pre;" direction="ltr" dominant-baseline="text-before-edge">Row2</text></g><g stroke-linecap="round" transform="translate(545 443) rotate(0 52 52)"><path d="M24.58 -1.87 L83.98 -1.54 L92.53 4.71 L100.47 9.62 L102.16 25.53 L105.21 84.43 L98.6 92.6 L94.68 100.72 L77.17 104.46 L18.13 102.44 L8.26 101.26 L3.85 94.37 L-0.82 78.92 L1.14 27.72 L1.17 14.42 L7.9 6.77 L9.42 5.06 L27.31 1.56" stroke="none" stroke-width="0" fill="#a5d8ff"></path><path d="M26 0 M26 0 C40.53 0.19, 52.97 1.4, 78 0 M26 0 C40.12 -0.51, 55.3 -0.32, 78 0 M78 0 C94.01 1.16, 103.11 7.34, 104 26 M78 0 C95.93 0.39, 102.92 8.04, 104 26 M104 26 C105.03 38.71, 104.38 53.43, 104 78 M104 26 C104.85 39.22, 103.88 52.47, 104 78 M104 78 C102.97 95.86, 96.27 104.15, 78 104 M104 78 C104.49 96.27, 94.35 101.91, 78 104 M78 104 C56.5 103.48, 38.8 104.22, 26 104 M78 104 C63.47 104.5, 49.97 103.53, 26 104 M26 104 C8.17 105.46, 1.24 93.96, 0 78 M26 104 C8.46 102.79, -2.26 97.48, 0 78 M0 78 C-0.07 67.59, -2.2 56.72, 0 26 M0 78 C0.49 63.01, 0.91 49.77, 0 26 M0 26 C0.72 10.03, 9.47 1.86, 26 0 M0 26 C1.14 7.08, 7.23 -1.91, 26 0" stroke="#1e1e1e" stroke-width="1" fill="none"></path></g><g transform="translate(571.7749996185303 482.5) rotate(0 25.225000381469727 12.5)"><text x="25.225000381469727" y="0" font-family="Virgil, Segoe UI Emoji" font-size="20px" fill="#1e1e1e" text-anchor="middle" style="white-space: pre;" direction="ltr" dominant-baseline="text-before-edge">Row3</text></g><g transform="translate(36 59) rotate(0 26.358333587646484 12.5)"><text x="0" y="0" font-family="Virgil, Segoe UI Emoji" font-size="20px" fill="#1e1e1e" text-anchor="start" style="white-space: pre;" direction="ltr" dominant-baseline="text-before-edge">Game</text></g><g stroke-linecap="round" transform="translate(35 273) rotate(0 52 52)"><path d="M6.26 6.77 C6.26 6.77, 6.26 6.77, 6.26 6.77 M6.26 6.77 C6.26 6.77, 6.26 6.77, 6.26 6.77 M3.38 16.19 C5.72 14.29, 6.76 12.46, 12.56 5.62 M3.38 16.19 C5.79 13.59, 8.04 11.21, 12.56 5.62 M-0.16 26.36 C6.05 20.35, 8.93 15.24, 18.86 4.47 M-0.16 26.36 C3.25 21, 8.04 16.11, 18.86 4.47 M0.23 32 C6.89 24.26, 16.61 12.51, 27.13 1.06 M0.23 32 C9.67 20.18, 19.45 10.04, 27.13 1.06 M-0.03 38.4 C8.63 28.25, 14.36 20.77, 32.12 1.42 M-0.03 38.4 C10.32 26.53, 19.24 17.22, 32.12 1.42 M0.36 44.04 C17.08 27.75, 28.51 10, 37.76 1.02 M0.36 44.04 C10.99 30.24, 22.47 17.36, 37.76 1.02 M0.1 50.44 C16.65 30.68, 34.09 11.57, 42.75 1.38 M0.1 50.44 C10.67 37.68, 23.79 23.9, 42.75 1.38 M-0.16 56.84 C9.76 46.11, 18.67 32.75, 48.39 0.99 M-0.16 56.84 C9.68 45.67, 19.28 34.67, 48.39 0.99 M0.24 62.48 C21.66 37.58, 42.18 12.48, 53.38 1.35 M0.24 62.48 C18 42.16, 36.56 19.48, 53.38 1.35 M-0.02 68.88 C16.92 48.19, 31.39 29.63, 59.02 0.96 M-0.02 68.88 C24.11 42.26, 47.19 14.18, 59.02 0.96 M0.37 74.52 C16.43 54.97, 32.14 37.17, 64.01 1.32 M0.37 74.52 C14.71 56.2, 30.88 39.75, 64.01 1.32 M1.42 79.41 C18.68 58.24, 38.66 39.22, 68.99 1.68 M1.42 79.41 C25.65 52.25, 50.57 23.43, 68.99 1.68 M2.47 84.3 C20.14 62.53, 37.15 44.95, 74.64 1.28 M2.47 84.3 C16.4 67.27, 31.33 49.25, 74.64 1.28 M3.52 89.19 C18.51 68.34, 36.79 52.3, 79.62 1.64 M3.52 89.19 C31.9 54.11, 61.61 19.88, 79.62 1.64 M4.57 94.08 C35.64 58.88, 63.05 26.54, 85.27 1.25 M4.57 94.08 C21.51 76.09, 38.7 54.69, 85.27 1.25 M6.94 97.45 C29.76 71.26, 51.86 47.1, 89.6 2.36 M6.94 97.45 C31.43 67.69, 57.03 39.4, 89.6 2.36 M9.95 100.08 C31.49 79.22, 51.07 52.66, 93.27 4.23 M9.95 100.08 C41.87 63.7, 72.78 27.79, 93.27 4.23 M12.97 102.7 C42.86 71.26, 70.97 35.68, 96.95 6.1 M12.97 102.7 C43.67 65.86, 73.72 30.68, 96.95 6.1 M17.3 103.82 C42.49 76.61, 66.1 49.03, 99.97 8.72 M17.3 103.82 C40.27 77.51, 64.34 49.01, 99.97 8.72 M21.63 104.93 C46.84 76.9, 69.59 45.98, 102.33 12.1 M21.63 104.93 C49.69 73.61, 77.72 40.57, 102.33 12.1 M26.62 105.29 C54.6 72.1, 84.45 36.09, 103.38 16.99 M26.62 105.29 C52.46 75.93, 78.74 44.74, 103.38 16.99 M32.26 104.9 C57.7 75.11, 85.82 39.76, 104.43 21.88 M32.26 104.9 C50.01 85.04, 68.19 64.47, 104.43 21.88 M37.25 105.26 C57.28 80.47, 76.16 57.96, 105.48 26.77 M37.25 105.26 C63.72 75.24, 91.17 45.22, 105.48 26.77 M42.89 104.86 C60.71 83.73, 80.93 61.4, 105.22 33.17 M42.89 104.86 C54.5 89.05, 68.9 73.7, 105.22 33.17 M47.88 105.22 C63.42 84.51, 79.24 69.16, 104.96 39.56 M47.88 105.22 C63.83 87.77, 77.86 71.94, 104.96 39.56 M52.87 105.58 C63.18 94.29, 75.46 79.13, 105.35 45.21 M52.87 105.58 C72.14 82.51, 92.41 60.62, 105.35 45.21 M58.51 105.19 C75.67 86.64, 91.8 68.63, 105.09 51.6 M58.51 105.19 C69.51 92.32, 81.37 78.79, 105.09 51.6 M63.5 105.55 C76.37 87.66, 91 73.78, 104.83 58 M63.5 105.55 C73.51 93.19, 83.68 83.01, 104.83 58 M69.14 105.15 C79.07 90.55, 90.75 81.13, 105.23 63.65 M69.14 105.15 C78.33 94.13, 87.92 81.78, 105.23 63.65 M74.13 105.51 C83.97 95.47, 92.81 81.78, 104.96 70.04 M74.13 105.51 C84.54 94.9, 94.19 83.38, 104.96 70.04 M79.77 105.12 C90.63 94.2, 99.4 84.94, 104.7 76.44 M79.77 105.12 C86.12 97.79, 93.39 89.83, 104.7 76.44 M86.07 103.97 C90.62 99.48, 94.94 94.23, 105.1 82.08 M86.07 103.97 C89.8 100.33, 94.07 95.1, 105.1 82.08 M94.34 100.56 C98.93 94.09, 102.12 89.54, 106.15 86.97 M94.34 100.56 C99.06 96.17, 102.38 91.26, 106.15 86.97" stroke="#b2f2bb" stroke-width="0.5" fill="none"></path><path d="M26 0 M26 0 C41.14 -1.44, 59.32 0.33, 78 0 M26 0 C37.96 0.7, 50.67 0.05, 78 0 M78 0 C96.11 -0.49, 104.82 8.6, 104 26 M78 0 C93.38 -1.77, 102.22 6.38, 104 26 M104 26 C103.65 42.43, 103.57 59.33, 104 78 M104 26 C104.37 41.74, 104.86 59.67, 104 78 M104 78 C103.55 95.8, 96.71 103.12, 78 104 M104 78 C102.15 94.37, 94.44 106.27, 78 104 M78 104 C59.84 103.9, 41.6 103.14, 26 104 M78 104 C57.63 104.99, 37.35 104.06, 26 104 M26 104 C8.91 103.51, -1.68 96.15, 0 78 M26 104 C9.49 105.55, -1.1 93.52, 0 78 M0 78 C0.22 67.66, 0.98 55.19, 0 26 M0 78 C-0.31 66.68, -1.03 55.93, 0 26 M0 26 C0.19 8.9, 8.88 -1.96, 26 0 M0 26 C-2.02 10.17, 6.89 -1.48, 26 0" stroke="#1e1e1e" stroke-width="1" fill="none"></path></g><g stroke-linecap="round" transform="translate(26 210) rotate(0 61 120)"><path d="M30.5 0 M30.5 0 C46.1 -0.52, 59.8 -1.77, 91.5 0 M30.5 0 C47.25 0.85, 64.63 0.3, 91.5 0 M91.5 0 C113.19 1.12, 123.03 8.19, 122 30.5 M91.5 0 C111.31 -1.52, 120.44 9.94, 122 30.5 M122 30.5 C124 90.31, 123.67 147.21, 122 209.5 M122 30.5 C120.85 97.47, 120.45 165.09, 122 209.5 M122 209.5 C122.02 229.1, 112.48 240.72, 91.5 240 M122 209.5 C123.61 229.63, 113.52 239.39, 91.5 240 M91.5 240 C75.35 239.46, 60.79 239.55, 30.5 240 M91.5 240 C74.34 240.13, 58.82 239.53, 30.5 240 M30.5 240 C9.23 240.47, -1.03 231.82, 0 209.5 M30.5 240 C11.54 240.81, 2.05 231.26, 0 209.5 M0 209.5 C-3.24 157.52, -3.01 102.08, 0 30.5 M0 209.5 C1.36 138.71, 0.28 66.54, 0 30.5 M0 30.5 C0.44 11.58, 9.02 -1.51, 30.5 0 M0 30.5 C-1.76 9.17, 12.06 -0.86, 30.5 0" stroke="#1e1e1e" stroke-width="1" fill="none"></path></g><g transform="translate(46 234) rotate(0 35.79999923706055 12.5)"><text x="0" y="0" font-family="Virgil, Segoe UI Emoji" font-size="20px" fill="#1e1e1e" text-anchor="start" style="white-space: pre;" direction="ltr" dominant-baseline="text-before-edge">Players</text></g><g stroke-linecap="round" transform="translate(36 290) rotate(0 52 52)"><path d="M6.26 6.77 C6.26 6.77, 6.26 6.77, 6.26 6.77 M6.26 6.77 C6.26 6.77, 6.26 6.77, 6.26 6.77 M3.38 16.19 C5.15 13.7, 9.02 8.95, 12.56 5.62 M3.38 16.19 C6.31 12.46, 9.77 8, 12.56 5.62 M-0.16 26.36 C4.91 18.83, 11.21 14.44, 18.86 4.47 M-0.16 26.36 C7.35 17.66, 14 10.82, 18.86 4.47 M0.23 32 C9.4 19.99, 20.12 11.59, 27.13 1.06 M0.23 32 C10.6 20.27, 20.01 8.44, 27.13 1.06 M-0.03 38.4 C11.35 29.45, 18.99 18.71, 32.12 1.42 M-0.03 38.4 C13.04 23.85, 24.96 10.2, 32.12 1.42 M0.36 44.04 C9.84 31.12, 21.32 19.64, 37.76 1.02 M0.36 44.04 C9.76 33.4, 18.52 24.18, 37.76 1.02 M0.1 50.44 C13.16 34.51, 23.57 21.52, 42.75 1.38 M0.1 50.44 C9.32 39.73, 18.33 29.79, 42.75 1.38 M-0.16 56.84 C13.36 41.4, 24.33 29.11, 48.39 0.99 M-0.16 56.84 C18.33 34.39, 37.09 11.58, 48.39 0.99 M0.24 62.48 C17.1 44.5, 30.56 25.98, 53.38 1.35 M0.24 62.48 C13.15 47.87, 26.49 32.63, 53.38 1.35 M-0.02 68.88 C21.18 43.62, 44.69 17.32, 59.02 0.96 M-0.02 68.88 C21.81 43.46, 45.91 17.04, 59.02 0.96 M0.37 74.52 C15.11 60.42, 29.01 44.72, 64.01 1.32 M0.37 74.52 C12.49 60.98, 26.01 44.56, 64.01 1.32 M1.42 79.41 C22.72 55.92, 44.28 32.56, 68.99 1.68 M1.42 79.41 C27.21 49.61, 51.06 21.79, 68.99 1.68 M2.47 84.3 C21.21 62.82, 37.69 43.22, 74.64 1.28 M2.47 84.3 C24.84 59.7, 47.34 33.4, 74.64 1.28 M3.52 89.19 C19.06 72.43, 35.27 52.3, 79.62 1.64 M3.52 89.19 C22.61 66.81, 41.12 46.53, 79.62 1.64 M4.57 94.08 C32.64 64.13, 58.5 33.81, 85.27 1.25 M4.57 94.08 C33.54 62.08, 61.58 31.42, 85.27 1.25 M6.94 97.45 C28.33 73.54, 50.58 47.85, 89.6 2.36 M6.94 97.45 C34.47 65.38, 62.57 34.14, 89.6 2.36 M9.95 100.08 C30.84 75.86, 53.86 49.1, 93.27 4.23 M9.95 100.08 C44.6 61.04, 75.86 24.2, 93.27 4.23 M12.97 102.7 C39.93 67.58, 70.12 34.28, 96.95 6.1 M12.97 102.7 C35.52 76.83, 56.95 49.68, 96.95 6.1 M17.3 103.82 C44 72.03, 71.34 43.96, 99.97 8.72 M17.3 103.82 C42.14 76.35, 67.24 46.53, 99.97 8.72 M21.63 104.93 C46.81 75.95, 70.68 46.64, 102.33 12.1 M21.63 104.93 C47.72 73.6, 74.14 42.42, 102.33 12.1 M26.62 105.29 C52.51 72.73, 79.28 44.55, 103.38 16.99 M26.62 105.29 C55.86 70.94, 87.02 35.95, 103.38 16.99 M32.26 104.9 C58.21 78.78, 81.34 50.91, 104.43 21.88 M32.26 104.9 C55.55 78.15, 79.55 50.56, 104.43 21.88 M37.25 105.26 C50.14 87.25, 66.04 70.38, 105.48 26.77 M37.25 105.26 C60.57 77.82, 84.92 48.24, 105.48 26.77 M42.89 104.86 C64.76 77.75, 91.77 49.86, 105.22 33.17 M42.89 104.86 C58.77 84.82, 75.94 64.91, 105.22 33.17 M47.88 105.22 C67.42 81.52, 88.37 56.52, 104.96 39.56 M47.88 105.22 C70.66 78.56, 91.38 54.97, 104.96 39.56 M52.87 105.58 C67.48 85.72, 83.98 68.21, 105.35 45.21 M52.87 105.58 C70.86 86.12, 87.55 65.82, 105.35 45.21 M58.51 105.19 C69.77 91.95, 79.45 76.19, 105.09 51.6 M58.51 105.19 C68.16 92.77, 79.56 80.61, 105.09 51.6 M63.5 105.55 C78.87 87.41, 95.95 70.82, 104.83 58 M63.5 105.55 C73.26 93.83, 84.36 80.64, 104.83 58 M69.14 105.15 C79.79 92.03, 91.85 81.16, 105.23 63.65 M69.14 105.15 C79.77 93.17, 91.07 79.87, 105.23 63.65 M74.13 105.51 C86.93 91.16, 94.64 80.55, 104.96 70.04 M74.13 105.51 C85.9 91.49, 97.95 77.31, 104.96 70.04 M79.77 105.12 C86.09 100.23, 90.19 91.75, 104.7 76.44 M79.77 105.12 C84.69 97.72, 91.51 93.14, 104.7 76.44 M86.07 103.97 C94.26 96.36, 101.5 84.85, 105.1 82.08 M86.07 103.97 C90.98 98.6, 94.89 93.5, 105.1 82.08 M94.34 100.56 C99.62 95.43, 104.71 89.72, 106.15 86.97 M94.34 100.56 C97.38 97, 100.64 92.59, 106.15 86.97" stroke="#b2f2bb" stroke-width="0.5" fill="none"></path><path d="M26 0 M26 0 C44.66 0.89, 61.94 -0.73, 78 0 M26 0 C40.37 -0.7, 56.28 -0.6, 78 0 M78 0 C94.65 -1.06, 103.09 8.62, 104 26 M78 0 C93.79 -1.83, 105.99 9.31, 104 26 M104 26 C103.92 41.64, 104.87 53.86, 104 78 M104 26 C103.94 44.16, 102.93 63.88, 104 78 M104 78 C104.49 96.52, 93.45 104.69, 78 104 M104 78 C103.92 95.55, 95.54 103.18, 78 104 M78 104 C65.69 103.37, 51.27 103.76, 26 104 M78 104 C65.42 104.45, 52.68 104.09, 26 104 M26 104 C10.47 103.33, 0.8 95.33, 0 78 M26 104 C6.53 105.61, -2.09 97.6, 0 78 M0 78 C-1.66 63.77, -0.63 46.22, 0 26 M0 78 C0.26 67.41, -0.32 55.89, 0 26 M0 26 C-1.21 9.86, 8.68 -0.99, 26 0 M0 26 C0.8 6.75, 9.63 -0.19, 26 0" stroke="#1e1e1e" stroke-width="1" fill="none"></path></g><g stroke-linecap="round" transform="translate(36 306) rotate(0 52 52)"><path d="M6.26 6.77 C6.26 6.77, 6.26 6.77, 6.26 6.77 M6.26 6.77 C6.26 6.77, 6.26 6.77, 6.26 6.77 M3.38 16.19 C6.49 13.09, 8.94 9.06, 12.56 5.62 M3.38 16.19 C4.92 14.1, 7.44 11.32, 12.56 5.62 M-0.16 26.36 C2.99 20.78, 8.57 16.95, 18.86 4.47 M-0.16 26.36 C5.63 20.4, 12.14 13.59, 18.86 4.47 M0.23 32 C11.54 21.14, 21.06 8.72, 27.13 1.06 M0.23 32 C9 22.92, 15.97 13.6, 27.13 1.06 M-0.03 38.4 C8.89 25.92, 20.46 13.59, 32.12 1.42 M-0.03 38.4 C13.1 24.82, 24.82 9.65, 32.12 1.42 M0.36 44.04 C15.07 26.86, 27.72 10.18, 37.76 1.02 M0.36 44.04 C9.51 32.39, 19.32 22.04, 37.76 1.02 M0.1 50.44 C15.86 32.6, 29.01 15.56, 42.75 1.38 M0.1 50.44 C13.74 34.52, 27.49 19.29, 42.75 1.38 M-0.16 56.84 C15.08 41.12, 25.14 25.66, 48.39 0.99 M-0.16 56.84 C16.79 39.38, 33.16 20.74, 48.39 0.99 M0.24 62.48 C12.95 46.33, 27.86 27.99, 53.38 1.35 M0.24 62.48 C17.65 42.32, 34.45 21.91, 53.38 1.35 M-0.02 68.88 C12.72 56.79, 23.17 42.28, 59.02 0.96 M-0.02 68.88 C13.05 54.53, 26.08 38.38, 59.02 0.96 M0.37 74.52 C13.46 57.51, 25.75 44.97, 64.01 1.32 M0.37 74.52 C23.47 46.59, 46.35 20.25, 64.01 1.32 M1.42 79.41 C16.53 60.24, 34.05 41.65, 68.99 1.68 M1.42 79.41 C24.17 53.59, 45.69 27.81, 68.99 1.68 M2.47 84.3 C27.41 56.85, 51.22 28.47, 74.64 1.28 M2.47 84.3 C26.3 58.77, 47.47 31.74, 74.64 1.28 M3.52 89.19 C21.14 65.45, 42.24 44.8, 79.62 1.64 M3.52 89.19 C25.02 63.01, 47.55 38.21, 79.62 1.64 M4.57 94.08 C35.28 60.52, 64.47 25.3, 85.27 1.25 M4.57 94.08 C35.39 59.03, 65.23 22.49, 85.27 1.25 M6.94 97.45 C40.14 60.45, 69.3 25.79, 89.6 2.36 M6.94 97.45 C28.31 73.33, 48.39 48.83, 89.6 2.36 M9.95 100.08 C32.56 71.9, 58.13 46.46, 93.27 4.23 M9.95 100.08 C34.56 70.73, 60.11 40.39, 93.27 4.23 M12.97 102.7 C45.55 68.28, 77.73 32.09, 96.95 6.1 M12.97 102.7 C31.51 81.25, 51.48 60.94, 96.95 6.1 M17.3 103.82 C47.34 67.14, 82.15 29.91, 99.97 8.72 M17.3 103.82 C46.45 70.73, 74.45 37.74, 99.97 8.72 M21.63 104.93 C44.91 76.86, 69.44 48.37, 102.33 12.1 M21.63 104.93 C44.64 79.24, 68.54 52.01, 102.33 12.1 M26.62 105.29 C46 83.48, 68.57 60.42, 103.38 16.99 M26.62 105.29 C49.74 80.82, 71.3 54.45, 103.38 16.99 M32.26 104.9 C46.85 87.35, 63.79 68.03, 104.43 21.88 M32.26 104.9 C61.06 71.76, 88.66 37.87, 104.43 21.88 M37.25 105.26 C51.49 86.94, 68.56 71.47, 105.48 26.77 M37.25 105.26 C53.56 87.1, 71.3 67.92, 105.48 26.77 M42.89 104.86 C57.49 87.9, 74.91 69.18, 105.22 33.17 M42.89 104.86 C56.13 88.35, 70.58 72.05, 105.22 33.17 M47.88 105.22 C58.46 93.29, 72.92 78.95, 104.96 39.56 M47.88 105.22 C62.16 88.98, 77.91 71.87, 104.96 39.56 M52.87 105.58 C75.59 82.19, 94.72 59.03, 105.35 45.21 M52.87 105.58 C65.56 91.54, 78.21 75.8, 105.35 45.21 M58.51 105.19 C74.02 85.43, 92.29 69.29, 105.09 51.6 M58.51 105.19 C71.27 88.93, 86.49 73.87, 105.09 51.6 M63.5 105.55 C72.66 94.87, 83.31 80.1, 104.83 58 M63.5 105.55 C75.55 91.65, 87.65 77.76, 104.83 58 M69.14 105.15 C76.8 97.21, 82.39 90.12, 105.23 63.65 M69.14 105.15 C79.64 94.11, 88.51 83.02, 105.23 63.65 M74.13 105.51 C82.09 96.24, 90.4 86.62, 104.96 70.04 M74.13 105.51 C86.43 93.07, 98.91 78.58, 104.96 70.04 M79.77 105.12 C86.83 95.53, 94.03 90, 104.7 76.44 M79.77 105.12 C87.91 94.04, 98.2 84.32, 104.7 76.44 M86.07 103.97 C92.86 100.34, 94.01 93.08, 105.1 82.08 M86.07 103.97 C91.22 96.36, 98.72 90.34, 105.1 82.08 M94.34 100.56 C99.27 97.56, 103.17 90.98, 106.15 86.97 M94.34 100.56 C98.14 95.46, 102.85 90.56, 106.15 86.97" stroke="#b2f2bb" stroke-width="0.5" fill="none"></path><path d="M26 0 M26 0 C39.32 1.39, 56.09 -0.44, 78 0 M26 0 C41.02 0.25, 56.56 0.12, 78 0 M78 0 C94.27 -1.69, 104.98 7.19, 104 26 M78 0 C94.55 -1.21, 102.95 8.61, 104 26 M104 26 C104.14 37.47, 104.6 48.26, 104 78 M104 26 C104.47 41.27, 103.52 54.69, 104 78 M104 78 C104.86 94.65, 94.17 105.77, 78 104 M104 78 C104.57 96.7, 93.16 104.8, 78 104 M78 104 C61.86 103.19, 45.44 105.28, 26 104 M78 104 C59.39 103.51, 41.12 103.19, 26 104 M26 104 C9.6 105.75, 1.53 96.35, 0 78 M26 104 C10.75 103.23, 0.92 95.33, 0 78 M0 78 C1.61 67.2, -1.26 57.88, 0 26 M0 78 C-0.68 66.37, -1.27 57.48, 0 26 M0 26 C-0.45 8.89, 7.08 -1.43, 26 0 M0 26 C-1.39 10.04, 8.68 -1.14, 26 0" stroke="#1e1e1e" stroke-width="1" fill="none"></path></g><g stroke-linecap="round" transform="translate(36 324) rotate(0 52 52)"><path d="M24.88 -0.15 L84.76 1.15 L92.89 5.55 L101.54 10.11 L105.62 26.02 L102.71 85.76 L100.04 92.89 L95.37 99.29 L79.89 104.8 L17.98 102.42 L8.52 98.39 L2.58 94.17 L-1.2 78.52 L0.79 26.43 L0.05 15.56 L7.39 6.56 L10.13 4.64 L25 -1.85" stroke="none" stroke-width="0" fill="#b2f2bb"></path><path d="M26 0 M26 0 C42.5 1.69, 55.36 1.1, 78 0 M26 0 C38.96 -0.15, 52.99 0.41, 78 0 M78 0 C94.72 -1.78, 104.15 6.86, 104 26 M78 0 C96.03 1.38, 104.91 10.42, 104 26 M104 26 C103.75 42.25, 104.09 56.19, 104 78 M104 26 C104.08 44.21, 104.04 63.54, 104 78 M104 78 C103.55 94.43, 95.95 102.8, 78 104 M104 78 C103.73 96.45, 94.45 105.5, 78 104 M78 104 C65.48 105.56, 54.42 104.62, 26 104 M78 104 C57.82 103.56, 36.82 103.97, 26 104 M26 104 C10 102.12, -1.59 95.93, 0 78 M26 104 C9.94 102.09, 1.47 95.39, 0 78 M0 78 C-1.44 63.81, 0.33 44.53, 0 26 M0 78 C0.7 58.63, 0.05 38.78, 0 26 M0 26 C-0.49 9.49, 8.6 -1.7, 26 0 M0 26 C-1.77 6.88, 6.38 0.57, 26 0" stroke="#1e1e1e" stroke-width="1" fill="none"></path></g><g transform="translate(57.63333320617676 363.5) rotate(0 30.366666793823242 12.5)"><text x="30.366666793823242" y="0" font-family="Virgil, Segoe UI Emoji" font-size="20px" fill="#1e1e1e" text-anchor="middle" style="white-space: pre;" direction="ltr" dominant-baseline="text-before-edge">Player</text></g><g stroke-linecap="round" transform="translate(159 54) rotate(0 184.5 44.5)"><path d="M21.25 -0.67 L351.7 -1.64 L362.2 6.63 L369.45 13.68 L367.82 20.92 L369.27 71.65 L361.53 83.58 L355.49 87.44 L345.75 87.49 L15.49 90.49 L7.07 85.1 L2.34 78.37 L1.14 65.35 L-1.01 20.4 L0.29 13.71 L7.21 6.33 L11.88 -0.28 L22.73 1.83" stroke="none" stroke-width="0" fill="#ffec99"></path><path d="M22.25 0 M22.25 0 C130.7 0.66, 237.52 1.59, 346.75 0 M22.25 0 C145.7 2.25, 267.57 1.94, 346.75 0 M346.75 0 C363.35 1.55, 370.07 7.48, 369 22.25 M346.75 0 C361.32 1.5, 368.18 8.38, 369 22.25 M369 22.25 C370.66 38.34, 369.24 52.58, 369 66.75 M369 22.25 C368.53 31, 368.33 40.33, 369 66.75 M369 66.75 C370.07 81.78, 361.3 90.38, 346.75 89 M369 66.75 C369.32 83.27, 359.98 90.37, 346.75 89 M346.75 89 C242.17 88.06, 140.68 87.17, 22.25 89 M346.75 89 C245.18 88.27, 143.67 88.34, 22.25 89 M22.25 89 C6.59 90.65, -0.1 80.69, 0 66.75 M22.25 89 C8.53 87.04, 0.07 82.37, 0 66.75 M0 66.75 C-1.56 49.62, -0.28 33.41, 0 22.25 M0 66.75 C-0.93 55.82, -0.74 46.68, 0 22.25 M0 22.25 C-0.49 8.04, 6.37 -1.06, 22.25 0 M0 22.25 C0.97 9.31, 5.32 0.56, 22.25 0" stroke="#1e1e1e" stroke-width="1" fill="none"></path></g><g transform="translate(313.9833335876465 59) rotate(0 29.516666412353516 12.5)"><text x="29.516666412353516" y="0" font-family="Virgil, Segoe UI Emoji" font-size="20px" fill="#1e1e1e" text-anchor="middle" style="white-space: pre;" direction="ltr" dominant-baseline="text-before-edge">State</text></g><g stroke-linecap="round" transform="translate(172 99) rotate(0 51.5 17.5)"><path d="M10.12 0.36 L96.45 1.18 L102.4 5.74 L103.57 31.54 L98.84 33.5 L92.77 35.05 L6.7 35.46 L-0.9 28.67 L0.49 10.39 L1.93 3.45 L8.69 -1.15" stroke="none" stroke-width="0" fill="#e9ecef"></path><path d="M8.75 0 M8.75 0 C38.7 0.85, 71.14 1.38, 94.25 0 M8.75 0 C41.32 0.04, 71.38 1.03, 94.25 0 M94.25 0 C99.36 -0.79, 103.16 2.9, 103 8.75 M94.25 0 C101.75 -0.42, 101.65 4.17, 103 8.75 M103 8.75 C101.62 13.52, 101.17 16.79, 103 26.25 M103 8.75 C102.99 13.65, 102.91 19.96, 103 26.25 M103 26.25 C101.1 30.55, 100.45 33.46, 94.25 35 M103 26.25 C102.87 30.23, 99.9 33.03, 94.25 35 M94.25 35 C76.28 34.14, 57.22 36.3, 8.75 35 M94.25 35 C62.91 35.58, 32.58 35.52, 8.75 35 M8.75 35 C1.11 35.54, -1.23 33.67, 0 26.25 M8.75 35 C1.83 34.5, -1 33.47, 0 26.25 M0 26.25 C0.53 19.71, -1.58 15.18, 0 8.75 M0 26.25 C0.44 19.37, 0.75 12.93, 0 8.75 M0 8.75 C1.97 3.57, 3.17 -0.03, 8.75 0 M0 8.75 C0.07 3.34, 5.06 -1.36, 8.75 0" stroke="#1e1e1e" stroke-width="1" fill="none"></path></g><g transform="translate(189.20000076293945 104) rotate(0 34.29999923706055 12.5)"><text x="34.29999923706055" y="0" font-family="Virgil, Segoe UI Emoji" font-size="20px" fill="#1e1e1e" text-anchor="middle" style="white-space: pre;" direction="ltr" dominant-baseline="text-before-edge">Pending</text></g><g stroke-linecap="round" transform="translate(293.5 98.5) rotate(0 51.5 17.5)"><path d="M8.53 -0.65 L98.57 -0.56 L103.31 3.44 L104.44 31.06 L99.34 33.04 L95.43 34.25 L5.29 33.05 L-0.99 32.06 L-0.91 9.32 L0.95 3.62 L10.61 -0.48" stroke="none" stroke-width="0" fill="#b2f2bb"></path><path d="M8.75 0 M8.75 0 C42.31 -0.68, 72.45 -0.48, 94.25 0 M8.75 0 C40.06 0.2, 69.13 -0.84, 94.25 0 M94.25 0 C101.81 -1.3, 101.86 3.27, 103 8.75 M94.25 0 C98.8 1.45, 101.08 2.69, 103 8.75 M103 8.75 C103.72 15.47, 104.62 20.27, 103 26.25 M103 8.75 C103.82 12.89, 102.49 19.01, 103 26.25 M103 26.25 C104.94 30.17, 101.19 36.02, 94.25 35 M103 26.25 C100.84 31.61, 101.43 34.02, 94.25 35 M94.25 35 C62.59 34.66, 28.08 35.66, 8.75 35 M94.25 35 C75.16 34.63, 57.86 34.78, 8.75 35 M8.75 35 C2.72 33.75, 0.13 32.48, 0 26.25 M8.75 35 C3.21 33.41, 1.6 31.33, 0 26.25 M0 26.25 C-1.51 22.72, -0.95 16.89, 0 8.75 M0 26.25 C0.02 19.69, 0.42 13.93, 0 8.75 M0 8.75 C1.63 4.83, 2.76 1.98, 8.75 0 M0 8.75 C0.63 2.16, 4.59 0.03, 8.75 0" stroke="#2f9e44" stroke-width="1" fill="none"></path></g><g transform="translate(314.88333320617676 103.5) rotate(0 30.116666793823242 12.5)"><text x="30.116666793823242" y="0" font-family="Virgil, Segoe UI Emoji" font-size="20px" fill="#2f9e44" text-anchor="middle" style="white-space: pre;" direction="ltr" dominant-baseline="text-before-edge">Active</text></g><g stroke-linecap="round" transform="translate(413.5 97.5) rotate(0 51.5 17.5)"><path d="M9.31 -1.63 L99.89 0.83 L102.08 4.65 L102.01 31.11 L96.97 33.96 L95.92 36.53 L4.51 33.08 L-0.54 29.55 L1.47 8.76 L1.74 1.68 L9.6 -1.46" stroke="none" stroke-width="0" fill="#e9ecef"></path><path d="M8.75 0 M8.75 0 C30.93 -0.42, 54.18 -0.32, 94.25 0 M8.75 0 C28.16 -0.77, 46.38 0.2, 94.25 0 M94.25 0 C101.86 0.75, 101.78 4.35, 103 8.75 M94.25 0 C99.68 -0.93, 102.39 5.05, 103 8.75 M103 8.75 C102.98 12.8, 103.04 17.5, 103 26.25 M103 8.75 C103.32 14.4, 103.12 19.6, 103 26.25 M103 26.25 C104.61 31.99, 101.73 34.09, 94.25 35 M103 26.25 C100.85 32.98, 98.84 36.87, 94.25 35 M94.25 35 C66.43 34.41, 35.72 32.55, 8.75 35 M94.25 35 C71.9 34.46, 51.47 34.91, 8.75 35 M8.75 35 C4.45 34.5, 0.54 32.12, 0 26.25 M8.75 35 C1.28 33.91, -0.3 33.85, 0 26.25 M0 26.25 C0.23 21.45, 0.37 11.86, 0 8.75 M0 26.25 C-0.68 20.15, -0.72 11.69, 0 8.75 M0 8.75 C-1.1 4.07, 0.97 -0.49, 8.75 0 M0 8.75 C0.74 2.93, 3.44 1.79, 8.75 0" stroke="#1e1e1e" stroke-width="1" fill="none"></path></g><g transform="translate(428.67499923706055 102.5) rotate(0 36.32500076293945 12.5)"><text x="36.32500076293945" y="0" font-family="Virgil, Segoe UI Emoji" font-size="20px" fill="#1e1e1e" text-anchor="middle" style="white-space: pre;" direction="ltr" dominant-baseline="text-before-edge">Finished</text></g><g mask="url(#mask-UELaN-8Jfu9SJkG2aiE8E)" stroke-linecap="round"><g transform="translate(400.3803887736333 312.9307297373191) rotate(0 71.16369424413892 29.201266980059415)"><path d="M-0.44 0.94 C22.96 10.58, 116.68 48.8, 140.38 58.02 M1.54 0.38 C25.33 9.69, 119.46 46.96, 142.76 56.43" stroke="#1e1e1e" stroke-width="1" fill="none"></path></g><g transform="translate(400.3803887736333 312.9307297373191) rotate(0 71.16369424413892 29.201266980059415)"><path d="M114.34 54.45 C123.44 57.13, 129.5 54.43, 144.59 55.39 M112.33 54.64 C119.32 56.06, 126.69 56.18, 143.13 56.04" stroke="#1e1e1e" stroke-width="1" fill="none"></path></g><g transform="translate(400.3803887736333 312.9307297373191) rotate(0 71.16369424413892 29.201266980059415)"><path d="M121.97 35.39 C128.81 43.74, 132.6 46.73, 144.59 55.39 M119.96 35.59 C124.99 41.37, 130.59 45.92, 143.13 56.04" stroke="#1e1e1e" stroke-width="1" fill="none"></path></g></g><mask id="mask-UELaN-8Jfu9SJkG2aiE8E"><rect x="0" y="0" fill="#fff" width="641.3803887736333" height="469.9307297373191"></rect><rect x="468.1720555197728" y="328.9307297373191" fill="#000" width="5.416666507720947" height="25" opacity="1"></rect></mask><g transform="translate(468.1720555197728 328.9307297373191) rotate(0 3.3720274979993974 13.201266980059415)"><text x="2.7083332538604736" y="0" font-family="Virgil, Segoe UI Emoji" font-size="20px" fill="#1e1e1e" text-anchor="middle" style="white-space: pre;" direction="ltr" dominant-baseline="text-before-edge">1</text></g><g mask="url(#mask-8P7CU87q52b1rFSsRp5GV)" stroke-linecap="round"><g transform="translate(402.83630575586085 314.7987330199405) rotate(0 73.81161011941731 67.04954712654467)"><path d="M-0.43 -0.72 C24.25 21.48, 123.47 110.91, 148.05 133.19 M1.55 1.51 C26.16 23.93, 123.52 112.7, 147.66 134.82" stroke="#1e1e1e" stroke-width="1" fill="none"></path></g><g transform="translate(402.83630575586085 314.7987330199405) rotate(0 73.81161011941731 67.04954712654467)"><path d="M118.72 125.13 C128.5 127.01, 136.36 130.99, 145.73 136.2 M119.6 122.56 C128.05 126.28, 134.17 129.91, 147.53 135.13" stroke="#1e1e1e" stroke-width="1" fill="none"></path></g><g transform="translate(402.83630575586085 314.7987330199405) rotate(0 73.81161011941731 67.04954712654467)"><path d="M132.56 109.99 C138.22 116.33, 141.95 124.83, 145.73 136.2 M133.45 107.41 C138.11 115.37, 140.46 123.13, 147.53 135.13" stroke="#1e1e1e" stroke-width="1" fill="none"></path></g></g><mask id="mask-8P7CU87q52b1rFSsRp5GV"><rect x="0" y="0" fill="#fff" width="649.8363057558608" height="547.7987330199405"></rect><rect x="473.6279725020004" y="368.7987330199405" fill="#000" width="5.416666507720947" height="25" opacity="1"></rect></mask><g transform="translate(473.6279725020004 368.7987330199405) rotate(0 3.0199433732777834 13.049547126544667)"><text x="2.7083332538604736" y="0" font-family="Virgil, Segoe UI Emoji" font-size="20px" fill="#1e1e1e" text-anchor="middle" style="white-space: pre;" direction="ltr" dominant-baseline="text-before-edge">1</text></g><g mask="url(#mask-9Uu2j5hvc7Fki87iVBJnf)" stroke-linecap="round"><g transform="translate(294.241580936266 311.028274248619) rotate(0 -75.88101494143712 37.25800729693793)"><path d="M0.04 -0.24 C-25.25 12.39, -125.97 63.27, -151.25 75.93 M-1.4 -1.42 C-26.82 10.87, -126.67 61.67, -151.8 74.19" stroke="#1e1e1e" stroke-width="1" fill="none"></path></g><g transform="translate(294.241580936266 311.028274248619) rotate(0 -75.88101494143712 37.25800729693793)"><path d="M-131.65 53.59 C-137.01 60.38, -144.34 67.12, -152.2 74.79 M-131.05 53.09 C-136.41 56.6, -140.47 61.3, -151.56 74.04" stroke="#1e1e1e" stroke-width="1" fill="none"></path></g><g transform="translate(294.241580936266 311.028274248619) rotate(0 -75.88101494143712 37.25800729693793)"><path d="M-122.41 71.92 C-130.94 72.47, -141.41 72.98, -152.2 74.79 M-121.82 71.41 C-129.26 70.77, -135.4 71.32, -151.56 74.04" stroke="#1e1e1e" stroke-width="1" fill="none"></path></g></g><mask id="mask-9Uu2j5hvc7Fki87iVBJnf"><rect x="0" y="0" fill="#fff" width="546.241580936266" height="486.23784164419703"></rect><rect x="208.64991471464737" y="336.13305794640814" fill="#000" width="19.183332443237305" height="25" opacity="1"></rect></mask><g transform="translate(208.64991471464737 336.1330579464079) rotate(0 9.710651280181537 12.15322359914893)"><text x="9.591666221618652" y="0" font-family="Virgil, Segoe UI Emoji" font-size="20px" fill="#1e1e1e" text-anchor="middle" style="white-space: pre;" direction="ltr" dominant-baseline="text-before-edge">10</text></g><g mask="url(#mask-Z035Mf2LAjAVPO6HrWqQP)" stroke-linecap="round"><g transform="translate(292.3810149414371 308.7676249158337) rotate(0 -73.08691081378606 14.91087110031026)"><path d="M0.99 0.44 C-23.5 5.41, -121.92 24.1, -146.49 29.27 M0.05 -0.38 C-24.6 4.74, -122.68 25.19, -147.17 30.2" stroke="#1e1e1e" stroke-width="1" fill="none"></path></g><g transform="translate(292.3810149414371 308.7676249158337) rotate(0 -73.08691081378606 14.91087110031026)"><path d="M-120.91 15.3 C-132.34 20.99, -137.36 24.54, -147.62 30.32 M-122.43 14.05 C-127.96 19.07, -132.59 22.55, -147.1 29.51" stroke="#1e1e1e" stroke-width="1" fill="none"></path></g><g transform="translate(292.3810149414371 308.7676249158337) rotate(0 -73.08691081378606 14.91087110031026)"><path d="M-116.75 35.39 C-129.51 34.28, -135.94 31, -147.62 30.32 M-118.28 34.14 C-124.66 34.59, -130.25 33.45, -147.1 29.51" stroke="#1e1e1e" stroke-width="1" fill="none"></path></g></g><mask id="mask-Z035Mf2LAjAVPO6HrWqQP"><rect x="0" y="0" fill="#fff" width="539.3810149414371" height="439.2086814496547"></rect><rect x="209.28934871981846" y="311.4881531827443" fill="#000" width="19.183332443237305" height="25" opacity="1"></rect></mask><g transform="translate(209.28934871981846 311.4881531827441) rotate(0 10.00475540783259 12.190342833399768)"><text x="9.591666221618652" y="0" font-family="Virgil, Segoe UI Emoji" font-size="20px" fill="#1e1e1e" text-anchor="middle" style="white-space: pre;" direction="ltr" dominant-baseline="text-before-edge">10</text></g><g mask="url(#mask-PAvwMuxbUxCakSEsERqcu)" stroke-linecap="round"><g transform="translate(289.08691081378606 306.33766964002234) rotate(0 -69.28910922026222 -0.9264489591533902)"><path d="M0.53 0.76 C-22.48 0.8, -115.84 -0.54, -139.11 -0.84 M-0.64 0.11 C-23.2 -0.09, -114.25 -2.08, -136.94 -2.61" stroke="#1e1e1e" stroke-width="1" fill="none"></path></g><g transform="translate(289.08691081378606 306.33766964002234) rotate(0 -69.28910922026222 -0.9264489591533902)"><path d="M-107.27 -13.95 C-113.57 -11.78, -119.92 -8.26, -136.68 -1.01 M-109.52 -12.91 C-120.24 -8.94, -130.45 -5.21, -137.04 -2.96" stroke="#1e1e1e" stroke-width="1" fill="none"></path></g><g transform="translate(289.08691081378606 306.33766964002234) rotate(0 -69.28910922026222 -0.9264489591533902)"><path d="M-107.72 6.57 C-113.74 4.36, -119.99 3.49, -136.68 -1.01 M-109.97 7.61 C-120.69 3.41, -130.72 -1.03, -137.04 -2.96" stroke="#1e1e1e" stroke-width="1" fill="none"></path></g></g><mask id="mask-PAvwMuxbUxCakSEsERqcu"><rect x="0" y="0" fill="#fff" width="527.1770147088162" height="407.8418568595364"></rect><rect x="210.45019264465236" y="293.0855760302652" fill="#000" width="19.183332443237305" height="25" opacity="1"></rect></mask><g transform="translate(210.45019264465236 293.08557603026543) rotate(0 9.347608948871482 12.325644650603635)"><text x="9.591666221618652" y="0" font-family="Virgil, Segoe UI Emoji" font-size="20px" fill="#1e1e1e" text-anchor="middle" style="white-space: pre;" direction="ltr" dominant-baseline="text-before-edge">10</text></g><g mask="url(#mask-QCuJxOZdftnlY0GlEUPIW)" stroke-linecap="round"><g transform="translate(289.2440572727471 304.2640077853433) rotate(0 -68.64562368994251 -15.44954794644923)"><path d="M0.82 0.7 C-22.06 -4.3, -114.46 -24.63, -137.53 -30.09 M-0.21 0.02 C-23.16 -5.28, -115.14 -26.4, -138.11 -31.6" stroke="#1e1e1e" stroke-width="1" fill="none"></path></g><g transform="translate(289.2440572727471 304.2640077853433) rotate(0 -68.64562368994251 -15.44954794644923)"><path d="M-107.18 -34.14 C-114.68 -33.04, -126.25 -33.98, -138.68 -33.21 M-109.19 -35.5 C-115.06 -34.02, -120.4 -33.26, -138.59 -31.98" stroke="#1e1e1e" stroke-width="1" fill="none"></path></g><g transform="translate(289.2440572727471 304.2640077853433) rotate(0 -68.64562368994251 -15.44954794644923)"><path d="M-111.75 -14.14 C-117.96 -18.63, -128.26 -25.14, -138.68 -33.21 M-113.76 -15.5 C-118.5 -18.06, -122.92 -21.37, -138.59 -31.98" stroke="#1e1e1e" stroke-width="1" fill="none"></path></g></g><mask id="mask-QCuJxOZdftnlY0GlEUPIW"><rect x="0" y="0" fill="#fff" width="527.489718758569" height="435.5264113576119"></rect><rect x="210.52956030821747" y="276.1328059992089" fill="#000" width="19.183332443237305" height="25" opacity="1"></rect></mask><g transform="translate(210.52956030821747 276.13280599920915) rotate(0 10.068873274587133 12.681653839685055)"><text x="9.591666221618652" y="0" font-family="Virgil, Segoe UI Emoji" font-size="20px" fill="#1e1e1e" text-anchor="middle" style="white-space: pre;" direction="ltr" dominant-baseline="text-before-edge">10</text></g><g transform="translate(27.400001525878906 10) rotate(0 87.5999984741211 12.5)"><text x="87.5999984741211" y="0" font-family="Virgil, Segoe UI Emoji" font-size="20px" fill="#1e1e1e" text-anchor="middle" style="white-space: pre;" direction="ltr" dominant-baseline="text-before-edge">Dealing the cards</text></g><g mask="url(#mask-Hkk2nSHuOVAiTmZisDLye)" stroke-linecap="round"><g transform="translate(403.8363057558611 312.7987330199405) rotate(0 69.0196640658844 -34.26975120367479)"><path d="M-0.14 -0.62 C23.02 -12.13, 116.36 -56.95, 139.71 -68.4 M-1.67 1.67 C21.23 -10.25, 115.13 -58.57, 138.62 -70.21" stroke="#1e1e1e" stroke-width="1" fill="none"></path></g><g transform="translate(403.8363057558611 312.7987330199405) rotate(0 69.0196640658844 -34.26975120367479)"><path d="M117.07 -48.79 C126.46 -56.28, 132.4 -63.79, 137.1 -70.06 M118.2 -48.6 C122.79 -53.1, 128.78 -58.63, 138.36 -70.33" stroke="#1e1e1e" stroke-width="1" fill="none"></path></g><g transform="translate(403.8363057558611 312.7987330199405) rotate(0 69.0196640658844 -34.26975120367479)"><path d="M107.8 -67.1 C120.66 -67.9, 129.98 -68.75, 137.1 -70.06 M108.93 -66.9 C115.84 -66.94, 124.14 -67.92, 138.36 -70.33" stroke="#1e1e1e" stroke-width="1" fill="none"></path></g></g><mask id="mask-Hkk2nSHuOVAiTmZisDLye"><rect x="0" y="0" fill="#fff" width="643.8363057558611" height="481.7987330199405"></rect><rect x="471.1279725020006" y="265.7987330199405" fill="#000" width="5.416666507720947" height="25" opacity="1"></rect></mask><g transform="translate(471.1279725020006 265.7987330199405) rotate(0 1.7279973197448726 12.730248796325213)"><text x="2.7083332538604736" y="0" font-family="Virgil, Segoe UI Emoji" font-size="20px" fill="#1e1e1e" text-anchor="middle" style="white-space: pre;" direction="ltr" dominant-baseline="text-before-edge">1</text></g><g mask="url(#mask-2UHArMB_2Q_2BcwKO_zv5)" stroke-linecap="round"><g transform="translate(403.9803359341156 311.60404338971705) rotate(0 72.57994441260576 -72.97574648233132)"><path d="M-0.6 -0.99 C23.3 -25.21, 119.08 -121.2, 143.37 -145.3 M1.29 1.11 C25.58 -23.46, 121.81 -122.24, 145.76 -147.06" stroke="#1e1e1e" stroke-width="1" fill="none"></path></g><g transform="translate(403.9803359341156 311.60404338971705) rotate(0 72.57994441260576 -72.97574648233132)"><path d="M131.84 -120.72 C138.32 -125.9, 141.46 -134.76, 146.07 -147.35 M132.61 -120.08 C136.43 -125.06, 138.02 -131.08, 145.29 -146.7" stroke="#1e1e1e" stroke-width="1" fill="none"></path></g><g transform="translate(403.9803359341156 311.60404338971705) rotate(0 72.57994441260576 -72.97574648233132)"><path d="M117.11 -135.02 C128.01 -135.84, 135.55 -140.43, 146.07 -147.35 M117.88 -134.37 C124.86 -136.35, 129.48 -139.42, 145.29 -146.7" stroke="#1e1e1e" stroke-width="1" fill="none"></path></g></g><mask id="mask-2UHArMB_2Q_2BcwKO_zv5"><rect x="0" y="0" fill="#fff" width="647.9803359341156" height="557.604043389717"></rect><rect x="473.2720026802551" y="226.10404338971705" fill="#000" width="5.416666507720947" height="25" opacity="1"></rect></mask><g transform="translate(473.2720026802551 226.10404338971705) rotate(0 3.2882776664662288 12.524253517668683)"><text x="2.7083332538604736" y="0" font-family="Virgil, Segoe UI Emoji" font-size="20px" fill="#1e1e1e" text-anchor="middle" style="white-space: pre;" direction="ltr" dominant-baseline="text-before-edge">1</text></g></svg>