<svg version="1.1" xmlns="http://www.w3.org/2000/svg" viewBox="0 0 687 587" width="687" height="587">
  <!-- svg-source:excalidraw -->
  
  <defs>
    <style class="style-fonts">
      @font-face {
        font-family: "Virgil";
        src: url("https://excalidraw.com/Virgil.woff2");
      }
      @font-face {
        font-family: "Cascadia";
        src: url("https://excalidraw.com/Cascadia.woff2");
      }
    </style>
    
  </defs>
  <rect x="0" y="0" width="687" height="587" fill="#ffffff"></rect><g stroke-linecap="round" transform="translate(10 43) rotate(0 333.5 267)"><path d="M32 0 M32 0 C214.12 0.79, 396.11 0.24, 635 0 M32 0 C220.39 -0.39, 408.86 -0.6, 635 0 M635 0 C654.5 0.91, 665.22 11.25, 667 32 M635 0 C657.36 0.14, 666.13 10.97, 667 32 M667 32 C666.01 200.66, 665.74 370.99, 667 502 M667 32 C666.3 134.96, 666.29 238.68, 667 502 M667 502 C668.32 521.47, 657.66 532.41, 635 534 M667 502 C667.2 523.28, 654.58 535.79, 635 534 M635 534 C513.37 531.88, 391.52 532.13, 32 534 M635 534 C426.36 531.47, 218.02 531.99, 32 534 M32 534 C12.44 533.1, 1.2 522.5, 0 502 M32 534 C10.63 531.91, 1.92 523.94, 0 502 M0 502 C-0.26 373.73, 0.37 245.98, 0 32 M0 502 C-0.33 319.95, 0.1 138.38, 0 32 M0 32 C-0.31 11.9, 10.69 1.12, 32 0 M0 32 C0.32 9.61, 11.21 -1.54, 32 0" stroke="#1e1e1e" stroke-width="1" fill="none"></path></g><g stroke-linecap="round" transform="translate(31 455) rotate(0 52 52)"><path d="M6.26 6.77 C6.26 6.77, 6.26 6.77, 6.26 6.77 M6.26 6.77 C6.26 6.77, 6.26 6.77, 6.26 6.77 M3.38 16.19 C5.37 13.38, 7.41 12.53, 12.56 5.62 M3.38 16.19 C5.25 12.62, 8.45 9.75, 12.56 5.62 M-0.16 26.36 C3.45 22.62, 10.27 16.7, 18.86 4.47 M-0.16 26.36 C3.71 21.97, 6.79 18.25, 18.86 4.47 M0.23 32 C6.78 23.96, 12.54 18.33, 27.13 1.06 M0.23 32 C8.69 20.63, 18.03 11.25, 27.13 1.06 M-0.03 38.4 C11.8 23.8, 23.31 11.13, 32.12 1.42 M-0.03 38.4 C10 25.87, 20.55 14.49, 32.12 1.42 M0.36 44.04 C7.85 31.3, 17.97 22.14, 37.76 1.02 M0.36 44.04 C11.18 32.02, 22.04 18.65, 37.76 1.02 M0.1 50.44 C13.56 35.41, 26.61 16.84, 42.75 1.38 M0.1 50.44 C11.98 35.98, 25.32 21.64, 42.75 1.38 M-0.16 56.84 C7.9 46.94, 17.39 34.67, 48.39 0.99 M-0.16 56.84 C14.79 41.85, 26.89 25.86, 48.39 0.99 M0.24 62.48 C16.69 40.5, 36.51 23.39, 53.38 1.35 M0.24 62.48 C12.02 48.72, 24.38 34.83, 53.38 1.35 M-0.02 68.88 C21.75 40.35, 46.77 13.9, 59.02 0.96 M-0.02 68.88 C20.69 46.06, 41.23 22.83, 59.02 0.96 M0.37 74.52 C18.29 55.32, 35.69 34.75, 64.01 1.32 M0.37 74.52 C14.01 57.4, 30.01 41.99, 64.01 1.32 M1.42 79.41 C17.92 63.92, 32.06 44.35, 68.99 1.68 M1.42 79.41 C18.78 59.54, 35.4 39.99, 68.99 1.68 M2.47 84.3 C22.68 63.04, 40.95 40.76, 74.64 1.28 M2.47 84.3 C24.84 59, 47.39 31.34, 74.64 1.28 M3.52 89.19 C31.13 56.27, 62.79 23.37, 79.62 1.64 M3.52 89.19 C21.32 70.28, 36.78 50.11, 79.62 1.64 M4.57 94.08 C25.4 72.27, 45.19 49.7, 85.27 1.25 M4.57 94.08 C25.53 68.25, 48 43.05, 85.27 1.25 M6.94 97.45 C26.07 76.21, 42.5 54.36, 89.6 2.36 M6.94 97.45 C24.89 77.75, 43.75 56.95, 89.6 2.36 M9.95 100.08 C41.68 65.17, 72.72 28.82, 93.27 4.23 M9.95 100.08 C28.63 78.88, 46.52 55.85, 93.27 4.23 M12.97 102.7 C43.95 63.79, 79.3 27.05, 96.95 6.1 M12.97 102.7 C34.46 78.71, 55.36 52.94, 96.95 6.1 M17.3 103.82 C35.98 83.06, 52.93 64.11, 99.97 8.72 M17.3 103.82 C39.22 78.84, 60.39 53.74, 99.97 8.72 M21.63 104.93 C52.4 68.68, 83.62 30.91, 102.33 12.1 M21.63 104.93 C46.97 76.36, 71.79 46.35, 102.33 12.1 M26.62 105.29 C42.33 85.93, 61.39 64.84, 103.38 16.99 M26.62 105.29 C57.92 69.96, 87.11 33.72, 103.38 16.99 M32.26 104.9 C47.08 86.77, 67.7 65.08, 104.43 21.88 M32.26 104.9 C59.45 71.99, 87.88 40.58, 104.43 21.88 M37.25 105.26 C50.76 86.95, 67.99 70.74, 105.48 26.77 M37.25 105.26 C51.99 88.06, 68.27 71.59, 105.48 26.77 M42.89 104.86 C64.62 78.78, 84.88 52.76, 105.22 33.17 M42.89 104.86 C58.23 88.45, 72.68 69.82, 105.22 33.17 M47.88 105.22 C65.43 86.14, 78.26 67.81, 104.96 39.56 M47.88 105.22 C61.36 89.89, 72.73 75.38, 104.96 39.56 M52.87 105.58 C68.1 86.18, 87.66 66.79, 105.35 45.21 M52.87 105.58 C68.21 86.94, 82.33 69.7, 105.35 45.21 M58.51 105.19 C70.79 91.72, 81.52 76.78, 105.09 51.6 M58.51 105.19 C73.37 88.29, 88.72 70.36, 105.09 51.6 M63.5 105.55 C75.54 91, 91.27 74.41, 104.83 58 M63.5 105.55 C75.01 92.8, 88.48 77.8, 104.83 58 M69.14 105.15 C80.89 91.34, 92.31 76.01, 105.23 63.65 M69.14 105.15 C79.6 93.56, 89.78 80.3, 105.23 63.65 M74.13 105.51 C84.62 95.27, 92.09 83.68, 104.96 70.04 M74.13 105.51 C80.54 97.5, 89.33 88.88, 104.96 70.04 M79.77 105.12 C85.07 100.16, 92.47 93.88, 104.7 76.44 M79.77 105.12 C88.33 96.24, 96.41 86.11, 104.7 76.44 M86.07 103.97 C90.8 98.17, 96 95.69, 105.1 82.08 M86.07 103.97 C91.43 96.85, 98.82 90.7, 105.1 82.08 M94.34 100.56 C97.92 96.33, 103.36 92.09, 106.15 86.97 M94.34 100.56 C98.53 95.33, 102.42 90.5, 106.15 86.97" stroke="#ffc9c9" stroke-width="0.5" fill="none"></path><path d="M26 0 M26 0 C42.67 -0.74, 58.03 -1.55, 78 0 M26 0 C42.43 0.18, 56.96 -0.25, 78 0 M78 0 C96.82 0.07, 103.11 6.8, 104 26 M78 0 C93.6 -2.16, 104.76 6.43, 104 26 M104 26 C103.92 38.73, 105.93 51.38, 104 78 M104 26 C105.38 37.79, 104.5 48.8, 104 78 M104 78 C102.71 94.83, 95.26 104.58, 78 104 M104 78 C105.3 96.19, 94.62 103.53, 78 104 M78 104 C67.34 103.89, 54.95 105.39, 26 104 M78 104 C58.08 103.23, 39.56 104.47, 26 104 M26 104 C9.76 105.83, -1.28 94.36, 0 78 M26 104 C9.02 103.16, -1.82 94.43, 0 78 M0 78 C-0.08 59.24, -1.16 44.43, 0 26 M0 78 C0.3 61.52, -0.69 45.44, 0 26 M0 26 C1.91 7.78, 7.92 1.9, 26 0 M0 26 C-2.15 8.21, 8.68 -0.49, 26 0" stroke="#1e1e1e" stroke-width="1" fill="none"></path></g><g transform="translate(59.85000038146973 494.5) rotate(0 23.149999618530273 12.5)"><text x="23.149999618530273" y="0" font-family="Virgil, Segoe UI Emoji" font-size="20px" fill="#1e1e1e" text-anchor="middle" style="white-space: pre;" direction="ltr" dominant-baseline="text-before-edge">Deck</text></g><g stroke-linecap="round" transform="translate(542 62) rotate(0 52 52)"><path d="M6.26 6.77 C6.26 6.77, 6.26 6.77, 6.26 6.77 M6.26 6.77 C6.26 6.77, 6.26 6.77, 6.26 6.77 M3.38 16.19 C5.5 13.8, 7.28 9.24, 12.56 5.62 M3.38 16.19 C4.9 13.5, 7.82 11.48, 12.56 5.62 M-0.16 26.36 C5.34 18.98, 13.07 9.24, 18.86 4.47 M-0.16 26.36 C4.7 18.96, 10.78 13.61, 18.86 4.47 M0.23 32 C6.42 26.77, 9.18 18.2, 27.13 1.06 M0.23 32 C6.92 25.01, 12.22 18.61, 27.13 1.06 M-0.03 38.4 C10.42 26.54, 19.31 14.94, 32.12 1.42 M-0.03 38.4 C7.77 29.94, 16.23 18.94, 32.12 1.42 M0.36 44.04 C8.37 34.5, 17.85 25.64, 37.76 1.02 M0.36 44.04 C13.85 28.23, 27.17 13.25, 37.76 1.02 M0.1 50.44 C15.2 35.21, 29.14 15.85, 42.75 1.38 M0.1 50.44 C11.5 36.49, 25.45 20.9, 42.75 1.38 M-0.16 56.84 C18.61 33.27, 38.86 15.45, 48.39 0.99 M-0.16 56.84 C19.27 35.49, 38.35 12.94, 48.39 0.99 M0.24 62.48 C10.61 47.31, 25 32.71, 53.38 1.35 M0.24 62.48 C20.01 41.33, 37.84 18.87, 53.38 1.35 M-0.02 68.88 C14.43 53.01, 28.55 38.34, 59.02 0.96 M-0.02 68.88 C22.14 41.56, 45 15.91, 59.02 0.96 M0.37 74.52 C18.62 52.54, 38.38 27.18, 64.01 1.32 M0.37 74.52 C14.68 55.49, 31.12 39.06, 64.01 1.32 M1.42 79.41 C27.27 48.94, 56.16 18.87, 68.99 1.68 M1.42 79.41 C20.59 57.37, 40.32 34.8, 68.99 1.68 M2.47 84.3 C27.24 54.37, 52.36 25.95, 74.64 1.28 M2.47 84.3 C32.19 52.51, 59.96 19.07, 74.64 1.28 M3.52 89.19 C28.47 56.4, 58.5 27.88, 79.62 1.64 M3.52 89.19 C32.53 55.63, 62.5 22.94, 79.62 1.64 M4.57 94.08 C30.28 64.69, 58.82 30.97, 85.27 1.25 M4.57 94.08 C29.81 64.39, 56.35 34.8, 85.27 1.25 M6.94 97.45 C30.04 68.13, 56.12 40.24, 89.6 2.36 M6.94 97.45 C39.81 59.01, 70.57 22.48, 89.6 2.36 M9.95 100.08 C32.4 73.04, 57.98 44.9, 93.27 4.23 M9.95 100.08 C40.48 68.48, 67.56 34.03, 93.27 4.23 M12.97 102.7 C32.59 79.42, 53.78 55.16, 96.95 6.1 M12.97 102.7 C46.58 63.7, 80.12 25.45, 96.95 6.1 M17.3 103.82 C40.51 76.18, 63.24 49.18, 99.97 8.72 M17.3 103.82 C42.35 77.95, 65.31 50.28, 99.97 8.72 M21.63 104.93 C50.82 71.8, 79.06 39.54, 102.33 12.1 M21.63 104.93 C48.04 75.5, 75.64 43.11, 102.33 12.1 M26.62 105.29 C56.34 72.98, 83.98 42.81, 103.38 16.99 M26.62 105.29 C52.87 75.86, 80.78 44.2, 103.38 16.99 M32.26 104.9 C61.6 72.5, 90.14 38.54, 104.43 21.88 M32.26 104.9 C50.76 83.3, 71.17 59.66, 104.43 21.88 M37.25 105.26 C52.24 84.11, 69.92 64.35, 105.48 26.77 M37.25 105.26 C54.16 86.27, 70.85 66.16, 105.48 26.77 M42.89 104.86 C59.32 85.38, 75.71 66.49, 105.22 33.17 M42.89 104.86 C63.77 81.5, 85.22 58.48, 105.22 33.17 M47.88 105.22 C61.63 89.33, 79.79 73.01, 104.96 39.56 M47.88 105.22 C66.07 84.65, 83.7 63.81, 104.96 39.56 M52.87 105.58 C69.08 88.18, 86.31 68.55, 105.35 45.21 M52.87 105.58 C63.37 94.24, 75.04 81.71, 105.35 45.21 M58.51 105.19 C76.38 83.73, 93.25 64.94, 105.09 51.6 M58.51 105.19 C74.12 88, 89.3 69.47, 105.09 51.6 M63.5 105.55 C79.09 86.14, 94.51 67.59, 104.83 58 M63.5 105.55 C79.75 87.1, 95.35 68.13, 104.83 58 M69.14 105.15 C80.94 92, 91.14 78.47, 105.23 63.65 M69.14 105.15 C80.97 93.02, 92.32 79.5, 105.23 63.65 M74.13 105.51 C84.09 94.94, 96.26 78.88, 104.96 70.04 M74.13 105.51 C84.86 91.11, 96.39 78.27, 104.96 70.04 M79.77 105.12 C89.41 93.78, 99.3 84.2, 104.7 76.44 M79.77 105.12 C88.66 92.86, 98.34 82.88, 104.7 76.44 M86.07 103.97 C90.57 97.04, 94.63 92.13, 105.1 82.08 M86.07 103.97 C91.27 97.65, 97.07 91.8, 105.1 82.08 M94.34 100.56 C98.56 94.91, 102.95 92.37, 106.15 86.97 M94.34 100.56 C97.19 96.49, 100.1 94.62, 106.15 86.97" stroke="#a5d8ff" stroke-width="0.5" fill="none"></path><path d="M26 0 M26 0 C39.48 2.06, 54.45 2.38, 78 0 M26 0 C45.12 -0.02, 62.31 -0.99, 78 0 M78 0 C93.83 -1.88, 104.66 6.72, 104 26 M78 0 C94.21 0.39, 102.1 8.47, 104 26 M104 26 C102.77 42.23, 106.18 57.42, 104 78 M104 26 C103.41 44.62, 104.02 64.04, 104 78 M104 78 C105.13 96.08, 94.71 103.59, 78 104 M104 78 C102.22 95.02, 97.39 105.06, 78 104 M78 104 C65.38 102.57, 50.33 103.32, 26 104 M78 104 C67.7 105.08, 55.67 103.69, 26 104 M26 104 C8.97 103.27, -1.59 94.55, 0 78 M26 104 C9.38 103.19, 0.55 95.04, 0 78 M0 78 C0.44 67.18, 0.44 55.83, 0 26 M0 78 C1.21 65.22, -0.12 54.28, 0 26 M0 26 C-1.87 8.27, 8.68 -0.42, 26 0 M0 26 C-0.33 8.19, 6.78 2.2, 26 0" stroke="#1e1e1e" stroke-width="1" fill="none"></path></g><g transform="translate(568.7000007629395 101.5) rotate(0 25.299999237060547 12.5)"><text x="25.299999237060547" y="0" font-family="Virgil, Segoe UI Emoji" font-size="20px" fill="#1e1e1e" text-anchor="middle" style="white-space: pre;" direction="ltr" dominant-baseline="text-before-edge">Row0</text></g><g stroke-linecap="round" transform="translate(544 189) rotate(0 52 52)"><path d="M6.26 6.77 C6.26 6.77, 6.26 6.77, 6.26 6.77 M6.26 6.77 C6.26 6.77, 6.26 6.77, 6.26 6.77 M3.38 16.19 C5.16 12.67, 8.41 8.53, 12.56 5.62 M3.38 16.19 C5.9 14.27, 7.69 11.05, 12.56 5.62 M-0.16 26.36 C6.94 16.79, 15.51 8.35, 18.86 4.47 M-0.16 26.36 C3.32 21.9, 7.96 16.78, 18.86 4.47 M0.23 32 C7.92 20.23, 19.81 12.67, 27.13 1.06 M0.23 32 C6.89 23.31, 14.6 16.59, 27.13 1.06 M-0.03 38.4 C7.75 27.51, 17.89 17.6, 32.12 1.42 M-0.03 38.4 C11.55 23.77, 24.93 9.94, 32.12 1.42 M0.36 44.04 C11.86 32.07, 20.47 20.02, 37.76 1.02 M0.36 44.04 C9.44 33.44, 16.8 24.11, 37.76 1.02 M0.1 50.44 C16.01 32.85, 32.33 12.27, 42.75 1.38 M0.1 50.44 C15.51 32.78, 29.86 16.47, 42.75 1.38 M-0.16 56.84 C11.17 43.88, 20.25 34.25, 48.39 0.99 M-0.16 56.84 C15.8 38.18, 34.37 17.24, 48.39 0.99 M0.24 62.48 C15.11 45.61, 29.53 32.22, 53.38 1.35 M0.24 62.48 C17.85 41.68, 36.6 20.76, 53.38 1.35 M-0.02 68.88 C17.81 50.88, 34.49 30.04, 59.02 0.96 M-0.02 68.88 C15.5 51.69, 30.21 33.17, 59.02 0.96 M0.37 74.52 C21.05 51.23, 45.54 24.47, 64.01 1.32 M0.37 74.52 C15.41 57.83, 28.54 40.84, 64.01 1.32 M1.42 79.41 C22.24 55.03, 43.41 29.2, 68.99 1.68 M1.42 79.41 C25.83 51.72, 49.6 24.42, 68.99 1.68 M2.47 84.3 C20.77 64.07, 34.09 47.91, 74.64 1.28 M2.47 84.3 C25.33 59.23, 48.35 32.02, 74.64 1.28 M3.52 89.19 C23.09 66.24, 39.64 44.77, 79.62 1.64 M3.52 89.19 C25.11 64.86, 46.43 39.1, 79.62 1.64 M4.57 94.08 C35.98 57.76, 68.27 20.38, 85.27 1.25 M4.57 94.08 C32.64 60.9, 60.38 28.18, 85.27 1.25 M6.94 97.45 C26.95 77.58, 44.77 57.58, 89.6 2.36 M6.94 97.45 C27.79 74.5, 47.43 50.42, 89.6 2.36 M9.95 100.08 C37.26 67.83, 60.93 41.28, 93.27 4.23 M9.95 100.08 C40 66.42, 70.81 31.36, 93.27 4.23 M12.97 102.7 C42.64 69.16, 68.81 37.66, 96.95 6.1 M12.97 102.7 C36.9 75.17, 61.3 48.53, 96.95 6.1 M17.3 103.82 C41.98 73.85, 66.88 49.54, 99.97 8.72 M17.3 103.82 C48.63 67.21, 79.59 31.63, 99.97 8.72 M21.63 104.93 C44.85 78.41, 65.19 51.62, 102.33 12.1 M21.63 104.93 C52.89 70.07, 83.32 35.79, 102.33 12.1 M26.62 105.29 C48.87 78.1, 68.69 52.34, 103.38 16.99 M26.62 105.29 C52.89 76.99, 77.81 46.87, 103.38 16.99 M32.26 104.9 C53.31 79.79, 76.79 52.11, 104.43 21.88 M32.26 104.9 C59.86 73.46, 88.58 39.44, 104.43 21.88 M37.25 105.26 C52.68 88.88, 69.91 70, 105.48 26.77 M37.25 105.26 C61.54 75.89, 85.98 47.67, 105.48 26.77 M42.89 104.86 C61.93 83.53, 77.03 63.5, 105.22 33.17 M42.89 104.86 C60.81 82.38, 79.27 60.8, 105.22 33.17 M47.88 105.22 C67.12 80.65, 87.54 59.86, 104.96 39.56 M47.88 105.22 C63.63 87.89, 79.54 69.24, 104.96 39.56 M52.87 105.58 C71.29 80.67, 92.41 57.36, 105.35 45.21 M52.87 105.58 C70.88 84.16, 88.45 64.7, 105.35 45.21 M58.51 105.19 C68.92 93.96, 77.24 83.3, 105.09 51.6 M58.51 105.19 C73.47 89.11, 87.52 72.58, 105.09 51.6 M63.5 105.55 C75.71 95.6, 83.53 83.14, 104.83 58 M63.5 105.55 C76.3 90.44, 88.31 76.79, 104.83 58 M69.14 105.15 C80.89 91.79, 89.58 80.12, 105.23 63.65 M69.14 105.15 C83.2 88.72, 96.58 73.26, 105.23 63.65 M74.13 105.51 C87.88 92.39, 100.37 76.05, 104.96 70.04 M74.13 105.51 C81.89 98.37, 88.8 90.27, 104.96 70.04 M79.77 105.12 C88.01 97.16, 93.58 88.02, 104.7 76.44 M79.77 105.12 C84.43 100.08, 90.56 93.53, 104.7 76.44 M86.07 103.97 C89.57 100.72, 95.03 95.12, 105.1 82.08 M86.07 103.97 C91.24 98.83, 96.51 92.26, 105.1 82.08 M94.34 100.56 C95.81 97.41, 97.98 94.54, 106.15 86.97 M94.34 100.56 C96.48 98.37, 98.6 94.73, 106.15 86.97" stroke="#a5d8ff" stroke-width="0.5" fill="none"></path><path d="M26 0 M26 0 C46.94 -0.4, 65.95 0.98, 78 0 M26 0 C41.03 -0.46, 57.91 -0.49, 78 0 M78 0 C94.36 0.34, 102.34 8.49, 104 26 M78 0 C94.94 2.12, 103.13 6.71, 104 26 M104 26 C105.7 45.73, 105.38 63.76, 104 78 M104 26 C104.55 40.66, 103.67 54.37, 104 78 M104 78 C102.45 95.06, 97.12 104.92, 78 104 M104 78 C103.34 95.46, 96.4 105.71, 78 104 M78 104 C64.91 104.74, 56.14 104.85, 26 104 M78 104 C57.81 103.38, 36.52 103.36, 26 104 M26 104 C9.29 103.3, 0.48 95.07, 0 78 M26 104 C6.89 102.46, 0.98 95.44, 0 78 M0 78 C-1.28 59.45, -1.74 44.76, 0 26 M0 78 C-0.74 64.51, 0.2 51.2, 0 26 M0 26 C-0.28 8.25, 7.02 1.91, 26 0 M0 26 C-2 10.27, 8.56 -0.59, 26 0" stroke="#1e1e1e" stroke-width="1" fill="none"></path></g><g transform="translate(574.875 228.5) rotate(0 21.125 12.5)"><text x="21.125" y="0" font-family="Virgil, Segoe UI Emoji" font-size="20px" fill="#1e1e1e" text-anchor="middle" style="white-space: pre;" direction="ltr" dominant-baseline="text-before-edge">Row1</text></g><g stroke-linecap="round" transform="translate(544 315) rotate(0 52 52)"><path d="M6.26 6.77 C6.26 6.77, 6.26 6.77, 6.26 6.77 M6.26 6.77 C6.26 6.77, 6.26 6.77, 6.26 6.77 M3.38 16.19 C4.96 14.48, 7.95 11.35, 12.56 5.62 M3.38 16.19 C6.92 12.09, 9.67 9.02, 12.56 5.62 M-0.16 26.36 C2.47 20.53, 9.05 14.82, 18.86 4.47 M-0.16 26.36 C7.27 17.49, 12.98 9.58, 18.86 4.47 M0.23 32 C5.51 25.71, 11.89 17.23, 27.13 1.06 M0.23 32 C5.32 25.37, 10.67 18.49, 27.13 1.06 M-0.03 38.4 C9.65 29.26, 14.2 18.37, 32.12 1.42 M-0.03 38.4 C7.49 30.2, 15.36 21.28, 32.12 1.42 M0.36 44.04 C10.96 30.92, 23.37 17.89, 37.76 1.02 M0.36 44.04 C10.02 33.74, 17.42 24.28, 37.76 1.02 M0.1 50.44 C14.69 36.09, 25.93 20.98, 42.75 1.38 M0.1 50.44 C7.72 41.04, 18.3 31.26, 42.75 1.38 M-0.16 56.84 C12.39 44.3, 22.33 28.12, 48.39 0.99 M-0.16 56.84 C16.88 37.03, 34.45 16.57, 48.39 0.99 M0.24 62.48 C14.27 47.06, 25.42 29.63, 53.38 1.35 M0.24 62.48 C16.76 43.96, 33.76 25.23, 53.38 1.35 M-0.02 68.88 C19.74 43.91, 42.38 20.38, 59.02 0.96 M-0.02 68.88 C20.63 45.43, 39.48 22.48, 59.02 0.96 M0.37 74.52 C19.34 51.26, 42.99 28.18, 64.01 1.32 M0.37 74.52 C20.05 53.05, 39.85 30.17, 64.01 1.32 M1.42 79.41 C24.94 53.33, 47.51 29.05, 68.99 1.68 M1.42 79.41 C21.27 55.74, 42.04 32.3, 68.99 1.68 M2.47 84.3 C19.85 65.5, 34.42 46.96, 74.64 1.28 M2.47 84.3 C25.54 57.55, 51.18 29.54, 74.64 1.28 M3.52 89.19 C22 68.62, 42.33 47.33, 79.62 1.64 M3.52 89.19 C33.45 56.32, 61.31 22.38, 79.62 1.64 M4.57 94.08 C27.48 68.72, 50.2 42.84, 85.27 1.25 M4.57 94.08 C25.05 70.71, 46.04 47.54, 85.27 1.25 M6.94 97.45 C31.84 64.24, 60.05 35.16, 89.6 2.36 M6.94 97.45 C34.54 67.04, 61.31 36.54, 89.6 2.36 M9.95 100.08 C29.17 78.34, 43.34 58.75, 93.27 4.23 M9.95 100.08 C36.12 70.28, 61.94 41.32, 93.27 4.23 M12.97 102.7 C29.82 81.64, 47.99 62.62, 96.95 6.1 M12.97 102.7 C32.46 78.92, 52.75 55.93, 96.95 6.1 M17.3 103.82 C35.75 85.13, 50.57 65.34, 99.97 8.72 M17.3 103.82 C37.42 80.36, 57.97 57.31, 99.97 8.72 M21.63 104.93 C46.06 80.23, 65.11 55.89, 102.33 12.1 M21.63 104.93 C44.65 78.15, 68.92 50.7, 102.33 12.1 M26.62 105.29 C46.89 85.8, 63.17 64.39, 103.38 16.99 M26.62 105.29 C57.54 70.28, 87.58 33.82, 103.38 16.99 M32.26 104.9 C56.63 79.67, 76.79 52.22, 104.43 21.88 M32.26 104.9 C58.57 73.85, 85.58 42.88, 104.43 21.88 M37.25 105.26 C64.25 75.68, 88.94 44.91, 105.48 26.77 M37.25 105.26 C52.27 87.85, 67.31 72.16, 105.48 26.77 M42.89 104.86 C59.62 87.3, 77.55 67.26, 105.22 33.17 M42.89 104.86 C59.11 88.53, 74.89 69.98, 105.22 33.17 M47.88 105.22 C60.24 90.79, 71.9 75.31, 104.96 39.56 M47.88 105.22 C67.74 83.52, 86.58 60.34, 104.96 39.56 M52.87 105.58 C67.36 92.13, 79.81 76.52, 105.35 45.21 M52.87 105.58 C62.84 92.88, 74.29 80.29, 105.35 45.21 M58.51 105.19 C72.88 89.66, 84.77 74.61, 105.09 51.6 M58.51 105.19 C71.44 89.15, 84.98 74.54, 105.09 51.6 M63.5 105.55 C79.31 87.16, 94.19 69.9, 104.83 58 M63.5 105.55 C72.62 94.52, 81.46 85.25, 104.83 58 M69.14 105.15 C80.66 94.06, 89.73 84.02, 105.23 63.65 M69.14 105.15 C78.4 95.8, 85.01 86.74, 105.23 63.65 M74.13 105.51 C82.62 92.19, 94.01 83.18, 104.96 70.04 M74.13 105.51 C84.64 93.35, 96.22 80.73, 104.96 70.04 M79.77 105.12 C84.85 95.28, 94.4 87.61, 104.7 76.44 M79.77 105.12 C88.37 94, 98.06 82.73, 104.7 76.44 M86.07 103.97 C92.37 97.45, 99.54 88.28, 105.1 82.08 M86.07 103.97 C92.68 96.17, 101.03 86.19, 105.1 82.08 M94.34 100.56 C96.23 96.49, 102.6 92.02, 106.15 86.97 M94.34 100.56 C99.73 95.95, 104.41 90.6, 106.15 86.97" stroke="#a5d8ff" stroke-width="0.5" fill="none"></path><path d="M26 0 M26 0 C41.96 -1.28, 55.91 -1.89, 78 0 M26 0 C36.22 0.68, 46.59 0.42, 78 0 M78 0 C94.99 1.85, 103.24 6.96, 104 26 M78 0 C97.07 1.95, 106.28 10.11, 104 26 M104 26 C103.74 42.07, 104.82 59.41, 104 78 M104 26 C103.07 43.41, 104.73 61.55, 104 78 M104 78 C103.43 95.44, 96.26 105.49, 78 104 M104 78 C102.08 95.96, 94.28 101.9, 78 104 M78 104 C61.68 103, 40.74 104.59, 26 104 M78 104 C64.61 103.44, 50.83 103.67, 26 104 M26 104 C7.12 102.66, 0.85 95.43, 0 78 M26 104 C9.54 104.1, 1.14 93.89, 0 78 M0 78 C-0.44 64.2, 2.35 50.01, 0 26 M0 78 C-0.14 63.22, -0.82 49.81, 0 26 M0 26 C-1.74 10.06, 8.58 -0.52, 26 0 M0 26 C1.02 9.05, 9.59 0.95, 26 0" stroke="#1e1e1e" stroke-width="1" fill="none"></path></g><g transform="translate(570.466667175293 354.5) rotate(0 25.53333282470703 12.5)"><text x="25.53333282470703" y="0" font-family="Virgil, Segoe UI Emoji" font-size="20px" fill="#1e1e1e" text-anchor="middle" style="white-space: pre;" direction="ltr" dominant-baseline="text-before-edge">Row2</text></g><g stroke-linecap="round" transform="translate(545 440) rotate(0 52 52)"><path d="M6.26 6.77 C6.26 6.77, 6.26 6.77, 6.26 6.77 M6.26 6.77 C6.26 6.77, 6.26 6.77, 6.26 6.77 M3.38 16.19 C7.67 12.86, 9.4 8.68, 12.56 5.62 M3.38 16.19 C4.86 14.41, 6.73 11.02, 12.56 5.62 M-0.16 26.36 C5.59 19.9, 9.94 16.74, 18.86 4.47 M-0.16 26.36 C3.33 22.33, 8.88 16.88, 18.86 4.47 M0.23 32 C8.23 22.54, 20.25 9.17, 27.13 1.06 M0.23 32 C7.73 23.33, 15.63 14.99, 27.13 1.06 M-0.03 38.4 C8.63 27.85, 19.13 16.4, 32.12 1.42 M-0.03 38.4 C11.73 24.39, 23.45 10.81, 32.12 1.42 M0.36 44.04 C11.2 28.19, 24.67 17.44, 37.76 1.02 M0.36 44.04 C10.28 33.3, 18.6 22.67, 37.76 1.02 M0.1 50.44 C13.54 33.62, 29.98 13.75, 42.75 1.38 M0.1 50.44 C14.37 32.96, 30.52 15.45, 42.75 1.38 M-0.16 56.84 C18.88 38.86, 33.56 16.37, 48.39 0.99 M-0.16 56.84 C16.21 38.26, 34.14 19.14, 48.39 0.99 M0.24 62.48 C18.33 41.9, 36.47 22.23, 53.38 1.35 M0.24 62.48 C20.09 40.59, 38.63 16.84, 53.38 1.35 M-0.02 68.88 C16.32 50.08, 29.87 33.36, 59.02 0.96 M-0.02 68.88 C14.23 54.9, 26.43 37.83, 59.02 0.96 M0.37 74.52 C21.23 49.24, 41.25 25.66, 64.01 1.32 M0.37 74.52 C22.56 48.72, 44.25 23.76, 64.01 1.32 M1.42 79.41 C19.34 58.97, 37.66 35.81, 68.99 1.68 M1.42 79.41 C24.17 51.64, 48.64 26.25, 68.99 1.68 M2.47 84.3 C28.14 57.91, 49.99 27.01, 74.64 1.28 M2.47 84.3 C28.47 52.36, 55.5 21.2, 74.64 1.28 M3.52 89.19 C29.28 61, 51.75 34.05, 79.62 1.64 M3.52 89.19 C30.68 58.59, 57.1 27.44, 79.62 1.64 M4.57 94.08 C27.01 65.97, 49.96 37.76, 85.27 1.25 M4.57 94.08 C29.84 66.03, 54.68 36.7, 85.27 1.25 M6.94 97.45 C24.36 76.85, 39.43 58.62, 89.6 2.36 M6.94 97.45 C30.48 67.99, 56.88 41.35, 89.6 2.36 M9.95 100.08 C30.95 78.16, 49.75 55.37, 93.27 4.23 M9.95 100.08 C33.3 71.65, 57.66 43.27, 93.27 4.23 M12.97 102.7 C30.52 82.98, 49.77 59.56, 96.95 6.1 M12.97 102.7 C31.96 80.07, 53.71 58.05, 96.95 6.1 M17.3 103.82 C47.28 67.87, 79.45 31.96, 99.97 8.72 M17.3 103.82 C41.88 74.14, 66.34 47.13, 99.97 8.72 M21.63 104.93 C46.93 76.52, 73.9 47.09, 102.33 12.1 M21.63 104.93 C52.25 67.2, 83.98 31.7, 102.33 12.1 M26.62 105.29 C58.73 70.43, 87.8 37.24, 103.38 16.99 M26.62 105.29 C57.09 71.39, 86.01 37.71, 103.38 16.99 M32.26 104.9 C56.97 78.96, 76.76 51.21, 104.43 21.88 M32.26 104.9 C50.94 85.41, 68.06 65.94, 104.43 21.88 M37.25 105.26 C57.71 78.73, 80.41 54.08, 105.48 26.77 M37.25 105.26 C51.11 87.47, 65.7 71.84, 105.48 26.77 M42.89 104.86 C62.26 79.81, 82.94 57.51, 105.22 33.17 M42.89 104.86 C65.98 77.17, 91.32 48.46, 105.22 33.17 M47.88 105.22 C68.48 83.41, 86.89 62.58, 104.96 39.56 M47.88 105.22 C65.33 83.98, 83.83 63.99, 104.96 39.56 M52.87 105.58 C71.14 82.91, 93.36 57.38, 105.35 45.21 M52.87 105.58 C69.58 86, 86.39 67.72, 105.35 45.21 M58.51 105.19 C74.44 88.04, 89.86 68.05, 105.09 51.6 M58.51 105.19 C72.34 89.88, 84.68 75.64, 105.09 51.6 M63.5 105.55 C73.85 91.21, 87.23 78.25, 104.83 58 M63.5 105.55 C72.24 94.05, 81.82 85.36, 104.83 58 M69.14 105.15 C78.45 93.17, 89.56 81.98, 105.23 63.65 M69.14 105.15 C81.18 92.72, 91.41 78.02, 105.23 63.65 M74.13 105.51 C82.2 99.05, 88.43 89.1, 104.96 70.04 M74.13 105.51 C85.46 92.35, 96.23 77.77, 104.96 70.04 M79.77 105.12 C86.53 100.15, 90.24 91.7, 104.7 76.44 M79.77 105.12 C88.01 97.14, 94.92 87.93, 104.7 76.44 M86.07 103.97 C94.95 95.95, 100.96 86.13, 105.1 82.08 M86.07 103.97 C93.29 94.88, 100.68 86.27, 105.1 82.08 M94.34 100.56 C99.19 95.21, 101.06 94.18, 106.15 86.97 M94.34 100.56 C98.6 95.58, 103.58 90.52, 106.15 86.97" stroke="#a5d8ff" stroke-width="0.5" fill="none"></path><path d="M26 0 M26 0 C37.39 1.05, 50.6 -0.58, 78 0 M26 0 C42.32 0.97, 58.6 -0.81, 78 0 M78 0 C96.84 1.7, 105.98 9.93, 104 26 M78 0 C95.57 1.08, 102.52 8.09, 104 26 M104 26 C104.9 40.8, 103.74 55.3, 104 78 M104 26 C104.18 40.94, 104.93 56.52, 104 78 M104 78 C102.33 95.88, 94.42 102.17, 78 104 M104 78 C105.13 96.09, 96.59 106.1, 78 104 M78 104 C65.01 102.49, 52.7 104.7, 26 104 M78 104 C63.46 103.26, 50.89 103.98, 26 104 M26 104 C9.43 104.09, 0.99 94.08, 0 78 M26 104 C7.54 102.02, 2.2 94.31, 0 78 M0 78 C-0.89 64.34, -0.92 50.38, 0 26 M0 78 C-0.44 64.17, 0.38 48.69, 0 26 M0 26 C0.89 9, 9.47 0.83, 26 0 M0 26 C0.29 7.14, 10.64 -1.78, 26 0" stroke="#1e1e1e" stroke-width="1" fill="none"></path></g><g transform="translate(571.7749996185303 479.5) rotate(0 25.225000381469727 12.5)"><text x="25.225000381469727" y="0" font-family="Virgil, Segoe UI Emoji" font-size="20px" fill="#1e1e1e" text-anchor="middle" style="white-space: pre;" direction="ltr" dominant-baseline="text-before-edge">Row3</text></g><g transform="translate(36 56) rotate(0 26.358333587646484 12.5)"><text x="0" y="0" font-family="Virgil, Segoe UI Emoji" font-size="20px" fill="#1e1e1e" text-anchor="start" style="white-space: pre;" direction="ltr" dominant-baseline="text-before-edge">Game</text></g><g stroke-linecap="round" transform="translate(40.85245901639337 275.96721311475414) rotate(0 51.14754098360652 51.147540983606575)"><path d="M26.2 -1.29 L80.78 -1.49 L92.15 1.99 L97.64 8.29 L104.2 24.31 L103.74 83.57 L100.02 90.44 L93.63 97.11 L76.9 102.25 L18.05 103.45 L8.04 97.25 L2.48 93.19 L-1.94 77.93 L-1.3 26.48 L2.48 12.59 L2.19 8.15 L8.68 4.38 L27.35 -0.9" stroke="none" stroke-width="0" fill="#b2f2bb"></path><path d="M25.57 0 M25.57 0 C42.17 1.68, 62.93 -0.55, 76.72 0 M25.57 0 C39.96 0.45, 54.92 1.12, 76.72 0 M76.72 0 C93.71 -1.74, 100.57 7.32, 102.3 25.57 M76.72 0 C93.95 -0.3, 101.94 9.94, 102.3 25.57 M102.3 25.57 C101.66 41.46, 101.24 56.88, 102.3 76.72 M102.3 25.57 C101.66 39.18, 103.25 52.38, 102.3 76.72 M102.3 76.72 C101.4 93.62, 94.2 102.63, 76.72 102.3 M102.3 76.72 C100.06 94.86, 94.94 100.53, 76.72 102.3 M76.72 102.3 C56.64 100.57, 38.55 104.22, 25.57 102.3 M76.72 102.3 C57.23 103.03, 37.71 102.1, 25.57 102.3 M25.57 102.3 C7.11 103.65, 1.74 92.36, 0 76.72 M25.57 102.3 C7.75 103.21, -1.44 94.88, 0 76.72 M0 76.72 C0.63 64.35, -1.67 49.44, 0 25.57 M0 76.72 C0.01 61.53, 0.53 45.89, 0 25.57 M0 25.57 C1.21 10.43, 7.9 -0.86, 25.57 0 M0 25.57 C-0.78 9.1, 8.82 0.92, 25.57 0" stroke="#1e1e1e" stroke-width="1" fill="none"></path></g><g transform="translate(61.63333320617676 314.61475409836066) rotate(0 30.366666793823242 12.5)"><text x="30.366666793823242" y="0" font-family="Virgil, Segoe UI Emoji" font-size="20px" fill="#1e1e1e" text-anchor="middle" style="white-space: pre;" direction="ltr" dominant-baseline="text-before-edge">Player</text></g><g stroke-linecap="round" transform="translate(26 207) rotate(0 252.5 118.03278688524591)"><path d="M32 0 M32 0 C120.86 -0.36, 210.47 1.12, 473 0 M32 0 C136.7 -1.4, 241.07 -1.34, 473 0 M473 0 C494.51 -0.04, 503.47 12.23, 505 32 M473 0 C492.09 -1.67, 503.71 11.68, 505 32 M505 32 C506.95 67.83, 504.24 100.5, 505 204.07 M505 32 C504.76 67.33, 504.47 103.14, 505 204.07 M505 204.07 C504.97 223.58, 496 236.59, 473 236.07 M505 204.07 C504.35 225.19, 493.04 234.93, 473 236.07 M473 236.07 C363.88 235.08, 252.16 234.25, 32 236.07 M473 236.07 C367.28 236.09, 261.73 236.06, 32 236.07 M32 236.07 C10.95 235.15, 0.47 224.06, 0 204.07 M32 236.07 C11.21 235.3, 1.08 223.77, 0 204.07 M0 204.07 C-0.87 166.61, -0.1 131.39, 0 32 M0 204.07 C2.18 148.79, 2.51 94.1, 0 32 M0 32 C0.75 10.25, 8.75 1.16, 32 0 M0 32 C2 12.67, 9.36 1.05, 32 0" stroke="#1e1e1e" stroke-width="1" fill="none"></path></g><g transform="translate(45.672131147540995 230.60655737704917) rotate(0 35.349998474121094 12.295081967213093)"><text x="0" y="0" font-family="Virgil, Segoe UI Emoji" font-size="19.672131147540984px" fill="#1e1e1e" text-anchor="start" style="white-space: pre;" direction="ltr" dominant-baseline="text-before-edge">Players</text></g><g stroke-linecap="round" transform="translate(165.83606557377038 273.688524590164) rotate(0 51.14754098360652 51.147540983606575)"><path d="M24.51 -1.7 L84.62 -0.87 L94.15 4.45 L100.02 8.12 L103.62 23.98 L102.07 82.67 L97.17 93.86 L90.35 97.25 L75.6 103.18 L17.64 103.1 L8.69 99.61 L4.48 90.51 L-1.4 74.88 L-1.31 26.36 L3.37 13.49 L4.8 9.16 L9.96 1.78 L27.24 0.53" stroke="none" stroke-width="0" fill="#b2f2bb"></path><path d="M25.57 0 M25.57 0 C38.49 -0.72, 53.79 -0.58, 76.72 0 M25.57 0 C44.49 -0.16, 65.22 0.31, 76.72 0 M76.72 0 C93.46 1.23, 102.32 9.64, 102.3 25.57 M76.72 0 C94.09 -1.06, 102.84 6.98, 102.3 25.57 M102.3 25.57 C100.7 40.38, 102.07 60.12, 102.3 76.72 M102.3 25.57 C102.28 38.75, 101.09 52.06, 102.3 76.72 M102.3 76.72 C103.31 92.24, 95.46 100.4, 76.72 102.3 M102.3 76.72 C103.15 93.29, 91.56 103.63, 76.72 102.3 M76.72 102.3 C57.85 102.63, 38.14 103.19, 25.57 102.3 M76.72 102.3 C64.44 101.94, 50.07 103.04, 25.57 102.3 M25.57 102.3 C7.27 103.26, -0.94 95.02, 0 76.72 M25.57 102.3 C10.76 103.39, 0.67 92.21, 0 76.72 M0 76.72 C0.81 64.49, 1.27 53.7, 0 25.57 M0 76.72 C-0.62 56.46, -0.65 37.32, 0 25.57 M0 25.57 C0.25 9.33, 7.88 -1.36, 25.57 0 M0 25.57 C0.8 6.81, 6.49 -1.36, 25.57 0" stroke="#1e1e1e" stroke-width="1" fill="none"></path></g><g transform="translate(186.61693976355377 312.3360655737705) rotate(0 30.366666793823242 12.5)"><text x="30.366666793823242" y="0" font-family="Virgil, Segoe UI Emoji" font-size="20px" fill="#1e1e1e" text-anchor="middle" style="white-space: pre;" direction="ltr" dominant-baseline="text-before-edge">Player</text></g><g stroke-linecap="round" transform="translate(291.8360655737704 273.4262295081967) rotate(0 51.14754098360652 51.147540983606575)"><path d="M27.48 -1.27 L84.56 1.25 L93.63 1.73 L100.03 8.4 L102.47 25.53 L100.37 84.27 L96.74 90.85 L91.19 99.58 L74.78 103.5 L18.28 102.81 L10.87 96.9 L2.19 90.46 L-1.31 77.51 L1.77 24.68 L2.8 13.55 L3.56 8.17 L11.66 4.12 L25.01 -0.18" stroke="none" stroke-width="0" fill="#b2f2bb"></path><path d="M25.57 0 M25.57 0 C38.44 -0.61, 52.25 0.2, 76.72 0 M25.57 0 C36.56 0.18, 47.23 0.92, 76.72 0 M76.72 0 C93.8 1.12, 102.57 7.6, 102.3 25.57 M76.72 0 C94.31 -1.54, 102.84 7.76, 102.3 25.57 M102.3 25.57 C101.88 44.76, 101.02 60.19, 102.3 76.72 M102.3 25.57 C101.44 41.01, 102.91 54.73, 102.3 76.72 M102.3 76.72 C103.98 91.88, 94.52 101.87, 76.72 102.3 M102.3 76.72 C100.09 95.1, 95.77 104.3, 76.72 102.3 M76.72 102.3 C65.29 103.64, 51 101.05, 25.57 102.3 M76.72 102.3 C57.57 102.33, 38.46 102.42, 25.57 102.3 M25.57 102.3 C7.59 103.55, 1.95 94.73, 0 76.72 M25.57 102.3 C9.19 100.74, -1.58 94, 0 76.72 M0 76.72 C1.1 64.16, 1.53 51.53, 0 25.57 M0 76.72 C-0.18 56.76, 0.29 36.7, 0 25.57 M0 25.57 C-0.65 7.17, 9.22 -1.49, 25.57 0 M0 25.57 C-2.03 7.17, 9.29 2.29, 25.57 0" stroke="#1e1e1e" stroke-width="1" fill="none"></path></g><g transform="translate(312.616939763554 312.0737704918032) rotate(0 30.366666793823242 12.5)"><text x="30.366666793823242" y="0" font-family="Virgil, Segoe UI Emoji" font-size="20px" fill="#1e1e1e" text-anchor="middle" style="white-space: pre;" direction="ltr" dominant-baseline="text-before-edge">Player</text></g><g stroke-linecap="round" transform="translate(413.8360655737706 272.13114754098365) rotate(0 51.14754098360663 51.147540983606575)"><path d="M27.42 0.85 L84.04 -1.47 L93.63 2 L98.87 9.95 L100.77 27.13 L99.94 81.26 L97.58 93.19 L90.37 99.9 L75.42 103.21 L20.46 100.1 L8.59 96.86 L2.28 93.09 L1.77 75.82 L1.2 24.74 L1.56 12.57 L5.27 10.52 L9.43 3.42 L24.45 -0.99" stroke="none" stroke-width="0" fill="#b2f2bb"></path><path d="M25.57 0 M25.57 0 C40.07 0.16, 49.35 -1.5, 76.72 0 M25.57 0 C37.67 0.68, 50.09 0.63, 76.72 0 M76.72 0 C94.05 -0.92, 102.77 7.18, 102.3 25.57 M76.72 0 C94.32 -0.77, 103.38 6.89, 102.3 25.57 M102.3 25.57 C101.37 35.54, 102.13 47.74, 102.3 76.72 M102.3 25.57 C102.31 41.01, 102.64 57.03, 102.3 76.72 M102.3 76.72 C103.04 93.35, 91.85 103.45, 76.72 102.3 M102.3 76.72 C104.29 95.78, 92.46 103.35, 76.72 102.3 M76.72 102.3 C58.91 101.19, 44.18 104.34, 25.57 102.3 M76.72 102.3 C64.35 102.98, 52.77 103.12, 25.57 102.3 M25.57 102.3 C10.47 103.25, 0.58 92.42, 0 76.72 M25.57 102.3 C6.95 102.52, -0.96 94.76, 0 76.72 M0 76.72 C1.41 63.61, 1.57 47.46, 0 25.57 M0 76.72 C0.3 63.99, -0.15 49.78, 0 25.57 M0 25.57 C0.7 7.04, 6.76 -1.18, 25.57 0 M0 25.57 C0.77 10.81, 6.72 -1.73, 25.57 0" stroke="#1e1e1e" stroke-width="1" fill="none"></path></g><g transform="translate(434.991939763554 310.98360655737713) rotate(0 29.991666793823242 12.295081967213093)"><text x="29.991666793823242" y="0" font-family="Virgil, Segoe UI Emoji" font-size="19.672131147540984px" fill="#1e1e1e" text-anchor="middle" style="white-space: pre;" direction="ltr" dominant-baseline="text-before-edge">Player</text></g><g stroke-linecap="round" transform="translate(159 51) rotate(0 184.5 44.5)"><path d="M23.58 -1.59 L352.14 0.31 L361.91 7.12 L365.66 11.06 L367.88 23.13 L366.71 73.17 L362.14 84.35 L357.36 85.81 L345.35 87.16 L15.72 89.44 L7.34 82.54 L2.59 75.65 L-0.03 64.93 L1.67 22.78 L0.83 12.34 L4.44 4.57 L11.5 1.79 L21.38 1.74" stroke="none" stroke-width="0" fill="#ffec99"></path><path d="M22.25 0 M22.25 0 C117.81 2.04, 214.87 1.72, 346.75 0 M22.25 0 C139.67 -1.58, 257.07 -1.72, 346.75 0 M346.75 0 C362.06 -0.67, 369.94 6, 369 22.25 M346.75 0 C359.57 -0.06, 370.64 6.36, 369 22.25 M369 22.25 C369.3 31.66, 369.91 45.96, 369 66.75 M369 22.25 C369.75 31.98, 368.42 42.71, 369 66.75 M369 66.75 C370.74 83.33, 360.45 89.91, 346.75 89 M369 66.75 C369.72 82.73, 362.95 88.02, 346.75 89 M346.75 89 C271.31 90.49, 198.38 90.09, 22.25 89 M346.75 89 C234.36 90.74, 120.82 89.94, 22.25 89 M22.25 89 C6.04 89.2, -0.84 82.45, 0 66.75 M22.25 89 C6.96 90.52, 0.74 83.6, 0 66.75 M0 66.75 C-1.29 50.04, 0.08 34.94, 0 22.25 M0 66.75 C0.49 50.87, -0.74 35.89, 0 22.25 M0 22.25 C0.67 9.41, 5.85 -1.51, 22.25 0 M0 22.25 C0.73 8.49, 9.67 0.1, 22.25 0" stroke="#1e1e1e" stroke-width="1" fill="none"></path></g><g transform="translate(313.9833335876465 56) rotate(0 29.516666412353516 12.5)"><text x="29.516666412353516" y="0" font-family="Virgil, Segoe UI Emoji" font-size="20px" fill="#1e1e1e" text-anchor="middle" style="white-space: pre;" direction="ltr" dominant-baseline="text-before-edge">State</text></g><g stroke-linecap="round" transform="translate(172 96) rotate(0 51.5 17.5)"><path d="M7.22 1.56 L96.12 -0.91 L101.34 5.8 L100.52 31.28 L96.78 35.36 L95.13 33.2 L3.52 32.61 L-0.77 30.87 L1.77 7.85 L3.39 1.36 L8.72 -1.82" stroke="none" stroke-width="0" fill="#e9ecef"></path><path d="M8.75 0 M8.75 0 C41.36 -0.88, 73.33 -0.77, 94.25 0 M8.75 0 C36.07 -1.61, 62.59 -1.35, 94.25 0 M94.25 0 C100.24 -0.26, 102.69 4.15, 103 8.75 M94.25 0 C100.11 1.29, 103.32 1.86, 103 8.75 M103 8.75 C102.3 15.24, 101.64 18.54, 103 26.25 M103 8.75 C102.73 13.89, 103.31 19.3, 103 26.25 M103 26.25 C101.06 33.03, 101.1 33.47, 94.25 35 M103 26.25 C104.94 29.91, 100.94 34.52, 94.25 35 M94.25 35 C78.55 34.6, 60.27 36.37, 8.75 35 M94.25 35 C63.62 35.31, 35.26 33.93, 8.75 35 M8.75 35 C2.24 35.79, -1.26 33.05, 0 26.25 M8.75 35 C1.84 36.44, 2.24 33.18, 0 26.25 M0 26.25 C0.29 19.76, 0.87 14.39, 0 8.75 M0 26.25 C0.47 20.68, -0.33 13.06, 0 8.75 M0 8.75 C-0.68 3.42, 3.17 0.8, 8.75 0 M0 8.75 C-0.75 1.36, 3.72 -1.71, 8.75 0" stroke="#1e1e1e" stroke-width="1" fill="none"></path></g><g transform="translate(189.20000076293945 101) rotate(0 34.29999923706055 12.5)"><text x="34.29999923706055" y="0" font-family="Virgil, Segoe UI Emoji" font-size="20px" fill="#1e1e1e" text-anchor="middle" style="white-space: pre;" direction="ltr" dominant-baseline="text-before-edge">Pending</text></g><g stroke-linecap="round" transform="translate(293.5 95.5) rotate(0 51.5 17.5)"><path d="M7.63 0.88 L96.14 1.75 L101.15 5.83 L103.33 28.28 L96.67 32.61 L92.94 35.79 L6.7 33.55 L1.75 29.25 L-0.03 6.93 L3.86 2.71 L8.19 -0.18" stroke="none" stroke-width="0" fill="#e9ecef"></path><path d="M8.75 0 M8.75 0 C29.99 -0.44, 52.17 0.37, 94.25 0 M8.75 0 C27.06 0.39, 45.06 1.13, 94.25 0 M94.25 0 C100.11 1.12, 103.28 2, 103 8.75 M94.25 0 C100.63 -1.54, 103.55 2.15, 103 8.75 M103 8.75 C102.83 16.07, 102.07 20.11, 103 26.25 M103 8.75 C102.19 14.28, 103.48 18.32, 103 26.25 M103 26.25 C104.69 30.19, 100.83 34.58, 94.25 35 M103 26.25 C100.79 33.42, 102.08 37.01, 94.25 35 M94.25 35 C74.47 36.45, 51.83 33.86, 8.75 35 M94.25 35 C62.46 34.79, 30.71 34.88, 8.75 35 M8.75 35 C1.98 36.25, 1.95 33.04, 0 26.25 M8.75 35 C3.58 33.44, -1.58 32.31, 0 26.25 M0 26.25 C1.08 22.29, 1.46 18.27, 0 8.75 M0 26.25 C-0.24 19.56, 0.17 12.77, 0 8.75 M0 8.75 C-0.65 1.56, 3.62 -1.49, 8.75 0 M0 8.75 C-2.03 1.56, 3.68 2.29, 8.75 0" stroke="#1e1e1e" stroke-width="1" fill="none"></path></g><g transform="translate(314.88333320617676 100.5) rotate(0 30.116666793823242 12.5)"><text x="30.116666793823242" y="0" font-family="Virgil, Segoe UI Emoji" font-size="20px" fill="#1e1e1e" text-anchor="middle" style="white-space: pre;" direction="ltr" dominant-baseline="text-before-edge">Active</text></g><g stroke-linecap="round" transform="translate(413.5 94.5) rotate(0 51.5 17.5)"><path d="M7.45 0.91 L98.96 -1.25 L101.05 3.08 L101.14 30.87 L99.85 33.55 L95.45 34.17 L4.89 32.64 L2.22 30.6 L-0.56 8.57 L1.06 1.2 L7.74 0.4" stroke="none" stroke-width="0" fill="#b2f2bb"></path><path d="M8.75 0 M8.75 0 C28.95 -1.7, 51.41 0.18, 94.25 0 M8.75 0 C33.31 0.03, 57.98 -0.99, 94.25 0 M94.25 0 C100.55 -1.34, 103.48 2.25, 103 8.75 M94.25 0 C101.17 -1.63, 100.99 2.85, 103 8.75 M103 8.75 C102.79 15.63, 103.21 20.05, 103 26.25 M103 8.75 C103.83 14, 103.42 20.73, 103 26.25 M103 26.25 C101.08 33.24, 101.82 36.74, 94.25 35 M103 26.25 C101.69 33.13, 100.81 36.15, 94.25 35 M94.25 35 C64.89 36.14, 31.4 33.72, 8.75 35 M94.25 35 C64.74 36.04, 37.15 35.89, 8.75 35 M8.75 35 C3.5 33.65, -1.37 32.28, 0 26.25 M8.75 35 C1.95 35.99, -0.46 33.6, 0 26.25 M0 26.25 C1.51 19.89, -0.91 14.04, 0 8.75 M0 26.25 C-0.31 19.97, 0.28 14.22, 0 8.75 M0 8.75 C-1.77 1.74, 3.58 1.99, 8.75 0 M0 8.75 C-1.8 1.18, 3.65 1.07, 8.75 0" stroke="#2f9e44" stroke-width="1" fill="none"></path></g><g transform="translate(428.67499923706055 99.5) rotate(0 36.32500076293945 12.5)"><text x="36.32500076293945" y="0" font-family="Virgil, Segoe UI Emoji" font-size="20px" fill="#2f9e44" text-anchor="middle" style="white-space: pre;" direction="ltr" dominant-baseline="text-before-edge">Finished</text></g><g transform="translate(29.90833282470703 10) rotate(0 81.09166717529297 12.5)"><text x="81.09166717529297" y="0" font-family="Virgil, Segoe UI Emoji" font-size="20px" fill="#1e1e1e" text-anchor="middle" style="white-space: pre;" direction="ltr" dominant-baseline="text-before-edge">Determine Winner</text></g><g transform="translate(103.28333377838135 346) rotate(0 13.216666221618652 12.5)"><text x="13.216666221618652" y="0" font-family="Virgil, Segoe UI Emoji" font-size="20px" fill="#e03131" text-anchor="middle" style="white-space: pre;" direction="ltr" dominant-baseline="text-before-edge">-14</text></g><g transform="translate(223.46666717529297 342.5) rotate(0 18.03333282470703 12.5)"><text x="18.03333282470703" y="0" font-family="Virgil, Segoe UI Emoji" font-size="20px" fill="#e03131" text-anchor="middle" style="white-space: pre;" direction="ltr" dominant-baseline="text-before-edge">-23</text></g><g transform="translate(353.2749996185303 342.5) rotate(0 11.225000381469727 12.5)"><text x="11.225000381469727" y="0" font-family="Virgil, Segoe UI Emoji" font-size="20px" fill="#e03131" text-anchor="middle" style="white-space: pre;" direction="ltr" dominant-baseline="text-before-edge">-2</text></g><g transform="translate(476.30000019073486 341.5) rotate(0 12.199999809265137 12.5)"><text x="12.199999809265137" y="0" font-family="Virgil, Segoe UI Emoji" font-size="20px" fill="#e03131" text-anchor="middle" style="white-space: pre;" direction="ltr" dominant-baseline="text-before-edge">-17</text></g><g transform="translate(347.93809829886595 358.6552197416229) rotate(9.782132738394608 10.327324477017555 -90.39330624021596)" stroke="none"><path d="M-12.43 -63.77 L-8.99 -66.51 L-11.18 -67.13 L-9.56 -67.54 L-9.1 -71.17 L-9 -74.02 L-14.03 -81.63 L-14.96 -85.66 L-14.83 -88.3 L-15.15 -88.58 L-14.77 -90.91 L-15.54 -94.9 L-17.17 -97.65 L-16.69 -101.81 L-18.47 -103.24 L-18.9 -104.69 L-20.04 -105.92 L-19.24 -108.79 L-19.98 -112.66 L-18.49 -110.36 L-18.58 -111.35 L-17.8 -109.82 L-19.56 -111.88 L-16.25 -111.51 L-15.53 -107.26 L-15.04 -106.54 L-12.26 -105.89 L-9.77 -101.05 L-8.82 -101.91 L-10.09 -100.83 L-6.78 -99.09 L-8.08 -99.66 L-6.01 -98.56 L-6.89 -97.2 L-5.72 -99.03 L-4.42 -97.03 L-4.29 -97.01 L-4.3 -95.33 L-3.41 -98.16 L-4.95 -97.04 L-4.83 -93.91 L-6.51 -96.16 L-3.46 -94.17 L-2.57 -94.57 L-2.64 -96 L-1.33 -94.77 L-3.8 -92.68 L-1.33 -95.13 L-4.34 -92.66 L-2.82 -95.52 L-3.74 -91.27 L-3.53 -91.28 L-1.48 -92.33 L-0.22 -91.19 L-2.66 -94.12 L-2.23 -91.08 L-1.25 -90.96 L0.73 -89.13 L-1.29 -92.5 L-0.31 -90.98 L2.04 -88.86 L0.89 -90.87 L3.11 -87.77 L2.43 -90.49 L0.22 -89.85 L0.66 -90.77 L1.67 -91.07 L4.3 -90.78 L4.15 -90.99 L4.77 -91.09 L4.58 -91.65 L3.62 -95.26 L2.47 -95.1 L4.62 -97.65 L5.11 -97.45 L4.82 -100.59 L5.06 -101 L3.96 -103.39 L5.31 -104.35 L3.43 -104.36 L6.17 -104.32 L6.04 -105.99 L4.99 -103.74 L5.56 -103.99 L5.36 -106.36 L4.73 -106.66 L5.24 -105.98 L5.27 -106.19 L7.02 -109.71 L6.3 -107.39 L5.74 -108.96 L8.59 -110.96 L5.71 -109.35 L7.62 -111.94 L9.68 -110.99 L8.12 -113.8 L9.26 -112.68 L9.07 -112.5 L9.99 -113.46 L8.01 -115.52 L11.21 -113.26 L11.41 -114.45 L11.07 -116.74 L8.75 -116.39 L10.4 -114.33 L10.45 -114.73 L9.29 -114.52 L9.91 -117.08 L11.39 -116.04 L13.94 -112.47 L11.59 -110.74 L12.75 -110.3 L13.74 -108.25 L14.02 -107.17 L17.79 -102.91 L17.2 -101.86 L19.27 -101.98 L18.37 -99.46 L18.33 -100.04 L15.59 -97.51 L17.73 -96.66 L15.94 -97.17 L17.33 -97.37 L19.67 -94.2 L19.64 -93.55 L17.35 -94.72 L18.43 -93.23 L18.06 -95.43 L19.04 -95.59 L15.86 -94.94 L17.2 -95.17 L16.21 -91.76 L19.27 -93.66 L16.23 -92.58 L19.38 -92.96 L18.19 -93.71 L18.26 -91.45 L19.14 -92.52 L19.98 -92.22 L20.43 -95.65 L22.77 -96.15 L23.04 -94.76 L23.32 -95.52 L24.25 -95.64 L23.55 -96.33 L26.3 -97.94 L26.09 -99.12 L25.97 -98.19 L26.36 -98.62 L28.56 -100.55 L28.91 -100.07 L30.79 -102.92 L30.25 -103.83 L29.88 -101.54 L30.17 -101.63 L31.82 -101.42 L35.12 -102.53 L32.45 -101.97 L33.5 -104.31 L36.82 -104.73 L34.58 -102.54 L35.34 -103.79 L36.27 -103.24 L35.24 -105.18 L38.65 -103.61 L39.3 -106.62 L37.56 -104.61 L39.13 -103.96 L38.57 -107.24 L41.03 -104.72 L39.48 -106.97 L40.51 -108.38 L39.35 -106.87 L38.96 -106.53 L37.92 -105.78 L40.69 -104.45 L40.18 -101.7 L39.03 -103.99 L37.13 -101.73 L38.24 -102.49 L34.38 -97.48 L35.13 -96.98 L34.18 -95.44 L32.97 -94.55 L32.52 -93.66 L34.32 -92.31 L35.82 -93.17 L35.77 -89.47 L33.59 -90.54 L34.86 -91.56 L34.62 -87.92 L34.82 -89.86 L31.67 -87.51 L33.56 -89.97 L34.59 -86.39 L34.25 -89.42 L33.2 -86.57 L34.74 -85.87 L32.6 -87.2 L34.56 -85.34 L32.11 -84.79 L33.77 -83.75 L30.34 -82.3 L33.58 -83.63 L33.41 -83.6 L30.86 -82.25 L29.88 -79.49 L32.56 -79.53 L30.93 -79.46 L31.93 -80.81 L31.04 -80.8 L28.75 -78.05 L32.21 -79.93 L31.75 -77.55 L29.56 -76.64 L27.78 -77.51 L28.78 -75.63 L26.82 -77.17 L26.03 -74.29 L27.65 -73.48 L28.06 -68.69 L23.76 -68.36 L27.62 -70.24 L26.74 -67.64 L23.19 -68.63 L24.27 -66.24 L25.46 -67.13 L25.19 -64.31 L23.74 -64.12 L24.67 -65.21 L22.2 -65.83 L22.62 -65.13 L23.21 -65.12 L23.02 -64.38 L21.32 -64.46 L20.84 -64.97 L19.1 -66.81 L12.5 -66.82 L7.77 -66.43 L0.92 -69.33 L-4.35 -66.57 L-4.87 -67.6 L-6.89 -68.46 L-6.51 -67.28 L-9.41 -69.78 L-9.46 -66.6 L-7.51 -68.94 L-7.37 -65.95 L-10.61 -63.51" stroke="none" stroke-width="0" fill="#ffec99" fill-rule="evenodd"></path><path fill="#1e1e1e" d="M -12.76,-65.48 Q -12.76,-65.48 -12.43,-67.48 -12.10,-69.48 -12.10,-71.21 -12.11,-72.94 -12.64,-75.02 -13.17,-77.11 -13.68,-78.97 -14.19,-80.83 -14.69,-82.49 -15.19,-84.15 -15.69,-85.58 -16.19,-87.01 -16.58,-88.44 -16.98,-89.87 -17.40,-91.14 -17.82,-92.42 -18.14,-94.10 -18.47,-95.77 -18.84,-97.26 -19.21,-98.75 -19.45,-100.02 -19.68,-101.28 -19.91,-102.50 -20.14,-103.72 -20.55,-105.62 -20.95,-107.51 -21.09,-108.93 -21.24,-110.35 -21.42,-110.54 -21.60,-110.74 -21.65,-111.07 -21.71,-111.40 -21.68,-111.74 -21.65,-112.08 -21.54,-112.40 -21.44,-112.72 -21.26,-113.00 -21.08,-113.29 -20.83,-113.52 -20.59,-113.75 -20.30,-113.92 -20.01,-114.09 -19.68,-114.18 -19.36,-114.28 -19.02,-114.29 -18.68,-114.30 -18.35,-114.24 -18.02,-114.17 -17.72,-114.02 -17.42,-113.88 -17.15,-113.67 -16.89,-113.45 -16.69,-113.18 -16.49,-112.91 -16.36,-112.60 -16.22,-112.29 -15.06,-110.97 -13.90,-109.65 -13.00,-108.73 -12.10,-107.81 -11.19,-107.02 -10.29,-106.24 -9.45,-105.48 -8.60,-104.72 -7.43,-103.52 -6.26,-102.32 -5.27,-101.12 -4.27,-99.91 -3.21,-98.91 -2.14,-97.91 -1.43,-97.08 -0.73,-96.25 0.36,-95.52 1.46,-94.79 2.19,-93.78 2.93,-92.77 1.61,-92.41 0.28,-92.04 -0.07,-93.76 -0.43,-95.47 -0.35,-97.14 -0.28,-98.81 -0.09,-100.28 0.09,-101.75 0.66,-103.62 1.22,-105.48 1.74,-106.56 2.25,-107.64 2.86,-108.89 3.46,-110.14 3.96,-111.56 4.46,-112.98 5.43,-114.45 6.41,-115.92 7.23,-116.95 8.06,-117.98 10.64,-118.11 13.22,-118.24 14.07,-117.20 14.93,-116.16 15.46,-114.95 16.00,-113.74 16.81,-111.76 17.61,-109.77 18.15,-108.07 18.69,-106.36 19.38,-104.70 20.06,-103.04 20.37,-101.74 20.67,-100.43 20.90,-99.14 21.12,-97.85 21.21,-96.63 21.31,-95.41 21.54,-94.24 21.76,-93.06 21.08,-94.08 20.40,-95.10 18.10,-94.24 15.81,-93.37 16.25,-94.41 16.69,-95.45 17.51,-96.64 18.33,-97.84 19.41,-98.80 20.49,-99.76 21.58,-100.71 22.66,-101.65 23.64,-102.19 24.61,-102.72 25.89,-103.56 27.16,-104.40 28.29,-104.90 29.42,-105.41 30.55,-105.97 31.68,-106.53 33.28,-107.10 34.88,-107.68 35.82,-108.50 36.76,-109.31 39.09,-109.25 41.42,-109.18 42.31,-107.71 43.20,-106.24 42.94,-105.12 42.67,-104.00 41.91,-102.24 41.15,-100.47 40.41,-99.14 39.68,-97.82 39.12,-96.53 38.57,-95.24 38.28,-94.18 37.99,-93.12 37.79,-91.87 37.59,-90.61 37.23,-89.46 36.87,-88.30 36.28,-86.90 35.68,-85.50 35.58,-83.79 35.47,-82.08 35.13,-80.60 34.79,-79.11 34.10,-78.29 33.42,-77.46 32.74,-76.26 32.06,-75.05 31.18,-73.24 30.29,-71.44 29.86,-70.23 29.43,-69.03 29.03,-68.00 28.64,-66.97 27.62,-65.32 26.61,-63.67 25.74,-62.63 24.88,-61.58 23.78,-61.34 22.67,-61.11 21.04,-61.30 19.41,-61.50 17.68,-61.91 15.94,-62.32 13.25,-62.91 10.56,-63.50 8.17,-63.98 5.77,-64.46 3.19,-64.73 0.61,-65.00 -1.25,-65.12 -3.12,-65.23 -4.30,-65.19 -5.47,-65.15 -6.85,-65.24 -8.23,-65.33 -8.38,-64.59 -8.52,-63.85 -8.79,-63.54 -9.07,-63.23 -9.43,-63.03 -9.79,-62.82 -10.19,-62.74 -10.60,-62.66 -11.01,-62.72 -11.42,-62.77 -11.79,-62.96 -12.16,-63.14 -12.46,-63.43 -12.75,-63.72 -12.93,-64.09 -13.12,-64.46 -13.18,-64.87 -13.23,-65.28 -13.16,-65.69 -13.08,-66.09 -12.88,-66.45 -12.68,-66.81 -12.37,-67.09 -12.06,-67.37 -11.68,-67.53 -11.30,-67.70 -10.89,-67.73 -10.48,-67.77 -10.08,-67.67 -9.68,-67.57 -9.33,-67.35 -8.98,-67.13 -8.72,-66.81 -8.46,-66.48 -8.31,-66.10 -8.17,-65.71 -8.16,-65.30 -8.14,-64.88 -8.26,-64.49 -8.38,-64.09 -8.62,-63.75 -8.86,-63.42 -9.20,-63.18 -9.54,-62.93 -9.93,-62.81 -10.32,-62.69 -10.74,-62.70 -11.15,-62.71 -11.54,-62.85 -11.93,-62.99 -12.25,-63.25 -12.58,-63.51 -12.80,-63.85 -13.02,-64.20 -13.12,-64.60 -13.23,-65.00 -13.19,-65.42 -13.16,-65.83 -13.00,-66.21 -12.84,-66.59 -12.84,-66.59 -12.84,-66.59 -11.46,-68.21 -10.07,-69.84 -8.83,-70.04 -7.59,-70.23 -6.49,-69.92 -5.39,-69.60 -4.20,-69.52 -3.01,-69.44 -1.10,-69.45 0.81,-69.46 3.58,-69.49 6.35,-69.52 8.84,-69.43 11.33,-69.35 14.23,-69.21 17.13,-69.07 19.02,-68.51 20.91,-67.95 21.60,-69.10 22.28,-70.24 22.67,-71.55 23.05,-72.85 23.68,-74.35 24.30,-75.84 24.86,-76.92 25.41,-77.99 26.20,-79.10 26.98,-80.21 27.55,-81.21 28.12,-82.21 28.41,-83.56 28.69,-84.90 29.05,-86.02 29.42,-87.15 29.68,-88.37 29.94,-89.59 30.22,-90.66 30.51,-91.73 30.73,-92.86 30.96,-93.99 31.32,-95.49 31.68,-96.99 32.43,-99.05 33.18,-101.11 33.92,-102.65 34.67,-104.18 35.34,-105.15 36.01,-106.11 36.70,-105.17 37.39,-104.23 38.96,-103.82 40.53,-103.42 39.33,-102.37 38.14,-101.32 36.72,-100.72 35.31,-100.12 33.92,-99.45 32.54,-98.77 31.27,-98.19 30.01,-97.60 29.03,-96.91 28.04,-96.22 26.97,-95.56 25.90,-94.90 24.90,-94.01 23.89,-93.13 22.85,-91.85 21.81,-90.58 19.15,-89.79 16.49,-89.01 15.62,-90.70 14.76,-92.39 14.48,-94.05 14.21,-95.71 14.03,-96.90 13.85,-98.09 13.78,-99.31 13.71,-100.53 12.99,-102.14 12.26,-103.75 11.56,-105.65 10.85,-107.55 10.13,-109.03 9.42,-110.52 9.07,-112.03 8.72,-113.55 11.14,-113.64 13.56,-113.74 12.64,-112.71 11.72,-111.68 11.25,-110.58 10.77,-109.47 10.17,-107.78 9.57,-106.10 9.01,-105.09 8.45,-104.09 8.04,-103.06 7.63,-102.03 7.26,-100.37 6.89,-98.71 6.86,-97.44 6.82,-96.17 6.65,-94.18 6.47,-92.20 6.11,-90.48 5.75,-88.76 4.46,-87.70 3.18,-86.65 0.86,-87.25 -1.46,-87.86 -2.23,-88.60 -3.01,-89.35 -3.72,-90.23 -4.44,-91.11 -5.38,-92.07 -6.33,-93.04 -7.23,-94.25 -8.13,-95.47 -8.96,-96.36 -9.79,-97.25 -10.58,-98.33 -11.37,-99.41 -12.66,-100.67 -13.95,-101.94 -15.00,-102.81 -16.04,-103.69 -17.36,-104.90 -18.67,-106.10 -19.49,-107.31 -20.31,-108.51 -20.96,-109.62 -21.60,-110.74 -21.65,-111.07 -21.71,-111.40 -21.68,-111.74 -21.65,-112.08 -21.54,-112.40 -21.44,-112.72 -21.26,-113.00 -21.08,-113.29 -20.83,-113.52 -20.59,-113.75 -20.30,-113.92 -20.01,-114.09 -19.68,-114.18 -19.36,-114.28 -19.02,-114.29 -18.69,-114.30 -18.35,-114.24 -18.02,-114.17 -17.72,-114.02 -17.42,-113.88 -17.15,-113.67 -16.89,-113.45 -16.69,-113.18 -16.49,-112.91 -16.36,-112.60 -16.22,-112.29 -16.20,-112.26 -16.17,-112.23 -16.02,-110.91 -15.88,-109.60 -15.87,-108.12 -15.86,-106.63 -15.69,-105.53 -15.52,-104.44 -15.37,-103.16 -15.21,-101.89 -15.13,-100.83 -15.04,-99.76 -14.66,-98.15 -14.29,-96.54 -14.03,-95.06 -13.77,-93.59 -13.42,-92.18 -13.07,-90.77 -12.82,-89.45 -12.58,-88.12 -12.17,-86.62 -11.77,-85.12 -11.32,-83.44 -10.88,-81.76 -10.34,-79.90 -9.81,-78.04 -9.06,-75.52 -8.32,-73.01 -8.28,-71.01 -8.25,-69.01 -8.43,-66.98 -8.60,-64.96 -8.66,-64.71 -8.72,-64.47 -8.84,-64.25 -8.96,-64.02 -9.13,-63.83 -9.29,-63.65 -9.50,-63.50 -9.71,-63.36 -9.95,-63.27 -10.18,-63.18 -10.44,-63.15 -10.69,-63.12 -10.94,-63.16 -11.19,-63.19 -11.42,-63.28 -11.66,-63.37 -11.87,-63.51 -12.07,-63.66 -12.24,-63.85 -12.41,-64.04 -12.52,-64.26 -12.64,-64.48 -12.70,-64.73 -12.76,-64.97 -12.76,-65.23 -12.76,-65.48 -12.76,-65.48 L -12.76,-65.48 Z"></path></g><g stroke-linecap="round"><g transform="translate(319.5 226) rotate(0 -12.002545356703877 -13.380954908207059)"><path d="M1.03 0.14 C-3.08 -4.52, -19.77 -22.56, -24.05 -26.9 M0.11 -0.83 C-4.22 -4.76, -20.71 -20.84, -25.03 -25.32" stroke="#1e1e1e" stroke-width="1" fill="none"></path></g></g><mask></mask><g stroke-linecap="round"><g transform="translate(314.5 263) rotate(0 -20.518654278917325 -5.690697614001124)"><path d="M1.16 0.51 C-5.68 -1.14, -34.2 -8.08, -41.17 -10.19 M0.31 -0.27 C-6.7 -2.23, -35.27 -10.03, -42.2 -11.89" stroke="#1e1e1e" stroke-width="1" fill="none"></path></g></g><mask></mask><g stroke-linecap="round"><g transform="translate(358.5 220) rotate(0 1.827003114568015 -18.33931167013941)"><path d="M0.33 0.26 C1.2 -6.08, 3.8 -30.72, 4.61 -36.94 M-0.95 -0.64 C-0.23 -6.35, 2.55 -29.96, 3.45 -35.9" stroke="#1e1e1e" stroke-width="1" fill="none"></path></g></g><mask></mask><g stroke-linecap="round"><g transform="translate(391.5 232) rotate(0 14.11773750986913 -12.544111081957794)"><path d="M0.98 -0.99 C5.88 -5.14, 23.75 -20.35, 28.19 -24.39 M0.04 1.11 C4.9 -3.44, 22.91 -22, 27.35 -26.19" stroke="#1e1e1e" stroke-width="1" fill="none"></path></g></g><mask></mask><g stroke-linecap="round"><g transform="translate(406.38226249013087 255.5441110819578) rotate(0 19.134622785467627 -7.45352269085123)"><path d="M0.32 -1.01 C6.46 -3.36, 30.82 -11.91, 37.04 -14.25 M-0.97 1.07 C5.52 -1.6, 32.98 -13.5, 39.24 -15.97" stroke="#1e1e1e" stroke-width="1" fill="none"></path></g></g><mask></mask></svg>