<svg version="1.1" xmlns="http://www.w3.org/2000/svg" viewBox="0 0 882 589" width="882" height="589">
  <!-- svg-source:excalidraw -->
  
  <defs>
    <style class="style-fonts">
      @font-face {
        font-family: "Virgil";
        src: url("https://excalidraw.com/Virgil.woff2");
      }
      @font-face {
        font-family: "Cascadia";
        src: url("https://excalidraw.com/Cascadia.woff2");
      }
    </style>
    
  </defs>
  <rect x="0" y="0" width="882" height="589" fill="#ffffff"></rect><g stroke-linecap="round" transform="translate(205 45) rotate(0 333.5 267)"><path d="M32 0 M32 0 C251.84 0.2, 470.32 0.73, 635 0 M32 0 C164.65 0.49, 297.63 0.17, 635 0 M635 0 C657.43 0.71, 665.29 12.32, 667 32 M635 0 C657.57 1.01, 666.19 11.12, 667 32 M667 32 C665.12 192.57, 664.95 355.06, 667 502 M667 32 C665.53 173.82, 665.34 315.28, 667 502 M667 502 C667.12 524.4, 657.65 533.1, 635 534 M667 502 C664.85 521.38, 654.62 533.39, 635 534 M635 534 C418.06 533.68, 201.75 532.94, 32 534 M635 534 C408.71 533.4, 182.29 532.81, 32 534 M32 534 C11.52 535.29, 1.53 523.11, 0 502 M32 534 C9.29 532.08, 0.35 523.32, 0 502 M0 502 C1.04 381.68, 0.47 263.16, 0 32 M0 502 C-1.69 336.26, -2.38 169.9, 0 32 M0 32 C1.72 9.19, 12.43 0.09, 32 0 M0 32 C1.75 11.17, 10.51 -1.96, 32 0" stroke="#1e1e1e" stroke-width="1" fill="none"></path></g><g stroke-linecap="round" transform="translate(491 257) rotate(0 52 52)"><path d="M25.3 1.88 L82.49 0.74 L93.57 2.06 L100.43 9.98 L103.98 27.37 L105.23 83.88 L101.44 94.56 L92.14 101.99 L79.07 104.88 L19.2 103.99 L11.02 99.2 L5.48 92.35 L-1.6 76.15 L1.06 26.03 L0.21 13.44 L6.62 7.02 L9.43 3.09 L26.12 1.07" stroke="none" stroke-width="0" fill="#ffc9c9"></path><path d="M26 0 M26 0 C43.32 -1, 63.51 1.66, 78 0 M26 0 C37.51 -0.18, 47.95 1.09, 78 0 M78 0 C95.75 -0.68, 103.61 9.78, 104 26 M78 0 C93.64 -2.11, 104.98 10.15, 104 26 M104 26 C102.27 45.88, 103.93 64.24, 104 78 M104 26 C103.07 38.6, 104.2 52.88, 104 78 M104 78 C105.95 94.92, 96.98 105.22, 78 104 M104 78 C102.41 94.96, 97.31 102.3, 78 104 M78 104 C58.26 104.26, 35.93 106.14, 26 104 M78 104 C57.78 103.39, 37.31 103.92, 26 104 M26 104 C6.73 105.55, -1.01 95.87, 0 78 M26 104 C10.28 105.44, -1.29 96.96, 0 78 M0 78 C1.51 62.65, 0.11 47.02, 0 26 M0 78 C-0.05 64.15, -0.27 49.67, 0 26 M0 26 C1.86 6.83, 8.4 1.71, 26 0 M0 26 C-1.03 9.83, 8.51 -0.66, 26 0" stroke="#1e1e1e" stroke-width="1" fill="none"></path></g><g transform="translate(519.8500003814697 296.5) rotate(0 23.149999618530273 12.5)"><text x="23.149999618530273" y="0" font-family="Virgil, Segoe UI Emoji" font-size="20px" fill="#1e1e1e" text-anchor="middle" style="white-space: pre;" direction="ltr" dominant-baseline="text-before-edge">Deck</text></g><g stroke-linecap="round" transform="translate(737 64) rotate(0 52 52)"><path d="M6.26 6.77 C6.26 6.77, 6.26 6.77, 6.26 6.77 M6.26 6.77 C6.26 6.77, 6.26 6.77, 6.26 6.77 M3.38 16.19 C4.98 14.63, 7.18 9.44, 12.56 5.62 M3.38 16.19 C4.73 13.58, 7.18 11.98, 12.56 5.62 M-0.16 26.36 C5.98 21.89, 9.03 12.93, 18.86 4.47 M-0.16 26.36 C4.68 20.89, 8 16.35, 18.86 4.47 M0.23 32 C10.34 22.91, 16.61 12.39, 27.13 1.06 M0.23 32 C10.45 21.89, 20.35 10.14, 27.13 1.06 M-0.03 38.4 C7.99 28.55, 14.79 20.29, 32.12 1.42 M-0.03 38.4 C10.41 27.8, 20.94 15.74, 32.12 1.42 M0.36 44.04 C14.07 29.59, 27.2 13.19, 37.76 1.02 M0.36 44.04 C11.35 30.01, 23.68 18.76, 37.76 1.02 M0.1 50.44 C9.43 41.17, 19.73 27, 42.75 1.38 M0.1 50.44 C17.16 32.42, 32 13.98, 42.75 1.38 M-0.16 56.84 C15.01 40.76, 27.26 24.05, 48.39 0.99 M-0.16 56.84 C12.92 41.94, 25.81 26.42, 48.39 0.99 M0.24 62.48 C23.39 37.63, 43.57 14.37, 53.38 1.35 M0.24 62.48 C15.73 45.93, 28.94 28.65, 53.38 1.35 M-0.02 68.88 C20.45 43.34, 42.39 18.98, 59.02 0.96 M-0.02 68.88 C20.33 46.66, 41.23 22.09, 59.02 0.96 M0.37 74.52 C18.27 56.67, 35.41 36.04, 64.01 1.32 M0.37 74.52 C22.31 47.58, 45.73 22.7, 64.01 1.32 M1.42 79.41 C18.62 58.82, 37.31 37.96, 68.99 1.68 M1.42 79.41 C28.12 49.1, 54.41 17.81, 68.99 1.68 M2.47 84.3 C27.34 54.25, 52.46 27.79, 74.64 1.28 M2.47 84.3 C19.1 65.31, 34.52 45.91, 74.64 1.28 M3.52 89.19 C25.67 60.63, 51.76 35.15, 79.62 1.64 M3.52 89.19 C31.71 56.72, 59.29 23.29, 79.62 1.64 M4.57 94.08 C34.41 57.24, 68.06 20.34, 85.27 1.25 M4.57 94.08 C36.31 57.52, 69.57 19.18, 85.27 1.25 M6.94 97.45 C34.48 64.03, 61.51 32.62, 89.6 2.36 M6.94 97.45 C39.04 59.77, 70.63 22.95, 89.6 2.36 M9.95 100.08 C27.77 80.33, 49.77 55.87, 93.27 4.23 M9.95 100.08 C29.37 78.31, 48.05 56.76, 93.27 4.23 M12.97 102.7 C36.68 75.93, 59.43 48.66, 96.95 6.1 M12.97 102.7 C33.83 76.67, 56.14 51.98, 96.95 6.1 M17.3 103.82 C46.71 73.75, 72.65 42.38, 99.97 8.72 M17.3 103.82 C50.37 67.55, 81.28 29.1, 99.97 8.72 M21.63 104.93 C47.89 74.44, 76.11 39.55, 102.33 12.1 M21.63 104.93 C50.24 72.49, 77.97 40.82, 102.33 12.1 M26.62 105.29 C43.01 85.58, 59.66 70.85, 103.38 16.99 M26.62 105.29 C55.88 71.33, 84.09 38.53, 103.38 16.99 M32.26 104.9 C54.39 82.51, 74.31 58.59, 104.43 21.88 M32.26 104.9 C53.85 79.08, 75.45 54.03, 104.43 21.88 M37.25 105.26 C53.81 89.08, 68.59 68.77, 105.48 26.77 M37.25 105.26 C52.12 86.65, 67.2 70.79, 105.48 26.77 M42.89 104.86 C61.24 83.74, 79.93 61.73, 105.22 33.17 M42.89 104.86 C66.28 79.22, 88.16 51.77, 105.22 33.17 M47.88 105.22 C70.9 80.82, 93.81 54.65, 104.96 39.56 M47.88 105.22 C69.42 80.15, 91.2 55.8, 104.96 39.56 M52.87 105.58 C72.15 86.03, 91.05 62.95, 105.35 45.21 M52.87 105.58 C63.63 92.69, 75.9 78.91, 105.35 45.21 M58.51 105.19 C76.62 83.8, 93.69 65.89, 105.09 51.6 M58.51 105.19 C68.12 92.89, 78.64 82.18, 105.09 51.6 M63.5 105.55 C71.03 96.55, 79.76 86.43, 104.83 58 M63.5 105.55 C79.13 88.07, 93.91 70.29, 104.83 58 M69.14 105.15 C80.58 92.06, 87.66 81.27, 105.23 63.65 M69.14 105.15 C82.22 88.76, 95.44 73.31, 105.23 63.65 M74.13 105.51 C80.97 98.26, 90.95 86.52, 104.96 70.04 M74.13 105.51 C84.68 91.86, 96.58 79.36, 104.96 70.04 M79.77 105.12 C84.3 97.68, 92.99 91.69, 104.7 76.44 M79.77 105.12 C88.66 94.31, 97.9 85.74, 104.7 76.44 M86.07 103.97 C90.13 99.38, 94.64 94.83, 105.1 82.08 M86.07 103.97 C92.12 96.07, 98.03 88.94, 105.1 82.08 M94.34 100.56 C99.65 97.23, 101.5 90.58, 106.15 86.97 M94.34 100.56 C97.93 95.93, 101.29 92.08, 106.15 86.97" stroke="#a5d8ff" stroke-width="0.5" fill="none"></path><path d="M26 0 M26 0 C41.2 -0.15, 61.79 -0.13, 78 0 M26 0 C42.25 0.56, 57.25 0.24, 78 0 M78 0 C95.48 -1.54, 105.23 9.95, 104 26 M78 0 C94.98 -0.07, 105.6 10.53, 104 26 M104 26 C103.87 37.35, 102.88 51.48, 104 78 M104 26 C104.6 46.23, 105.14 64.69, 104 78 M104 78 C102.21 96.15, 94.53 102.86, 78 104 M104 78 C106.03 95.92, 96.17 102.72, 78 104 M78 104 C67.95 105.09, 54.38 102.16, 26 104 M78 104 C62.44 104.41, 46.12 103.63, 26 104 M26 104 C6.82 103.62, 0.42 93.38, 0 78 M26 104 C7.56 101.98, -0.74 93.85, 0 78 M0 78 C1.05 61.7, 0.6 40.86, 0 26 M0 78 C-0.24 62.5, -0.68 47.75, 0 26 M0 26 C-1.45 7.12, 8.41 -0.2, 26 0 M0 26 C2.08 7.86, 8.92 -2.02, 26 0" stroke="#1e1e1e" stroke-width="1" fill="none"></path></g><g transform="translate(763.7000007629395 103.5) rotate(0 25.299999237060547 12.5)"><text x="25.299999237060547" y="0" font-family="Virgil, Segoe UI Emoji" font-size="20px" fill="#1e1e1e" text-anchor="middle" style="white-space: pre;" direction="ltr" dominant-baseline="text-before-edge">Row0</text></g><g stroke-linecap="round" transform="translate(739 191) rotate(0 52 52)"><path d="M6.26 6.77 C6.26 6.77, 6.26 6.77, 6.26 6.77 M6.26 6.77 C6.26 6.77, 6.26 6.77, 6.26 6.77 M3.38 16.19 C5.76 12.87, 10.67 7, 12.56 5.62 M3.38 16.19 C5.33 13.42, 7.84 11.45, 12.56 5.62 M-0.16 26.36 C5.19 17.04, 13.32 11.7, 18.86 4.47 M-0.16 26.36 C4.18 21.18, 7.41 17.67, 18.86 4.47 M0.23 32 C10.08 20.65, 15.76 13.05, 27.13 1.06 M0.23 32 C9.2 19.92, 19.75 9.47, 27.13 1.06 M-0.03 38.4 C8.44 27.32, 15.35 20.19, 32.12 1.42 M-0.03 38.4 C11.79 26.01, 21.63 12.18, 32.12 1.42 M0.36 44.04 C15.21 28.63, 30 10.35, 37.76 1.02 M0.36 44.04 C7.2 33.59, 16.59 25.01, 37.76 1.02 M0.1 50.44 C17.67 31.22, 32.85 15, 42.75 1.38 M0.1 50.44 C15.65 32.3, 30.56 15.32, 42.75 1.38 M-0.16 56.84 C12.03 41.38, 25.49 27.09, 48.39 0.99 M-0.16 56.84 C16.59 38.21, 31.03 22.14, 48.39 0.99 M0.24 62.48 C12.92 46.11, 28.76 32.97, 53.38 1.35 M0.24 62.48 C19.73 41.37, 37.2 19.22, 53.38 1.35 M-0.02 68.88 C17.88 48.08, 32.16 29.66, 59.02 0.96 M-0.02 68.88 C22.13 42.29, 45.3 17.49, 59.02 0.96 M0.37 74.52 C26.3 44.93, 51.3 14.99, 64.01 1.32 M0.37 74.52 C15.44 57.52, 31.17 38.85, 64.01 1.32 M1.42 79.41 C23.76 56.34, 43.08 32.08, 68.99 1.68 M1.42 79.41 C27.75 48.69, 53.67 20.19, 68.99 1.68 M2.47 84.3 C15.14 67.82, 32.25 51.86, 74.64 1.28 M2.47 84.3 C24.22 61.15, 45.29 35.08, 74.64 1.28 M3.52 89.19 C25.06 66.89, 42.35 42.89, 79.62 1.64 M3.52 89.19 C25.41 65.84, 46.03 41.54, 79.62 1.64 M4.57 94.08 C30.06 66.92, 52.87 38.64, 85.27 1.25 M4.57 94.08 C36.39 58.67, 67.63 21.34, 85.27 1.25 M6.94 97.45 C28.04 77.8, 44.92 54.66, 89.6 2.36 M6.94 97.45 C30.96 68.65, 55.32 40.98, 89.6 2.36 M9.95 100.08 C38.83 65.64, 72.13 30.46, 93.27 4.23 M9.95 100.08 C38.25 65.32, 67.48 32.75, 93.27 4.23 M12.97 102.7 C39.31 73.31, 66.89 40.45, 96.95 6.1 M12.97 102.7 C34.18 78.37, 53.5 56, 96.95 6.1 M17.3 103.82 C48.01 69.81, 75.81 38.91, 99.97 8.72 M17.3 103.82 C49.83 68.05, 81.85 30.43, 99.97 8.72 M21.63 104.93 C54.56 68.89, 83.55 33.53, 102.33 12.1 M21.63 104.93 C38.49 85.1, 57.18 64.49, 102.33 12.1 M26.62 105.29 C44.12 85.73, 61.16 67.28, 103.38 16.99 M26.62 105.29 C47.53 80.53, 69.25 57.08, 103.38 16.99 M32.26 104.9 C59.07 75.25, 86.74 42.95, 104.43 21.88 M32.26 104.9 C52.13 82.15, 73.26 58.54, 104.43 21.88 M37.25 105.26 C62.13 76.58, 91.77 45.16, 105.48 26.77 M37.25 105.26 C50.72 88.61, 64.77 72.36, 105.48 26.77 M42.89 104.86 C64.74 80.97, 84.91 59.28, 105.22 33.17 M42.89 104.86 C66.9 78.5, 89.03 52.58, 105.22 33.17 M47.88 105.22 C69.98 79.05, 90.38 55.82, 104.96 39.56 M47.88 105.22 C64.94 85.54, 81.03 67.61, 104.96 39.56 M52.87 105.58 C69.79 84.59, 91.48 60.56, 105.35 45.21 M52.87 105.58 C74.62 80.5, 94.63 57.47, 105.35 45.21 M58.51 105.19 C68.34 93.33, 80.97 78.11, 105.09 51.6 M58.51 105.19 C70.26 90.91, 83.44 75.67, 105.09 51.6 M63.5 105.55 C79.15 90.57, 93.41 74.25, 104.83 58 M63.5 105.55 C77.87 88.04, 93.33 72.39, 104.83 58 M69.14 105.15 C78.59 96.27, 85.27 86.77, 105.23 63.65 M69.14 105.15 C76.33 96.19, 85.2 87.71, 105.23 63.65 M74.13 105.51 C86.55 93.93, 96.16 78.54, 104.96 70.04 M74.13 105.51 C80.19 97.52, 86.82 89.44, 104.96 70.04 M79.77 105.12 C87.84 96.64, 92.37 88.85, 104.7 76.44 M79.77 105.12 C84.19 98.59, 89.21 92.67, 104.7 76.44 M86.07 103.97 C92.8 98.04, 96.17 89.69, 105.1 82.08 M86.07 103.97 C90.5 98.83, 94.24 95.27, 105.1 82.08 M94.34 100.56 C98.87 95.48, 104.13 90.74, 106.15 86.97 M94.34 100.56 C98.15 95.72, 100.79 91.74, 106.15 86.97" stroke="#a5d8ff" stroke-width="0.5" fill="none"></path><path d="M26 0 M26 0 C40.3 0, 56.46 2, 78 0 M26 0 C46.82 -1.12, 68.1 0.3, 78 0 M78 0 C95.03 -0.06, 105.39 10.28, 104 26 M78 0 C93.98 -0.5, 105.46 8.65, 104 26 M104 26 C105.31 40.41, 102.19 51.24, 104 78 M104 26 C103.44 44.87, 103.93 62.34, 104 78 M104 78 C105.76 95.84, 96.06 102.89, 78 104 M104 78 C102.01 94.74, 95.35 105.21, 78 104 M78 104 C59.79 103.05, 39.34 104.71, 26 104 M78 104 C56.89 103.86, 37.83 103.07, 26 104 M26 104 C7.7 102.24, -0.65 94.05, 0 78 M26 104 C9.58 102.4, -1.28 96.13, 0 78 M0 78 C-0.05 60.5, -0.89 40.11, 0 26 M0 78 C-0.59 61.03, 0.01 45.5, 0 26 M0 26 C1.81 7.96, 8.88 -1.76, 26 0 M0 26 C1.35 9.72, 10.61 -0.58, 26 0" stroke="#1e1e1e" stroke-width="1" fill="none"></path></g><g transform="translate(769.875 230.5) rotate(0 21.125 12.5)"><text x="21.125" y="0" font-family="Virgil, Segoe UI Emoji" font-size="20px" fill="#1e1e1e" text-anchor="middle" style="white-space: pre;" direction="ltr" dominant-baseline="text-before-edge">Row1</text></g><g stroke-linecap="round" transform="translate(739 317) rotate(0 52 52)"><path d="M6.26 6.77 C6.26 6.77, 6.26 6.77, 6.26 6.77 M6.26 6.77 C6.26 6.77, 6.26 6.77, 6.26 6.77 M3.38 16.19 C5.79 12.61, 10.22 8.29, 12.56 5.62 M3.38 16.19 C6.33 12.95, 7.7 9.81, 12.56 5.62 M-0.16 26.36 C2.56 20.95, 7.18 16.65, 18.86 4.47 M-0.16 26.36 C4.95 20.43, 9.28 15.89, 18.86 4.47 M0.23 32 C7.89 26.41, 12.47 16.68, 27.13 1.06 M0.23 32 C5.55 24.84, 11.69 18.67, 27.13 1.06 M-0.03 38.4 C8.13 32.34, 13.54 24.11, 32.12 1.42 M-0.03 38.4 C12.69 24.36, 24.31 11.8, 32.12 1.42 M0.36 44.04 C12.64 29.63, 30.39 10.03, 37.76 1.02 M0.36 44.04 C9.02 35.16, 15.35 26.28, 37.76 1.02 M0.1 50.44 C11.87 36.77, 22.68 25.27, 42.75 1.38 M0.1 50.44 C12.61 35.77, 24.63 21.03, 42.75 1.38 M-0.16 56.84 C12.03 42.28, 22.96 31.69, 48.39 0.99 M-0.16 56.84 C9.59 45.29, 20.09 32.86, 48.39 0.99 M0.24 62.48 C14.49 45.41, 26.91 31.75, 53.38 1.35 M0.24 62.48 C16.69 43.17, 33.63 25.45, 53.38 1.35 M-0.02 68.88 C14.83 54.45, 25.32 39.09, 59.02 0.96 M-0.02 68.88 C12.91 54.95, 24.58 41.19, 59.02 0.96 M0.37 74.52 C15.98 55.17, 35.42 34.87, 64.01 1.32 M0.37 74.52 C25.84 45.61, 51.19 16.96, 64.01 1.32 M1.42 79.41 C25.36 52.42, 47.17 28.04, 68.99 1.68 M1.42 79.41 C13.72 64.13, 28.08 46.98, 68.99 1.68 M2.47 84.3 C24.02 58.08, 44.46 33.65, 74.64 1.28 M2.47 84.3 C29.65 53.43, 58.33 22.4, 74.64 1.28 M3.52 89.19 C32.64 54.59, 60.31 23.74, 79.62 1.64 M3.52 89.19 C22.88 66.94, 42.62 44.47, 79.62 1.64 M4.57 94.08 C29.22 68.67, 49.93 41.85, 85.27 1.25 M4.57 94.08 C35.89 57.03, 68.11 21.61, 85.27 1.25 M6.94 97.45 C39.4 58, 73.65 20.73, 89.6 2.36 M6.94 97.45 C27.46 76.6, 45.44 52.62, 89.6 2.36 M9.95 100.08 C38.84 67.58, 67.92 33.91, 93.27 4.23 M9.95 100.08 C27.61 79.38, 45.1 59.3, 93.27 4.23 M12.97 102.7 C41.46 68.3, 72.51 35.46, 96.95 6.1 M12.97 102.7 C34.03 79.27, 53.95 57.66, 96.95 6.1 M17.3 103.82 C41.8 76.09, 61.64 50.68, 99.97 8.72 M17.3 103.82 C44.93 72.66, 70.64 42.19, 99.97 8.72 M21.63 104.93 C44.52 77.46, 69.54 48.19, 102.33 12.1 M21.63 104.93 C50.1 71.91, 80.99 38.15, 102.33 12.1 M26.62 105.29 C50.53 76.21, 76.2 46.63, 103.38 16.99 M26.62 105.29 C47.71 81.4, 68.19 57.35, 103.38 16.99 M32.26 104.9 C59.88 71.86, 88.78 38.24, 104.43 21.88 M32.26 104.9 C61.18 72.48, 88.03 39.13, 104.43 21.88 M37.25 105.26 C62 75.11, 91.89 42.43, 105.48 26.77 M37.25 105.26 C56.64 83.08, 75.6 62.03, 105.48 26.77 M42.89 104.86 C61.17 84.42, 75.52 66.56, 105.22 33.17 M42.89 104.86 C60.05 86.24, 76.32 67.52, 105.22 33.17 M47.88 105.22 C59.11 91.58, 71.54 79.3, 104.96 39.56 M47.88 105.22 C62.18 90.06, 74.75 72.65, 104.96 39.56 M52.87 105.58 C71.56 85.62, 88.22 68.13, 105.35 45.21 M52.87 105.58 C63.76 92.14, 76.41 78.37, 105.35 45.21 M58.51 105.19 C74.99 84.97, 94.67 64.25, 105.09 51.6 M58.51 105.19 C75.35 86.25, 91.57 68.51, 105.09 51.6 M63.5 105.55 C79.3 87.91, 94.19 69.98, 104.83 58 M63.5 105.55 C72.89 92.6, 83.58 81.84, 104.83 58 M69.14 105.15 C77.77 92.09, 88.22 79.91, 105.23 63.65 M69.14 105.15 C78.26 96.22, 85.32 85.94, 105.23 63.65 M74.13 105.51 C83.84 93.17, 95.94 78.69, 104.96 70.04 M74.13 105.51 C81.81 97.22, 90.11 88.69, 104.96 70.04 M79.77 105.12 C85.41 97.87, 95.68 87.15, 104.7 76.44 M79.77 105.12 C86.82 97.38, 93.72 90.26, 104.7 76.44 M86.07 103.97 C91.45 95.01, 98.53 88.67, 105.1 82.08 M86.07 103.97 C91.56 98.03, 95.13 92.64, 105.1 82.08 M94.34 100.56 C97.24 95.34, 101.6 93.77, 106.15 86.97 M94.34 100.56 C96.68 98.55, 99.16 94.94, 106.15 86.97" stroke="#a5d8ff" stroke-width="0.5" fill="none"></path><path d="M26 0 M26 0 C43.29 0.76, 57.96 -0.34, 78 0 M26 0 C37.44 -0.37, 49.87 0.47, 78 0 M78 0 C94.16 -0.44, 105.27 8.65, 104 26 M78 0 C93.97 -1.15, 104.45 10.47, 104 26 M104 26 C104.7 47.84, 102.24 65.29, 104 78 M104 26 C104.67 43.98, 104.15 60.9, 104 78 M104 78 C102.27 94.82, 95.35 105.05, 78 104 M104 78 C105.25 93.7, 93.21 104.25, 78 104 M78 104 C65.39 105.2, 49.45 102.47, 26 104 M78 104 C62.9 102.61, 48.43 102.85, 26 104 M26 104 C9.46 102.61, -1.11 96.02, 0 78 M26 104 C10.23 104.27, -2.09 95.34, 0 78 M0 78 C0.45 57.64, 2.2 36.87, 0 26 M0 78 C0.97 66.07, 0.18 53.97, 0 26 M0 26 C1.17 9.58, 10.35 -0.51, 26 0 M0 26 C-0.4 9.82, 10.84 0.29, 26 0" stroke="#1e1e1e" stroke-width="1" fill="none"></path></g><g transform="translate(765.466667175293 356.5) rotate(0 25.53333282470703 12.5)"><text x="25.53333282470703" y="0" font-family="Virgil, Segoe UI Emoji" font-size="20px" fill="#1e1e1e" text-anchor="middle" style="white-space: pre;" direction="ltr" dominant-baseline="text-before-edge">Row2</text></g><g stroke-linecap="round" transform="translate(740 442) rotate(0 52 52)"><path d="M6.26 6.77 C6.26 6.77, 6.26 6.77, 6.26 6.77 M6.26 6.77 C6.26 6.77, 6.26 6.77, 6.26 6.77 M3.38 16.19 C5.76 13.07, 9.72 10.67, 12.56 5.62 M3.38 16.19 C5.3 13.38, 8.57 10.31, 12.56 5.62 M-0.16 26.36 C4.32 18.6, 12.21 14.41, 18.86 4.47 M-0.16 26.36 C4.2 19.51, 10.43 15.25, 18.86 4.47 M0.23 32 C8.72 20.82, 20.5 7.95, 27.13 1.06 M0.23 32 C6.23 23.57, 14.18 16.84, 27.13 1.06 M-0.03 38.4 C14.05 22.05, 25.29 10.45, 32.12 1.42 M-0.03 38.4 C7.67 30.25, 14.11 20.81, 32.12 1.42 M0.36 44.04 C12.75 28.74, 28.57 12.63, 37.76 1.02 M0.36 44.04 C12.83 29.58, 26.58 15.5, 37.76 1.02 M0.1 50.44 C10.02 37.11, 22.03 25.88, 42.75 1.38 M0.1 50.44 C12.91 35.69, 26.08 20.97, 42.75 1.38 M-0.16 56.84 C9.96 42.52, 25.32 28.3, 48.39 0.99 M-0.16 56.84 C16.5 38.25, 34.75 18.31, 48.39 0.99 M0.24 62.48 C14.49 45.41, 26.75 29.62, 53.38 1.35 M0.24 62.48 C11.1 47.94, 23.23 35.76, 53.38 1.35 M-0.02 68.88 C15.96 49.52, 35.69 30.44, 59.02 0.96 M-0.02 68.88 C18.52 47.14, 37.03 24.04, 59.02 0.96 M0.37 74.52 C20.6 53.4, 37.23 32, 64.01 1.32 M0.37 74.52 C22.1 49.63, 43.22 25.55, 64.01 1.32 M1.42 79.41 C16.29 60.77, 35.35 37.89, 68.99 1.68 M1.42 79.41 C25.8 52.74, 50.29 24.57, 68.99 1.68 M2.47 84.3 C24.54 61.25, 41.26 38, 74.64 1.28 M2.47 84.3 C25.55 56.59, 48.17 30.58, 74.64 1.28 M3.52 89.19 C23.38 67.58, 41.95 43.1, 79.62 1.64 M3.52 89.19 C28.66 60.4, 53 32.26, 79.62 1.64 M4.57 94.08 C34.4 61.55, 60.62 28.75, 85.27 1.25 M4.57 94.08 C28.09 67.59, 49.71 41.94, 85.27 1.25 M6.94 97.45 C22.59 77.09, 40.01 58.97, 89.6 2.36 M6.94 97.45 C40.22 61.37, 72.75 24.43, 89.6 2.36 M9.95 100.08 C35.22 68.58, 64.26 36.53, 93.27 4.23 M9.95 100.08 C30.42 77.65, 49.14 54.03, 93.27 4.23 M12.97 102.7 C33.78 75.15, 58.46 52.32, 96.95 6.1 M12.97 102.7 C35.4 75.6, 59.76 49.3, 96.95 6.1 M17.3 103.82 C41.97 77.7, 63.51 51.63, 99.97 8.72 M17.3 103.82 C39.64 77.45, 62 52.36, 99.97 8.72 M21.63 104.93 C47.73 76.98, 72.36 47.14, 102.33 12.1 M21.63 104.93 C53.09 68.31, 85.61 30.37, 102.33 12.1 M26.62 105.29 C50.45 77.92, 76.89 50.55, 103.38 16.99 M26.62 105.29 C52.82 75.96, 77.99 45.73, 103.38 16.99 M32.26 104.9 C54.45 81.74, 74.81 59.97, 104.43 21.88 M32.26 104.9 C57.53 78.37, 81.33 49.06, 104.43 21.88 M37.25 105.26 C62.13 75.85, 87.53 46.84, 105.48 26.77 M37.25 105.26 C55.02 84.61, 73.92 63.99, 105.48 26.77 M42.89 104.86 C60.86 83.48, 80.12 63.93, 105.22 33.17 M42.89 104.86 C63.42 79.85, 85.59 54.2, 105.22 33.17 M47.88 105.22 C62.54 86.67, 80.61 69.4, 104.96 39.56 M47.88 105.22 C70.58 80.87, 91.54 55.83, 104.96 39.56 M52.87 105.58 C64.74 89.18, 80.4 71.96, 105.35 45.21 M52.87 105.58 C67.9 88.99, 81.47 71.81, 105.35 45.21 M58.51 105.19 C71.17 91.23, 81.5 78.43, 105.09 51.6 M58.51 105.19 C71.41 91.42, 83.73 76.89, 105.09 51.6 M63.5 105.55 C74.68 92.53, 89.42 75.64, 104.83 58 M63.5 105.55 C73.69 93.95, 83.39 81.39, 104.83 58 M69.14 105.15 C77.15 96.63, 86.39 86.56, 105.23 63.65 M69.14 105.15 C84.35 88.33, 97.43 71.48, 105.23 63.65 M74.13 105.51 C83.32 93.15, 92.49 82.2, 104.96 70.04 M74.13 105.51 C83.83 93.12, 93.99 81.51, 104.96 70.04 M79.77 105.12 C87.72 93.36, 96.77 85.34, 104.7 76.44 M79.77 105.12 C87.24 95.94, 93.58 88.02, 104.7 76.44 M86.07 103.97 C89.91 97.93, 97.03 94.48, 105.1 82.08 M86.07 103.97 C91.58 98.42, 97.13 90.96, 105.1 82.08 M94.34 100.56 C95.13 96.58, 97.57 94.36, 106.15 86.97 M94.34 100.56 C98.81 96.13, 104.21 91.11, 106.15 86.97" stroke="#a5d8ff" stroke-width="0.5" fill="none"></path><path d="M26 0 M26 0 C43.31 1.19, 64.99 -0.34, 78 0 M26 0 C40.85 -0.64, 57.52 -0.43, 78 0 M78 0 C94.15 -1, 104.39 10.24, 104 26 M78 0 C97.52 -1.79, 104.25 9.93, 104 26 M104 26 C104.47 44.17, 102.51 65.72, 104 78 M104 26 C103.32 42.67, 104.2 60.37, 104 78 M104 78 C105.09 93.92, 93.49 104.22, 78 104 M104 78 C103.46 93.25, 96.71 106.03, 78 104 M78 104 C59.72 103.94, 40.24 102.55, 26 104 M78 104 C67.36 102.97, 55.38 104.01, 26 104 M26 104 C10.02 104.24, -1.82 95.34, 0 78 M26 104 C10.54 103.04, 0.42 95.6, 0 78 M0 78 C-2.06 63.49, -0.72 51.31, 0 26 M0 78 C0.53 64.69, 0.79 50.21, 0 26 M0 26 C-0.35 9.67, 10.55 0.25, 26 0 M0 26 C-2.05 7.25, 10.43 2.01, 26 0" stroke="#1e1e1e" stroke-width="1" fill="none"></path></g><g transform="translate(766.7749996185303 481.5) rotate(0 25.225000381469727 12.5)"><text x="25.225000381469727" y="0" font-family="Virgil, Segoe UI Emoji" font-size="20px" fill="#1e1e1e" text-anchor="middle" style="white-space: pre;" direction="ltr" dominant-baseline="text-before-edge">Row3</text></g><g transform="translate(231 58) rotate(0 26.358333587646484 12.5)"><text x="0" y="0" font-family="Virgil, Segoe UI Emoji" font-size="20px" fill="#1e1e1e" text-anchor="start" style="white-space: pre;" direction="ltr" dominant-baseline="text-before-edge">Game</text></g><g stroke-linecap="round" transform="translate(10 107) rotate(0 52 52)"><path d="M6.26 6.77 C6.26 6.77, 6.26 6.77, 6.26 6.77 M6.26 6.77 C6.26 6.77, 6.26 6.77, 6.26 6.77 M3.38 16.19 C5.6 11.37, 9.77 9.37, 12.56 5.62 M3.38 16.19 C5.5 13.58, 6.87 12.15, 12.56 5.62 M-0.16 26.36 C7.13 17.9, 10.28 13.2, 18.86 4.47 M-0.16 26.36 C6.01 17.57, 13.69 10.42, 18.86 4.47 M0.23 32 C7.34 22.45, 12.91 16.86, 27.13 1.06 M0.23 32 C10.25 21.74, 18.24 10.04, 27.13 1.06 M-0.03 38.4 C12.75 25.36, 25.51 9.42, 32.12 1.42 M-0.03 38.4 C5.73 29.29, 13.99 22.01, 32.12 1.42 M0.36 44.04 C15.96 27.07, 29.15 13.14, 37.76 1.02 M0.36 44.04 C13.97 28.12, 26.98 13.34, 37.76 1.02 M0.1 50.44 C10.74 36.73, 22.64 24.23, 42.75 1.38 M0.1 50.44 C14.93 33.96, 27.48 20.07, 42.75 1.38 M-0.16 56.84 C11.38 41.81, 26.05 30.02, 48.39 0.99 M-0.16 56.84 C17.71 37.56, 33.58 17.25, 48.39 0.99 M0.24 62.48 C16.44 43.6, 29.07 27.07, 53.38 1.35 M0.24 62.48 C20.15 38.46, 41.07 16.25, 53.38 1.35 M-0.02 68.88 C24.12 41.38, 47.31 13.52, 59.02 0.96 M-0.02 68.88 C13.93 53.17, 28.56 35.78, 59.02 0.96 M0.37 74.52 C21.52 52.84, 39.63 29.96, 64.01 1.32 M0.37 74.52 C25.18 45.54, 49.62 18.75, 64.01 1.32 M1.42 79.41 C13.18 63.99, 29.36 49.1, 68.99 1.68 M1.42 79.41 C21.8 57.79, 41.51 33.28, 68.99 1.68 M2.47 84.3 C22.97 63.24, 39.22 40.44, 74.64 1.28 M2.47 84.3 C23.27 62.14, 42.82 39.07, 74.64 1.28 M3.52 89.19 C27.68 63.56, 49.13 36.84, 79.62 1.64 M3.52 89.19 C33.55 55.85, 62.98 20.6, 79.62 1.64 M4.57 94.08 C25.22 74.93, 41.65 52.31, 85.27 1.25 M4.57 94.08 C28.01 65.94, 51.8 38.93, 85.27 1.25 M6.94 97.45 C35.58 63.29, 68.63 28.4, 89.6 2.36 M6.94 97.45 C35.01 62.96, 64.01 30.65, 89.6 2.36 M9.95 100.08 C36.08 70.93, 63.45 38.3, 93.27 4.23 M9.95 100.08 C31 75.93, 50.16 53.75, 93.27 4.23 M12.97 102.7 C44.13 68.16, 72.4 36.74, 96.95 6.1 M12.97 102.7 C46.01 66.36, 78.54 28.16, 96.95 6.1 M17.3 103.82 C51.01 66.9, 80.77 30.65, 99.97 8.72 M17.3 103.82 C34.6 83.49, 53.71 62.38, 99.97 8.72 M21.63 104.93 C39.95 84.34, 57.86 64.89, 102.33 12.1 M21.63 104.93 C43.62 78.91, 66.43 54.22, 102.33 12.1 M26.62 105.29 C55.13 73.64, 84.51 39.37, 103.38 16.99 M26.62 105.29 C47.8 81.04, 70.23 55.94, 103.38 16.99 M32.26 104.9 C58.67 74.45, 89.85 41.25, 104.43 21.88 M32.26 104.9 C46.5 87.31, 61.37 70.12, 104.43 21.88 M37.25 105.26 C61.04 79.14, 83.14 55.24, 105.48 26.77 M37.25 105.26 C63.45 76.43, 87.76 48, 105.48 26.77 M42.89 104.86 C66.89 76.46, 89.21 51.02, 105.22 33.17 M42.89 104.86 C61.48 83.42, 79.09 63.75, 105.22 33.17 M47.88 105.22 C66.41 82.35, 89.76 56.41, 104.96 39.56 M47.88 105.22 C71.47 78.02, 93.3 52.9, 104.96 39.56 M52.87 105.58 C64.14 92.05, 78.19 75.19, 105.35 45.21 M52.87 105.58 C66.22 89.43, 80.98 72.37, 105.35 45.21 M58.51 105.19 C75.97 88.14, 92.02 69.77, 105.09 51.6 M58.51 105.19 C74.74 85.52, 92.07 67.73, 105.09 51.6 M63.5 105.55 C74.11 95.4, 81.92 84.6, 104.83 58 M63.5 105.55 C71.83 95.37, 81.79 85.62, 104.83 58 M69.14 105.15 C83.46 91.37, 95.02 73.73, 105.23 63.65 M69.14 105.15 C76.32 95.88, 84.08 86.51, 105.23 63.65 M74.13 105.51 C83.86 95.07, 90.07 85.36, 104.96 70.04 M74.13 105.51 C79.75 97.52, 86.02 90.17, 104.96 70.04 M79.77 105.12 C88.37 97.02, 93.61 86.53, 104.7 76.44 M79.77 105.12 C85.55 98.5, 90.61 93.43, 104.7 76.44 M86.07 103.97 C93.14 96.05, 101 88.45, 105.1 82.08 M86.07 103.97 C92.09 96.59, 96.74 90.19, 105.1 82.08 M94.34 100.56 C97.4 96.72, 102.25 94.75, 106.15 86.97 M94.34 100.56 C99.03 94.37, 104.23 90.22, 106.15 86.97" stroke="#b2f2bb" stroke-width="0.5" fill="none"></path><path d="M26 0 M26 0 C42.42 -1.54, 55.17 0.91, 78 0 M26 0 C41.75 1.05, 58.06 -0.52, 78 0 M78 0 C95.55 1.1, 105.3 7.31, 104 26 M78 0 C93.27 0.94, 103.07 7.36, 104 26 M104 26 C103.02 44.45, 103.62 66.38, 104 78 M104 26 C103.36 44.45, 104.05 61.77, 104 78 M104 78 C105.19 97.1, 96.22 104.19, 78 104 M104 78 C101.88 94.9, 95.82 101.75, 78 104 M78 104 C63.62 104.62, 50.43 102.72, 26 104 M78 104 C59.7 104.06, 44.04 103.65, 26 104 M26 104 C9.04 104.23, -0.52 97.32, 0 78 M26 104 C7 102.22, -0.3 95.1, 0 78 M0 78 C-1.57 58.87, 1.1 39.08, 0 26 M0 78 C1.03 63.84, -0.8 48.82, 0 26 M0 26 C1.53 10.42, 10.5 0.97, 26 0 M0 26 C-1.95 8.39, 10.27 -0.13, 26 0" stroke="#1e1e1e" stroke-width="1" fill="none"></path></g><g transform="translate(31.633333206176758 146.5) rotate(0 30.366666793823242 12.5)"><text x="30.366666793823242" y="0" font-family="Virgil, Segoe UI Emoji" font-size="20px" fill="#1e1e1e" text-anchor="middle" style="white-space: pre;" direction="ltr" dominant-baseline="text-before-edge">Player</text></g><g stroke-linecap="round" transform="translate(222 209) rotate(0 61 120)"><path d="M30.5 0 M30.5 0 C43.95 -1.74, 56.15 -0.2, 91.5 0 M30.5 0 C50.44 0.71, 70.92 -0.28, 91.5 0 M91.5 0 C109.96 -1.7, 120.51 9.63, 122 30.5 M91.5 0 C113.19 -1.87, 121.58 8.67, 122 30.5 M122 30.5 C122.58 87.14, 120.4 142.56, 122 209.5 M122 30.5 C121.11 94.78, 121.45 157.67, 122 209.5 M122 209.5 C120.81 228.16, 112.14 239.98, 91.5 240 M122 209.5 C120.95 228.76, 111.5 240.14, 91.5 240 M91.5 240 C79.5 242.12, 64.95 241.81, 30.5 240 M91.5 240 C70.34 239.16, 48.35 239.95, 30.5 240 M30.5 240 C11.69 240.44, -0.14 228.13, 0 209.5 M30.5 240 C12.17 242.27, -1.91 227.91, 0 209.5 M0 209.5 C1.02 144.49, 1.86 82.33, 0 30.5 M0 209.5 C-1.82 151.68, -1.44 92.38, 0 30.5 M0 30.5 C-1.45 11.64, 9.44 0.07, 30.5 0 M0 30.5 C-1.98 9.48, 8.86 0.05, 30.5 0" stroke="#1e1e1e" stroke-width="1" fill="none"></path></g><g transform="translate(242 233) rotate(0 35.79999923706055 12.5)"><text x="0" y="0" font-family="Virgil, Segoe UI Emoji" font-size="20px" fill="#1e1e1e" text-anchor="start" style="white-space: pre;" direction="ltr" dominant-baseline="text-before-edge">Players</text></g><g stroke-linecap="round" transform="translate(11 451) rotate(0 52 52)"><path d="M6.26 6.77 C6.26 6.77, 6.26 6.77, 6.26 6.77 M6.26 6.77 C6.26 6.77, 6.26 6.77, 6.26 6.77 M3.38 16.19 C5.85 12.61, 9.34 7.52, 12.56 5.62 M3.38 16.19 C6.67 12.64, 9.73 7.65, 12.56 5.62 M-0.16 26.36 C5.99 17.52, 11.07 11.52, 18.86 4.47 M-0.16 26.36 C5.48 19.96, 10.46 12.78, 18.86 4.47 M0.23 32 C8.47 23.24, 18.92 10.06, 27.13 1.06 M0.23 32 C8.48 23.46, 16 14.85, 27.13 1.06 M-0.03 38.4 C11.68 25.62, 17.45 17.49, 32.12 1.42 M-0.03 38.4 C7.81 28.59, 17.37 17.62, 32.12 1.42 M0.36 44.04 C15.35 27.96, 27.65 10.96, 37.76 1.02 M0.36 44.04 C13.64 27.65, 27.92 11.88, 37.76 1.02 M0.1 50.44 C10.84 39.52, 20.82 24.36, 42.75 1.38 M0.1 50.44 C16.69 31.03, 32.79 13.26, 42.75 1.38 M-0.16 56.84 C17.75 37.1, 36.93 13.62, 48.39 0.99 M-0.16 56.84 C11.23 45.01, 21.12 31.26, 48.39 0.99 M0.24 62.48 C12 46.91, 23.8 33.38, 53.38 1.35 M0.24 62.48 C16.7 43.73, 32.71 24.56, 53.38 1.35 M-0.02 68.88 C13.93 53.9, 27.31 40.31, 59.02 0.96 M-0.02 68.88 C17.6 49.28, 35.67 28.25, 59.02 0.96 M0.37 74.52 C20.33 52.78, 37.32 30.69, 64.01 1.32 M0.37 74.52 C19.9 51.33, 39.51 30.49, 64.01 1.32 M1.42 79.41 C23.4 52.8, 50.3 25.08, 68.99 1.68 M1.42 79.41 C18 62.28, 33.35 43.07, 68.99 1.68 M2.47 84.3 C25.63 57.72, 51.8 29.03, 74.64 1.28 M2.47 84.3 C17.14 67.72, 32.63 49.86, 74.64 1.28 M3.52 89.19 C20.31 68.63, 41.1 46.44, 79.62 1.64 M3.52 89.19 C28.42 62.03, 54.28 32.7, 79.62 1.64 M4.57 94.08 C32.57 62.85, 56.26 33.24, 85.27 1.25 M4.57 94.08 C21.25 71.82, 40.48 52.07, 85.27 1.25 M6.94 97.45 C39.05 61.25, 66.45 26.52, 89.6 2.36 M6.94 97.45 C29.28 71.69, 52.34 46.34, 89.6 2.36 M9.95 100.08 C30.29 78.47, 48.45 53.47, 93.27 4.23 M9.95 100.08 C40.12 66.67, 69.22 31.74, 93.27 4.23 M12.97 102.7 C43.19 66.16, 78.03 28.8, 96.95 6.1 M12.97 102.7 C31.64 80.32, 52.29 55.84, 96.95 6.1 M17.3 103.82 C46.3 69.1, 76.27 37.96, 99.97 8.72 M17.3 103.82 C48.38 69.96, 77.1 36.26, 99.97 8.72 M21.63 104.93 C52.14 69.73, 81.62 35.98, 102.33 12.1 M21.63 104.93 C51.11 70.67, 81.02 36.98, 102.33 12.1 M26.62 105.29 C52.36 74.92, 79.1 47.21, 103.38 16.99 M26.62 105.29 C54.64 70.81, 84.88 38.84, 103.38 16.99 M32.26 104.9 C60.31 74.04, 85.42 43.73, 104.43 21.88 M32.26 104.9 C51.6 83.37, 70.78 60.87, 104.43 21.88 M37.25 105.26 C59.91 78.7, 85.48 48.44, 105.48 26.77 M37.25 105.26 C59.12 80.43, 79.7 54.92, 105.48 26.77 M42.89 104.86 C58.83 88.13, 72.62 69.61, 105.22 33.17 M42.89 104.86 C63.35 78.9, 85.61 55.6, 105.22 33.17 M47.88 105.22 C60.98 92.82, 70.22 77.16, 104.96 39.56 M47.88 105.22 C66.25 84.54, 83.77 65.2, 104.96 39.56 M52.87 105.58 C68.27 88.69, 80.6 74.88, 105.35 45.21 M52.87 105.58 C66.52 90.83, 80.5 75.27, 105.35 45.21 M58.51 105.19 C75.77 85.44, 90.6 67.9, 105.09 51.6 M58.51 105.19 C75.79 86.09, 93.81 65.45, 105.09 51.6 M63.5 105.55 C72.93 92.07, 84.47 82.16, 104.83 58 M63.5 105.55 C73.11 93.31, 85.55 79.88, 104.83 58 M69.14 105.15 C77.88 93.43, 87.04 82.76, 105.23 63.65 M69.14 105.15 C77.04 97.12, 83.82 87.38, 105.23 63.65 M74.13 105.51 C85.2 93.07, 92.75 81.72, 104.96 70.04 M74.13 105.51 C83.08 96.04, 91.76 84.85, 104.96 70.04 M79.77 105.12 C85.82 97.32, 93.23 88.29, 104.7 76.44 M79.77 105.12 C88.46 94.16, 98.89 83.59, 104.7 76.44 M86.07 103.97 C92.26 98.89, 94.39 91.31, 105.1 82.08 M86.07 103.97 C89.82 99.26, 93.9 95.63, 105.1 82.08 M94.34 100.56 C100.06 95.26, 102.12 90.88, 106.15 86.97 M94.34 100.56 C99.29 96.34, 102.44 90.46, 106.15 86.97" stroke="#b2f2bb" stroke-width="0.5" fill="none"></path><path d="M26 0 M26 0 C43.91 0.7, 65.39 2.21, 78 0 M26 0 C38.21 -0.96, 48.23 0.12, 78 0 M78 0 C94.53 -1.14, 105.76 9.18, 104 26 M78 0 C96.17 -1.28, 102.01 8.07, 104 26 M104 26 C102.86 39.8, 104.49 56.82, 104 78 M104 26 C104.75 36.98, 103.39 47.58, 104 78 M104 78 C104.42 93.38, 94.37 102.24, 78 104 M104 78 C103.26 93.85, 96.24 102.4, 78 104 M78 104 C65.53 102.53, 52.6 105.98, 26 104 M78 104 C64.3 105.05, 50.4 103.29, 26 104 M26 104 C8.41 103.8, 1.81 94.63, 0 78 M26 104 C8.92 101.98, 1.35 96.39, 0 78 M0 78 C1.13 59.9, 0.38 36.25, 0 26 M0 78 C0.52 66.08, -1.25 53.07, 0 26 M0 26 C1.39 8.56, 9.52 -1.43, 26 0 M0 26 C-0.24 7.9, 7.27 1.16, 26 0" stroke="#1e1e1e" stroke-width="1" fill="none"></path></g><g transform="translate(32.63333320617676 490.5) rotate(0 30.366666793823242 12.5)"><text x="30.366666793823242" y="0" font-family="Virgil, Segoe UI Emoji" font-size="20px" fill="#1e1e1e" text-anchor="middle" style="white-space: pre;" direction="ltr" dominant-baseline="text-before-edge">Player</text></g><g stroke-linecap="round" transform="translate(10 221) rotate(0 52 52)"><path d="M6.26 6.77 C6.26 6.77, 6.26 6.77, 6.26 6.77 M6.26 6.77 C6.26 6.77, 6.26 6.77, 6.26 6.77 M3.38 16.19 C5.32 12.1, 9.68 10.51, 12.56 5.62 M3.38 16.19 C5.33 12.68, 8.58 10.97, 12.56 5.62 M-0.16 26.36 C5.35 18.54, 14.17 9.08, 18.86 4.47 M-0.16 26.36 C3.83 20.23, 9.79 15.79, 18.86 4.47 M0.23 32 C12.21 18.09, 21.36 8.9, 27.13 1.06 M0.23 32 C6.8 25.21, 12.05 17.15, 27.13 1.06 M-0.03 38.4 C10.38 25.39, 24.17 11.62, 32.12 1.42 M-0.03 38.4 C10.61 26.01, 22.61 13.95, 32.12 1.42 M0.36 44.04 C9.05 32.17, 19.77 22.41, 37.76 1.02 M0.36 44.04 C11.53 31.11, 23.1 18.22, 37.76 1.02 M0.1 50.44 C8.77 37.83, 22.69 25.27, 42.75 1.38 M0.1 50.44 C14.68 34.22, 30.86 16.65, 42.75 1.38 M-0.16 56.84 C12.88 41.19, 23.94 26.78, 48.39 0.99 M-0.16 56.84 C9.69 43.5, 20.8 32.5, 48.39 0.99 M0.24 62.48 C14.44 45.13, 32.41 28.07, 53.38 1.35 M0.24 62.48 C16.9 42.97, 33.49 22.07, 53.38 1.35 M-0.02 68.88 C18.89 49.28, 34.17 29.43, 59.02 0.96 M-0.02 68.88 C20.16 45.8, 39.74 23.5, 59.02 0.96 M0.37 74.52 C14.26 57.04, 32.33 35.3, 64.01 1.32 M0.37 74.52 C23.34 49.43, 46.42 22.87, 64.01 1.32 M1.42 79.41 C22.18 57.82, 37.65 36.01, 68.99 1.68 M1.42 79.41 C23.08 53.42, 44.24 29.09, 68.99 1.68 M2.47 84.3 C21.26 63.9, 38.82 40.59, 74.64 1.28 M2.47 84.3 C26.3 57.03, 49.36 30.37, 74.64 1.28 M3.52 89.19 C31.76 58.49, 56.41 27.5, 79.62 1.64 M3.52 89.19 C25.76 64.21, 46.1 40.01, 79.62 1.64 M4.57 94.08 C19.82 74.18, 36.82 56.55, 85.27 1.25 M4.57 94.08 C37.08 58.85, 68.84 22.8, 85.27 1.25 M6.94 97.45 C31.99 66.21, 60.81 34.41, 89.6 2.36 M6.94 97.45 C27.24 75.2, 45.81 51.76, 89.6 2.36 M9.95 100.08 C30.58 72.73, 55.09 50.1, 93.27 4.23 M9.95 100.08 C32.21 73.2, 56.38 47.1, 93.27 4.23 M12.97 102.7 C38.02 76.15, 59.93 49.66, 96.95 6.1 M12.97 102.7 C35.67 75.93, 58.38 50.44, 96.95 6.1 M17.3 103.82 C44 75.19, 69.24 44.66, 99.97 8.72 M17.3 103.82 C49.52 66.28, 82.82 27.44, 99.97 8.72 M21.63 104.93 C46.72 76.12, 74.42 47.3, 102.33 12.1 M21.63 104.93 C49.13 74.08, 75.62 42.32, 102.33 12.1 M26.62 105.29 C50.1 80.67, 71.77 57.39, 103.38 16.99 M26.62 105.29 C53.44 77.04, 78.76 45.96, 103.38 16.99 M32.26 104.9 C58.6 73.79, 85.48 43.08, 104.43 21.88 M32.26 104.9 C51.07 83.03, 71.02 61.21, 104.43 21.88 M37.25 105.26 C56.98 81.85, 77.96 60.32, 105.48 26.77 M37.25 105.26 C59.81 77.83, 84.05 49.8, 105.48 26.77 M42.89 104.86 C59.01 84.59, 78.55 65.63, 105.22 33.17 M42.89 104.86 C67.66 78.21, 90.65 50.84, 105.22 33.17 M47.88 105.22 C60.94 87.39, 77.81 68.76, 104.96 39.56 M47.88 105.22 C64.17 87.19, 79.03 68.53, 104.96 39.56 M52.87 105.58 C67 89.9, 78.88 75.34, 105.35 45.21 M52.87 105.58 C67.32 89.96, 81.21 73.62, 105.35 45.21 M58.51 105.19 C71.23 90.38, 87.54 71.7, 105.09 51.6 M58.51 105.19 C70.01 92.09, 80.97 78.08, 105.09 51.6 M63.5 105.55 C72.84 95.58, 83.37 84.04, 104.83 58 M63.5 105.55 C80.83 86.32, 95.96 67.1, 104.83 58 M69.14 105.15 C80.08 90.84, 90.96 77.92, 105.23 63.65 M69.14 105.15 C80.51 90.78, 92.37 77.21, 105.23 63.65 M74.13 105.51 C84.12 91.4, 95.25 80.98, 104.96 70.04 M74.13 105.51 C83.24 94.39, 91.25 84.55, 104.96 70.04 M79.77 105.12 C85.05 97.47, 93.56 92.42, 104.7 76.44 M79.77 105.12 C87.08 97.55, 94.37 88.1, 104.7 76.44 M86.07 103.97 C88.16 98.09, 92.12 94.19, 105.1 82.08 M86.07 103.97 C93.31 96.47, 101.54 88.31, 105.1 82.08 M94.34 100.56 C97.14 96.73, 103.97 90.42, 106.15 86.97 M94.34 100.56 C97.22 96.23, 101.83 92.39, 106.15 86.97" stroke="#b2f2bb" stroke-width="0.5" fill="none"></path><path d="M26 0 M26 0 C40.08 1.8, 49.47 0.12, 78 0 M26 0 C43.56 0.76, 62.51 -0.22, 78 0 M78 0 C97.09 0.51, 104.73 7.56, 104 26 M78 0 C93.34 -0.59, 104.02 9.88, 104 26 M104 26 C103.85 43.95, 101.82 64.04, 104 78 M104 26 C103.31 46, 104.44 65.4, 104 78 M104 78 C103.03 93.58, 94.69 102.71, 78 104 M104 78 C104.91 93.73, 94.05 104.79, 78 104 M78 104 C58.88 105.16, 38.91 103.9, 26 104 M78 104 C61.08 103.74, 45.47 104.42, 26 104 M26 104 C10.48 103.29, 0.22 93.58, 0 78 M26 104 C10.01 105.05, 1.94 94.75, 0 78 M0 78 C-0.01 61.53, -1.49 50.16, 0 26 M0 78 C-1.32 57.73, 0.22 37.64, 0 26 M0 26 C0.85 7.23, 8.46 -0.67, 26 0 M0 26 C-1.4 9.82, 10.83 0.74, 26 0" stroke="#1e1e1e" stroke-width="1" fill="none"></path></g><g transform="translate(31.633333206176758 260.5) rotate(0 30.366666793823242 12.5)"><text x="30.366666793823242" y="0" font-family="Virgil, Segoe UI Emoji" font-size="20px" fill="#1e1e1e" text-anchor="middle" style="white-space: pre;" direction="ltr" dominant-baseline="text-before-edge">Player</text></g><g stroke-linecap="round" transform="translate(10 335) rotate(0 52 52)"><path d="M6.26 6.77 C6.26 6.77, 6.26 6.77, 6.26 6.77 M6.26 6.77 C6.26 6.77, 6.26 6.77, 6.26 6.77 M3.38 16.19 C7.37 13.23, 8.73 9.35, 12.56 5.62 M3.38 16.19 C7.02 12.97, 10.52 8.68, 12.56 5.62 M-0.16 26.36 C4.58 20.16, 8.23 15.52, 18.86 4.47 M-0.16 26.36 C6.13 20.3, 12.65 12.86, 18.86 4.47 M0.23 32 C10 22.09, 19.12 10.3, 27.13 1.06 M0.23 32 C8.12 21.67, 17.25 14.09, 27.13 1.06 M-0.03 38.4 C6.91 31.8, 14.94 20.25, 32.12 1.42 M-0.03 38.4 C13 24.97, 23.88 11.09, 32.12 1.42 M0.36 44.04 C12.39 31.49, 21.5 18.39, 37.76 1.02 M0.36 44.04 C10.36 32.61, 20.24 20.55, 37.76 1.02 M0.1 50.44 C19.02 30.32, 35.08 11.81, 42.75 1.38 M0.1 50.44 C12.7 37.25, 23.06 23.26, 42.75 1.38 M-0.16 56.84 C16.41 35.77, 34.44 15.91, 48.39 0.99 M-0.16 56.84 C16.48 38.71, 33.76 18.3, 48.39 0.99 M0.24 62.48 C15.23 47.88, 29.57 30.47, 53.38 1.35 M0.24 62.48 C18.41 39.89, 38.1 19.3, 53.38 1.35 M-0.02 68.88 C15 50.9, 31.43 32.65, 59.02 0.96 M-0.02 68.88 C23.31 42.5, 46.21 15.11, 59.02 0.96 M0.37 74.52 C22.3 47.8, 44.59 24.61, 64.01 1.32 M0.37 74.52 C15.09 57.77, 28.6 40.57, 64.01 1.32 M1.42 79.41 C20.92 53.98, 44.3 31.63, 68.99 1.68 M1.42 79.41 C26.5 50.55, 50.9 20.79, 68.99 1.68 M2.47 84.3 C28.96 51.34, 59.3 18.25, 74.64 1.28 M2.47 84.3 C30.79 51.71, 60.64 17.28, 74.64 1.28 M3.52 89.19 C28.91 58.3, 53.73 29.45, 79.62 1.64 M3.52 89.19 C33.1 54.48, 62.09 20.66, 79.62 1.64 M4.57 94.08 C21.78 75, 43.2 51.21, 85.27 1.25 M4.57 94.08 C23.4 73, 41.48 52.14, 85.27 1.25 M6.94 97.45 C30.27 71.11, 52.65 44.26, 89.6 2.36 M6.94 97.45 C27.46 71.82, 49.42 47.53, 89.6 2.36 M9.95 100.08 C39.58 69.76, 65.75 38.14, 93.27 4.23 M9.95 100.08 C43.27 63.52, 74.44 24.77, 93.27 4.23 M12.97 102.7 C40.34 70.9, 69.69 34.71, 96.95 6.1 M12.97 102.7 C42.73 68.97, 71.59 35.99, 96.95 6.1 M17.3 103.82 C34.86 82.71, 52.73 66.58, 99.97 8.72 M17.3 103.82 C48.76 67.26, 79.18 31.91, 99.97 8.72 M21.63 104.93 C46.21 79.73, 68.56 53.01, 102.33 12.1 M21.63 104.93 C45.74 76.08, 69.95 48.04, 102.33 12.1 M26.62 105.29 C45.05 86.86, 61.8 64.3, 103.38 16.99 M26.62 105.29 C43.27 84.47, 60.22 66.47, 103.38 16.99 M32.26 104.9 C53.6 80.35, 75.26 54.93, 104.43 21.88 M32.26 104.9 C59.25 75.1, 84.69 43.54, 104.43 21.88 M37.25 105.26 C64.69 75.83, 91.96 44.63, 105.48 26.77 M37.25 105.26 C63.1 75.3, 89.08 46.13, 105.48 26.77 M42.89 104.86 C65.63 81.41, 87.91 54.44, 105.22 33.17 M42.89 104.86 C55.83 89.37, 70.3 73.05, 105.22 33.17 M47.88 105.22 C70.05 79.28, 91.08 56.82, 104.96 39.56 M47.88 105.22 C59.76 90.22, 72.64 76.81, 104.96 39.56 M52.87 105.58 C62.66 93.94, 73.7 81.15, 105.35 45.21 M52.87 105.58 C72.57 83.25, 91.49 60.69, 105.35 45.21 M58.51 105.19 C72.84 88.78, 82.76 74.72, 105.09 51.6 M58.51 105.19 C75.5 84.29, 92.62 64.35, 105.09 51.6 M63.5 105.55 C72.93 95.33, 85.41 80.7, 104.83 58 M63.5 105.55 C77.79 87.53, 93.51 70.64, 104.83 58 M69.14 105.15 C76.55 94.52, 88.06 85.29, 105.23 63.65 M69.14 105.15 C81.98 89.91, 95.14 76.82, 105.23 63.65 M74.13 105.51 C80.97 97.87, 88.22 90.18, 104.96 70.04 M74.13 105.51 C84.06 93.19, 93.91 81.52, 104.96 70.04 M79.77 105.12 C89.34 97.33, 94.99 85.79, 104.7 76.44 M79.77 105.12 C87.65 95.44, 95.25 86.73, 104.7 76.44 M86.07 103.97 C90.64 96.43, 100.39 89.26, 105.1 82.08 M86.07 103.97 C92.63 98.36, 97.91 91.59, 105.1 82.08 M94.34 100.56 C99.23 96.03, 101.65 93.38, 106.15 86.97 M94.34 100.56 C99.49 95.4, 102.88 89.78, 106.15 86.97" stroke="#b2f2bb" stroke-width="0.5" fill="none"></path><path d="M26 0 M26 0 C41.07 -0.27, 60.34 0.81, 78 0 M26 0 C37.68 -0.78, 51.05 0.04, 78 0 M78 0 C96.06 -1.11, 102.27 8.15, 104 26 M78 0 C95.35 1.21, 105.25 7.04, 104 26 M104 26 C102.24 38, 105.82 48.49, 104 78 M104 26 C103.73 41.13, 103.04 57.33, 104 78 M104 78 C103.35 94.05, 96.13 102.61, 78 104 M104 78 C102.72 96.13, 96.9 104.27, 78 104 M78 104 C66.3 104.79, 56.5 103.9, 26 104 M78 104 C57.1 103.5, 37.37 103.24, 26 104 M26 104 C8.88 102.24, 1.17 96.25, 0 78 M26 104 C10.61 103.42, -0.4 96.49, 0 78 M0 78 C-1.29 59.03, 1.69 38.82, 0 26 M0 78 C1.14 59.81, 0.87 41.02, 0 26 M0 26 C-0.21 8, 7.45 1.01, 26 0 M0 26 C2.16 9.4, 9.47 -1.8, 26 0" stroke="#1e1e1e" stroke-width="1" fill="none"></path></g><g transform="translate(31.633333206176758 374.5) rotate(0 30.366666793823242 12.5)"><text x="30.366666793823242" y="0" font-family="Virgil, Segoe UI Emoji" font-size="20px" fill="#1e1e1e" text-anchor="middle" style="white-space: pre;" direction="ltr" dominant-baseline="text-before-edge">Player</text></g><g stroke-linecap="round" transform="translate(354 53) rotate(0 184.5 44.5)"><path d="M23.57 -0.9 L350.09 -1.35 L361.95 5.03 L368.79 10.89 L368.64 20.95 L368.93 70.94 L361.87 84.94 L356.9 86.93 L346.36 90.11 L15.56 86.81 L6.42 84.73 L2.92 76.26 L-1.19 65.08 L0.31 22.23 L0.48 11.58 L5.27 5.68 L10.8 0.24 L22.81 1.06" stroke="none" stroke-width="0" fill="#ffec99"></path><path d="M22.25 0 M22.25 0 C152.11 -2.81, 280.05 -0.65, 346.75 0 M22.25 0 C96.14 0.05, 168.93 -0.69, 346.75 0 M346.75 0 C363.33 1.98, 367.34 5.74, 369 22.25 M346.75 0 C362.79 -0.39, 370.83 8.24, 369 22.25 M369 22.25 C369.88 32.7, 370.59 39.22, 369 66.75 M369 22.25 C368.19 39.49, 368.56 55.28, 369 66.75 M369 66.75 C367.28 80.98, 360.45 89.05, 346.75 89 M369 66.75 C368.21 82.03, 360.28 88.44, 346.75 89 M346.75 89 C220.41 88.07, 92.41 88.6, 22.25 89 M346.75 89 C259.28 91.26, 170.4 90.78, 22.25 89 M22.25 89 C8.87 89.2, -0.66 80.11, 0 66.75 M22.25 89 C6.94 87.23, 0.63 82.61, 0 66.75 M0 66.75 C1.91 57.07, -0.41 46.79, 0 22.25 M0 66.75 C0.77 57.76, 0.21 48.86, 0 22.25 M0 22.25 C-0.6 8.51, 5.64 -1.17, 22.25 0 M0 22.25 C-0.17 8.66, 6.64 2.3, 22.25 0" stroke="#1e1e1e" stroke-width="1" fill="none"></path></g><g transform="translate(508.9833335876465 58) rotate(0 29.516666412353516 12.5)"><text x="29.516666412353516" y="0" font-family="Virgil, Segoe UI Emoji" font-size="20px" fill="#1e1e1e" text-anchor="middle" style="white-space: pre;" direction="ltr" dominant-baseline="text-before-edge">State</text></g><g stroke-linecap="round" transform="translate(367 98) rotate(0 51.5 17.5)"><path d="M7.26 -0.53 L99.26 -1.08 L102.09 3.62 L102.74 29.05 L96.51 35.96 L94.67 34.32 L4.53 35.56 L-0.93 28.24 L0.85 10.04 L3.72 1.97 L7.56 -1.67" stroke="none" stroke-width="0" fill="#b2f2bb"></path><path d="M8.75 0 M8.75 0 C34.77 0.1, 62.78 -1.33, 94.25 0 M8.75 0 C30.48 -0.66, 51.08 0.15, 94.25 0 M94.25 0 C98.7 -0.32, 104.72 1.44, 103 8.75 M94.25 0 C102.11 0.1, 104.75 3.42, 103 8.75 M103 8.75 C104.58 12.42, 101.39 19.92, 103 26.25 M103 8.75 C102.29 14.38, 102.7 18.89, 103 26.25 M103 26.25 C104.4 33.33, 98.96 36.41, 94.25 35 M103 26.25 C102.57 31.93, 98.41 36.7, 94.25 35 M94.25 35 C71.09 33.13, 49.17 33.57, 8.75 35 M94.25 35 C67.88 33.87, 39.51 35.64, 8.75 35 M8.75 35 C2.02 36.01, -0.14 31.51, 0 26.25 M8.75 35 C1.99 36.97, 1.9 33.2, 0 26.25 M0 26.25 C0.21 21.09, -1.25 16.71, 0 8.75 M0 26.25 C-0.78 21.77, -0.54 19.14, 0 8.75 M0 8.75 C-0.04 2.22, 2.24 -1.85, 8.75 0 M0 8.75 C0.8 3.23, 5.05 0.54, 8.75 0" stroke="#2f9e44" stroke-width="1" fill="none"></path></g><g transform="translate(384.20000076293945 103) rotate(0 34.29999923706055 12.5)"><text x="34.29999923706055" y="0" font-family="Virgil, Segoe UI Emoji" font-size="20px" fill="#2f9e44" text-anchor="middle" style="white-space: pre;" direction="ltr" dominant-baseline="text-before-edge">Pending</text></g><g stroke-linecap="round" transform="translate(488.5 97.5) rotate(0 51.5 17.5)"><path d="M8.39 -1.3 L98.36 -0.48 L100.89 6.42 L102.87 29.4 L97.69 35.56 L92.78 33.16 L5.78 35.74 L2.08 29.86 L-1.19 7.08 L2.49 2.17 L7.84 -0.93" stroke="none" stroke-width="0" fill="#e9ecef"></path><path d="M8.75 0 M8.75 0 C32 1.29, 58.61 2.69, 94.25 0 M8.75 0 C31.93 -0.68, 57.36 -1.26, 94.25 0 M94.25 0 C101.85 0.09, 104.53 3.36, 103 8.75 M94.25 0 C99.92 -1.96, 105.01 5.19, 103 8.75 M103 8.75 C102.56 13.94, 103.48 14.65, 103 26.25 M103 8.75 C103.53 15.91, 102.42 22.59, 103 26.25 M103 26.25 C102.63 31.95, 98.63 36.48, 94.25 35 M103 26.25 C102.17 32.17, 98.1 34.31, 94.25 35 M94.25 35 C73.83 33.57, 52.15 36.56, 8.75 35 M94.25 35 C75.98 36.24, 58.54 35.44, 8.75 35 M8.75 35 C2.11 36.71, 1.65 33.06, 0 26.25 M8.75 35 C2.05 34.54, 1.67 32.31, 0 26.25 M0 26.25 C-1.22 22.05, 0.91 15.44, 0 8.75 M0 26.25 C0.08 21.84, -0.2 17.24, 0 8.75 M0 8.75 C0.69 3.19, 4.77 0.47, 8.75 0 M0 8.75 C0.84 4.19, 2.23 1.26, 8.75 0" stroke="#1e1e1e" stroke-width="1" fill="none"></path></g><g transform="translate(509.88333320617676 102.5) rotate(0 30.116666793823242 12.5)"><text x="30.116666793823242" y="0" font-family="Virgil, Segoe UI Emoji" font-size="20px" fill="#1e1e1e" text-anchor="middle" style="white-space: pre;" direction="ltr" dominant-baseline="text-before-edge">Active</text></g><g stroke-linecap="round" transform="translate(608.5 96.5) rotate(0 51.5 17.5)"><path d="M7.18 1.5 L98.49 -0.13 L102.07 6.03 L100.98 28.24 L98.93 35.74 L95.78 34.78 L3.73 32.78 L0.85 30.06 L-0.91 7.82 L1.89 2.31 L7.03 -1.15" stroke="none" stroke-width="0" fill="#e9ecef"></path><path d="M8.75 0 M8.75 0 C36.36 0.81, 66.03 -2.22, 94.25 0 M8.75 0 C33.91 0.68, 58.06 0.85, 94.25 0 M94.25 0 C99.94 -1.7, 104.75 4.89, 103 8.75 M94.25 0 C98.17 -1.93, 104.21 2.53, 103 8.75 M103 8.75 C104.42 14.51, 103.53 23.26, 103 26.25 M103 8.75 C102.74 15.03, 102.27 22.08, 103 26.25 M103 26.25 C102.28 32.16, 98.36 34.4, 94.25 35 M103 26.25 C101.7 32.14, 99.29 35.44, 94.25 35 M94.25 35 C71.61 35.52, 54.34 34.9, 8.75 35 M94.25 35 C63.87 35.61, 35.13 35.24, 8.75 35 M8.75 35 C2.16 34.6, 1.45 32.28, 0 26.25 M8.75 35 C2.16 33.31, -0.48 30.32, 0 26.25 M0 26.25 C-1.23 19.54, 1.34 14.76, 0 8.75 M0 26.25 C0.36 21.73, 0.87 17.18, 0 8.75 M0 8.75 C0.73 4.02, 2.32 1.1, 8.75 0 M0 8.75 C-2.04 1.57, 2.75 1.24, 8.75 0" stroke="#1e1e1e" stroke-width="1" fill="none"></path></g><g transform="translate(623.6749992370605 101.5) rotate(0 36.32500076293945 12.5)"><text x="36.32500076293945" y="0" font-family="Virgil, Segoe UI Emoji" font-size="20px" fill="#1e1e1e" text-anchor="middle" style="white-space: pre;" direction="ltr" dominant-baseline="text-before-edge">Finished</text></g><g transform="translate(237.07500076293945 10) rotate(0 40.92499923706055 12.5)"><text x="40.92499923706055" y="0" font-family="Virgil, Segoe UI Emoji" font-size="20px" fill="#1e1e1e" text-anchor="middle" style="white-space: pre;" direction="ltr" dominant-baseline="text-before-edge">Creation</text></g><g stroke-linecap="round"><g transform="translate(185.5 335) rotate(0 44.58692282550038 -0.9482902716845274)"><path d="M-0.55 0.18 C14.55 -0.3, 74.52 -1.87, 89.72 -2.07 M1.37 -0.78 C16.36 -1.22, 73.82 -1.27, 88.63 -1.1" stroke="#1e1e1e" stroke-width="1" fill="none"></path></g><g transform="translate(185.5 335) rotate(0 44.58692282550038 -0.9482902716845274)"><path d="M60.69 8.59 C64.94 7.95, 73.06 3.87, 89.3 -1.95 M61.35 9.09 C66.11 7.57, 72.68 5.25, 88.87 -1.41" stroke="#1e1e1e" stroke-width="1" fill="none"></path></g><g transform="translate(185.5 335) rotate(0 44.58692282550038 -0.9482902716845274)"><path d="M60.77 -11.94 C65.14 -7.92, 73.25 -7.35, 89.3 -1.95 M61.43 -11.43 C66.16 -8.76, 72.72 -6.89, 88.87 -1.41" stroke="#1e1e1e" stroke-width="1" fill="none"></path></g></g><mask></mask><g stroke-linecap="round"><g transform="translate(187.5 335) rotate(0 -35.2495092317462 -85.49084345810115)"><path d="M-0.93 0.3 C-12.6 -28.12, -59.01 -142.65, -70.91 -171.28 M0.78 -0.58 C-10.87 -28.77, -58.95 -141.58, -71.28 -169.9" stroke="#1e1e1e" stroke-width="1" fill="none"></path></g></g><mask></mask><g stroke-linecap="round"><g transform="translate(187.5 337) rotate(0 -36.73121208338067 -28.18648362047969)"><path d="M-0.33 0.62 C-12.65 -8.77, -61.7 -47.65, -74.14 -56.99 M1.7 -0.1 C-10.77 -9.32, -62.78 -46.42, -75.16 -55.98" stroke="#1e1e1e" stroke-width="1" fill="none"></path></g></g><mask></mask><g stroke-linecap="round"><g transform="translate(185.5 337) rotate(0 -36.61018065605312 26.466447400786024)"><path d="M0.48 0.98 C-11.81 9.59, -60.95 44.15, -73.18 52.49 M-0.73 0.44 C-13.15 8.62, -61.64 42.07, -73.7 50.62" stroke="#1e1e1e" stroke-width="1" fill="none"></path></g></g><mask></mask><g stroke-linecap="round"><g transform="translate(185.5 336) rotate(0 -34.94311272613703 81.83473592202182)"><path d="M0.93 -1.06 C-10.84 26.17, -58.91 136.05, -70.81 163.47 M-0.04 1 C-11.41 28.37, -56.62 137.47, -68.53 164.73" stroke="#1e1e1e" stroke-width="1" fill="none"></path></g></g><mask></mask><g transform="translate(280.4000015258789 322) rotate(0 50.099998474121094 12.5)"><text x="50.099998474121094" y="0" font-family="Virgil, Segoe UI Emoji" font-size="20px" fill="#1e1e1e" text-anchor="middle" style="white-space: pre;" direction="ltr" dominant-baseline="text-before-edge">Join Game</text></g></svg>