<svg version="1.1" xmlns="http://www.w3.org/2000/svg" viewBox="0 0 1673.0239324745091 579.4547139866775" width="1673.0239324745091" height="579.4547139866775">
  <!-- svg-source:excalidraw -->
  
  <defs>
    <style class="style-fonts">
      @font-face {
        font-family: "Virgil";
        src: url("https://excalidraw.com/Virgil.woff2");
      }
      @font-face {
        font-family: "Cascadia";
        src: url("https://excalidraw.com/Cascadia.woff2");
      }
    </style>
    
  </defs>
  <rect x="0" y="0" width="1673.0239324745091" height="579.4547139866775" fill="#ffffff"></rect><g stroke-linecap="round" transform="translate(1224.0239324745091 10) rotate(0 219.5 278.5)"><path d="M33.68 -1.69 L407.55 1.82 L422.71 1.32 L425.83 3.2 L432.95 13.3 L436.87 19.44 L438.12 31.48 L438.39 523.96 L435.47 540.04 L436.18 542.68 L427.29 550.62 L420.01 556.99 L408.88 557.34 L30.23 556.24 L17.1 555.29 L11.19 551.25 L5.8 544.03 L0.27 538.3 L-1.09 523.57 L-0.59 31.67 L3.85 16.91 L7.05 8.57 L19.59 3.01 L30.68 -1.3" stroke="none" stroke-width="0" fill="#d0bfff"></path><path d="M32 0 M32 0 C166.32 2.55, 299.26 1.01, 407 0 M32 0 C167.87 -0.88, 304.64 -1.12, 407 0 M407 0 C429.68 0.34, 439.96 12.56, 439 32 M407 0 C430.37 2.26, 439.13 8.94, 439 32 M439 32 C439.02 136.37, 439.31 239.96, 439 525 M439 32 C439.61 186.53, 439.79 341.24, 439 525 M439 525 C440.14 545.39, 428.93 555.39, 407 557 M439 525 C437.36 544.09, 428.29 558.19, 407 557 M407 557 C258.68 555.61, 112.8 554.62, 32 557 M407 557 C331.05 556.58, 254.86 555.68, 32 557 M32 557 C8.98 556.78, 0.13 547.88, 0 525 M32 557 C11.88 555.53, 2.27 545.08, 0 525 M0 525 C0.88 370.41, 0.7 215.55, 0 32 M0 525 C1.41 385.35, 0.66 245.48, 0 32 M0 32 C-0.61 9.76, 11.75 -0.2, 32 0 M0 32 C1.78 12.32, 9.64 2.04, 32 0" stroke="#1e1e1e" stroke-width="1" fill="none"></path></g><g transform="translate(1333.4322652992162 15) rotate(0 110.09166717529297 12.5)"><text x="110.09166717529297" y="0" font-family="Virgil, Segoe UI Emoji" font-size="20px" fill="#1e1e1e" text-anchor="middle" style="white-space: pre;" direction="ltr" dominant-baseline="text-before-edge">GameState FINISHED</text></g><g stroke-linecap="round" transform="translate(529.9388428223067 10.992968654724109) rotate(0 347.5 278.5)"><path d="M32.87 -1.16 L661.12 0.75 L675.55 0.24 L686.1 6.03 L693.14 18.12 L694.55 32.77 L695.74 526.35 L691.78 538.36 L687.39 550.31 L675.08 556.7 L661.13 556.92 L30.71 556.22 L19.93 554.64 L7.9 549.91 L0.77 538.44 L0.84 524.25 L0.58 32.85 L0.7 18.27 L6.25 9.91 L16.62 3.54 L31.65 -0.8" stroke="none" stroke-width="0" fill="#a5d8ff"></path><path d="M32 0 M32 0 C212.04 0.87, 390.92 1.27, 663 0 M32 0 C266.79 -2.18, 501.07 -1.83, 663 0 M663 0 C686.16 -1.21, 693.43 12.15, 695 32 M663 0 C686.41 -1.75, 695.81 9.29, 695 32 M695 32 C693.25 205.51, 693.47 381.05, 695 525 M695 32 C695.95 214.67, 695.99 397.27, 695 525 M695 525 C696.56 546.74, 682.77 558.58, 663 557 M695 525 C694.89 545.69, 683.42 558.66, 663 557 M663 557 C491.57 558.72, 317.93 559.27, 32 557 M663 557 C522.49 557.87, 382.25 557.3, 32 557 M32 557 C9.5 557.36, -0.12 547.72, 0 525 M32 557 C11.17 558.57, -0.25 548.22, 0 525 M0 525 C-2.5 333.21, -1.11 142.78, 0 32 M0 525 C0.4 391.16, 0.71 256.71, 0 32 M0 32 C1.7 9.65, 9.29 -0.91, 32 0 M0 32 C-2.04 10.84, 12.26 -1.38, 32 0" stroke="#1e1e1e" stroke-width="1" fill="none"></path></g><g transform="translate(778.1638412964278 15.992968654724109) rotate(0 99.2750015258789 12.5)"><text x="99.2750015258789" y="0" font-family="Virgil, Segoe UI Emoji" font-size="20px" fill="#1e1e1e" text-anchor="middle" style="white-space: pre;" direction="ltr" dominant-baseline="text-before-edge">GameState ACTIVE</text></g><g stroke-linecap="round" transform="translate(630.2826042554043 93.13816066385169) rotate(0 195.87413526629223 131.441853928696)"><path d="M31.86 1.72 L358.54 1.82 L365.35 2.12 L377.48 3.31 L386.12 11.07 L391.69 19.64 L392.27 30.38 L393.53 231.74 L391.18 239.24 L386.41 252.38 L377.79 260.13 L372.77 260.42 L360.04 261.67 L31.82 261.84 L26.18 264.04 L12.06 257.06 L9.7 252.92 L3.79 244.97 L-0.08 230.43 L2.04 26.07 L0.4 17.8 L7.43 8.46 L17.76 2.37 L31.58 -0.94" stroke="none" stroke-width="0" fill="#ffec99"></path><path d="M32 0 M32 0 C147.92 0.55, 266.1 0.95, 359.75 0 M32 0 C154.52 -1.08, 276.09 -1.29, 359.75 0 M359.75 0 C381.87 -1.46, 389.94 11.31, 391.75 32 M359.75 0 C383 0.19, 393.29 8.72, 391.75 32 M391.75 32 C389.82 88.47, 389.58 144, 391.75 230.88 M391.75 32 C390.34 74.78, 390.35 116.03, 391.75 230.88 M391.75 230.88 C393.08 250.54, 382.36 263.69, 359.75 262.88 M391.75 230.88 C392.28 251.11, 379.22 262.2, 359.75 262.88 M359.75 262.88 C275.17 262.13, 190.53 260.14, 32 262.88 M359.75 262.88 C289.34 261.26, 218.93 260.3, 32 262.88 M32 262.88 C9.29 261.86, 0.65 252.48, 0 230.88 M32 262.88 C12.15 263.94, -1.33 250.09, 0 230.88 M0 230.88 C-0.69 185.43, 1.92 141.46, 0 32 M0 230.88 C-1.02 164.48, -0.96 97.99, 0 32 M0 32 C-1.88 12.41, 9.74 -1.24, 32 0 M0 32 C-2.24 9.86, 10.19 -1.25, 32 0" stroke="#1e1e1e" stroke-width="1" fill="none"></path></g><g transform="translate(796.7400734908128 98.13816066385169) rotate(0 29.41666603088379 12.977707006369428)"><text x="29.41666603088379" y="0" font-family="Virgil, Segoe UI Emoji" font-size="20.764331210191074px" fill="#1e1e1e" text-anchor="middle" style="white-space: pre;" direction="ltr" dominant-baseline="text-before-edge">Round</text></g><g stroke-linecap="round" transform="translate(684.9211788296855 131.79752946640934) rotate(0 195.87413526629223 131.441853928696)"><path d="M30.01 -1.44 L360.95 1.89 L367.91 -1.11 L380.27 4.22 L386.82 13.16 L388 18 L393.52 31.52 L393.4 231.77 L389.53 239.03 L388.22 249.49 L377.31 257.67 L374.68 260.76 L357.83 261.04 L31.2 261.84 L25.73 263.95 L12.93 259.05 L6.41 256.19 L0.24 244.69 L-1.54 229.61 L1.71 24.26 L0.22 16.7 L6.91 6.4 L18.45 1.64 L31.84 -1.85" stroke="none" stroke-width="0" fill="#ffec99"></path><path d="M32 0 M32 0 C129.26 -0.76, 227.72 -1.44, 359.75 0 M32 0 C152.98 -2.01, 272.3 -1.85, 359.75 0 M359.75 0 C379.52 -0.67, 392.14 8.82, 391.75 32 M359.75 0 C380.35 -0.5, 389.88 11.97, 391.75 32 M391.75 32 C391.14 102.54, 388.93 171.95, 391.75 230.88 M391.75 32 C391.13 89.61, 390.62 146.22, 391.75 230.88 M391.75 230.88 C392.7 250.25, 382.7 264.38, 359.75 262.88 M391.75 230.88 C391.42 252.53, 380.95 262.02, 359.75 262.88 M359.75 262.88 C261.8 262.18, 163.61 262.61, 32 262.88 M359.75 262.88 C246.85 264.41, 134.05 263.96, 32 262.88 M32 262.88 C10.6 263.15, 1.58 251.89, 0 230.88 M32 262.88 C8.99 263.63, -1.59 250.86, 0 230.88 M0 230.88 C1.48 156.92, 1.47 82.23, 0 32 M0 230.88 C-1.1 181.92, -1.83 132.63, 0 32 M0 32 C-1.92 11.83, 9.56 -0.42, 32 0 M0 32 C1.76 9.7, 11.26 -0.35, 32 0" stroke="#1e1e1e" stroke-width="1" fill="none"></path></g><g transform="translate(851.378648065094 136.79752946640934) rotate(0 29.41666603088379 12.977707006369428)"><text x="29.41666603088379" y="0" font-family="Virgil, Segoe UI Emoji" font-size="20.764331210191074px" fill="#1e1e1e" text-anchor="middle" style="white-space: pre;" direction="ltr" dominant-baseline="text-before-edge">Round</text></g><g stroke-linecap="round" transform="translate(724.0960058829442 174.0651060238725) rotate(0 195.87413526629228 131.441853928696)"><path d="M32.46 1.09 L359.71 -0.87 L369.22 0.01 L379.54 3.26 L386.77 13.93 L391.71 18.12 L392.34 33.55 L393.71 229.52 L390.44 238.92 L386.08 251.1 L381.12 257.4 L372.38 262.61 L361.46 262.48 L32.94 262.88 L24.81 263.24 L13.41 257.21 L9.83 254.2 L1.17 245.39 L-1.08 230.37 L0.42 24.77 L0.79 17.86 L8.88 8.33 L19.18 0.87 L31.29 -0.13" stroke="none" stroke-width="0" fill="#ffec99"></path><path d="M32 0 M32 0 C136.74 -2.81, 238.99 -2.78, 359.75 0 M32 0 C112.48 -2.08, 194.22 -1.57, 359.75 0 M359.75 0 C381.18 -1.71, 390.47 11.63, 391.75 32 M359.75 0 C381.23 0.94, 392.16 12.31, 391.75 32 M391.75 32 C390.79 83.91, 390.55 135.03, 391.75 230.88 M391.75 32 C390.5 103.17, 389.39 174.66, 391.75 230.88 M391.75 230.88 C392.43 254.17, 380.35 261.63, 359.75 262.88 M391.75 230.88 C390.72 252.79, 381.2 264.58, 359.75 262.88 M359.75 262.88 C290.32 263.05, 217.77 262.85, 32 262.88 M359.75 262.88 C255.48 264.97, 152.33 264.79, 32 262.88 M32 262.88 C12.21 263.89, -0.6 253.03, 0 230.88 M32 262.88 C9.17 261.93, 0.7 250.65, 0 230.88 M0 230.88 C0.7 161.79, 0.31 93.79, 0 32 M0 230.88 C-1.04 169.87, -1.36 109.65, 0 32 M0 32 C-1.93 10.18, 8.99 -0.74, 32 0 M0 32 C-0.33 10.85, 10.84 0.71, 32 0" stroke="#1e1e1e" stroke-width="1" fill="none"></path></g><g transform="translate(890.5534751183525 179.0651060238725) rotate(0 29.41666603088379 12.977707006369428)"><text x="29.41666603088379" y="0" font-family="Virgil, Segoe UI Emoji" font-size="20.764331210191074px" fill="#1e1e1e" text-anchor="middle" style="white-space: pre;" direction="ltr" dominant-baseline="text-before-edge">Round</text></g><g stroke-linecap="round" transform="translate(89.11468743072652 12.454713986677461) rotate(0 219.5 278.5)"><path d="M30.71 0.84 L407.65 -0.33 L420.92 3.24 L428.42 5.65 L434.52 13.33 L437.49 19.58 L440.45 32.61 L440.8 526.17 L437.17 539.53 L434.34 544.62 L426.19 554.03 L420.13 555.6 L408.04 556.5 L32.71 557.74 L18.77 554.31 L12.65 553.15 L5.49 545.29 L3.58 539.39 L-0.69 525.76 L-0.38 34 L0.9 16.99 L9.45 7.49 L16.43 2.21 L32.78 0.84" stroke="none" stroke-width="0" fill="#e9ecef"></path><path d="M32 0 M32 0 C108.35 1.27, 186.82 -0.19, 407 0 M32 0 C161.15 -2.29, 290.31 -2.14, 407 0 M407 0 C427.98 1.29, 439.58 11.79, 439 32 M407 0 C428.98 -1.73, 441.29 8.59, 439 32 M439 32 C439.19 139.22, 440.54 246.37, 439 525 M439 32 C439.99 149.51, 440.09 267.61, 439 525 M439 525 C437.99 547.78, 428.84 558.2, 407 557 M439 525 C438.14 546.04, 426.68 557.62, 407 557 M407 557 C311.28 557.73, 213.14 557.79, 32 557 M407 557 C328.04 559.54, 247.4 558.98, 32 557 M32 557 C11.78 557.93, -0.16 546.9, 0 525 M32 557 C12.24 556.31, 1.62 545.33, 0 525 M0 525 C-0.69 343.32, 0.18 162.54, 0 32 M0 525 C2.35 341.31, 2.17 157.45, 0 32 M0 32 C-1.26 10.58, 10.36 -0.12, 32 0 M0 32 C0.26 10.4, 12.81 1.22, 32 0" stroke="#1e1e1e" stroke-width="1" fill="none"></path></g><g transform="translate(200.36468743072652 17.45471398667746) rotate(0 108.25 12.5)"><text x="108.25" y="0" font-family="Virgil, Segoe UI Emoji" font-size="20px" fill="#1e1e1e" text-anchor="middle" style="white-space: pre;" direction="ltr" dominant-baseline="text-before-edge">GameState PENDING</text></g><g stroke-linecap="round" transform="translate(10 199.92931482840476) rotate(0 80.5 83)"><path d="M100.03 20.42 L148.19 72.32 L153.4 80.19 L156.02 84.92 L153.58 91.4 L139.14 103.4 L90.36 156.4 L86.51 158.07 L81.76 159.7 L76.42 161.35 L70.82 156.37 L20.1 106.74 L7.55 93.81 L5.78 82.76 L9.05 79.81 L11.91 71.18 L75.71 7.44 L82.97 5.41 L84.62 7.06 L101.31 20.22" stroke="none" stroke-width="0" fill="#ffec99"></path><path d="M101.25 21 M101.25 21 C113.27 31.37, 125.02 43.98, 140.75 63 M101.25 21 C110.04 30.29, 119.86 39.91, 140.75 63 M140.75 63 C160.23 83.35, 162.81 83, 140.75 105 M140.75 63 C159.12 83.64, 162.5 84.29, 140.75 105 M140.75 105 C126.92 115.76, 114.57 129.65, 101.25 145 M140.75 105 C129.69 115.68, 119.29 126.19, 101.25 145 M101.25 145 C81.59 166.26, 79.66 167.73, 60.75 145 M101.25 145 C80.15 167.97, 81.72 163.85, 60.75 145 M60.75 145 C49.93 135.1, 40.85 124.75, 20.25 105 M60.75 145 C53.22 136.12, 43.52 127.76, 20.25 105 M20.25 105 C-1.17 82.1, 1.72 83.28, 20.25 63 M20.25 105 C-0.14 83.13, -1.19 82.14, 20.25 63 M20.25 63 C33.65 46.53, 48.47 31.09, 60.75 21 M20.25 63 C30.59 52.06, 42.13 41.3, 60.75 21 M60.75 21 C82.33 1.19, 81.51 1.49, 101.25 21 M60.75 21 C79.95 -0.67, 82.94 -0.82, 101.25 21" stroke="#1e1e1e" stroke-width="1" fill="none"></path></g><g transform="translate(57.608333587646484 258.69854559763553) rotate(0 33.141666412353516 24.230769230769226)"><text x="33.141666412353516" y="0" font-family="Virgil, Segoe UI Emoji" font-size="19.38461538461538px" fill="#1e1e1e" text-anchor="middle" style="white-space: pre;" direction="ltr" dominant-baseline="text-before-edge">Create</text><text x="33.141666412353516" y="24.230769230769226" font-family="Virgil, Segoe UI Emoji" font-size="19.38461538461538px" fill="#1e1e1e" text-anchor="middle" style="white-space: pre;" direction="ltr" dominant-baseline="text-before-edge">Game</text></g><g stroke-linecap="round"><g transform="translate(258.9123273885612 288.4999999999999) rotate(0 2.0488796265307485 50.19009720110968)"><path d="M0.97 -0.96 C1.24 15.63, 1.5 83.38, 1.92 100.31 M0.02 1.15 C0.63 17.79, 3.59 84.6, 4.08 101.34" stroke="#1e1e1e" stroke-width="1" fill="none"></path></g></g><mask></mask><g stroke-linecap="round" transform="translate(182.38420200745787 378.2765459220075) rotate(0 80.5 83)"><path d="M100.3 21.68 L149.46 74.06 L155.46 78.33 L156.29 82.64 L153.54 91.79 L141.64 105.22 L91.74 153 L83.65 159.42 L82 161.52 L78.35 161.42 L71.89 153.9 L19.22 104.91 L10.47 93.44 L5.37 83.06 L8.48 78.3 L14.66 70.7 L74.49 6.33 L79.54 6.75 L84.37 7.12 L102.89 19.93" stroke="none" stroke-width="0" fill="#b2f2bb"></path><path d="M101.25 21 M101.25 21 C113.52 33.23, 121.38 44.93, 140.75 63 M101.25 21 C110.63 31.07, 120.02 41.9, 140.75 63 M140.75 63 C160.31 84.24, 159.42 84.03, 140.75 105 M140.75 63 C160.1 81.93, 163.22 83.24, 140.75 105 M140.75 105 C127.47 117.31, 117.62 131.24, 101.25 145 M140.75 105 C128.07 117.46, 116.96 129.06, 101.25 145 M101.25 145 C82.26 165.19, 79.9 166.23, 60.75 145 M101.25 145 C82.65 166.49, 82.68 164.39, 60.75 145 M60.75 145 C45.85 131.35, 29.81 114.04, 20.25 105 M60.75 145 C48.6 133, 36.37 121.31, 20.25 105 M20.25 105 C-1.34 85.26, 1.72 84.11, 20.25 63 M20.25 105 C0.1 83.11, 0.17 85.4, 20.25 63 M20.25 63 C32.67 51.54, 46.09 38.65, 60.75 21 M20.25 63 C30.42 52.72, 39.6 42.13, 60.75 21 M60.75 21 C81.74 0.41, 81.43 1.16, 101.25 21 M60.75 21 C79.68 -1.38, 80.58 -0.82, 101.25 21" stroke="#1e1e1e" stroke-width="1" fill="none"></path></g><g transform="translate(228.6508684198114 437.0457766912382) rotate(0 34.483333587646484 24.230769230769226)"><text x="34.483333587646484" y="0" font-family="Virgil, Segoe UI Emoji" font-size="19.38461538461538px" fill="#1e1e1e" text-anchor="middle" style="white-space: pre;" direction="ltr" dominant-baseline="text-before-edge">Player </text><text x="34.483333587646484" y="24.230769230769226" font-family="Virgil, Segoe UI Emoji" font-size="19.38461538461538px" fill="#1e1e1e" text-anchor="middle" style="white-space: pre;" direction="ltr" dominant-baseline="text-before-edge">Joins</text></g><g stroke-linecap="round"><g transform="translate(164.58030518976403 283.5351567263789) rotate(0 650.8171625520953 0.27148935032231236)"><path d="M0.99 1.04 C218.02 1.2, 1084.97 1.26, 1301.59 0.98 M0.05 0.54 C217.04 0.38, 1084.43 -0.59, 1301.06 -0.63" stroke="#1e1e1e" stroke-width="1" fill="none"></path></g></g><mask></mask><g stroke-linecap="round"><g transform="translate(283.6736014395833 285.9723982256508) rotate(0 1.870581076599251 50.771460133620366)"><path d="M0.35 -0.56 C0.8 16.47, 1.87 85.18, 2.31 102.1 M-0.93 1.76 C-0.05 18.46, 4.14 83.69, 4.67 100.41" stroke="#1e1e1e" stroke-width="1" fill="none"></path></g></g><mask></mask><g stroke-linecap="round" transform="translate(205.22248106611409 379.2695145767316) rotate(0 80.5 83)"><path d="M101.25 21.26 L150.9 71.29 L153.23 79.26 L156.88 84.55 L150.61 90.62 L139.65 105.84 L92.73 154.41 L85.17 158.72 L82.11 160.89 L75.77 157.84 L69.31 155.85 L21.67 103.91 L10.86 94.43 L5.14 85.72 L5.36 77.16 L13.62 70.25 L73.73 6.85 L79.63 5.15 L84.58 4.58 L100.52 20.44" stroke="none" stroke-width="0" fill="#b2f2bb"></path><path d="M101.25 21 M101.25 21 C115.12 34.4, 125.25 48.99, 140.75 63 M101.25 21 C114.63 35.69, 130.15 50.74, 140.75 63 M140.75 63 C159.03 83.11, 160.84 85.58, 140.75 105 M140.75 63 C160.98 82.19, 161.49 82.49, 140.75 105 M140.75 105 C125.77 119.56, 113.24 133.69, 101.25 145 M140.75 105 C125.31 120.95, 111.3 135.84, 101.25 145 M101.25 145 C79.59 164.43, 79.14 164.07, 60.75 145 M101.25 145 C80.63 167.22, 80.25 166.21, 60.75 145 M60.75 145 C51.97 137.56, 42.1 128.34, 20.25 105 M60.75 145 C45.36 129.45, 30.53 115.17, 20.25 105 M20.25 105 C-0.4 84.43, -0.33 85.22, 20.25 63 M20.25 105 C-1.13 82.47, -0.56 82.54, 20.25 63 M20.25 63 C35.32 50.41, 48.05 33.61, 60.75 21 M20.25 63 C30.11 52.57, 41.04 41.37, 60.75 21 M60.75 21 C82.51 0.22, 81.83 -1.16, 101.25 21 M60.75 21 C80.48 1.79, 79.65 -1.22, 101.25 21" stroke="#1e1e1e" stroke-width="1" fill="none"></path></g><g transform="translate(251.4891474784676 438.0387453459623) rotate(0 34.483333587646484 24.230769230769226)"><text x="34.483333587646484" y="0" font-family="Virgil, Segoe UI Emoji" font-size="19.38461538461538px" fill="#1e1e1e" text-anchor="middle" style="white-space: pre;" direction="ltr" dominant-baseline="text-before-edge">Player </text><text x="34.483333587646484" y="24.230769230769226" font-family="Virgil, Segoe UI Emoji" font-size="19.38461538461538px" fill="#1e1e1e" text-anchor="middle" style="white-space: pre;" direction="ltr" dominant-baseline="text-before-edge">Joins</text></g><g stroke-linecap="round" transform="translate(232.03263474366696 380.2624832314557) rotate(0 80.5 83)"><path d="M99.42 20.6 L149.84 73.39 L156.48 79.58 L156.37 83.67 L153.37 91.55 L139.42 104.52 L90.46 155.26 L86.32 159.38 L82.89 162.07 L78.26 158.26 L69.41 156.35 L21.95 104.64 L10.28 93.22 L5.67 85.51 L7.42 78.65 L12.45 69.52 L76.59 6.3 L79.94 5.39 L84.85 5.56 L100.22 19.66" stroke="none" stroke-width="0" fill="#b2f2bb"></path><path d="M101.25 21 M101.25 21 C115.82 35.92, 125.49 49.5, 140.75 63 M101.25 21 C112.05 33.24, 125.38 46.36, 140.75 63 M140.75 63 C160.2 85.28, 159.57 83.25, 140.75 105 M140.75 63 C162.6 86.13, 159.49 82.02, 140.75 105 M140.75 105 C132.31 113.13, 125.54 120.36, 101.25 145 M140.75 105 C131.11 114.36, 120.84 125.15, 101.25 145 M101.25 145 C80.6 164.62, 82.79 165.39, 60.75 145 M101.25 145 C80.88 167.66, 82.21 166.5, 60.75 145 M60.75 145 C45.42 129.72, 31.61 117.88, 20.25 105 M60.75 145 C51.41 136.67, 42.98 129.11, 20.25 105 M20.25 105 C-1.45 82.08, -1.47 82.51, 20.25 63 M20.25 105 C-0.74 83.93, 1.95 81.78, 20.25 63 M20.25 63 C33.65 48.07, 49.16 34, 60.75 21 M20.25 63 C30.26 52.83, 40.3 41.58, 60.75 21 M60.75 21 C79.99 0.07, 82.81 -1.22, 101.25 21 M60.75 21 C81.76 0.54, 82.37 0.53, 101.25 21" stroke="#1e1e1e" stroke-width="1" fill="none"></path></g><g transform="translate(278.2993011560205 439.0317140006864) rotate(0 34.483333587646484 24.230769230769226)"><text x="34.483333587646484" y="0" font-family="Virgil, Segoe UI Emoji" font-size="19.38461538461538px" fill="#1e1e1e" text-anchor="middle" style="white-space: pre;" direction="ltr" dominant-baseline="text-before-edge">Player </text><text x="34.483333587646484" y="24.230769230769226" font-family="Virgil, Segoe UI Emoji" font-size="19.38461538461538px" fill="#1e1e1e" text-anchor="middle" style="white-space: pre;" direction="ltr" dominant-baseline="text-before-edge">Joins</text></g><g stroke-linecap="round"><g transform="translate(309.6690850123436 285.39103529314013) rotate(0 1.6616323804366857 50.71038313695864)"><path d="M0.6 -0.75 C1.19 15.87, 3.47 83.87, 3.87 100.86 M-0.55 1.47 C-0.06 18.76, 2.93 85.34, 3.4 102.17" stroke="#1e1e1e" stroke-width="1" fill="none"></path></g></g><mask></mask><g stroke-linecap="round" transform="translate(447.5068328188142 199.3514093361111) rotate(0 80.5 83)"><path d="M100.34 19.42 L151.7 71.69 L154.21 79.64 L154.77 83.8 L152.08 92.09 L139 106.65 L91.6 152.76 L86.19 159.21 L80.62 161.82 L77.49 160.54 L70.03 156 L20.95 104.8 L7.68 94.35 L3.65 83.18 L6.52 78.32 L12.9 70.1 L76.78 8.64 L80 5.62 L83.39 5.32 L100.16 21.18" stroke="none" stroke-width="0" fill="#ffec99"></path><path d="M101.25 21 M101.25 21 C113.36 34.67, 126.27 47.52, 140.75 63 M101.25 21 C113.75 33.84, 126.41 46.89, 140.75 63 M140.75 63 C159.01 84.91, 160.19 84.12, 140.75 105 M140.75 63 C159.28 82.95, 163 83.36, 140.75 105 M140.75 105 C133.17 112.72, 122.78 124.47, 101.25 145 M140.75 105 C132.1 112.77, 123.57 122.75, 101.25 145 M101.25 145 C80.75 167.98, 82.04 164.27, 60.75 145 M101.25 145 C82.1 165.89, 81.05 166.79, 60.75 145 M60.75 145 C48.71 135.55, 40.33 123.03, 20.25 105 M60.75 145 C46.37 130.62, 31.77 115.8, 20.25 105 M20.25 105 C-0.13 82.53, -1.6 84.66, 20.25 63 M20.25 105 C2.2 85, -0.91 84.65, 20.25 63 M20.25 63 C29.13 51.53, 39.49 43.99, 60.75 21 M20.25 63 C34.86 46.73, 51.21 31.15, 60.75 21 M60.75 21 C82.2 -1.01, 79.14 1.37, 101.25 21 M60.75 21 C80.32 1.73, 82.93 2.13, 101.25 21" stroke="#1e1e1e" stroke-width="1" fill="none"></path></g><g transform="translate(495.7484977052888 258.12064010534186) rotate(0 32.50833511352539 24.230769230769226)"><text x="32.50833511352539" y="0" font-family="Virgil, Segoe UI Emoji" font-size="19.38461538461538px" fill="#1e1e1e" text-anchor="middle" style="white-space: pre;" direction="ltr" dominant-baseline="text-before-edge">Start </text><text x="32.50833511352539" y="24.230769230769226" font-family="Virgil, Segoe UI Emoji" font-size="19.38461538461538px" fill="#1e1e1e" text-anchor="middle" style="white-space: pre;" direction="ltr" dominant-baseline="text-before-edge">Game</text></g><g stroke-linecap="round" transform="translate(1148.542703054086 199.54218807165483) rotate(0 80.5 83)"><path d="M100.56 20.26 L150.27 74.81 L154.86 81.25 L157.58 83.08 L153.57 93.12 L141.11 105.57 L91.54 153.9 L83.16 160.5 L79.4 161.21 L76.92 159.62 L68.37 152.69 L22.07 103.21 L8.2 91.71 L4.87 82 L7.3 79.52 L15.35 71.42 L76.91 8.04 L79.14 5.94 L84.57 7.94 L101.31 20.89" stroke="none" stroke-width="0" fill="#ffec99"></path><path d="M101.25 21 M101.25 21 C114.45 32.89, 126.58 45.74, 140.75 63 M101.25 21 C109.87 30.36, 119.89 39.09, 140.75 63 M140.75 63 C159.32 85.65, 159.74 83.44, 140.75 105 M140.75 63 C161.08 85.68, 158.96 84.25, 140.75 105 M140.75 105 C127.33 118.07, 115.54 133.32, 101.25 145 M140.75 105 C128.79 115.18, 119.37 126.26, 101.25 145 M101.25 145 C79 167.4, 81.27 165.61, 60.75 145 M101.25 145 C81.34 165.67, 83.06 166.03, 60.75 145 M60.75 145 C51.59 137.26, 43.73 126.32, 20.25 105 M60.75 145 C48.76 132.44, 36.46 121.66, 20.25 105 M20.25 105 C-0.9 83.84, -0.77 82.75, 20.25 63 M20.25 105 C1.13 82.55, -0.8 83.38, 20.25 63 M20.25 63 C31.3 52.7, 42.44 41.11, 60.75 21 M20.25 63 C31.61 50.66, 42.06 40.12, 60.75 21 M60.75 21 C79.96 -0.9, 82.23 1.57, 101.25 21 M60.75 21 C80.79 -1.15, 79.1 2.26, 101.25 21" stroke="#1e1e1e" stroke-width="1" fill="none"></path></g><g transform="translate(1203.5927022911465 258.3114188408856) rotate(0 25.700000762939453 24.230769230769226)"><text x="25.700000762939453" y="0" font-family="Virgil, Segoe UI Emoji" font-size="19.38461538461538px" fill="#1e1e1e" text-anchor="middle" style="white-space: pre;" direction="ltr" dominant-baseline="text-before-edge">End </text><text x="25.700000762939453" y="24.230769230769226" font-family="Virgil, Segoe UI Emoji" font-size="19.38461538461538px" fill="#1e1e1e" text-anchor="middle" style="white-space: pre;" direction="ltr" dominant-baseline="text-before-edge">Game</text></g><g stroke-linecap="round" transform="translate(1464.3762742237166 192.18204049175438) rotate(0 87.87772594309001 87.87772594309001)"><path d="M95.06 -0.08 C106.55 -0.54, 120.32 5.38, 130.68 11.07 C141.03 16.76, 150.19 24.79, 157.2 34.07 C164.21 43.35, 169.89 55.01, 172.74 66.73 C175.6 78.45, 176.31 92.53, 174.31 104.37 C172.31 116.22, 167.42 128.13, 160.72 137.82 C154.03 147.51, 144.24 156.39, 134.12 162.53 C124.01 168.66, 112.05 173.1, 100.02 174.64 C88 176.17, 73.47 175.13, 61.97 171.74 C50.47 168.34, 40 161.98, 31.01 154.28 C22.03 146.57, 13.33 136.22, 8.05 125.5 C2.78 114.79, -0.53 101.77, -0.64 89.97 C-0.75 78.17, 2.79 65.84, 7.4 54.71 C12 43.58, 18.38 31.59, 26.99 23.19 C35.6 14.78, 46.45 7.94, 59.05 4.28 C71.65 0.62, 94.32 1.19, 102.6 1.22 C110.87 1.24, 109.04 2.89, 108.7 4.43 M46.92 10.86 C56.43 4.02, 69.09 0.69, 80.92 -0.02 C92.74 -0.73, 106.6 2.63, 117.87 6.6 C129.15 10.58, 139.85 15.83, 148.58 23.81 C157.3 31.78, 165.76 43.17, 170.23 54.44 C174.7 65.71, 176.08 79.36, 175.42 91.43 C174.76 103.49, 171.23 116.46, 166.29 126.84 C161.35 137.23, 154.67 146.15, 145.77 153.73 C136.88 161.3, 124.34 168.99, 112.91 172.31 C101.47 175.62, 89.14 175.14, 77.17 173.61 C65.2 172.08, 51.59 169.12, 41.11 163.14 C30.63 157.16, 20.83 147.86, 14.27 137.71 C7.71 127.55, 3.55 114.06, 1.72 102.23 C-0.1 90.39, 0.64 77.84, 3.33 66.69 C6.02 55.54, 10.73 44.91, 17.86 35.35 C24.98 25.79, 41.29 13.28, 46.07 9.33 C50.84 5.39, 45.94 10.34, 46.5 11.68" stroke="none" stroke-width="0" fill="#d0bfff"></path><path d="M75.43 1.36 C86.47 -1.64, 100.21 -0.09, 111.61 3.04 C123 6.17, 134.43 12.4, 143.79 20.14 C153.16 27.88, 162.56 38.55, 167.79 49.5 C173.02 60.44, 175.08 73.8, 175.18 85.8 C175.27 97.79, 172.83 110.47, 168.38 121.46 C163.93 132.45, 156.97 143.52, 148.47 151.74 C139.98 159.96, 128.67 166.97, 117.39 170.8 C106.11 174.62, 92.76 175.66, 80.81 174.67 C68.87 173.69, 56.06 170.23, 45.71 164.89 C35.35 159.54, 25.73 151.85, 18.7 142.6 C11.67 133.34, 6.36 121.04, 3.5 109.34 C0.65 97.63, -0.53 84.14, 1.55 72.35 C3.64 60.57, 9.4 48.38, 16 38.63 C22.6 28.88, 30.39 20.31, 41.14 13.85 C51.89 7.38, 72.83 2, 80.49 -0.16 C88.15 -2.33, 86.82 -0.78, 87.1 0.88 M115.21 4.9 C126.45 7.08, 137.73 14.49, 146.48 22.23 C155.24 29.98, 162.89 40.2, 167.75 51.37 C172.61 62.55, 175.78 77, 175.62 89.27 C175.46 101.54, 171.51 114.3, 166.78 124.99 C162.04 135.68, 155.75 145.49, 147.22 153.43 C138.69 161.36, 127.2 168.8, 115.6 172.61 C103.99 176.42, 89.61 177.95, 77.6 176.28 C65.59 174.62, 53.91 168.99, 43.54 162.63 C33.16 156.27, 22.26 147.83, 15.35 138.11 C8.43 128.38, 4.44 115.66, 2.05 104.28 C-0.34 92.9, -1.49 81.08, 1.02 69.8 C3.52 58.53, 9.82 46.33, 17.08 36.62 C24.34 26.92, 34.37 17.41, 44.58 11.58 C54.8 5.75, 66.69 2.76, 78.38 1.63 C90.06 0.49, 108.47 3.85, 114.68 4.79 C120.88 5.73, 116.03 5.82, 115.59 7.24" stroke="#1e1e1e" stroke-width="1" fill="none"></path></g><g transform="translate(1542.71977805114 380.9529747689111) rotate(9.782132738394608 10.327324477017669 -90.39330624021596)" stroke="none"><path d="M-11.71 -63.39 L-11.61 -63.79 L-11.44 -66.57 L-8.54 -67.87 L-10.9 -73.02 L-12.19 -74.44 L-14.14 -79.54 L-14.14 -82.08 L-14.64 -85.55 L-16.45 -88.29 L-16.75 -90.98 L-17.87 -93.21 L-17.28 -98.77 L-18.2 -102.53 L-18.65 -104.96 L-19.4 -104.75 L-16.6 -107.69 L-18.63 -110.77 L-20.04 -112.36 L-19.24 -111.07 L-20.52 -111.85 L-19.32 -112.88 L-17.47 -111.65 L-17.4 -111.86 L-15.63 -106.89 L-16.52 -107.04 L-13.33 -102.66 L-12.56 -101.05 L-10.66 -100.35 L-9.9 -100.7 L-6.63 -101.56 L-5.8 -97.38 L-7 -99.81 L-7 -96.92 L-5.3 -96.74 L-5.44 -97.61 L-6.66 -98.37 L-5.23 -98.93 L-3.97 -98.43 L-3.71 -97.67 L-2.63 -94.99 L-6.37 -96.23 L-5.59 -95.14 L-2.58 -93.49 L-4.74 -95.7 L-2.78 -93.45 L-2.41 -92.29 L-2.16 -92.62 L-1.43 -94.21 L-4.09 -93.52 L-3.06 -92.25 L-3.83 -94.7 L-1.07 -92.24 L-2.13 -92.75 L0.78 -93.03 L1.27 -91.84 L1.34 -92.06 L-0.2 -91.07 L1.02 -88.68 L1.21 -89.54 L0.65 -89.28 L2 -91.53 L2.12 -88.39 L0.1 -89.35 L2.87 -88.02 L1.28 -91.08 L1.88 -88.08 L1.2 -91.53 L2.07 -90.65 L3.82 -91.53 L2.16 -94.82 L4.75 -95.5 L3.03 -94.3 L3.43 -99.23 L4.9 -99.36 L2.11 -99.02 L4.83 -101.08 L3.3 -100.7 L5.85 -101.37 L4.73 -101.7 L3.9 -102.93 L3.11 -104.17 L3.51 -105.04 L3.66 -104.04 L6.98 -106.47 L6.16 -106.39 L6.61 -106.56 L6.9 -108.78 L6.64 -108.57 L5.15 -109.92 L7.54 -110.6 L7.38 -108.99 L6.62 -111.53 L8.38 -112.07 L7.15 -111.29 L9.67 -114.22 L8.91 -115.06 L8.65 -111.58 L9.08 -114.81 L10.81 -112.34 L10.26 -114 L8.16 -113.39 L9.39 -115.35 L9.24 -115.66 L9.66 -113.93 L9.14 -114.99 L13.12 -117.4 L11.46 -113.94 L12.88 -114.27 L10.79 -113.07 L12.9 -112.7 L14.66 -109.9 L13.64 -109.21 L13.65 -105.69 L15.23 -103.57 L15.7 -100.43 L16.94 -99.06 L18.86 -101.02 L18.23 -100.82 L16.82 -99.33 L16.73 -97.56 L17.78 -95.45 L18.71 -98.5 L16.72 -96.61 L16.68 -97.28 L16.47 -96.96 L17.97 -94.74 L15.95 -93.81 L17.03 -93.45 L16.62 -94.93 L18.27 -93.9 L16.89 -92.57 L16.29 -94.27 L16.4 -91.67 L17.02 -91.55 L17.52 -91.43 L20.58 -93.73 L18.94 -92.61 L21.93 -96.11 L21.22 -97.84 L21.83 -94.32 L22.12 -95.31 L22.99 -97.97 L21.24 -95.91 L24.97 -96.92 L24.73 -96.95 L23.56 -98.17 L26.82 -101.2 L26.94 -101.46 L27.84 -99.6 L27.95 -99.59 L29.09 -101.39 L30.98 -103.06 L29.95 -102.74 L31.23 -104.29 L32.09 -105.12 L34.15 -103.6 L32.67 -104.99 L34.7 -104.58 L35.53 -105.49 L36.26 -103.18 L35.5 -102.87 L38.42 -104.38 L37.75 -105.87 L38.49 -106.87 L36.62 -103.54 L37.14 -107.7 L36.77 -107.53 L40.29 -106.49 L39.16 -105.81 L37.66 -107.91 L39.52 -106.82 L39.82 -106.77 L40.99 -107.69 L37.54 -104.24 L39.24 -103.8 L38.46 -103.21 L36.47 -103.66 L35.73 -102.21 L35.42 -99.84 L36.71 -98.87 L32.92 -97.17 L32.95 -96.24 L33.82 -95.08 L33.32 -95.5 L35.83 -91.58 L32.65 -91.39 L32.24 -91.37 L32.46 -88.72 L34.89 -90.02 L33.08 -88.47 L34.81 -89.4 L34.39 -90.21 L35.34 -90.29 L32.91 -86.97 L34.58 -89.92 L32.72 -87.28 L34.93 -86.26 L32.71 -87.34 L33.98 -86.17 L33.57 -87.3 L31.46 -83 L30.84 -84.31 L33.77 -81.22 L31.14 -83.01 L32.56 -80.68 L31.06 -81.51 L31.13 -80.36 L29.41 -79.17 L32.6 -81.3 L31.86 -77.74 L32.23 -79.67 L31.14 -80.65 L31.77 -78.55 L28.66 -77.25 L28.64 -77.5 L28 -76.37 L28.99 -73.67 L26.73 -74.11 L25.29 -70.49 L24.61 -71.78 L26.32 -68.91 L26.92 -68.61 L24.5 -66.37 L24.29 -68.67 L25.89 -65.96 L23.06 -68.19 L23.31 -64.53 L23.78 -65.05 L25.45 -66.73 L25.44 -63.54 L23.29 -66.63 L24.77 -65.17 L21.48 -62.93 L22.25 -63.59 L21.18 -64.62 L17.93 -63.51 L14.61 -67.17 L8.1 -67.53 L1.98 -66.06 L-2.3 -65.77 L-4.74 -69.07 L-6.75 -68.9 L-6.75 -67.06 L-7.05 -66.62 L-7.49 -68.06 L-7.48 -67.9 L-9.02 -66.82 L-10.62 -63.44" stroke="none" stroke-width="0" fill="#ffec99" fill-rule="evenodd"></path><path fill="#1e1e1e" d="M -12.76,-65.48 Q -12.76,-65.48 -12.43,-67.48 -12.10,-69.48 -12.10,-71.21 -12.11,-72.94 -12.64,-75.02 -13.17,-77.11 -13.68,-78.97 -14.19,-80.83 -14.69,-82.49 -15.19,-84.15 -15.69,-85.58 -16.19,-87.01 -16.58,-88.44 -16.98,-89.87 -17.40,-91.14 -17.82,-92.42 -18.14,-94.10 -18.47,-95.77 -18.84,-97.26 -19.21,-98.75 -19.45,-100.02 -19.68,-101.28 -19.91,-102.50 -20.14,-103.72 -20.55,-105.62 -20.95,-107.51 -21.09,-108.93 -21.24,-110.35 -21.42,-110.54 -21.60,-110.74 -21.65,-111.07 -21.71,-111.40 -21.68,-111.74 -21.65,-112.08 -21.54,-112.40 -21.44,-112.72 -21.26,-113.00 -21.08,-113.29 -20.83,-113.52 -20.59,-113.75 -20.30,-113.92 -20.01,-114.09 -19.68,-114.18 -19.36,-114.28 -19.02,-114.29 -18.68,-114.30 -18.35,-114.24 -18.02,-114.17 -17.72,-114.02 -17.42,-113.88 -17.15,-113.67 -16.89,-113.45 -16.69,-113.18 -16.49,-112.91 -16.36,-112.60 -16.22,-112.29 -15.06,-110.97 -13.90,-109.65 -13.00,-108.73 -12.10,-107.81 -11.19,-107.02 -10.29,-106.24 -9.45,-105.48 -8.60,-104.72 -7.43,-103.52 -6.26,-102.32 -5.27,-101.12 -4.27,-99.91 -3.21,-98.91 -2.14,-97.91 -1.43,-97.08 -0.73,-96.25 0.36,-95.52 1.46,-94.79 2.19,-93.78 2.93,-92.77 1.61,-92.41 0.28,-92.04 -0.07,-93.76 -0.43,-95.47 -0.35,-97.14 -0.28,-98.81 -0.09,-100.28 0.09,-101.75 0.66,-103.62 1.22,-105.48 1.74,-106.56 2.25,-107.64 2.86,-108.89 3.46,-110.14 3.96,-111.56 4.46,-112.98 5.43,-114.45 6.41,-115.92 7.23,-116.95 8.06,-117.98 10.64,-118.11 13.22,-118.24 14.07,-117.20 14.93,-116.16 15.46,-114.95 16.00,-113.74 16.81,-111.76 17.61,-109.77 18.15,-108.07 18.69,-106.36 19.38,-104.70 20.06,-103.04 20.37,-101.74 20.67,-100.43 20.90,-99.14 21.12,-97.85 21.21,-96.63 21.31,-95.41 21.54,-94.24 21.76,-93.06 21.08,-94.08 20.40,-95.10 18.10,-94.24 15.81,-93.37 16.25,-94.41 16.69,-95.45 17.51,-96.64 18.33,-97.84 19.41,-98.80 20.49,-99.76 21.58,-100.71 22.66,-101.65 23.64,-102.19 24.61,-102.72 25.89,-103.56 27.16,-104.40 28.29,-104.90 29.42,-105.41 30.55,-105.97 31.68,-106.53 33.28,-107.10 34.88,-107.68 35.82,-108.50 36.76,-109.31 39.09,-109.25 41.42,-109.18 42.31,-107.71 43.20,-106.24 42.94,-105.12 42.67,-104.00 41.91,-102.24 41.15,-100.47 40.41,-99.14 39.68,-97.82 39.12,-96.53 38.57,-95.24 38.28,-94.18 37.99,-93.12 37.79,-91.87 37.59,-90.61 37.23,-89.46 36.87,-88.30 36.28,-86.90 35.68,-85.50 35.58,-83.79 35.47,-82.08 35.13,-80.60 34.79,-79.11 34.10,-78.29 33.42,-77.46 32.74,-76.26 32.06,-75.05 31.18,-73.24 30.29,-71.44 29.86,-70.23 29.43,-69.03 29.03,-68.00 28.64,-66.97 27.62,-65.32 26.61,-63.67 25.74,-62.63 24.88,-61.58 23.78,-61.34 22.67,-61.11 21.04,-61.30 19.41,-61.50 17.68,-61.91 15.94,-62.32 13.25,-62.91 10.56,-63.50 8.17,-63.98 5.77,-64.46 3.19,-64.73 0.61,-65.00 -1.25,-65.12 -3.12,-65.23 -4.30,-65.19 -5.47,-65.15 -6.85,-65.24 -8.23,-65.33 -8.03,-65.15 -7.83,-64.97 -8.10,-64.66 -8.38,-64.35 -8.73,-64.15 -9.09,-63.95 -9.49,-63.87 -9.90,-63.79 -10.30,-63.84 -10.71,-63.90 -11.08,-64.08 -11.45,-64.26 -11.74,-64.55 -12.03,-64.84 -12.22,-65.21 -12.40,-65.57 -12.46,-65.98 -12.52,-66.39 -12.44,-66.79 -12.36,-67.20 -12.16,-67.56 -11.96,-67.91 -11.66,-68.19 -11.35,-68.47 -10.97,-68.63 -10.60,-68.79 -10.19,-68.83 -9.78,-68.86 -9.38,-68.77 -8.98,-68.67 -8.63,-68.45 -8.28,-68.23 -8.02,-67.91 -7.77,-67.59 -7.62,-67.20 -7.48,-66.82 -7.47,-66.41 -7.45,-65.99 -7.57,-65.60 -7.69,-65.21 -7.93,-64.87 -8.17,-64.54 -8.50,-64.30 -8.84,-64.06 -9.23,-63.93 -9.62,-63.81 -10.03,-63.82 -10.45,-63.83 -10.83,-63.97 -11.22,-64.11 -11.54,-64.37 -11.86,-64.63 -12.08,-64.97 -12.31,-65.32 -12.41,-65.72 -12.51,-66.11 -12.47,-66.52 -12.44,-66.93 -12.28,-67.31 -12.12,-67.69 -12.12,-67.69 -12.12,-67.69 -8.75,-68.65 -5.39,-69.60 -4.20,-69.52 -3.01,-69.44 -1.10,-69.45 0.81,-69.46 3.58,-69.49 6.35,-69.52 8.84,-69.43 11.33,-69.35 14.23,-69.21 17.13,-69.07 19.02,-68.51 20.91,-67.95 21.60,-69.10 22.28,-70.24 22.67,-71.55 23.05,-72.85 23.68,-74.35 24.30,-75.84 24.86,-76.92 25.41,-77.99 26.20,-79.10 26.98,-80.21 27.55,-81.21 28.12,-82.21 28.41,-83.56 28.69,-84.90 29.05,-86.02 29.42,-87.15 29.68,-88.37 29.94,-89.59 30.22,-90.66 30.51,-91.73 30.73,-92.86 30.96,-93.99 31.32,-95.49 31.68,-96.99 32.43,-99.05 33.18,-101.11 33.92,-102.65 34.67,-104.18 35.34,-105.15 36.01,-106.11 36.70,-105.17 37.39,-104.23 38.96,-103.82 40.53,-103.42 39.33,-102.37 38.14,-101.32 36.72,-100.72 35.31,-100.12 33.92,-99.45 32.54,-98.77 31.27,-98.19 30.01,-97.60 29.03,-96.91 28.04,-96.22 26.97,-95.56 25.90,-94.90 24.90,-94.01 23.89,-93.13 22.85,-91.85 21.81,-90.58 19.15,-89.79 16.49,-89.01 15.62,-90.70 14.76,-92.39 14.48,-94.05 14.21,-95.71 14.03,-96.90 13.85,-98.09 13.78,-99.31 13.71,-100.53 12.99,-102.14 12.26,-103.75 11.56,-105.65 10.85,-107.55 10.13,-109.03 9.42,-110.52 9.07,-112.03 8.72,-113.55 11.14,-113.64 13.56,-113.74 12.64,-112.71 11.72,-111.68 11.25,-110.58 10.77,-109.47 10.17,-107.78 9.57,-106.10 9.01,-105.09 8.45,-104.09 8.04,-103.06 7.63,-102.03 7.26,-100.37 6.89,-98.71 6.86,-97.44 6.82,-96.17 6.65,-94.18 6.47,-92.20 6.11,-90.48 5.75,-88.76 4.46,-87.70 3.18,-86.65 0.86,-87.25 -1.46,-87.86 -2.23,-88.60 -3.01,-89.35 -3.72,-90.23 -4.44,-91.11 -5.38,-92.07 -6.33,-93.04 -7.23,-94.25 -8.13,-95.47 -8.96,-96.36 -9.79,-97.25 -10.58,-98.33 -11.37,-99.41 -12.66,-100.67 -13.95,-101.94 -15.00,-102.81 -16.04,-103.69 -17.36,-104.90 -18.67,-106.10 -19.49,-107.31 -20.31,-108.51 -20.96,-109.62 -21.60,-110.74 -21.65,-111.07 -21.71,-111.40 -21.68,-111.74 -21.65,-112.08 -21.54,-112.40 -21.44,-112.72 -21.26,-113.00 -21.08,-113.29 -20.83,-113.52 -20.59,-113.75 -20.30,-113.92 -20.01,-114.09 -19.68,-114.18 -19.36,-114.28 -19.02,-114.29 -18.69,-114.30 -18.35,-114.24 -18.02,-114.17 -17.72,-114.02 -17.42,-113.88 -17.15,-113.67 -16.89,-113.45 -16.69,-113.18 -16.49,-112.91 -16.36,-112.60 -16.22,-112.29 -16.20,-112.26 -16.17,-112.23 -16.02,-110.91 -15.88,-109.60 -15.87,-108.12 -15.86,-106.63 -15.69,-105.53 -15.52,-104.44 -15.37,-103.16 -15.21,-101.89 -15.13,-100.83 -15.04,-99.76 -14.66,-98.15 -14.29,-96.54 -14.03,-95.06 -13.77,-93.59 -13.42,-92.18 -13.07,-90.77 -12.82,-89.45 -12.58,-88.12 -12.17,-86.62 -11.77,-85.12 -11.32,-83.44 -10.88,-81.76 -10.34,-79.90 -9.81,-78.04 -9.06,-75.52 -8.32,-73.01 -8.28,-71.01 -8.25,-69.01 -8.43,-66.98 -8.60,-64.96 -8.66,-64.71 -8.72,-64.47 -8.84,-64.25 -8.96,-64.02 -9.13,-63.83 -9.29,-63.65 -9.50,-63.50 -9.71,-63.36 -9.95,-63.27 -10.18,-63.18 -10.44,-63.15 -10.69,-63.12 -10.94,-63.16 -11.19,-63.19 -11.42,-63.28 -11.66,-63.37 -11.87,-63.51 -12.07,-63.66 -12.24,-63.85 -12.41,-64.04 -12.52,-64.26 -12.64,-64.48 -12.70,-64.73 -12.76,-64.97 -12.76,-65.23 -12.76,-65.48 -12.76,-65.48 L -12.76,-65.48 Z"></path></g><g stroke-linecap="round"><g transform="translate(1514.2816797522742 248.2977550272882) rotate(0 -12.209316494464815 -13.986504313945773)"><path d="M-1.02 -1.16 C-5.05 -5.63, -20.12 -22.66, -24.07 -26.8 M0.64 0.84 C-3.56 -4.02, -21.24 -24.04, -25.06 -28.82" stroke="#1e1e1e" stroke-width="1" fill="none"></path></g></g><mask></mask><g stroke-linecap="round"><g transform="translate(1509.2816797522742 285.2977550272882) rotate(0 -20.914994489029027 -5.697402739040555)"><path d="M-0.07 0.2 C-6.86 -1.27, -34.88 -8.13, -41.76 -10 M-1.57 -0.74 C-7.88 -2.43, -32.65 -10.1, -39.44 -11.6" stroke="#1e1e1e" stroke-width="1" fill="none"></path></g></g><mask></mask><g stroke-linecap="round"><g transform="translate(1553.2816797522742 242.2977550272882) rotate(0 1.9402205478399992 -17.513935215398675)"><path d="M-0.76 1 C0.03 -5.04, 3.87 -29.68, 4.64 -36.03 M1.05 0.48 C1.65 -5.37, 2.66 -28.37, 3.5 -34.51" stroke="#1e1e1e" stroke-width="1" fill="none"></path></g></g><mask></mask><g stroke-linecap="round"><g transform="translate(1586.2816797522742 254.2977550272882) rotate(0 14.281621567420643 -13.058499808236945)"><path d="M-0.36 -0.03 C4.24 -4.54, 21.95 -21.98, 26.83 -26.09 M1.65 -1.09 C6.66 -4.97, 24.44 -20.83, 28.93 -25.12" stroke="#1e1e1e" stroke-width="1" fill="none"></path></g></g><mask></mask><g stroke-linecap="round"><g transform="translate(1601.163942242405 277.8418661092461) rotate(0 18.855756593868136 -7.823611868619906)"><path d="M-1.17 -1.09 C5.37 -3.53, 32.36 -12.19, 38.88 -14.66 M0.41 0.96 C6.91 -1.86, 32.26 -13.94, 38.4 -16.6" stroke="#1e1e1e" stroke-width="1" fill="none"></path></g></g><mask></mask><g transform="translate(1509.4619442258575 327.2257775342429) rotate(0 39.31666564941406 12.5)"><text x="39.31666564941406" y="0" font-family="Virgil, Segoe UI Emoji" font-size="20px" fill="#1e1e1e" text-anchor="middle" style="white-space: pre;" direction="ltr" dominant-baseline="text-before-edge">WINNER</text></g><g stroke-linecap="round" transform="translate(1470.3340861520612 373.89530430627946) rotate(0 77.94803939584813 30)"><path d="M13.09 0 L146.69 -0.76 L152.29 1.86 L155.74 10.57 L154.21 52.22 L150.89 58.87 L140.04 61.87 L9.93 58.79 L4.23 54.75 L0.15 49.12 L-0.84 11.35 L1.75 4.19 L7.52 2.71 L14.61 1.56" stroke="none" stroke-width="0" fill="#ffec99"></path><path d="M15 0 M15 0 C58.1 -0.46, 96.76 -1.73, 140.9 0 M15 0 C56.94 -0.15, 98.91 -0.63, 140.9 0 M140.9 0 C150.03 -0.6, 155.02 3.79, 155.9 15 M140.9 0 C152.06 -0.33, 156.85 2.87, 155.9 15 M155.9 15 C155.56 20.59, 155.76 29.67, 155.9 45 M155.9 15 C156.43 22.62, 155.95 32, 155.9 45 M155.9 45 C155.73 54.23, 151.07 58.1, 140.9 60 M155.9 45 C154.45 57.06, 150.62 60.01, 140.9 60 M140.9 60 C112.3 61, 87.57 59.44, 15 60 M140.9 60 C110.85 59.7, 82.85 59.63, 15 60 M15 60 C6.44 60.27, -1.54 53.03, 0 45 M15 60 C6.95 57.96, -1.06 57.01, 0 45 M0 45 C-0.48 38.9, -1.98 31.33, 0 15 M0 45 C0.35 36.46, -0.31 26.45, 0 15 M0 15 C-0.42 6.43, 4.58 0.19, 15 0 M0 15 C-1.61 4.02, 7.15 2.07, 15 0" stroke="#1e1e1e" stroke-width="1" fill="none"></path></g><g transform="translate(1484.773790434384 378.89530430627946) rotate(0 63.50833511352539 25)"><text x="63.50833511352539" y="0" font-family="Virgil, Segoe UI Emoji" font-size="20px" fill="#1e1e1e" text-anchor="middle" style="white-space: pre;" direction="ltr" dominant-baseline="text-before-edge">Show Winning </text><text x="63.50833511352539" y="25" font-family="Virgil, Segoe UI Emoji" font-size="20px" fill="#1e1e1e" text-anchor="middle" style="white-space: pre;" direction="ltr" dominant-baseline="text-before-edge">Player</text></g><g stroke-linecap="round"><g transform="translate(752.4177487864786 285.52109403582693) rotate(0 -0.2887909305276821 53.39796275975432)"><path d="M-1.1 0.58 C-1.18 18.25, 0.25 89.17, 0.47 106.96 M0.52 -0.16 C0.24 17.08, -0.08 87.59, -0.24 105.2" stroke="#1e1e1e" stroke-width="1" fill="none"></path></g></g><mask></mask><g stroke-linecap="round" transform="translate(672.4142331138407 368.8433437021272) rotate(0 80.5 83)"><path d="M103.25 21.27 L148.55 71.5 L156.16 78.5 L156.89 82.59 L151.14 90.75 L142.16 106.64 L91.89 154.49 L84.98 158.79 L80.85 158.77 L75.87 160.72 L72.07 153.62 L18.86 103.61 L9.15 91.87 L3.51 82.14 L5.3 77.16 L14.2 68.64 L75.6 8.85 L81.87 3.53 L86.42 6.02 L99.93 21.02" stroke="none" stroke-width="0" fill="#b2f2bb"></path><path d="M101.25 21 M101.25 21 C117.58 37.93, 129.13 54.37, 140.75 63 M101.25 21 C112.03 31.63, 120.08 40.66, 140.75 63 M140.75 63 C161.13 83.34, 159.38 84.26, 140.75 105 M140.75 63 C160.69 83.41, 160.1 83.79, 140.75 105 M140.75 105 C129.59 113.95, 120.18 123.88, 101.25 145 M140.75 105 C128.46 117.17, 117.62 130.69, 101.25 145 M101.25 145 C79.34 165.91, 80.34 165.64, 60.75 145 M101.25 145 C80.52 166.6, 81.55 167.8, 60.75 145 M60.75 145 C52.52 134.25, 39.33 122.84, 20.25 105 M60.75 145 C52.88 137.37, 43.59 129.38, 20.25 105 M20.25 105 C-0.01 84.2, -1.05 83.99, 20.25 63 M20.25 105 C-1.73 81.82, -0.19 83.23, 20.25 63 M20.25 63 C28.08 54.29, 38.3 43.65, 60.75 21 M20.25 63 C28.84 55.14, 36.9 45.19, 60.75 21 M60.75 21 C80.75 -0.26, 79.18 -1.63, 101.25 21 M60.75 21 C82.8 2.3, 79.1 0.9, 101.25 21" stroke="#1e1e1e" stroke-width="1" fill="none"></path></g><g transform="translate(730.6475667014872 427.612574471358) rotate(0 22.516666412353516 24.230769230769226)"><text x="22.516666412353516" y="0" font-family="Virgil, Segoe UI Emoji" font-size="19.38461538461538px" fill="#1e1e1e" text-anchor="middle" style="white-space: pre;" direction="ltr" dominant-baseline="text-before-edge">Set </text><text x="22.516666412353516" y="24.230769230769226" font-family="Virgil, Segoe UI Emoji" font-size="19.38461538461538px" fill="#1e1e1e" text-anchor="middle" style="white-space: pre;" direction="ltr" dominant-baseline="text-before-edge">Card</text></g><g stroke-linecap="round"><g transform="translate(801.3975177969751 287.4380495992499) rotate(0 1.417846534948353 50.72659159773663)"><path d="M0.09 0.48 C0.93 17.27, 3.54 85.05, 4.16 101.77 M-1.33 -0.31 C-0.46 16.63, 3.04 82.87, 3.84 99.9" stroke="#1e1e1e" stroke-width="1" fill="none"></path></g></g><mask></mask><g stroke-linecap="round"><g transform="translate(774.8311499649103 285.4359038290235) rotate(0 0.7639828194189136 50.97096949090884)"><path d="M-0.18 0.11 C0.47 17.13, 2.91 84.53, 3.26 101.29 M-1.73 -0.88 C-1.16 16.41, 1.46 85.73, 2.46 102.83" stroke="#1e1e1e" stroke-width="1" fill="none"></path></g></g><mask></mask><g stroke-linecap="round" transform="translate(695.2525121724968 369.8363123568513) rotate(0 80.5 83)"><path d="M102.42 19.52 L150.96 71.46 L153.99 78.2 L157.34 85.64 L152.3 92.43 L140.85 104.02 L91.58 152.61 L83.63 160.72 L82.8 159.77 L75.73 158.38 L70.56 153.94 L18.7 103.14 L6.96 91.87 L5.65 82.67 L7.76 79.2 L14.48 68.25 L76.58 7.25 L79.68 5.27 L86.3 5.07 L100.15 22.92" stroke="none" stroke-width="0" fill="#b2f2bb"></path><path d="M101.25 21 M101.25 21 C114.05 35.69, 131.06 52.44, 140.75 63 M101.25 21 C115.06 35.98, 128.27 51.42, 140.75 63 M140.75 63 C160.73 83.49, 160.22 83.81, 140.75 105 M140.75 63 C160.13 84.52, 159.23 82.97, 140.75 105 M140.75 105 C131.53 116.13, 123.02 122.85, 101.25 145 M140.75 105 C130.18 115.48, 120.55 125.6, 101.25 145 M101.25 145 C80.59 166.52, 81.48 167.56, 60.75 145 M101.25 145 C79.95 164.74, 79.93 168.13, 60.75 145 M60.75 145 C47.73 133.9, 38.83 123.46, 20.25 105 M60.75 145 C46.54 131.31, 31.71 117.06, 20.25 105 M20.25 105 C-1.51 82.1, -0.16 83.33, 20.25 63 M20.25 105 C-2.12 84.34, -0.52 83.39, 20.25 63 M20.25 63 C30.11 49.22, 42.48 38.26, 60.75 21 M20.25 63 C34.45 48.51, 47.82 33.15, 60.75 21 M60.75 21 C82.57 2, 79.35 0.78, 101.25 21 M60.75 21 C80.16 1.58, 81.32 -1.18, 101.25 21" stroke="#1e1e1e" stroke-width="1" fill="none"></path></g><g transform="translate(753.4858457601433 428.6055431260821) rotate(0 22.516666412353516 24.230769230769226)"><text x="22.516666412353516" y="0" font-family="Virgil, Segoe UI Emoji" font-size="19.38461538461538px" fill="#1e1e1e" text-anchor="middle" style="white-space: pre;" direction="ltr" dominant-baseline="text-before-edge">Set </text><text x="22.516666412353516" y="24.230769230769226" font-family="Virgil, Segoe UI Emoji" font-size="19.38461538461538px" fill="#1e1e1e" text-anchor="middle" style="white-space: pre;" direction="ltr" dominant-baseline="text-before-edge">Card</text></g><g stroke-linecap="round" transform="translate(723.5521188321359 372.3187339936619) rotate(0 80.5 83)"><path d="M102.54 19.75 L150.84 74.4 L154.67 78.64 L154.48 85.66 L153.12 91.4 L142.27 105.4 L91.39 155.69 L84.86 161.23 L79.17 159.34 L78.24 158.88 L71.2 152.73 L19.3 105.16 L9.16 90.57 L5.99 85.92 L5.86 75.97 L14.42 68.23 L73.35 9.31 L82.77 6.81 L84.43 4.25 L103.08 21.75" stroke="none" stroke-width="0" fill="#b2f2bb"></path><path d="M101.25 21 M101.25 21 C109.52 32.57, 118.52 38.69, 140.75 63 M101.25 21 C114.85 36.49, 128.81 50.69, 140.75 63 M140.75 63 C162.41 85.4, 162.54 85.06, 140.75 105 M140.75 63 C160.09 84.5, 161.73 85.05, 140.75 105 M140.75 105 C130.16 112.26, 123.47 122.19, 101.25 145 M140.75 105 C130.42 114.21, 121.09 125.25, 101.25 145 M101.25 145 C79.68 166.56, 81.61 166.98, 60.75 145 M101.25 145 C82.8 168.06, 80.27 167.93, 60.75 145 M60.75 145 C48.86 134.16, 39.25 125.24, 20.25 105 M60.75 145 C52.05 137.66, 43.51 128.83, 20.25 105 M20.25 105 C-1.13 83.21, -1.43 85.01, 20.25 63 M20.25 105 C-2.04 83.31, 0.95 86.07, 20.25 63 M20.25 63 C32.52 51.72, 42.79 42.47, 60.75 21 M20.25 63 C35.2 48.2, 48.5 32.21, 60.75 21 M60.75 21 C82.23 0.9, 81.56 -1.52, 101.25 21 M60.75 21 C80.34 0.18, 82.77 -0.52, 101.25 21" stroke="#1e1e1e" stroke-width="1" fill="none"></path></g><g transform="translate(781.7854524197824 431.08796476289274) rotate(0 22.516666412353516 24.230769230769226)"><text x="22.516666412353516" y="0" font-family="Virgil, Segoe UI Emoji" font-size="19.38461538461538px" fill="#1e1e1e" text-anchor="middle" style="white-space: pre;" direction="ltr" dominant-baseline="text-before-edge">Set </text><text x="22.516666412353516" y="24.230769230769226" font-family="Virgil, Segoe UI Emoji" font-size="19.38461538461538px" fill="#1e1e1e" text-anchor="middle" style="white-space: pre;" direction="ltr" dominant-baseline="text-before-edge">Card</text></g><g stroke-linecap="round" transform="translate(853.700551568345 312.33124771337987) rotate(0 56.599213319278306 42.5)"><path d="M29.82 5.17 C37.42 1.12, 49.49 -1.21, 58.98 -0.97 C68.47 -0.73, 78.72 2.71, 86.76 6.59 C94.8 10.48, 102.7 16.06, 107.23 22.34 C111.75 28.62, 114.41 37.24, 113.9 44.26 C113.39 51.27, 109.18 58.63, 104.17 64.43 C99.17 70.23, 91.95 75.55, 83.85 79.05 C75.75 82.54, 64.99 85.34, 55.56 85.4 C46.14 85.46, 35.33 83.06, 27.28 79.41 C19.22 75.75, 11.78 69.96, 7.26 63.47 C2.73 56.99, -0.07 47.71, 0.12 40.48 C0.3 33.26, 2.23 26.29, 8.38 20.12 C14.52 13.95, 31.02 6.38, 36.99 3.45 C42.95 0.52, 43.86 1.92, 44.18 2.56 M65.39 -0.8 C74.01 -0.79, 83.22 3.82, 90.31 8.27 C97.4 12.72, 104.14 18.98, 107.96 25.9 C111.77 32.82, 114.35 42.66, 113.21 49.8 C112.06 56.94, 106.92 63.34, 101.08 68.75 C95.24 74.16, 87.1 79.46, 78.18 82.26 C69.27 85.06, 57.06 86.5, 47.59 85.53 C38.12 84.56, 28.6 81.14, 21.35 76.44 C14.11 71.74, 7.78 63.84, 4.13 57.33 C0.48 50.81, -1.89 44.43, -0.57 37.34 C0.76 30.25, 6.13 20.57, 12.09 14.77 C18.06 8.97, 26.61 4.79, 35.21 2.52 C43.81 0.26, 58.72 1.22, 63.69 1.19 C68.66 1.16, 65.11 1.87, 65.05 2.33" stroke="none" stroke-width="0" fill="#d0bfff"></path><path d="M40.93 2.43 C49.35 -0.05, 61 -0.52, 70.16 0.99 C79.32 2.5, 89.1 6.57, 95.89 11.49 C102.69 16.41, 108.23 23.84, 110.92 30.52 C113.61 37.21, 114.16 44.69, 112.04 51.61 C109.93 58.52, 104.78 66.81, 98.21 72.01 C91.64 77.21, 81.86 80.86, 72.6 82.81 C63.34 84.76, 51.7 85.45, 42.65 83.71 C33.6 81.98, 24.92 77.36, 18.28 72.4 C11.64 67.45, 5.66 60.59, 2.82 53.98 C-0.03 47.37, -0.97 39.7, 1.21 32.74 C3.4 25.79, 7.07 17.61, 15.93 12.24 C24.79 6.87, 45.81 2.39, 54.37 0.53 C62.94 -1.32, 67.34 0.52, 67.33 1.09 M74.51 3.71 C83.37 5.38, 93.63 9.67, 99.9 14.99 C106.16 20.31, 110.3 28.42, 112.1 35.63 C113.89 42.83, 113.66 51.49, 110.68 58.2 C107.7 64.92, 101.78 71.59, 94.19 75.91 C86.61 80.23, 74.43 82.9, 65.16 84.15 C55.9 85.39, 47.41 85.6, 38.59 83.38 C29.77 81.16, 18.47 76.24, 12.25 70.82 C6.04 65.41, 2.89 57.97, 1.32 50.89 C-0.26 43.8, -0.21 34.91, 2.8 28.3 C5.82 21.68, 12.07 15.81, 19.42 11.21 C26.78 6.61, 37.49 2.06, 46.94 0.68 C56.39 -0.7, 71.37 2.73, 76.11 2.94 C80.85 3.15, 75.68 1.32, 75.38 1.91" stroke="#1e1e1e" stroke-width="1" fill="none"></path></g><g transform="translate(878.8864109273841 329.7792095129516) rotate(0 31.391666412353516 25)"><text x="31.391666412353516" y="0" font-family="Virgil, Segoe UI Emoji" font-size="20px" fill="#1e1e1e" text-anchor="middle" style="white-space: pre;" direction="ltr" dominant-baseline="text-before-edge">Place </text><text x="31.391666412353516" y="25" font-family="Virgil, Segoe UI Emoji" font-size="20px" fill="#1e1e1e" text-anchor="middle" style="white-space: pre;" direction="ltr" dominant-baseline="text-before-edge">Card</text></g><g stroke-linecap="round"><g transform="translate(902.9540008960571 282.9133908546514) rotate(0 -0.21804520863361176 18.88800861766545)"><path d="M0.4 0.26 C0.47 6.4, 0.61 30.61, 0.54 36.84 M-0.84 -0.65 C-0.99 5.71, -1.17 32.36, -0.64 38.42" stroke="#1e1e1e" stroke-width="1" fill="none"></path></g></g><mask></mask><g stroke-linecap="round" transform="translate(875.545861972277 311.5359312117954) rotate(0 56.599213319278306 42.5)"><path d="M69.24 1.13 C77.98 2.15, 88.59 7.63, 95.4 12.62 C102.21 17.61, 107.48 24.42, 110.09 31.09 C112.71 37.77, 113.24 45.89, 111.11 52.69 C108.98 59.49, 103.8 66.81, 97.33 71.87 C90.85 76.93, 81.22 81.2, 72.24 83.05 C63.27 84.91, 52.44 84.56, 43.45 83 C34.45 81.43, 25.14 78.29, 18.25 73.68 C11.36 69.08, 4.79 62.34, 2.11 55.37 C-0.57 48.4, 0.07 39.06, 2.17 31.86 C4.28 24.66, 8.33 17.31, 14.74 12.17 C21.16 7.03, 30.58 2.81, 40.64 1.01 C50.71 -0.78, 68.97 1, 75.15 1.38 C81.33 1.77, 77.98 2.52, 77.72 3.35 M67.85 0.8 C76.84 1.36, 85.89 5.1, 92.97 9.77 C100.05 14.43, 107.1 22.07, 110.32 28.79 C113.55 35.52, 113.92 43.04, 112.33 50.12 C110.74 57.19, 107 65.88, 100.78 71.22 C94.56 76.55, 83.89 79.98, 75.03 82.1 C66.18 84.22, 57.03 85.01, 47.65 83.92 C38.26 82.84, 26.27 80.23, 18.72 75.59 C11.16 70.95, 5.32 63.1, 2.29 56.07 C-0.73 49.05, -1.25 40.5, 0.56 33.44 C2.37 26.39, 7.07 18.8, 13.17 13.75 C19.27 8.71, 28.28 5.51, 37.14 3.18 C46 0.86, 61.42 -0.12, 66.31 -0.19 C71.2 -0.26, 66.67 2.04, 66.49 2.76" stroke="none" stroke-width="0" fill="#d0bfff"></path><path d="M73.06 1.56 C81.85 2.99, 90.65 8.14, 96.92 13.1 C103.2 18.06, 108.28 24.43, 110.68 31.34 C113.08 38.24, 113.76 47.53, 111.33 54.53 C108.9 61.53, 103.01 68.36, 96.09 73.34 C89.18 78.32, 79.1 82.84, 69.82 84.42 C60.54 85.99, 49.31 84.74, 40.4 82.78 C31.49 80.82, 22.89 77.72, 16.37 72.66 C9.86 67.6, 3.79 59.55, 1.31 52.42 C-1.18 45.29, -1.2 36.64, 1.45 29.88 C4.1 23.12, 10.34 16.72, 17.19 11.86 C24.05 7, 32.39 2.13, 42.57 0.72 C52.75 -0.7, 71.59 2.46, 78.28 3.38 C84.96 4.3, 83.11 5.5, 82.7 6.25 M42.65 1.92 C51.18 -0.56, 62.72 0.05, 71.75 1.73 C80.79 3.41, 90.49 7.05, 96.85 11.99 C103.2 16.94, 107.5 24.68, 109.86 31.41 C112.23 38.14, 113.02 45.61, 111.06 52.38 C109.1 59.15, 104.84 66.75, 98.09 72.04 C91.34 77.34, 80.07 82.14, 70.56 84.12 C61.06 86.11, 50.02 86.06, 41.05 83.94 C32.09 81.83, 23.53 76.29, 16.79 71.45 C10.05 66.6, 2.96 61.59, 0.62 54.89 C-1.72 48.19, 0.24 38.31, 2.76 31.26 C5.27 24.22, 9.03 17.38, 15.73 12.62 C22.42 7.85, 38.76 4.28, 42.95 2.69 C47.13 1.09, 40.67 2.41, 40.83 3.05" stroke="#1e1e1e" stroke-width="1" fill="none"></path></g><g transform="translate(900.7317213313161 328.9838930113671) rotate(0 31.391666412353516 25)"><text x="31.391666412353516" y="0" font-family="Virgil, Segoe UI Emoji" font-size="20px" fill="#1e1e1e" text-anchor="middle" style="white-space: pre;" direction="ltr" dominant-baseline="text-before-edge">Place </text><text x="31.391666412353516" y="25" font-family="Virgil, Segoe UI Emoji" font-size="20px" fill="#1e1e1e" text-anchor="middle" style="white-space: pre;" direction="ltr" dominant-baseline="text-before-edge">Card</text></g><g stroke-linecap="round"><g transform="translate(926.8705696002214 282.31088591905313) rotate(0 0.3949834084968984 18.495201656762347)"><path d="M0.04 -0.93 C-0.13 5.23, -0.03 30.26, 0 36.5 M-1.4 1.2 C-1.29 7.58, 1.5 31.83, 2.19 37.92" stroke="#1e1e1e" stroke-width="1" fill="none"></path></g></g><mask></mask><g stroke-linecap="round" transform="translate(894.4122664120364 311.53593121179546) rotate(0 56.599213319278306 42.5)"><path d="M80.77 3.16 C89.32 5.35, 97.73 11.9, 103.08 18.04 C108.43 24.17, 112.09 32.71, 112.88 39.96 C113.67 47.22, 111.92 55.16, 107.83 61.55 C103.74 67.95, 96.1 74.47, 88.33 78.34 C80.55 82.22, 70.35 84.36, 61.16 84.81 C51.97 85.26, 41.81 84.21, 33.18 81.04 C24.55 77.86, 14.94 71.68, 9.37 65.75 C3.8 59.82, 0.34 52.44, -0.23 45.47 C-0.8 38.51, 1.69 30.17, 5.93 23.98 C10.18 17.78, 17.68 12.35, 25.23 8.28 C32.79 4.2, 40.27 -0.49, 51.28 -0.46 C62.29 -0.43, 83.16 5.74, 91.29 8.47 C99.41 11.2, 100.65 15.35, 100.05 15.93 M63.65 0.96 C72.47 1.04, 84.42 3.65, 91.84 7.93 C99.26 12.22, 104.69 19.69, 108.17 26.65 C111.65 33.62, 113.86 42.93, 112.73 49.74 C111.6 56.55, 107.05 61.96, 101.39 67.52 C95.72 73.08, 87.73 80.38, 78.74 83.13 C69.76 85.87, 56.88 85.46, 47.5 84.01 C38.12 82.57, 29.77 78.83, 22.47 74.44 C15.17 70.06, 7.57 63.94, 3.71 57.71 C-0.16 51.47, -1.98 43.75, -0.74 37.04 C0.49 30.33, 5.05 23.18, 11.13 17.43 C17.2 11.68, 26.92 5.56, 35.72 2.56 C44.52 -0.44, 58.97 -0.49, 63.91 -0.58 C68.84 -0.67, 65.17 1.01, 65.32 2.04" stroke="none" stroke-width="0" fill="#d0bfff"></path><path d="M68.7 0.74 C77.57 1.39, 87.21 5.73, 94.29 10.58 C101.38 15.43, 108.46 22.81, 111.23 29.82 C113.99 36.84, 113.23 45.86, 110.9 52.66 C108.57 59.46, 103.59 65.63, 97.23 70.62 C90.87 75.62, 81.51 80.43, 72.74 82.64 C63.98 84.85, 53.59 85.48, 44.63 83.89 C35.67 82.3, 26.14 78.07, 18.99 73.1 C11.84 68.14, 4.77 60.7, 1.74 54.11 C-1.29 47.51, -1.57 40.39, 0.82 33.54 C3.22 26.68, 9.69 18.25, 16.1 12.96 C22.52 7.66, 29.3 3.49, 39.33 1.77 C49.36 0.06, 69.24 1.94, 76.29 2.64 C83.34 3.35, 82.03 5.25, 81.6 6 M63.19 -0.32 C71.92 -0.7, 80.66 2.9, 88.28 6.98 C95.89 11.06, 104.79 17.44, 108.88 24.17 C112.97 30.89, 113.75 40.19, 112.79 47.34 C111.83 54.48, 108.36 61.54, 103.11 67.05 C97.85 72.56, 89.86 77.65, 81.26 80.42 C72.67 83.19, 61.23 84.12, 51.53 83.65 C41.83 83.19, 30.98 81.7, 23.08 77.61 C15.19 73.52, 7.87 65.39, 4.14 59.11 C0.41 52.82, -0.51 46.66, 0.69 39.91 C1.9 33.15, 5.85 24.48, 11.35 18.57 C16.86 12.66, 25.39 7.34, 33.72 4.44 C42.04 1.55, 56.71 1.83, 61.29 1.2 C65.88 0.56, 61.32 -0.01, 61.24 0.62" stroke="#1e1e1e" stroke-width="1" fill="none"></path></g><g transform="translate(919.5981257710755 328.9838930113672) rotate(0 31.391666412353516 25)"><text x="31.391666412353516" y="0" font-family="Virgil, Segoe UI Emoji" font-size="20px" fill="#1e1e1e" text-anchor="middle" style="white-space: pre;" direction="ltr" dominant-baseline="text-before-edge">Place </text><text x="31.391666412353516" y="25" font-family="Virgil, Segoe UI Emoji" font-size="20px" fill="#1e1e1e" text-anchor="middle" style="white-space: pre;" direction="ltr" dominant-baseline="text-before-edge">Card</text></g><g stroke-linecap="round"><g transform="translate(952.572539160539 282.456997864851) rotate(0 0.30966241771278646 18.104737937636514)"><path d="M0.38 -0.12 C0.57 5.96, 1.24 30.12, 1.5 36.19 M-0.88 -1.23 C-0.84 5.04, 0.39 31, 0.82 37.44" stroke="#1e1e1e" stroke-width="1" fill="none"></path></g></g><mask></mask><g stroke-linecap="round" transform="translate(1054.2802198226295 372.9023356515547) rotate(0 62.0605409202613 62.0605409202613)"><path d="M34.65 6.19 C42.56 1.69, 54.57 0.16, 64.23 0.58 C73.88 1, 84.1 4.12, 92.58 8.71 C101.05 13.31, 109.94 20.13, 115.09 28.16 C120.24 36.2, 122.77 47.37, 123.46 56.92 C124.16 66.48, 122.86 76.58, 119.28 85.48 C115.7 94.39, 109.35 104.16, 101.99 110.36 C94.63 116.56, 84.65 120.83, 75.11 122.66 C65.58 124.49, 54.16 123.96, 44.77 121.35 C35.38 118.73, 25.82 113.59, 18.77 106.96 C11.71 100.33, 5.6 90.56, 2.46 81.57 C-0.68 72.58, -1.75 62.34, -0.07 53.02 C1.62 43.71, 5.56 33.98, 12.58 25.68 C19.59 17.38, 35.78 6.98, 42.01 3.21 C48.24 -0.56, 49.67 1.95, 49.95 3.06 M52.47 -0.08 C61.39 -2.54, 73.59 0.41, 82.86 3.83 C92.14 7.24, 101.4 13.44, 108.12 20.41 C114.83 27.38, 120.61 36.81, 123.16 45.64 C125.7 54.48, 125.32 64.26, 123.38 73.42 C121.43 82.58, 117.53 93.04, 111.48 100.6 C105.43 108.17, 95.97 115.16, 87.06 118.8 C78.16 122.44, 67.73 123.09, 58.02 122.46 C48.31 121.83, 37.15 120.12, 28.81 115.01 C20.47 109.91, 12.91 100.51, 7.98 91.81 C3.05 83.12, -0.51 72.43, -0.78 62.84 C-1.05 53.25, 1.98 42.72, 6.35 34.29 C10.72 25.86, 17.98 17.65, 25.45 12.26 C32.92 6.86, 46.59 3.75, 51.17 1.93 C55.76 0.1, 52.35 0.4, 52.95 1.29" stroke="none" stroke-width="0" fill="#ffc9c9"></path><path d="M39.53 3.35 C47.73 -0.71, 59.08 -0.39, 68.65 0.9 C78.22 2.2, 89.07 5.92, 96.95 11.12 C104.84 16.33, 111.31 23.74, 115.95 32.12 C120.58 40.5, 124.47 51.75, 124.75 61.41 C125.04 71.06, 122.12 81.58, 117.63 90.06 C113.15 98.54, 105.82 106.63, 97.83 112.28 C89.84 117.93, 79.15 122.69, 69.7 123.94 C60.25 125.2, 49.99 123.28, 41.15 119.81 C32.3 116.33, 23.31 110.17, 16.64 103.09 C9.98 96.02, 3.71 86.44, 1.15 77.38 C-1.41 68.31, -1.2 57.89, 1.29 48.72 C3.78 39.54, 8.85 30.08, 16.09 22.34 C23.34 14.59, 39.16 5.48, 44.78 2.26 C50.4 -0.96, 49.66 2.14, 49.81 3.04 M46.22 1.5 C54.81 -1.59, 66.64 -0.82, 76.04 1.6 C85.44 4.01, 95.23 9.36, 102.62 16.02 C110 22.67, 117.08 32.31, 120.36 41.52 C123.65 50.74, 123.53 62.06, 122.31 71.3 C121.09 80.54, 118.52 89.13, 113.02 96.96 C107.53 104.79, 98.03 113.71, 89.32 118.28 C80.62 122.84, 70.32 124.43, 60.78 124.36 C51.24 124.29, 40.45 122.24, 32.08 117.86 C23.72 113.48, 15.88 106.26, 10.58 98.07 C5.28 89.89, 1.41 78.3, 0.28 68.74 C-0.84 59.17, 0.47 49.71, 3.81 40.69 C7.16 31.68, 12.83 21.21, 20.34 14.64 C27.85 8.07, 44.05 3.34, 48.86 1.28 C53.67 -0.78, 49.34 1, 49.21 2.29" stroke="#1e1e1e" stroke-width="1" fill="none"></path></g><g transform="translate(1080.0739963005433 410.07944724299404) rotate(0 36.38333511352539 25)"><text x="36.38333511352539" y="0" font-family="Virgil, Segoe UI Emoji" font-size="20px" fill="#1e1e1e" text-anchor="middle" style="white-space: pre;" direction="ltr" dominant-baseline="text-before-edge">Assign </text><text x="36.38333511352539" y="25" font-family="Virgil, Segoe UI Emoji" font-size="20px" fill="#1e1e1e" text-anchor="middle" style="white-space: pre;" direction="ltr" dominant-baseline="text-before-edge">Penalty</text></g><g stroke-linecap="round"><g transform="translate(1004.6317870864207 368.9304610326581) rotate(0 30.92588181886839 18.021782559687864)"><path d="M0.4 1.1 C10.51 6.94, 51.42 29.3, 61.45 34.95" stroke="#1e1e1e" stroke-width="1.5" fill="none" stroke-dasharray="8 9"></path></g><g transform="translate(1004.6317870864207 368.9304610326581) rotate(0 30.92588181886839 18.021782559687864)"><path d="M33.65 31.72 C41.39 31.91, 52.38 33.85, 60.14 33.45" stroke="#1e1e1e" stroke-width="1.5" fill="none"></path></g><g transform="translate(1004.6317870864207 368.9304610326581) rotate(0 30.92588181886839 18.021782559687864)"><path d="M43.59 13.77 C47.66 20.6, 54.99 29.15, 60.14 33.45" stroke="#1e1e1e" stroke-width="1.5" fill="none"></path></g></g><mask></mask><g mask="url(#mask-k8Y53QI13vyusq62wwn9y)" stroke-linecap="round"><g transform="translate(1049.3153765490085 452.33982802948935) rotate(0 -93.99134363685414 0.10493135936557962)"><path d="M-1.05 0.28 C-32.33 0.09, -156.02 0.07, -186.93 -0.07" stroke="#1e1e1e" stroke-width="1.5" fill="none" stroke-dasharray="8 9"></path></g><g transform="translate(1049.3153765490085 452.33982802948935) rotate(0 -93.99134363685414 0.10493135936557962)"><path d="M-158.26 -10.69 C-169.02 -6.57, -180.12 -2.36, -188.69 -2.04" stroke="#1e1e1e" stroke-width="1.5" fill="none"></path></g><g transform="translate(1049.3153765490085 452.33982802948935) rotate(0 -93.99134363685414 0.10493135936557962)"><path d="M-158.3 9.83 C-169.23 6.48, -180.31 3.21, -188.69 -2.04" stroke="#1e1e1e" stroke-width="1.5" fill="none"></path></g></g><mask id="mask-k8Y53QI13vyusq62wwn9y"><rect x="0" y="0" fill="#fff" width="1335.9934836371544" height="552.3398280294894"></rect><rect x="911.0929878914102" y="439.83982802948935" fill="#000" width="89.76667022705078" height="25" opacity="1"></rect></mask><g transform="translate(911.0929878914101 439.83982802948935) rotate(0 44.231045020744205 12.60493135936558)"><text x="44.88333511352539" y="0" font-family="Virgil, Segoe UI Emoji" font-size="20px" fill="#1e1e1e" text-anchor="middle" style="white-space: pre;" direction="ltr" dominant-baseline="text-before-edge">to player</text></g><g transform="translate(1023.5602288654336 336.6975807604324) rotate(0 73.15833282470709 12.5)"><text x="73.15833282470703" y="0" font-family="Virgil, Segoe UI Emoji" font-size="20px" fill="#1e1e1e" text-anchor="middle" style="white-space: pre;" direction="ltr" dominant-baseline="text-before-edge">if row replaced</text></g><g stroke-linecap="round" transform="translate(1292.587214581991 375.8812416157274) rotate(0 71 69.5)"><path d="M56.94 1.49 C66.28 -1.46, 78.6 -0.62, 88.45 1.77 C98.31 4.16, 108.26 9.29, 116.08 15.84 C123.89 22.39, 130.94 31.76, 135.35 41.07 C139.76 50.38, 142.79 61.74, 142.54 71.72 C142.29 81.69, 138.75 91.89, 133.84 100.92 C128.93 109.95, 121.4 119.69, 113.09 125.92 C104.77 132.14, 94.03 136.45, 83.93 138.26 C73.83 140.07, 62.36 139.31, 52.49 136.79 C42.61 134.26, 32.35 129.63, 24.69 123.11 C17.02 116.58, 10.73 106.81, 6.5 97.64 C2.27 88.47, -1.04 77.95, -0.69 68.08 C-0.33 58.22, 3.79 47.31, 8.63 38.45 C13.46 29.59, 19.98 21.29, 28.32 14.94 C36.66 8.59, 53.16 2.5, 58.68 0.36 C64.2 -1.78, 61.05 0.82, 61.44 2.1 M99.81 5.43 C109.22 8.58, 118.87 17.7, 125.41 25.52 C131.94 33.33, 136.6 42.73, 139.01 52.33 C141.43 61.92, 141.76 73.03, 139.9 83.07 C138.03 93.11, 134.21 104.64, 127.83 112.57 C121.46 120.5, 111.16 126.25, 101.65 130.65 C92.15 135.04, 80.92 138.56, 70.79 138.94 C60.66 139.31, 50.07 136.92, 40.86 132.88 C31.64 128.84, 21.85 122.46, 15.49 114.7 C9.13 106.94, 4.96 96.21, 2.69 86.33 C0.42 76.45, 0 65.24, 1.87 55.42 C3.74 45.61, 7.86 35.32, 13.88 27.44 C19.9 19.55, 28.48 12.92, 38.01 8.13 C47.54 3.33, 60.33 -1.24, 71.05 -1.34 C81.77 -1.44, 97.53 6, 102.32 7.53 C107.12 9.07, 100.65 6.9, 99.82 7.85" stroke="none" stroke-width="0" fill="#ffc9c9"></path><path d="M66.02 0.39 C75.66 -1.46, 86.5 0.86, 96.01 4.31 C105.52 7.76, 115.85 13.67, 123.1 21.11 C130.34 28.54, 136.41 39.3, 139.47 48.91 C142.54 58.53, 142.94 68.81, 141.48 78.78 C140.01 88.75, 136.35 100.37, 130.68 108.76 C125.01 117.15, 116.4 124.15, 107.45 129.12 C98.5 134.08, 87.25 137.57, 77 138.55 C66.74 139.52, 55.5 138.57, 45.91 134.98 C36.32 131.39, 26.47 124.55, 19.46 117 C12.44 109.46, 6.81 99.38, 3.82 89.73 C0.84 80.08, 0.13 68.91, 1.55 59.12 C2.98 49.33, 6.71 39.38, 12.4 31 C18.09 22.61, 24.51 13.85, 35.68 8.83 C46.85 3.8, 70.34 1.49, 79.42 0.85 C88.49 0.2, 90.33 3.86, 90.13 4.97 M89.68 2.55 C99.46 3.84, 108.72 10.43, 116.33 16.81 C123.95 23.18, 131.06 31.84, 135.35 40.8 C139.64 49.75, 142.14 60.51, 142.06 70.55 C141.99 80.59, 139.55 91.7, 134.89 101.03 C130.22 110.35, 122.47 120.6, 114.06 126.51 C105.65 132.42, 94.58 134.77, 84.42 136.48 C74.26 138.18, 62.92 138.87, 53.1 136.72 C43.27 134.56, 33.41 130.01, 25.47 123.55 C17.52 117.09, 9.62 107.59, 5.44 97.96 C1.27 88.32, 0.15 75.61, 0.42 65.74 C0.7 55.88, 2.3 47.48, 7.11 38.76 C11.92 30.04, 20.68 19.6, 29.29 13.43 C37.89 7.26, 48.94 3.8, 58.73 1.74 C68.52 -0.32, 83.17 0.71, 88.03 1.07 C92.9 1.42, 88.14 2.38, 87.91 3.87" stroke="#1e1e1e" stroke-width="1" fill="none"></path></g><g transform="translate(1318.599300293039 420.23732032326234) rotate(0 44.78333282470703 25)"><text x="44.78333282470703" y="0" font-family="Virgil, Segoe UI Emoji" font-size="20px" fill="#1e1e1e" text-anchor="middle" style="white-space: pre;" direction="ltr" dominant-baseline="text-before-edge">Count</text><text x="44.78333282470703" y="25" font-family="Virgil, Segoe UI Emoji" font-size="20px" fill="#1e1e1e" text-anchor="middle" style="white-space: pre;" direction="ltr" dominant-baseline="text-before-edge">Penalties</text></g><g stroke-linecap="round"><g transform="translate(1365.0794087512982 375.8812416157274) rotate(0 0.06032415812069303 -47.125545735455404)"><path d="M1.01 -0.1 C1.07 -15.56, 0.03 -76.87, 0.05 -92.48 M0.07 -1.21 C0.02 -17.01, -1.02 -78.91, -0.87 -94.15" stroke="#1e1e1e" stroke-width="1" fill="none"></path></g></g><mask></mask><g stroke-linecap="round"><g transform="translate(849.1171163116169 251.55994863081906) rotate(0 84.52569263852786 31.36851307862061)"><path d="M-1.07 -0.28 C26.72 1.7, 146.47 0.93, 166.19 11.68 C185.91 22.42, 125.37 55.61, 117.24 64.21 M0.58 -1.48 C28.24 0.68, 145.92 2.29, 165.21 12.94 C184.51 23.59, 124.28 53.84, 116.35 62.42" stroke="#1e1e1e" stroke-width="1" fill="none"></path></g><g transform="translate(849.1171163116169 251.55994863081906) rotate(0 84.52569263852786 31.36851307862061)"><path d="M133.02 37.71 C128.19 43.56, 126.39 50.15, 116.53 63.84 M134.04 37.26 C128.21 45.35, 121.22 55.91, 116.6 62.6" stroke="#1e1e1e" stroke-width="1" fill="none"></path></g><g transform="translate(849.1171163116169 251.55994863081906) rotate(0 84.52569263852786 31.36851307862061)"><path d="M144.83 54.49 C137 55.93, 132.17 58.22, 116.53 63.84 M145.85 54.04 C135.88 56.15, 124.74 60.83, 116.6 62.6" stroke="#1e1e1e" stroke-width="1" fill="none"></path></g></g><mask></mask><g transform="translate(749.5802525468212 224.29182483476876) rotate(0 90.59166717529297 12.5)"><text x="90.59166717529297" y="0" font-family="Virgil, Segoe UI Emoji" font-size="20px" fill="#1e1e1e" text-anchor="middle" style="white-space: pre;" direction="ltr" dominant-baseline="text-before-edge">Lowest Card First</text></g></svg>