<svg version="1.1" xmlns="http://www.w3.org/2000/svg" viewBox="0 0 687 585.5760579066712" width="687" height="585.5760579066712">
  <!-- svg-source:excalidraw -->
  
  <defs>
    <style class="style-fonts">
      @font-face {
        font-family: "Virgil";
        src: url("https://excalidraw.com/Virgil.woff2");
      }
      @font-face {
        font-family: "Cascadia";
        src: url("https://excalidraw.com/Cascadia.woff2");
      }
    </style>
    
  </defs>
  <rect x="0" y="0" width="687" height="585.5760579066712" fill="#ffffff"></rect><g stroke-linecap="round" transform="translate(407.6917685760536 272.2552429763052) rotate(0 51.147540983606575 51.14754098360663)"><path d="M25.85 -1.13 L81.04 0.02 L93.11 5.15 L97.09 11.31 L102.75 26.59 L103.08 83.77 L98.58 91.24 L91.37 96.76 L77.4 100.86 L19.88 100.02 L9.3 97.47 L2.67 91.98 L1.16 76.72 L1.48 25.27 L0.12 12.69 L3.1 9.77 L10.58 2.91 L26.63 0.12" stroke="none" stroke-width="0" fill="#b2f2bb"></path><path d="M25.57 0 M25.57 0 C41.07 0.2, 53.58 1.87, 76.72 0 M25.57 0 C38.26 0.48, 52.33 -0.72, 76.72 0 M76.72 0 C94.95 -1.5, 101.2 10.48, 102.3 25.57 M76.72 0 C93.26 1.93, 103.57 7.26, 102.3 25.57 M102.3 25.57 C101.13 36.47, 104.34 51.89, 102.3 76.72 M102.3 25.57 C102.21 39.79, 102.89 53.84, 102.3 76.72 M102.3 76.72 C101.83 92.41, 94.95 103.14, 76.72 102.3 M102.3 76.72 C104.1 93.15, 91.52 102.36, 76.72 102.3 M76.72 102.3 C57.93 104.69, 40.56 104.28, 25.57 102.3 M76.72 102.3 C60.09 102.91, 41.93 102.18, 25.57 102.3 M25.57 102.3 C8.47 101.16, -0.72 92.78, 0 76.72 M25.57 102.3 C8.21 103.5, 0.76 92.88, 0 76.72 M0 76.72 C-0.18 58.79, 0.67 42.49, 0 25.57 M0 76.72 C-0.32 57.53, -0.03 35.71, 0 25.57 M0 25.57 C1.06 9.27, 10.15 0.19, 25.57 0 M0 25.57 C-0.29 10.63, 10.33 -1.27, 25.57 0" stroke="#1e1e1e" stroke-width="1" fill="none"></path></g><g transform="translate(428.4726427658369 310.90278395991186) rotate(0 30.366666793823242 12.5)"><text x="30.366666793823242" y="0" font-family="Virgil, Segoe UI Emoji" font-size="20px" fill="#1e1e1e" text-anchor="middle" style="white-space: pre;" direction="ltr" dominant-baseline="text-before-edge">Player</text></g><g stroke-linecap="round" transform="translate(426.8006124597548 350.4576837331658) rotate(0 23.495044539930745 34.174610239899266)"><path d="M10.06 -0.4 L39.6 0.74 L43.52 1.26 L47.32 5.95 L46.6 59.52 L43.45 63.41 L38.68 68.78 L8.29 68.91 L2.47 66.71 L2.46 62.53 L-0.13 7.43 L2.07 1.8 L12.26 -1.66" stroke="none" stroke-width="0" fill="#d0bfff"></path><path d="M11.75 0 M11.75 0 C19.29 0.76, 27.31 -0.7, 35.24 0 M11.75 0 C19.4 0.58, 29.24 0.32, 35.24 0 M35.24 0 C44.74 1.92, 47.37 2.42, 46.99 11.75 M35.24 0 C43.22 -1.1, 48.06 3.88, 46.99 11.75 M46.99 11.75 C45.24 23.81, 47.66 34.9, 46.99 56.6 M46.99 11.75 C47.61 26.01, 47.47 37.7, 46.99 56.6 M46.99 56.6 C45.89 63.02, 44.76 69.76, 35.24 68.35 M46.99 56.6 C44.85 63.09, 43.31 68.53, 35.24 68.35 M35.24 68.35 C28.73 70.17, 23.77 68.67, 11.75 68.35 M35.24 68.35 C30.09 68.05, 25.35 67.8, 11.75 68.35 M11.75 68.35 C2.6 70.19, 0.3 62.73, 0 56.6 M11.75 68.35 C2.51 67.22, 0.33 65.46, 0 56.6 M0 56.6 C-0.4 45.49, 1.08 32.03, 0 11.75 M0 56.6 C0.78 45.1, 0.47 32.22, 0 11.75 M0 11.75 C1.35 3.47, 5.73 0.27, 11.75 0 M0 11.75 C0.38 5.69, 5.77 0.57, 11.75 0" stroke="#1e1e1e" stroke-width="1" fill="none"></path></g><g stroke-linecap="round" transform="translate(10 41.57605790667117) rotate(0 333.5 267)"><path d="M32 0 M32 0 C159.24 1.56, 287.05 1.86, 635 0 M32 0 C266.81 1.42, 501.21 1.96, 635 0 M635 0 C657.39 0.65, 666.51 9.71, 667 32 M635 0 C654.56 -1.41, 665.98 12.49, 667 32 M667 32 C668.23 213.67, 669.36 394.72, 667 502 M667 32 C667.65 200.68, 667.67 370.15, 667 502 M667 502 C668.17 523.43, 657.4 535.59, 635 534 M667 502 C669.21 524.96, 655.22 532.85, 635 534 M635 534 C463.9 533.76, 291.55 533.32, 32 534 M635 534 C443.8 535.88, 252.63 535.99, 32 534 M32 534 C12.04 532.89, 1.67 522.74, 0 502 M32 534 C10.65 535.4, -2.25 521.18, 0 502 M0 502 C1.19 349.41, 2.21 198.73, 0 32 M0 502 C-2.3 317.8, -1.56 133.9, 0 32 M0 32 C-0.54 8.99, 11.73 -0.66, 32 0 M0 32 C-0.24 10.85, 8.49 -0.4, 32 0" stroke="#1e1e1e" stroke-width="1" fill="none"></path></g><g stroke-linecap="round" transform="translate(32.42394209332906 453.5760579066716) rotate(0 52 52)"><path d="M6.26 6.77 C6.26 6.77, 6.26 6.77, 6.26 6.77 M6.26 6.77 C6.26 6.77, 6.26 6.77, 6.26 6.77 M3.38 16.19 C5.1 12.73, 9.6 11.65, 12.56 5.62 M3.38 16.19 C6.78 12.83, 9.74 8.69, 12.56 5.62 M-0.16 26.36 C5.33 19.19, 14.23 13.05, 18.86 4.47 M-0.16 26.36 C6.48 20.25, 10.83 12.37, 18.86 4.47 M0.23 32 C9.05 22.72, 14.76 12.83, 27.13 1.06 M0.23 32 C8.58 21.76, 17.02 12.22, 27.13 1.06 M-0.03 38.4 C11.43 24.49, 25.09 8.92, 32.12 1.42 M-0.03 38.4 C7.31 30.43, 12.32 23.94, 32.12 1.42 M0.36 44.04 C13.93 27.05, 25.59 15.37, 37.76 1.02 M0.36 44.04 C13.27 29.93, 24.89 16.23, 37.76 1.02 M0.1 50.44 C10.12 40.01, 18.47 30.17, 42.75 1.38 M0.1 50.44 C15.09 31.58, 30.37 13.89, 42.75 1.38 M-0.16 56.84 C17.05 38.07, 32.64 21.19, 48.39 0.99 M-0.16 56.84 C19.83 34.3, 37.67 13.03, 48.39 0.99 M0.24 62.48 C22.15 39.24, 38.89 15.79, 53.38 1.35 M0.24 62.48 C13 46.89, 27.28 30.85, 53.38 1.35 M-0.02 68.88 C17.8 49.34, 35.53 28.01, 59.02 0.96 M-0.02 68.88 C22.78 41.5, 47.67 15.88, 59.02 0.96 M0.37 74.52 C14.12 58.58, 27.77 45.07, 64.01 1.32 M0.37 74.52 C17.88 52.74, 36.57 33.41, 64.01 1.32 M1.42 79.41 C21.5 53.34, 45.89 30.64, 68.99 1.68 M1.42 79.41 C16.55 63.5, 30.6 46.76, 68.99 1.68 M2.47 84.3 C24.38 59.83, 42.91 36.16, 74.64 1.28 M2.47 84.3 C25.4 56.6, 48.85 30.7, 74.64 1.28 M3.52 89.19 C34.67 56.48, 63.35 22.33, 79.62 1.64 M3.52 89.19 C21.26 70.22, 37.37 52.75, 79.62 1.64 M4.57 94.08 C36.26 56.44, 66.42 22.13, 85.27 1.25 M4.57 94.08 C34.02 58.39, 63.55 25.1, 85.27 1.25 M6.94 97.45 C33.52 67.82, 61.82 37.85, 89.6 2.36 M6.94 97.45 C38.8 61.23, 68.13 26.64, 89.6 2.36 M9.95 100.08 C40.64 63.52, 71.48 26.69, 93.27 4.23 M9.95 100.08 C33.99 72.67, 58.67 45.26, 93.27 4.23 M12.97 102.7 C37.35 72.19, 65.43 43.74, 96.95 6.1 M12.97 102.7 C42.72 70.25, 69.46 36.99, 96.95 6.1 M17.3 103.82 C42.46 77.38, 65.61 51.9, 99.97 8.72 M17.3 103.82 C39.05 77.79, 59.67 54.87, 99.97 8.72 M21.63 104.93 C43.24 77.91, 68.1 48.88, 102.33 12.1 M21.63 104.93 C51.04 69.91, 82.07 34.27, 102.33 12.1 M26.62 105.29 C44.21 84.92, 63.69 63.56, 103.38 16.99 M26.62 105.29 C52.47 74.98, 77.9 44.29, 103.38 16.99 M32.26 104.9 C50.96 82.47, 67.46 62.02, 104.43 21.88 M32.26 104.9 C49.3 85.01, 66.66 64.7, 104.43 21.88 M37.25 105.26 C59.21 80.48, 76.04 58.63, 105.48 26.77 M37.25 105.26 C58.41 80.35, 79.11 56.11, 105.48 26.77 M42.89 104.86 C58.38 85.94, 76.9 67.16, 105.22 33.17 M42.89 104.86 C60.13 85.25, 76.94 66.25, 105.22 33.17 M47.88 105.22 C62.92 87.53, 78.08 67.91, 104.96 39.56 M47.88 105.22 C59.95 90.36, 71.51 76.53, 104.96 39.56 M52.87 105.58 C65.02 88.15, 80.82 72.82, 105.35 45.21 M52.87 105.58 C70.72 85.21, 86.83 66.34, 105.35 45.21 M58.51 105.19 C73.08 88.67, 86.3 70.31, 105.09 51.6 M58.51 105.19 C68.89 94.43, 79.41 82.35, 105.09 51.6 M63.5 105.55 C76.61 89.51, 92.4 76.38, 104.83 58 M63.5 105.55 C74.07 95.34, 83.73 83.82, 104.83 58 M69.14 105.15 C75.91 95.57, 85.57 84.83, 105.23 63.65 M69.14 105.15 C82.57 89.76, 94.81 76.12, 105.23 63.65 M74.13 105.51 C82.19 94.34, 92.38 83.86, 104.96 70.04 M74.13 105.51 C85.2 93.21, 94.72 81.47, 104.96 70.04 M79.77 105.12 C87.91 98.47, 94.7 90.83, 104.7 76.44 M79.77 105.12 C90.05 94.84, 98.35 83.92, 104.7 76.44 M86.07 103.97 C91.99 97.45, 96.08 93.45, 105.1 82.08 M86.07 103.97 C91.69 96.16, 98.28 89.16, 105.1 82.08 M94.34 100.56 C98.55 97.53, 102.38 91.08, 106.15 86.97 M94.34 100.56 C99.13 95.7, 101.39 91.49, 106.15 86.97" stroke="#ffc9c9" stroke-width="0.5" fill="none"></path><path d="M26 0 M26 0 C46.45 -1.01, 67.37 -1.45, 78 0 M26 0 C42.01 0.11, 57.01 -0.54, 78 0 M78 0 C93.69 -0.35, 105.01 10.42, 104 26 M78 0 C94.89 -1.02, 103.71 9.67, 104 26 M104 26 C103.34 38.72, 104.1 49.37, 104 78 M104 26 C104.23 40.23, 103.41 55.02, 104 78 M104 78 C103.14 95.56, 94.88 102.6, 78 104 M104 78 C103.78 94.2, 96.6 102.63, 78 104 M78 104 C58.93 104.48, 40 103.25, 26 104 M78 104 C57.78 104.64, 40.25 103.12, 26 104 M26 104 C9.39 104.28, -1.69 95.43, 0 78 M26 104 C9.56 101.96, 1.38 96.32, 0 78 M0 78 C0.24 61.27, 1.81 46.95, 0 26 M0 78 C1.07 63.28, -0.28 46.71, 0 26 M0 26 C1.73 8.17, 8.04 -1.99, 26 0 M0 26 C1.7 6.53, 7.91 1.89, 26 0" stroke="#1e1e1e" stroke-width="1" fill="none"></path></g><g transform="translate(61.27394247479879 493.0760579066716) rotate(0 23.149999618530273 12.5)"><text x="23.149999618530273" y="0" font-family="Virgil, Segoe UI Emoji" font-size="20px" fill="#1e1e1e" text-anchor="middle" style="white-space: pre;" direction="ltr" dominant-baseline="text-before-edge">Deck</text></g><g stroke-linecap="round" transform="translate(543.4239420933291 60.57605790667071) rotate(0 52 52)"><path d="M26.72 1.78 L83.12 -0.89 L94.93 2.96 L100.45 12.12 L105.05 26.65 L103.1 83.14 L98.8 92.62 L92.96 101.93 L79.73 105.53 L20.32 102.74 L10.07 102.01 L2.13 95.03 L0.62 76.86 L-0.03 25.08 L1.69 16.3 L7.67 6.6 L11.23 5.25 L27.92 1.42" stroke="none" stroke-width="0" fill="#a5d8ff"></path><path d="M26 0 M26 0 C39.23 0.04, 53.37 -0.41, 78 0 M26 0 C39.64 0.73, 53.07 -0.3, 78 0 M78 0 C94.81 0.12, 105.37 7.56, 104 26 M78 0 C97.25 -0.68, 103.99 10.07, 104 26 M104 26 C101.88 38.11, 102.3 45.37, 104 78 M104 26 C105.16 44.83, 103.41 62.52, 104 78 M104 78 C105.61 95.89, 94.8 102.32, 78 104 M104 78 C105.22 94.57, 95.1 104.18, 78 104 M78 104 C68.48 102.85, 57.37 103.09, 26 104 M78 104 C58.86 103.42, 39.61 103.64, 26 104 M26 104 C9.18 102.34, -0.18 96.27, 0 78 M26 104 C7.95 104.81, 0.8 97.51, 0 78 M0 78 C-0.77 63.02, 0.76 52.39, 0 26 M0 78 C-0.24 60.29, -0.37 43.59, 0 26 M0 26 C0.93 8.64, 7.98 -0.39, 26 0 M0 26 C1.25 6.75, 8.84 0.87, 26 0" stroke="#1e1e1e" stroke-width="1" fill="none"></path></g><g transform="translate(570.1239428562685 100.07605790667117) rotate(0 25.299999237060547 12.5)"><text x="25.299999237060547" y="0" font-family="Virgil, Segoe UI Emoji" font-size="20px" fill="#1e1e1e" text-anchor="middle" style="white-space: pre;" direction="ltr" dominant-baseline="text-before-edge">Row0</text></g><g stroke-linecap="round" transform="translate(545.4239420933291 187.57605790667117) rotate(0 52 52)"><path d="M27.09 -0.7 L84.2 2.37 L94.9 4.31 L99.85 9.2 L102.46 24.78 L102.71 85.68 L102.08 95.37 L94.25 99.49 L77.91 105.67 L18.38 104.78 L10.77 99.2 L3.63 92.92 L0.07 79.67 L1.17 26.1 L2.7 16.22 L8.42 7.92 L9.19 2.66 L25.69 0.14" stroke="none" stroke-width="0" fill="#a5d8ff"></path><path d="M26 0 M26 0 C40.73 -1.44, 57.33 0.16, 78 0 M26 0 C45.58 0.17, 66.37 -0.44, 78 0 M78 0 C97 -0.59, 103.99 9.88, 104 26 M78 0 C93.08 -2.16, 104.53 6.78, 104 26 M104 26 C104.75 46.73, 105.52 67.35, 104 78 M104 26 C104.37 44.34, 103.29 61.28, 104 78 M104 78 C105.06 94.67, 95.13 104.16, 78 104 M104 78 C101.83 94.93, 93.37 105.34, 78 104 M78 104 C65.54 105.61, 51.27 103.56, 26 104 M78 104 C66.73 102.87, 54.86 104.17, 26 104 M26 104 C8.05 104.7, 0.69 97.22, 0 78 M26 104 C7.78 105.27, 1.44 94.78, 0 78 M0 78 C0.25 67.67, 1.65 54.4, 0 26 M0 78 C0.43 66.27, -0.38 54.38, 0 26 M0 26 C1.08 7, 8.82 0.76, 26 0 M0 26 C-0.77 8.58, 9.99 -0.58, 26 0" stroke="#1e1e1e" stroke-width="1" fill="none"></path></g><g transform="translate(576.2989420933291 227.07605790667117) rotate(0 21.125 12.5)"><text x="21.125" y="0" font-family="Virgil, Segoe UI Emoji" font-size="20px" fill="#1e1e1e" text-anchor="middle" style="white-space: pre;" direction="ltr" dominant-baseline="text-before-edge">Row1</text></g><g stroke-linecap="round" transform="translate(545.4239420933291 313.5760579066721) rotate(0 52 52)"><path d="M27.05 0.65 L83.6 -0.55 L92.3 2.43 L99.46 11.74 L105.73 27.53 L104 83.24 L100.25 95.51 L92.32 101.53 L78.62 102.86 L19.88 102.67 L10.22 102.02 L4.82 93.94 L1.07 79.59 L1.92 27.42 L0.66 13.62 L6.19 6.64 L10.12 4.84 L25.51 -0.76" stroke="none" stroke-width="0" fill="#a5d8ff"></path><path d="M26 0 M26 0 C39.16 -0.36, 48.62 -0.54, 78 0 M26 0 C42.74 -0.01, 57.8 0.9, 78 0 M78 0 C93.37 -1.88, 104.46 7.03, 104 26 M78 0 C97.18 -1.39, 102.11 9.89, 104 26 M104 26 C105.42 42.41, 104.08 63.8, 104 78 M104 26 C104.39 42.71, 103.76 60.17, 104 78 M104 78 C102.11 94.98, 93.63 105.17, 78 104 M104 78 C103.19 96.19, 94.8 105.49, 78 104 M78 104 C56.34 103.05, 36.68 104.43, 26 104 M78 104 C66.4 104.59, 55.78 105.19, 26 104 M26 104 C7.9 105.11, 1.25 94.85, 0 78 M26 104 C7.07 105.2, 1.82 95.94, 0 78 M0 78 C-1.99 58.19, -1.46 39.06, 0 26 M0 78 C0.72 61.64, 0.25 47.33, 0 26 M0 26 C-0.67 8.59, 9.82 -0.5, 26 0 M0 26 C0.82 10.92, 9.16 -1.41, 26 0" stroke="#1e1e1e" stroke-width="1" fill="none"></path></g><g transform="translate(571.890609268622 353.0760579066721) rotate(0 25.53333282470703 12.5)"><text x="25.53333282470703" y="0" font-family="Virgil, Segoe UI Emoji" font-size="20px" fill="#1e1e1e" text-anchor="middle" style="white-space: pre;" direction="ltr" dominant-baseline="text-before-edge">Row2</text></g><g stroke-linecap="round" transform="translate(546.4239420933291 438.5760579066716) rotate(0 52 52)"><path d="M24.46 -1.22 L83.21 1.99 L95.58 5.18 L100.75 9.3 L103.91 27.67 L102.07 85.28 L100.96 92.7 L93.81 99.42 L78.07 105.67 L21.07 103.69 L11.23 101.94 L5.58 95.26 L-0.96 77 L-0.31 26.14 L1.58 15.81 L6.01 5.74 L8.59 4 L26.03 1.63" stroke="none" stroke-width="0" fill="#a5d8ff"></path><path d="M26 0 M26 0 C40.79 1.51, 54.24 1.81, 78 0 M26 0 C39.08 -1.25, 54.35 -1.13, 78 0 M78 0 C96.94 -1.21, 102.35 9.73, 104 26 M78 0 C96.44 2.11, 106.09 9.75, 104 26 M104 26 C104.45 36.68, 102.22 49.5, 104 78 M104 26 C103 39.71, 103.09 54.35, 104 78 M104 78 C103.29 96.08, 94.87 105.3, 78 104 M104 78 C105.99 96.24, 94.97 102.2, 78 104 M78 104 C63 103.95, 52.25 103.51, 26 104 M78 104 C60.19 105.04, 43.77 104.25, 26 104 M26 104 C7.28 105.05, 1.59 95.86, 0 78 M26 104 C10.58 106.21, 0.44 93.61, 0 78 M0 78 C0.22 61.39, -0.14 47.24, 0 26 M0 78 C-0.38 66.69, 0.54 55.2, 0 26 M0 26 C0.71 10.63, 9.1 -1.23, 26 0 M0 26 C-1.26 7.04, 10.6 1.62, 26 0" stroke="#1e1e1e" stroke-width="1" fill="none"></path></g><g transform="translate(573.1989417118593 478.0760579066716) rotate(0 25.225000381469727 12.5)"><text x="25.225000381469727" y="0" font-family="Virgil, Segoe UI Emoji" font-size="20px" fill="#1e1e1e" text-anchor="middle" style="white-space: pre;" direction="ltr" dominant-baseline="text-before-edge">Row3</text></g><g transform="translate(37.42394209332906 54.57605790667117) rotate(0 26.358333587646484 12.5)"><text x="0" y="0" font-family="Virgil, Segoe UI Emoji" font-size="20px" fill="#1e1e1e" text-anchor="start" style="white-space: pre;" direction="ltr" dominant-baseline="text-before-edge">Game</text></g><g stroke-linecap="round" transform="translate(42.27640110972243 274.54327102142656) rotate(0 51.147540983606575 51.14754098360663)"><path d="M25.98 -0.85 L82.63 2.07 L90.78 4.78 L99.32 8.85 L102.26 24.65 L101.96 84.39 L99.87 92.4 L93.38 100.29 L78.65 103.71 L18.62 100.89 L9.68 98.83 L3.56 93.49 L-0.49 75.96 L-1.57 25.91 L1.63 16.02 L3.24 9.56 L9.46 3.71 L26.94 -1.11" stroke="none" stroke-width="0" fill="#b2f2bb"></path><path d="M25.57 0 M25.57 0 C46.4 -1.96, 62.93 0.46, 76.72 0 M25.57 0 C35.91 0.84, 48.37 1.23, 76.72 0 M76.72 0 C95.59 0.95, 100.61 8.12, 102.3 25.57 M76.72 0 C95.62 0.64, 101.68 6.6, 102.3 25.57 M102.3 25.57 C102.29 41.74, 101.78 59.97, 102.3 76.72 M102.3 25.57 C101.88 44.55, 102.98 62.62, 102.3 76.72 M102.3 76.72 C101.98 92.2, 92.9 101.16, 76.72 102.3 M102.3 76.72 C102.89 91.86, 93.56 103.37, 76.72 102.3 M76.72 102.3 C64.86 101.7, 50.32 103.72, 25.57 102.3 M76.72 102.3 C63.39 102.83, 49.31 103.52, 25.57 102.3 M25.57 102.3 C8.91 100.8, 0.12 92.81, 0 76.72 M25.57 102.3 C9.59 102.26, -0.79 93.32, 0 76.72 M0 76.72 C1.18 57.93, 0.35 41.64, 0 25.57 M0 76.72 C0.03 62.04, -0.73 47.88, 0 25.57 M0 25.57 C1.68 9.93, 6.66 -1.17, 25.57 0 M0 25.57 C0.24 8.71, 7.68 0.75, 25.57 0" stroke="#1e1e1e" stroke-width="1" fill="none"></path></g><g transform="translate(63.05727529950582 313.1908120050332) rotate(0 30.366666793823242 12.5)"><text x="30.366666793823242" y="0" font-family="Virgil, Segoe UI Emoji" font-size="20px" fill="#1e1e1e" text-anchor="middle" style="white-space: pre;" direction="ltr" dominant-baseline="text-before-edge">Player</text></g><g stroke-linecap="round" transform="translate(27.42394209332906 205.5760579066707) rotate(0 252.4999999999999 118.03278688524597)"><path d="M32 0 M32 0 C130.04 -0.69, 228.75 -0.64, 473 0 M32 0 C201.49 0.29, 370.94 0.25, 473 0 M473 0 C493.37 -1, 504.69 10.8, 505 32 M473 0 C494.29 1.36, 504.44 9.79, 505 32 M505 32 C506.92 69.78, 504.87 107.75, 505 204.07 M505 32 C507.01 84.33, 506.17 137.86, 505 204.07 M505 204.07 C503.04 223.52, 494.8 234.43, 473 236.07 M505 204.07 C506.84 224.01, 492.44 237.29, 473 236.07 M473 236.07 C320.01 237.23, 165.89 238.87, 32 236.07 M473 236.07 C328.71 234.06, 183.84 234.26, 32 236.07 M32 236.07 C8.78 235.72, -1.71 226.56, 0 204.07 M32 236.07 C9.85 236.92, -0.54 226.89, 0 204.07 M0 204.07 C-2.25 136.72, -1.82 71.63, 0 32 M0 204.07 C-0.15 167.08, 0.5 130.33, 0 32 M0 32 C-0.77 11.77, 11.92 -0.48, 32 0 M0 32 C-1.6 11.87, 12.49 0.6, 32 0" stroke="#1e1e1e" stroke-width="1" fill="none"></path></g><g transform="translate(47.09607324087028 229.18261528372136) rotate(0 35.349998474121094 12.295081967213036)"><text x="0" y="0" font-family="Virgil, Segoe UI Emoji" font-size="19.672131147540984px" fill="#1e1e1e" text-anchor="start" style="white-space: pre;" direction="ltr" dominant-baseline="text-before-edge">Players</text></g><g stroke-linecap="round" transform="translate(167.26000766709967 272.26458249683606) rotate(0 51.147540983606575 51.14754098360663)"><path d="M25.54 -0.92 L82.78 2.07 L93.47 3.69 L99.77 11.58 L104.22 26.99 L100.93 81.71 L98.39 92.44 L92.26 99.88 L76.23 101.53 L18.01 102.23 L10.02 100.33 L3.24 91.88 L-0.53 76.84 L1.37 24.47 L3.27 13.79 L3.58 11.21 L8.03 1.72 L26.04 -1.64" stroke="none" stroke-width="0" fill="#b2f2bb"></path><path d="M25.57 0 M25.57 0 C46.08 1.38, 66.29 2.24, 76.72 0 M25.57 0 C44.14 0.38, 60.83 -0.74, 76.72 0 M76.72 0 C94.83 -0.66, 102.09 8.69, 102.3 25.57 M76.72 0 C91.6 -0.4, 100.33 9.86, 102.3 25.57 M102.3 25.57 C103.79 40.83, 103.28 52.33, 102.3 76.72 M102.3 25.57 C102.33 36.08, 101.98 48.72, 102.3 76.72 M102.3 76.72 C101.67 94.47, 94.46 104.18, 76.72 102.3 M102.3 76.72 C101.41 95.04, 95.21 101.74, 76.72 102.3 M76.72 102.3 C65.45 104.37, 55.05 103.08, 25.57 102.3 M76.72 102.3 C65.66 102.03, 53.33 101.86, 25.57 102.3 M25.57 102.3 C9.61 100.63, 0.15 94.53, 0 76.72 M25.57 102.3 C7.75 102.21, 1.33 93.2, 0 76.72 M0 76.72 C-1.73 58.45, -1.92 44.07, 0 25.57 M0 76.72 C0.58 57.85, 0.11 39.14, 0 25.57 M0 25.57 C0.89 8.19, 10.24 0.89, 25.57 0 M0 25.57 C0.24 6.79, 10.28 1.52, 25.57 0" stroke="#1e1e1e" stroke-width="1" fill="none"></path></g><g transform="translate(188.04088185688306 310.9121234804427) rotate(0 30.366666793823242 12.5)"><text x="30.366666793823242" y="0" font-family="Virgil, Segoe UI Emoji" font-size="20px" fill="#1e1e1e" text-anchor="middle" style="white-space: pre;" direction="ltr" dominant-baseline="text-before-edge">Player</text></g><g stroke-linecap="round" transform="translate(293.26000766709967 272.0022874148692) rotate(0 51.147540983606575 51.14754098360663)"><path d="M26.74 0.1 L83.79 1.99 L94.23 5.01 L97.73 8.99 L101.99 25.71 L101.85 83.9 L98.21 91.55 L90.74 99.04 L76.75 103.93 L19.22 101.47 L9.46 98.82 L4.97 91.2 L1.67 76.13 L-0.01 26.79 L-0.36 12.51 L4.06 8.35 L11.59 2.39 L23.93 1.06" stroke="none" stroke-width="0" fill="#b2f2bb"></path><path d="M25.57 0 M25.57 0 C44.32 -2.15, 60.77 1.14, 76.72 0 M25.57 0 C42.87 0.1, 59 0.51, 76.72 0 M76.72 0 C91.88 -0.35, 100.59 9.69, 102.3 25.57 M76.72 0 C92.96 0.86, 101.76 10.02, 102.3 25.57 M102.3 25.57 C100.93 44.47, 101.36 65.61, 102.3 76.72 M102.3 25.57 C101.94 37.02, 102.59 48.72, 102.3 76.72 M102.3 76.72 C101.52 94.88, 95.02 101.82, 76.72 102.3 M102.3 76.72 C100.7 94.97, 95.59 102.9, 76.72 102.3 M76.72 102.3 C55.62 102.52, 36.55 103.32, 25.57 102.3 M76.72 102.3 C61.99 101.36, 46.26 102.57, 25.57 102.3 M25.57 102.3 C7.85 102.22, 1.16 93.27, 0 76.72 M25.57 102.3 C9.35 104.55, 0.5 92.36, 0 76.72 M0 76.72 C1.77 62.32, -0.81 51.86, 0 25.57 M0 76.72 C0.63 60.81, 1.05 45.67, 0 25.57 M0 25.57 C0.21 7.02, 10.05 1.32, 25.57 0 M0 25.57 C0.29 7.48, 10.03 -1.61, 25.57 0" stroke="#1e1e1e" stroke-width="1" fill="none"></path></g><g transform="translate(314.04088185688295 310.64982839847585) rotate(0 30.366666793823242 12.5)"><text x="30.366666793823242" y="0" font-family="Virgil, Segoe UI Emoji" font-size="20px" fill="#1e1e1e" text-anchor="middle" style="white-space: pre;" direction="ltr" dominant-baseline="text-before-edge">Player</text></g><g stroke-linecap="round" transform="translate(160.42394209332906 49.57605790667117) rotate(0 184.5 44.5)"><path d="M21.94 0.14 L351.92 1.53 L362.95 4.8 L366.04 12.86 L369.03 23.88 L368.3 71.54 L362.91 83.55 L357.85 86.5 L348.42 88.41 L17.02 89.87 L3.6 81.56 L1.85 74.85 L1.6 65.54 L-1.65 23.31 L2.35 14.35 L7.38 6.51 L10.83 0.99 L23.86 0.56" stroke="none" stroke-width="0" fill="#ffec99"></path><path d="M22.25 0 M22.25 0 C110.44 -1.33, 199.66 -2.5, 346.75 0 M22.25 0 C113.67 -1.05, 205.42 -0.86, 346.75 0 M346.75 0 C363.31 0.79, 368.69 5.85, 369 22.25 M346.75 0 C360.58 -1.31, 369.59 5.51, 369 22.25 M369 22.25 C369.91 35.89, 371.1 47.37, 369 66.75 M369 22.25 C368.58 38.59, 370.07 54.14, 369 66.75 M369 66.75 C370.67 83.51, 361.97 87.51, 346.75 89 M369 66.75 C369.14 80.48, 362.65 88.97, 346.75 89 M346.75 89 C259.42 90.32, 174.92 89.75, 22.25 89 M346.75 89 C250.9 89.12, 154.7 88.01, 22.25 89 M22.25 89 C6.32 87.58, 1.68 82.99, 0 66.75 M22.25 89 C5.27 87.65, 0.24 81.77, 0 66.75 M0 66.75 C-0.48 56.76, 0.75 43.55, 0 22.25 M0 66.75 C-0.21 56.3, 0.32 46.06, 0 22.25 M0 22.25 C-1.31 9.26, 7.71 -1.71, 22.25 0 M0 22.25 C-1.41 6.29, 7.75 1.03, 22.25 0" stroke="#1e1e1e" stroke-width="1" fill="none"></path></g><g transform="translate(315.40727568097554 54.57605790667117) rotate(0 29.516666412353516 12.5)"><text x="29.516666412353516" y="0" font-family="Virgil, Segoe UI Emoji" font-size="20px" fill="#1e1e1e" text-anchor="middle" style="white-space: pre;" direction="ltr" dominant-baseline="text-before-edge">State</text></g><g stroke-linecap="round" transform="translate(173.42394209332906 94.57605790667117) rotate(0 51.5 17.5)"><path d="M8.26 -0.76 L96.51 0.89 L102.48 6.55 L102.1 29.65 L97.55 34.57 L95.62 33.89 L6.59 33.86 L0.53 31.29 L-1.96 6.87 L2.65 0.55 L10.35 -1.21" stroke="none" stroke-width="0" fill="#e9ecef"></path><path d="M8.75 0 M8.75 0 C29.2 1.41, 46.93 -2.1, 94.25 0 M8.75 0 C32.41 -1.08, 57.14 -0.57, 94.25 0 M94.25 0 C99.88 0.16, 101.11 2.57, 103 8.75 M94.25 0 C98.12 1.34, 102.19 3.77, 103 8.75 M103 8.75 C103.81 13.32, 101.74 17.67, 103 26.25 M103 8.75 C102.97 13.41, 102.77 17.57, 103 26.25 M103 26.25 C103.69 33.97, 99.31 36.11, 94.25 35 M103 26.25 C104.44 31.53, 98.49 36.2, 94.25 35 M94.25 35 C63.74 36.1, 27.9 35.84, 8.75 35 M94.25 35 C72.36 34.79, 51.7 34.16, 8.75 35 M8.75 35 C3.07 35.76, -0.67 32.01, 0 26.25 M8.75 35 C4.24 34.42, 0.82 34.34, 0 26.25 M0 26.25 C-1.13 22.1, 1.34 13.36, 0 8.75 M0 26.25 C-0.34 22.31, 0.37 17.65, 0 8.75 M0 8.75 C1.71 3.81, 3.13 -1.51, 8.75 0 M0 8.75 C1.75 4.43, 3.21 -1.04, 8.75 0" stroke="#1e1e1e" stroke-width="1" fill="none"></path></g><g transform="translate(190.6239428562685 99.57605790667117) rotate(0 34.29999923706055 12.5)"><text x="34.29999923706055" y="0" font-family="Virgil, Segoe UI Emoji" font-size="20px" fill="#1e1e1e" text-anchor="middle" style="white-space: pre;" direction="ltr" dominant-baseline="text-before-edge">Pending</text></g><g stroke-linecap="round" transform="translate(294.92394209332906 94.07605790667117) rotate(0 51.5 17.5)"><path d="M8.78 1.63 L97.72 0.12 L101.93 5.04 L103.82 28.97 L99.75 33.86 L94.24 36.22 L2.96 32.58 L1.01 28.44 L1.6 7.54 L0.54 3.25 L9.71 1.83" stroke="none" stroke-width="0" fill="#b2f2bb"></path><path d="M8.75 0 M8.75 0 C41.78 2.33, 76.17 0.18, 94.25 0 M8.75 0 C27.13 0.36, 44.77 0.11, 94.25 0 M94.25 0 C98.38 1.17, 102.29 3.66, 103 8.75 M94.25 0 C99.55 1.49, 104.99 3.83, 103 8.75 M103 8.75 C101.87 14.17, 101.41 18.54, 103 26.25 M103 8.75 C103.25 15.64, 102.61 21.37, 103 26.25 M103 26.25 C104.25 31.6, 98.7 36.05, 94.25 35 M103 26.25 C104.82 32.69, 102 37.21, 94.25 35 M94.25 35 C66 35.98, 39.63 34.36, 8.75 35 M94.25 35 C70.33 34.67, 45.93 34.25, 8.75 35 M8.75 35 C4.07 34.5, 0.71 34.04, 0 26.25 M8.75 35 C3.41 33.59, -1.26 30.45, 0 26.25 M0 26.25 C-1.15 19.71, 0.02 12.16, 0 8.75 M0 26.25 C0.67 20.82, 0.02 13.96, 0 8.75 M0 8.75 C1.52 4.24, 3.17 -0.91, 8.75 0 M0 8.75 C1.51 1.3, 1.41 2.12, 8.75 0" stroke="#2f9e44" stroke-width="1" fill="none"></path></g><g transform="translate(316.3072752995058 99.07605790667117) rotate(0 30.116666793823242 12.5)"><text x="30.116666793823242" y="0" font-family="Virgil, Segoe UI Emoji" font-size="20px" fill="#2f9e44" text-anchor="middle" style="white-space: pre;" direction="ltr" dominant-baseline="text-before-edge">Active</text></g><g stroke-linecap="round" transform="translate(414.92394209332906 93.07605790667117) rotate(0 51.5 17.5)"><path d="M8.22 0.12 L99.45 -0.56 L104.12 4.33 L102.44 31.29 L96.12 32.58 L94.71 33.36 L6.52 33.24 L-1.1 31.14 L0.96 10.58 L4.01 3.13 L7.06 -0.4" stroke="none" stroke-width="0" fill="#e9ecef"></path><path d="M8.75 0 M8.75 0 C39.6 1.29, 73.14 0.02, 94.25 0 M8.75 0 C34.23 0.73, 61.07 0.52, 94.25 0 M94.25 0 C99.62 1.3, 104.73 3.71, 103 8.75 M94.25 0 C99.72 -1.8, 102 1.61, 103 8.75 M103 8.75 C103.67 13.91, 103.47 20.76, 103 26.25 M103 8.75 C103.48 15.44, 102.33 23.01, 103 26.25 M103 26.25 C104.59 32.61, 101.75 36.92, 94.25 35 M103 26.25 C103.44 30.36, 100.23 33.9, 94.25 35 M94.25 35 C64.25 35.79, 33.37 34.86, 8.75 35 M94.25 35 C65.94 34.72, 36.84 35.95, 8.75 35 M8.75 35 C3.35 33.77, -1.1 30.67, 0 26.25 M8.75 35 C4.85 36.62, -2.14 30.74, 0 26.25 M0 26.25 C0.55 21.6, -0.31 16.89, 0 8.75 M0 26.25 C0.65 20.8, 0.09 13.79, 0 8.75 M0 8.75 C1.31 1.51, 1.6 1.84, 8.75 0 M0 8.75 C0.34 0.96, 1.51 -1.13, 8.75 0" stroke="#1e1e1e" stroke-width="1" fill="none"></path></g><g transform="translate(430.0989413303896 98.07605790667117) rotate(0 36.32500076293945 12.5)"><text x="36.32500076293945" y="0" font-family="Virgil, Segoe UI Emoji" font-size="20px" fill="#1e1e1e" text-anchor="middle" style="white-space: pre;" direction="ltr" dominant-baseline="text-before-edge">Finished</text></g><g transform="translate(27.5933962802917 10) rotate(0 114.73332977294922 12.5)"><text x="114.73332977294922" y="0" font-family="Virgil, Segoe UI Emoji" font-size="20px" fill="#1e1e1e" text-anchor="middle" style="white-space: pre;" direction="ltr" dominant-baseline="text-before-edge">Lowest card goes first</text></g><g transform="translate(111.0406088871523 344.5760579066721) rotate(0 6.883333206176758 12.5)"><text x="6.883333206176758" y="0" font-family="Virgil, Segoe UI Emoji" font-size="20px" fill="#e03131" text-anchor="middle" style="white-space: pre;" direction="ltr" dominant-baseline="text-before-edge">0</text></g><g transform="translate(234.61666679382324 341.0760579066721) rotate(0 6.883333206176758 12.5)"><text x="6.883333206176758" y="0" font-family="Virgil, Segoe UI Emoji" font-size="20px" fill="#e03131" text-anchor="middle" style="white-space: pre;" direction="ltr" dominant-baseline="text-before-edge">0</text></g><g transform="translate(357.61666679382324 341.0760579066721) rotate(0 6.883333206176758 12.5)"><text x="6.883333206176758" y="0" font-family="Virgil, Segoe UI Emoji" font-size="20px" fill="#e03131" text-anchor="middle" style="white-space: pre;" direction="ltr" dominant-baseline="text-before-edge">0</text></g><g transform="translate(481.61666679382324 340.0760579066721) rotate(0 6.883333206176758 12.5)"><text x="6.883333206176758" y="0" font-family="Virgil, Segoe UI Emoji" font-size="20px" fill="#e03131" text-anchor="middle" style="white-space: pre;" direction="ltr" dominant-baseline="text-before-edge">0</text></g><g stroke-linecap="round" transform="translate(53.015812960856465 359.0013362931411) rotate(0 23.495044539930745 34.174610239899266)"><path d="M10.1 1.06 L38.96 2.02 L45.87 3.88 L44.57 6.21 L48.41 59.91 L44.8 62.08 L41.44 66.95 L8.79 68.33 L1.05 65.06 L-0.97 62.91 L-0.52 9.74 L2.47 4.24 L13.47 0.79" stroke="none" stroke-width="0" fill="#d0bfff"></path><path d="M11.75 0 M11.75 0 C17.29 0.62, 23.45 -0.08, 35.24 0 M11.75 0 C20.24 0.86, 27.65 0.47, 35.24 0 M35.24 0 C44.32 -0.48, 45.6 4.96, 46.99 11.75 M35.24 0 C44.9 0.6, 48.91 6.13, 46.99 11.75 M46.99 11.75 C45.69 26.99, 46.63 39.7, 46.99 56.6 M46.99 11.75 C47.31 24.71, 46.9 36.88, 46.99 56.6 M46.99 56.6 C48.15 63.93, 43.79 70.31, 35.24 68.35 M46.99 56.6 C47.49 63.02, 41.81 66.72, 35.24 68.35 M35.24 68.35 C25.04 68.34, 17.35 67.39, 11.75 68.35 M35.24 68.35 C28.29 68.76, 19.73 67.56, 11.75 68.35 M11.75 68.35 C5.44 69.67, 0.26 63.53, 0 56.6 M11.75 68.35 C5.42 66.73, -1.51 66.55, 0 56.6 M0 56.6 C-0.6 42.77, 1.27 27.73, 0 11.75 M0 56.6 C0.53 42, -0.17 25.75, 0 11.75 M0 11.75 C-0.5 4.33, 5.25 0.46, 11.75 0 M0 11.75 C0.82 1.78, 5.47 -0.51, 11.75 0" stroke="#1e1e1e" stroke-width="1" fill="none"></path></g><g stroke-linecap="round" transform="translate(179.03468822048512 356.153452106483) rotate(0 23.495044539930745 34.174610239899266)"><path d="M12.71 1.83 L39.82 1.13 L42.37 2.54 L47.86 7.16 L46.27 57.68 L46.4 63.1 L40.18 67.78 L7.11 67.82 L1.23 66.58 L0.03 62.49 L-0.28 10.29 L4.66 3.73 L11.43 -1.57" stroke="none" stroke-width="0" fill="#d0bfff"></path><path d="M11.75 0 M11.75 0 C16.12 -0.24, 24.74 -0.68, 35.24 0 M11.75 0 C19.24 0.33, 28.12 -0.46, 35.24 0 M35.24 0 C41.69 1.05, 48.58 4.44, 46.99 11.75 M35.24 0 C44.99 2.21, 47.43 2.2, 46.99 11.75 M46.99 11.75 C46.75 24.79, 46.39 40.3, 46.99 56.6 M46.99 11.75 C46.69 21.43, 47.6 30.94, 46.99 56.6 M46.99 56.6 C47.7 66.39, 43.51 67.12, 35.24 68.35 M46.99 56.6 C45.73 62.8, 45.01 69.97, 35.24 68.35 M35.24 68.35 C30.54 67.64, 26.17 69.26, 11.75 68.35 M35.24 68.35 C28.69 67.7, 22.69 69.11, 11.75 68.35 M11.75 68.35 C4.17 67.44, 1.31 63.03, 0 56.6 M11.75 68.35 C2.41 70.47, 0.34 62.47, 0 56.6 M0 56.6 C1.11 45.27, 1.01 34.89, 0 11.75 M0 56.6 C-0.45 43.27, -0.46 30.91, 0 11.75 M0 11.75 C1.34 4.37, 4.63 -1.86, 11.75 0 M0 11.75 C1.55 3.41, 6 0.31, 11.75 0" stroke="#1e1e1e" stroke-width="1" fill="none"></path></g><g stroke-linecap="round" transform="translate(305.76553452677854 353.30556791982485) rotate(0 23.495044539930745 34.174610239899266)"><path d="M13.57 0.95 L36.31 -0.22 L45.66 3.49 L45.72 4.93 L47.87 58.69 L45.13 63.92 L38.49 67.26 L7.29 69.33 L2.23 66.16 L0.27 63.04 L1.91 9.79 L2.62 1.37 L10.88 -1.14" stroke="none" stroke-width="0" fill="#d0bfff"></path><path d="M11.75 0 M11.75 0 C20.33 -0.6, 27.76 0.71, 35.24 0 M11.75 0 C21.64 -0.37, 29.59 0.39, 35.24 0 M35.24 0 C44.66 0.53, 48.66 5.84, 46.99 11.75 M35.24 0 C43.52 -1.72, 47.13 2.81, 46.99 11.75 M46.99 11.75 C46.6 28.37, 45.32 42.97, 46.99 56.6 M46.99 11.75 C47.42 26.65, 47.2 43.04, 46.99 56.6 M46.99 56.6 C47.42 63.21, 41.98 66.93, 35.24 68.35 M46.99 56.6 C48.93 66.05, 40.93 67, 35.24 68.35 M35.24 68.35 C28.6 69.15, 20.33 69.98, 11.75 68.35 M35.24 68.35 C27.91 68.83, 19.18 67.72, 11.75 68.35 M11.75 68.35 C5.23 66.95, -1.31 66.28, 0 56.6 M11.75 68.35 C4.26 66.39, -1.41 63.3, 0 56.6 M0 56.6 C0.59 42.19, -0.43 29.32, 0 11.75 M0 56.6 C-0.14 40.53, 0.78 24.27, 0 11.75 M0 11.75 C0.72 2.06, 5.27 -0.44, 11.75 0 M0 11.75 C2.08 4.23, 4.3 1.77, 11.75 0" stroke="#1e1e1e" stroke-width="1" fill="none"></path></g><g stroke-linecap="round"><g transform="translate(427.58914310001387 509.93919818602967) rotate(0 45.34167069975189 -66.68805179711671)"><path d="M-0.32 -1.01 C14.56 -14.18, 83.13 -56.82, 90.27 -78.71 C97.4 -100.61, 50.62 -123.38, 42.49 -132.37" stroke="#1e1e1e" stroke-width="1.5" fill="none" stroke-dasharray="8 9"></path></g><g transform="translate(427.58914310001387 509.93919818602967) rotate(0 45.34167069975189 -66.68805179711671)"><path d="M69.53 -122.63 C59.6 -127.27, 49.5 -132.26, 42.14 -134.08" stroke="#1e1e1e" stroke-width="1.5" fill="none"></path></g><g transform="translate(427.58914310001387 509.93919818602967) rotate(0 45.34167069975189 -66.68805179711671)"><path d="M57.23 -106.2 C51.93 -117.06, 46.51 -128.3, 42.14 -134.08" stroke="#1e1e1e" stroke-width="1.5" fill="none"></path></g></g><mask></mask><g transform="translate(368.1822970248227 517.0589086526754) rotate(0 66.44999694824219 25)"><text x="66.44999694824219" y="0" font-family="Virgil, Segoe UI Emoji" font-size="20px" fill="#1e1e1e" text-anchor="middle" style="white-space: pre;" direction="ltr" dominant-baseline="text-before-edge">played card</text><text x="66.44999694824219" y="25" font-family="Virgil, Segoe UI Emoji" font-size="20px" fill="#1e1e1e" text-anchor="middle" style="white-space: pre;" direction="ltr" dominant-baseline="text-before-edge">(visible value)</text></g><g transform="translate(75.93843738692021 397.76325165299) rotate(0 2.7083332538604736 12.5)"><text x="2.7083332538604736" y="0" font-family="Virgil, Segoe UI Emoji" font-size="20px" fill="#e03131" text-anchor="middle" style="white-space: pre;" direction="ltr" dominant-baseline="text-before-edge">1</text></g><g transform="translate(62.655103846957445 372.1322939730651) rotate(0 15.991666793823242 12.5)"><text x="15.991666793823242" y="0" font-family="Virgil, Segoe UI Emoji" font-size="20px" fill="#1e1e1e" text-anchor="middle" style="white-space: pre;" direction="ltr" dominant-baseline="text-before-edge">104</text></g><g transform="translate(191.37034183830292 370.70835187973603) rotate(0 12.583333015441895 12.5)"><text x="12.583333015441895" y="0" font-family="Virgil, Segoe UI Emoji" font-size="20px" fill="#1e1e1e" text-anchor="middle" style="white-space: pre;" direction="ltr" dominant-baseline="text-before-edge">65</text></g><g transform="translate(196.83700805992157 394.9153674663319) rotate(0 7.116666793823242 12.5)"><text x="7.116666793823242" y="0" font-family="Virgil, Segoe UI Emoji" font-size="20px" fill="#e03131" text-anchor="middle" style="white-space: pre;" direction="ltr" dominant-baseline="text-before-edge">2</text></g><g transform="translate(323.0772456697971 390.64354118634424) rotate(0 6.183333396911621 12.5)"><text x="6.183333396911621" y="0" font-family="Virgil, Segoe UI Emoji" font-size="20px" fill="#e03131" text-anchor="middle" style="white-space: pre;" direction="ltr" dominant-baseline="text-before-edge">5</text></g><g transform="translate(313.96057887597385 363.5886414130907) rotate(0 15.300000190734863 12.5)"><text x="15.300000190734863" y="0" font-family="Virgil, Segoe UI Emoji" font-size="20px" fill="#1e1e1e" text-anchor="middle" style="white-space: pre;" direction="ltr" dominant-baseline="text-before-edge">88</text></g><g transform="translate(443.895656904318 362.16469931976076) rotate(0 6.400000095367432 12.5)"><text x="6.400000095367432" y="0" font-family="Virgil, Segoe UI Emoji" font-size="20px" fill="#1e1e1e" text-anchor="middle" style="white-space: pre;" direction="ltr" dominant-baseline="text-before-edge">6</text></g><g transform="translate(446.1633816524957 387.79565699968475) rotate(0 2.7083332538604736 12.5)"><text x="2.7083332538604736" y="0" font-family="Virgil, Segoe UI Emoji" font-size="20px" fill="#e03131" text-anchor="middle" style="white-space: pre;" direction="ltr" dominant-baseline="text-before-edge">1</text></g><g stroke-linecap="round"><g transform="translate(218.1930957870361 494.2758351594082) rotate(0 50.61561547958678 -43.862691895113585)"><path d="M-0.23 0.53 C1.74 -7.03, -5.87 -31.22, 11.08 -46.02 C28.04 -60.82, 86.21 -81.28, 101.52 -88.26" stroke="#1e1e1e" stroke-width="1.5" fill="none" stroke-dasharray="8 9"></path></g><g transform="translate(218.1930957870361 494.2758351594082) rotate(0 50.61561547958678 -43.862691895113585)"><path d="M80.18 -66.26 C86.29 -74.53, 90 -76.92, 102.14 -87.89" stroke="#1e1e1e" stroke-width="1.5" fill="none"></path></g><g transform="translate(218.1930957870361 494.2758351594082) rotate(0 50.61561547958678 -43.862691895113585)"><path d="M72.43 -85.26 C80.28 -89.01, 85.82 -86.89, 102.14 -87.89" stroke="#1e1e1e" stroke-width="1.5" fill="none"></path></g></g><mask></mask><g transform="translate(174.45116775442352 510.5701558659541) rotate(0 66.5250015258789 25)"><text x="66.5250015258789" y="0" font-family="Virgil, Segoe UI Emoji" font-size="20px" fill="#1e1e1e" text-anchor="middle" style="white-space: pre;" direction="ltr" dominant-baseline="text-before-edge">played card</text><text x="66.5250015258789" y="25" font-family="Virgil, Segoe UI Emoji" font-size="20px" fill="#1e1e1e" text-anchor="middle" style="white-space: pre;" direction="ltr" dominant-baseline="text-before-edge">(visible score)</text></g><g stroke-linecap="round"><g transform="translate(400.32152123489846 208.6104018298745) rotate(0 24.600209021039404 45.38625585123282)"><path d="M-1.12 -0.84 C6.88 14.17, 39.88 75.21, 48.05 90.35 M0.5 1.33 C8.87 16.47, 42.03 76.7, 50.32 91.61" stroke="#e03131" stroke-width="2" fill="none"></path></g><g transform="translate(400.32152123489846 208.6104018298745) rotate(0 24.600209021039404 45.38625585123282)"><path d="M26.3 70.49 C33.76 76.42, 40.02 85.61, 49.02 92.06 M28.18 72.8 C36.79 78.72, 44.07 87.21, 49.34 92.54" stroke="#e03131" stroke-width="2" fill="none"></path></g><g transform="translate(400.32152123489846 208.6104018298745) rotate(0 24.600209021039404 45.38625585123282)"><path d="M44.26 60.57 C46.28 69.34, 47.07 81.56, 49.02 92.06 M46.14 62.87 C47.86 72.65, 48.34 84.9, 49.34 92.54" stroke="#e03131" stroke-width="2" fill="none"></path></g></g><mask></mask><g transform="translate(264.21492976728723 157.48687128123743) rotate(0.36378269569216115 116.73332977294922 25)"><text x="116.73332977294922" y="0" font-family="Virgil, Segoe UI Emoji" font-size="20px" fill="#e03131" text-anchor="middle" style="white-space: pre;" direction="ltr" dominant-baseline="text-before-edge">Player with lowest card</text><text x="116.73332977294922" y="25" font-family="Virgil, Segoe UI Emoji" font-size="20px" fill="#e03131" text-anchor="middle" style="white-space: pre;" direction="ltr" dominant-baseline="text-before-edge">goes first</text></g></svg>