<svg version="1.1" xmlns="http://www.w3.org/2000/svg" viewBox="0 0 687 587.0000000000001" width="687" height="587.0000000000001">
  <!-- svg-source:excalidraw -->
  
  <defs>
    <style class="style-fonts">
      @font-face {
        font-family: "Virgil";
        src: url("https://excalidraw.com/Virgil.woff2");
      }
      @font-face {
        font-family: "Cascadia";
        src: url("https://excalidraw.com/Cascadia.woff2");
      }
    </style>
    
  </defs>
  <rect x="0" y="0" width="687" height="587.0000000000001" fill="#ffffff"></rect><g stroke-linecap="round" transform="translate(10 43) rotate(0 333.5 267.00000000000006)"><path d="M32 0 M32 0 C237.05 -1.08, 441.07 -0.95, 635 0 M32 0 C184.17 0.59, 336.61 0.2, 635 0 M635 0 C655.63 0.29, 668.87 12.21, 667 32 M635 0 C655.26 2.1, 668.28 12.15, 667 32 M667 32 C666.95 194.68, 667.38 359.18, 667 502 M667 32 C665.29 134.58, 664.72 237.36, 667 502 M667 502 C668.29 524.63, 657.04 532.74, 635 534 M667 502 C665.98 521.91, 655.65 535.87, 635 534 M635 534 C511.46 534.4, 386.79 534.42, 32 534 M635 534 C467.15 534.19, 298.96 534, 32 534 M32 534 C9.73 534.08, 0.32 525.07, 0 502 M32 534 C10.37 534.34, -0.92 522.01, 0 502 M0 502 C2.4 380.49, 1.19 260.84, 0 32 M0 502 C-1.67 330.06, -1.61 157.51, 0 32 M0 32 C-0.65 12.37, 10.13 0.1, 32 0 M0 32 C-0.95 10.76, 10.21 0.26, 32 0" stroke="#1e1e1e" stroke-width="1" fill="none"></path></g><g stroke-linecap="round" transform="translate(32.42394209332906 455.00000000000057) rotate(0 52 52)"><path d="M6.26 6.77 C6.26 6.77, 6.26 6.77, 6.26 6.77 M6.26 6.77 C6.26 6.77, 6.26 6.77, 6.26 6.77 M3.38 16.19 C8.19 12.85, 11.43 8.58, 12.56 5.62 M3.38 16.19 C5.45 13.7, 8.89 9.57, 12.56 5.62 M-0.16 26.36 C4.19 20.59, 9.38 18.56, 18.86 4.47 M-0.16 26.36 C6.25 17.88, 13.34 11.33, 18.86 4.47 M0.23 32 C7.42 25.77, 11.68 19.45, 27.13 1.06 M0.23 32 C8.67 23.76, 16.23 14.64, 27.13 1.06 M-0.03 38.4 C9.83 28.73, 16.53 18.83, 32.12 1.42 M-0.03 38.4 C7.63 30.27, 14.77 19.97, 32.12 1.42 M0.36 44.04 C11.54 28.24, 25.28 14.75, 37.76 1.02 M0.36 44.04 C11.36 30.98, 22.34 18.17, 37.76 1.02 M0.1 50.44 C12.92 38.51, 22.47 21.62, 42.75 1.38 M0.1 50.44 C17.53 30.77, 33.54 12.84, 42.75 1.38 M-0.16 56.84 C17.76 34.62, 38.37 12.98, 48.39 0.99 M-0.16 56.84 C14.09 41.44, 26.81 24.64, 48.39 0.99 M0.24 62.48 C14.38 46.1, 30.96 24.96, 53.38 1.35 M0.24 62.48 C16.87 40.96, 35.65 20.24, 53.38 1.35 M-0.02 68.88 C15.99 49.97, 33.56 28.89, 59.02 0.96 M-0.02 68.88 C19.68 45.57, 39.29 22.65, 59.02 0.96 M0.37 74.52 C16.88 56.26, 34.07 37.45, 64.01 1.32 M0.37 74.52 C16.72 55.34, 34.04 35.83, 64.01 1.32 M1.42 79.41 C20.58 58.04, 39.78 34.02, 68.99 1.68 M1.42 79.41 C26.33 49.53, 52.22 20.2, 68.99 1.68 M2.47 84.3 C26.7 57.03, 52.59 27.88, 74.64 1.28 M2.47 84.3 C30.79 50.98, 59.46 18.8, 74.64 1.28 M3.52 89.19 C30.05 61.11, 53.75 29.71, 79.62 1.64 M3.52 89.19 C27.96 62.03, 50.82 35.65, 79.62 1.64 M4.57 94.08 C23.94 73.49, 41.31 54.44, 85.27 1.25 M4.57 94.08 C36.51 59.23, 65.6 23.27, 85.27 1.25 M6.94 97.45 C38.67 62.07, 68.82 24.77, 89.6 2.36 M6.94 97.45 C28.16 73.29, 48.14 50.25, 89.6 2.36 M9.95 100.08 C28.86 74.77, 50.24 49.72, 93.27 4.23 M9.95 100.08 C40.02 66.11, 70.55 30, 93.27 4.23 M12.97 102.7 C44.95 65.56, 78.34 26.45, 96.95 6.1 M12.97 102.7 C34.26 77.76, 54.33 52.4, 96.95 6.1 M17.3 103.82 C40.87 74.26, 66.32 45.77, 99.97 8.72 M17.3 103.82 C38.91 78.58, 63.46 52.66, 99.97 8.72 M21.63 104.93 C41.25 81.41, 60.3 61.7, 102.33 12.1 M21.63 104.93 C42.43 80.01, 62.53 56.22, 102.33 12.1 M26.62 105.29 C48.15 82.24, 64.48 60.29, 103.38 16.99 M26.62 105.29 C53.21 75.58, 79.21 44.23, 103.38 16.99 M32.26 104.9 C52.87 78.16, 76.25 54.35, 104.43 21.88 M32.26 104.9 C57.12 77.94, 81.3 50.54, 104.43 21.88 M37.25 105.26 C60.55 81.54, 83.65 53.11, 105.48 26.77 M37.25 105.26 C64.33 75.45, 89.93 44.12, 105.48 26.77 M42.89 104.86 C62.39 82.69, 78.14 62.16, 105.22 33.17 M42.89 104.86 C65.76 78.32, 89.82 52.91, 105.22 33.17 M47.88 105.22 C71.56 78.48, 91.13 51.33, 104.96 39.56 M47.88 105.22 C65.73 84.98, 84.21 64.23, 104.96 39.56 M52.87 105.58 C68.56 86.26, 82.88 69.98, 105.35 45.21 M52.87 105.58 C63.67 91.94, 75.85 78.33, 105.35 45.21 M58.51 105.19 C69.89 91.7, 80.26 82.99, 105.09 51.6 M58.51 105.19 C69.8 90.96, 82.31 75.68, 105.09 51.6 M63.5 105.55 C74.4 93.59, 85.76 79.41, 104.83 58 M63.5 105.55 C72.93 95.28, 80.48 85.18, 104.83 58 M69.14 105.15 C76.69 95.05, 86.5 89.06, 105.23 63.65 M69.14 105.15 C76.68 96.86, 84.69 87.25, 105.23 63.65 M74.13 105.51 C86.16 91.37, 96.5 81.54, 104.96 70.04 M74.13 105.51 C85.56 93.62, 95.55 80.87, 104.96 70.04 M79.77 105.12 C88.89 95, 94.77 85.84, 104.7 76.44 M79.77 105.12 C85.58 98.91, 91 92.45, 104.7 76.44 M86.07 103.97 C93.18 94.38, 101.29 88.19, 105.1 82.08 M86.07 103.97 C91.95 95.64, 99.65 89.34, 105.1 82.08 M94.34 100.56 C98.81 95.78, 100.33 92.64, 106.15 86.97 M94.34 100.56 C98.34 96.43, 102.72 92.46, 106.15 86.97" stroke="#ffc9c9" stroke-width="0.5" fill="none"></path><path d="M26 0 M26 0 C40.94 -0.11, 58.01 0.95, 78 0 M26 0 C37.36 0.63, 48.59 0.02, 78 0 M78 0 C95.47 -0.03, 102.93 8.25, 104 26 M78 0 C95.7 2.19, 102.14 7.46, 104 26 M104 26 C105.63 38.28, 105.18 48.11, 104 78 M104 26 C102.94 37.31, 104.13 47.48, 104 78 M104 78 C104.83 96.63, 94.27 104.86, 78 104 M104 78 C106.25 97.58, 93.2 103.12, 78 104 M78 104 C56.53 103.58, 38.52 104.27, 26 104 M78 104 C65.96 103.67, 53.43 103.57, 26 104 M26 104 C8.07 103.4, 1.8 96.01, 0 78 M26 104 C7.23 104.71, -1.19 94.39, 0 78 M0 78 C-1.95 66.63, -0.34 54.14, 0 26 M0 78 C0.7 61.22, -0.42 44.41, 0 26 M0 26 C1.91 7.9, 7.77 -0.98, 26 0 M0 26 C-0.89 9.18, 8.39 1.7, 26 0" stroke="#1e1e1e" stroke-width="1" fill="none"></path></g><g transform="translate(61.27394247479879 494.50000000000057) rotate(0 23.149999618530273 12.5)"><text x="23.149999618530273" y="0" font-family="Virgil, Segoe UI Emoji" font-size="20px" fill="#1e1e1e" text-anchor="middle" style="white-space: pre;" direction="ltr" dominant-baseline="text-before-edge">Deck</text></g><g stroke-linecap="round" transform="translate(543.4239420933291 62) rotate(0 52 52)"><path d="M26.64 -0.95 L84.99 0.13 L93.72 4.98 L101.38 9.53 L103.3 26.29 L105.47 85.63 L99.41 95.67 L94.96 101.63 L78.95 103.69 L18.98 104.2 L8.47 101.92 L4.32 92.21 L-1.91 77.07 L1.37 26.36 L0.47 16.28 L7.79 7.79 L10.86 2.4 L25.11 -1.24" stroke="none" stroke-width="0" fill="#a5d8ff"></path><path d="M26 0 M26 0 C39.33 0.76, 55.64 0.67, 78 0 M26 0 C42.16 0.12, 59.47 0.5, 78 0 M78 0 C97.25 -0.19, 103.06 8.74, 104 26 M78 0 C95.7 1.99, 103.71 9.01, 104 26 M104 26 C101.9 38.93, 104.79 51.16, 104 78 M104 26 C104.7 37.23, 103.18 49.61, 104 78 M104 78 C102.41 95.28, 94.68 105.7, 78 104 M104 78 C103.38 95.44, 94.38 104.09, 78 104 M78 104 C64.35 105.55, 47.38 102.41, 26 104 M78 104 C58.99 103.49, 39.01 104.22, 26 104 M26 104 C10.6 104.58, 0.14 94.15, 0 78 M26 104 C8.63 104.2, 0.56 95.01, 0 78 M0 78 C0.75 59.96, -0.92 44.66, 0 26 M0 78 C1.18 61.46, -0.19 46.48, 0 26 M0 26 C1.46 10.35, 7.3 -1.28, 26 0 M0 26 C0.77 6.54, 8.2 -0.17, 26 0" stroke="#1e1e1e" stroke-width="1" fill="none"></path></g><g transform="translate(570.1239428562685 101.5) rotate(0 25.299999237060547 12.5)"><text x="25.299999237060547" y="0" font-family="Virgil, Segoe UI Emoji" font-size="20px" fill="#1e1e1e" text-anchor="middle" style="white-space: pre;" direction="ltr" dominant-baseline="text-before-edge">Row0</text></g><g stroke-linecap="round" transform="translate(545.4239420933291 189) rotate(0 52 52.00000000000006)"><path d="M25.88 1.33 L85.13 -0.22 L93.14 3.95 L102.22 11.7 L103.07 27.83 L104.71 85.38 L101.3 93.54 L92.92 100.95 L76.31 105.58 L20.57 101.96 L8.25 99.41 L5.02 94.2 L-1.16 79.65 L1.29 27.29 L2.33 13.36 L5.61 5.26 L9.56 5.29 L24.12 -0.72" stroke="none" stroke-width="0" fill="#a5d8ff"></path><path d="M26 0 M26 0 C42.57 0.18, 58.2 -0.29, 78 0 M26 0 C42.64 -0.3, 56.89 -0.17, 78 0 M78 0 C95.65 1.73, 103.74 8.97, 104 26 M78 0 C94.41 -1.33, 103 6.59, 104 26 M104 26 C102.7 40.46, 105.61 55.33, 104 78 M104 26 C102.73 40.3, 103.2 55.51, 104 78 M104 78 C103.46 95.43, 94.5 104.08, 78 104 M104 78 C103.55 95.6, 94.69 105.06, 78 104 M78 104 C59.6 101.81, 39.07 105.15, 26 104 M78 104 C67.46 104.26, 55.05 103.38, 26 104 M26 104 C8.64 104.17, 0.48 95.05, 0 78 M26 104 C9.14 101.94, 1.11 95.66, 0 78 M0 78 C0.49 64.55, -1.45 55.53, 0 26 M0 78 C1.02 66.4, -0.39 52.49, 0 26 M0 26 C0.67 6.82, 8.26 -0.15, 26 0 M0 26 C0.06 8.03, 8.79 0.58, 26 0" stroke="#1e1e1e" stroke-width="1" fill="none"></path></g><g transform="translate(576.2989420933291 228.50000000000057) rotate(0 21.125 12.5)"><text x="21.125" y="0" font-family="Virgil, Segoe UI Emoji" font-size="20px" fill="#1e1e1e" text-anchor="middle" style="white-space: pre;" direction="ltr" dominant-baseline="text-before-edge">Row1</text></g><g stroke-linecap="round" transform="translate(545.4239420933291 315.00000000000057) rotate(0 52 52)"><path d="M25.3 0.29 L85.97 1.95 L92.91 5.48 L101.46 11.45 L104.95 25.69 L102.67 84.7 L98.66 95.42 L94.5 98.71 L76.09 103.07 L21.27 103.95 L9 102 L4.95 95.14 L0.7 76.74 L-0.89 24.76 L1.03 16.25 L4.62 5.78 L10.43 5.19 L26.18 0.26" stroke="none" stroke-width="0" fill="#a5d8ff"></path><path d="M26 0 M26 0 C42.23 1.85, 59.18 1.98, 78 0 M26 0 C41.26 0.85, 56.08 0.13, 78 0 M78 0 C94.53 -1.15, 103.13 6.86, 104 26 M78 0 C94.66 1.26, 101.84 6.84, 104 26 M104 26 C103.86 40.77, 105.66 57.64, 104 78 M104 26 C103.56 41.52, 103.42 56.97, 104 78 M104 78 C103.6 95.56, 94.77 104.92, 78 104 M104 78 C105.95 93.64, 93.67 105.85, 78 104 M78 104 C65.55 105.52, 56.11 106.33, 26 104 M78 104 C60.87 103.78, 44.01 103.55, 26 104 M26 104 C9.08 102.21, 0.97 95.61, 0 78 M26 104 C7.1 102.4, 0.02 95.48, 0 78 M0 78 C-0.75 64.9, 1.16 55.49, 0 26 M0 78 C0.69 57.11, 0.15 37.99, 0 26 M0 26 C0.06 8.11, 8.77 0.51, 26 0 M0 26 C-2.28 9.48, 9.94 0.06, 26 0" stroke="#1e1e1e" stroke-width="1" fill="none"></path></g><g transform="translate(571.890609268622 354.50000000000057) rotate(0 25.53333282470703 12.5)"><text x="25.53333282470703" y="0" font-family="Virgil, Segoe UI Emoji" font-size="20px" fill="#1e1e1e" text-anchor="middle" style="white-space: pre;" direction="ltr" dominant-baseline="text-before-edge">Row2</text></g><g stroke-linecap="round" transform="translate(546.4239420933291 440.00000000000057) rotate(0 52 52)"><path d="M25.07 1.83 L85.21 1.7 L94.8 3.35 L99.42 10.76 L102.31 27.58 L104.25 82.46 L98.44 92.91 L95.21 100.7 L76.84 105.65 L21.2 104.89 L10.86 99.08 L2.77 92.61 L-0.6 79.63 L-1.88 25.28 L1.9 16.16 L6.68 6.76 L10.39 3.24 L25.75 0.03" stroke="none" stroke-width="0" fill="#a5d8ff"></path><path d="M26 0 M26 0 C46.06 -1.44, 66.59 -0.18, 78 0 M26 0 C45.71 -0.65, 65.78 -0.98, 78 0 M78 0 C94.75 1.09, 102.12 7.08, 104 26 M78 0 C95.78 1.53, 105.37 8.1, 104 26 M104 26 C104.29 36.16, 106.04 47.09, 104 78 M104 26 C103.59 41.97, 103.5 58.16, 104 78 M104 78 C105.69 93.86, 93.89 105.61, 78 104 M104 78 C101.91 96.57, 97.09 102.19, 78 104 M78 104 C60.07 104.65, 39.79 104.47, 26 104 M78 104 C62.15 103.03, 46.38 104.07, 26 104 M26 104 C7.3 102.61, 0.02 95.46, 0 78 M26 104 C7.07 101.92, 1.89 93.93, 0 78 M0 78 C1.5 63.92, -1.45 53.23, 0 26 M0 78 C0.13 66.93, 0.16 56.66, 0 26 M0 26 C-1.98 9.38, 9.77 0.05, 26 0 M0 26 C0.62 7.52, 8.82 -1.45, 26 0" stroke="#1e1e1e" stroke-width="1" fill="none"></path></g><g transform="translate(573.1989417118593 479.50000000000057) rotate(0 25.225000381469727 12.5)"><text x="25.225000381469727" y="0" font-family="Virgil, Segoe UI Emoji" font-size="20px" fill="#1e1e1e" text-anchor="middle" style="white-space: pre;" direction="ltr" dominant-baseline="text-before-edge">Row3</text></g><g transform="translate(37.42394209332906 56) rotate(0 26.358333587646484 12.5)"><text x="0" y="0" font-family="Virgil, Segoe UI Emoji" font-size="20px" fill="#1e1e1e" text-anchor="start" style="white-space: pre;" direction="ltr" dominant-baseline="text-before-edge">Game</text></g><g stroke-linecap="round" transform="translate(42.27640110972243 275.9672131147546) rotate(0 51.147540983606575 51.14754098360652)"><path d="M24.65 0.6 L81.03 1.98 L92.97 1.96 L96.79 9.06 L103.66 25.93 L100.74 84.37 L99.99 93.6 L93.01 97.44 L75.84 101.06 L18.98 103.53 L8.11 97.98 L3.87 93.84 L0.18 76.99 L0.23 25.15 L1.35 14.42 L5.39 10.77 L11.91 3.4 L24.64 0.08" stroke="none" stroke-width="0" fill="#b2f2bb"></path><path d="M25.57 0 M25.57 0 C42.02 -0.73, 56.72 -0.8, 76.72 0 M25.57 0 C35.36 -1.07, 47.23 0.38, 76.72 0 M76.72 0 C94.96 -0.49, 100.45 9.84, 102.3 25.57 M76.72 0 C91.95 -0.06, 101.54 10.48, 102.3 25.57 M102.3 25.57 C102.4 39.15, 102.55 52.95, 102.3 76.72 M102.3 25.57 C102.01 44.07, 101.82 61.51, 102.3 76.72 M102.3 76.72 C103.82 92.2, 94.89 102.17, 76.72 102.3 M102.3 76.72 C104.52 94.44, 93.94 100.94, 76.72 102.3 M76.72 102.3 C61.17 102.83, 44.4 103.39, 25.57 102.3 M76.72 102.3 C60.67 102, 43.9 101.04, 25.57 102.3 M25.57 102.3 C10.17 101.08, -1.11 94.46, 0 76.72 M25.57 102.3 C10.21 104.23, -1.57 92.3, 0 76.72 M0 76.72 C0.32 59.73, -0.08 42.73, 0 25.57 M0 76.72 C1.06 60.11, 0.78 42.94, 0 25.57 M0 25.57 C0.13 7.26, 7.71 -0.72, 25.57 0 M0 25.57 C1.49 8.22, 9.84 0.49, 25.57 0" stroke="#1e1e1e" stroke-width="1" fill="none"></path></g><g transform="translate(63.05727529950582 314.61475409836123) rotate(0 30.366666793823242 12.5)"><text x="30.366666793823242" y="0" font-family="Virgil, Segoe UI Emoji" font-size="20px" fill="#1e1e1e" text-anchor="middle" style="white-space: pre;" direction="ltr" dominant-baseline="text-before-edge">Player</text></g><g stroke-linecap="round" transform="translate(27.42394209332906 207) rotate(0 252.4999999999999 118.03278688524591)"><path d="M32 0 M32 0 C178.41 2.78, 325.93 1.52, 473 0 M32 0 C200.94 -1.73, 369.31 -1.73, 473 0 M473 0 C493.74 1.63, 503.12 9.95, 505 32 M473 0 C494.65 1.77, 505.2 10.97, 505 32 M505 32 C504.67 87.39, 505.42 141.12, 505 204.07 M505 32 C504.35 82.84, 504.06 132.09, 505 204.07 M505 204.07 C504.2 224.25, 493.47 234.26, 473 236.07 M505 204.07 C504.32 226.66, 492.17 234.24, 473 236.07 M473 236.07 C331.87 236.46, 191.89 236.58, 32 236.07 M473 236.07 C341.69 237.96, 210.44 237.96, 32 236.07 M32 236.07 C10.27 236.29, -0.56 226.32, 0 204.07 M32 236.07 C12.62 234.37, -1.66 227.24, 0 204.07 M0 204.07 C-2.5 169.18, -1.05 133.99, 0 32 M0 204.07 C-0.14 147.52, 0.12 90.66, 0 32 M0 32 C0.41 8.88, 11.63 0.28, 32 0 M0 32 C-1.57 9.07, 10.69 0.15, 32 0" stroke="#1e1e1e" stroke-width="1" fill="none"></path></g><g transform="translate(47.09607324087028 230.60655737704985) rotate(0 35.349998474121094 12.29508196721315)"><text x="0" y="0" font-family="Virgil, Segoe UI Emoji" font-size="19.672131147540984px" fill="#1e1e1e" text-anchor="start" style="white-space: pre;" direction="ltr" dominant-baseline="text-before-edge">Players</text></g><g stroke-linecap="round" transform="translate(167.26000766709967 273.68852459016455) rotate(0 51.147540983606575 51.14754098360652)"><path d="M26.94 0.36 L81.56 2.05 L93.6 4.89 L99.4 8.73 L101.41 24.34 L101.3 84.34 L96.82 91.59 L92.58 100.24 L76.9 102.56 L19.81 101.47 L9.74 98.73 L5.39 93.09 L1.92 76.53 L-0.94 25.65 L1.91 16.12 L3.34 10.29 L9.19 2.44 L24.71 -1.8" stroke="none" stroke-width="0" fill="#b2f2bb"></path><path d="M25.57 0 M25.57 0 C37.83 0.87, 54.59 1.67, 76.72 0 M25.57 0 C38.87 -0.36, 53.43 0.52, 76.72 0 M76.72 0 C93.23 0.1, 101.47 8.61, 102.3 25.57 M76.72 0 C93.32 0.26, 101.65 9.58, 102.3 25.57 M102.3 25.57 C103.52 43.44, 103 66.45, 102.3 76.72 M102.3 25.57 C103.55 37.19, 102.65 47.63, 102.3 76.72 M102.3 76.72 C102.27 93.94, 94.25 102.01, 76.72 102.3 M102.3 76.72 C102.77 91.71, 94.88 102.62, 76.72 102.3 M76.72 102.3 C64.99 100.91, 51.19 103.95, 25.57 102.3 M76.72 102.3 C65.22 103.31, 51.57 101.83, 25.57 102.3 M25.57 102.3 C9.19 100.45, -0.41 93.62, 0 76.72 M25.57 102.3 C8.59 101.66, 0.12 94.35, 0 76.72 M0 76.72 C-0.13 66.98, -1.18 56.3, 0 25.57 M0 76.72 C0.86 64.47, 0.78 52.7, 0 25.57 M0 25.57 C1.33 7.64, 7.69 1.2, 25.57 0 M0 25.57 C-0.55 8.36, 10.38 -1.97, 25.57 0" stroke="#1e1e1e" stroke-width="1" fill="none"></path></g><g transform="translate(188.04088185688306 312.3360655737712) rotate(0 30.366666793823242 12.5)"><text x="30.366666793823242" y="0" font-family="Virgil, Segoe UI Emoji" font-size="20px" fill="#1e1e1e" text-anchor="middle" style="white-space: pre;" direction="ltr" dominant-baseline="text-before-edge">Player</text></g><g stroke-linecap="round" transform="translate(293.26000766709967 273.42622950819725) rotate(0 51.147540983606575 51.14754098360652)"><path d="M26.86 1.29 L83.42 -0.86 L91.42 2.36 L98.1 11.62 L100.41 24.86 L102.17 84.25 L98.87 92.57 L92.54 98.28 L76.48 102.32 L21.37 102.68 L11.91 98.51 L2.66 92.38 L0.32 78.46 L-0.26 25.87 L0.8 13.23 L2.73 8.19 L9.4 4.69 L23.7 -1.59" stroke="none" stroke-width="0" fill="#b2f2bb"></path><path d="M25.57 0 M25.57 0 C41.42 -2.14, 59.56 -1.89, 76.72 0 M25.57 0 C40.52 -0.39, 55.59 -0.4, 76.72 0 M76.72 0 C93.37 0.23, 101.73 9.44, 102.3 25.57 M76.72 0 C95.72 -1.69, 100.64 10.37, 102.3 25.57 M102.3 25.57 C101 37.4, 102.45 48.91, 102.3 76.72 M102.3 25.57 C102.32 42.5, 102.57 59.1, 102.3 76.72 M102.3 76.72 C102.71 91.98, 94.74 102.58, 76.72 102.3 M102.3 76.72 C100.73 92.17, 93.79 102.44, 76.72 102.3 M76.72 102.3 C63.72 101.61, 53.83 104.18, 25.57 102.3 M76.72 102.3 C57.42 101.05, 37.24 101.89, 25.57 102.3 M25.57 102.3 C8.58 101.74, 0.11 94.28, 0 76.72 M25.57 102.3 C6.25 103.11, 1.27 93.83, 0 76.72 M0 76.72 C-1.01 59.19, -0.46 44.58, 0 25.57 M0 76.72 C0.37 61.61, -0.71 47.98, 0 25.57 M0 25.57 C-0.47 8.38, 10.14 -1.72, 25.57 0 M0 25.57 C-0.23 10.64, 6.73 0.31, 25.57 0" stroke="#1e1e1e" stroke-width="1" fill="none"></path></g><g transform="translate(314.04088185688306 312.0737704918039) rotate(0 30.366666793823242 12.5)"><text x="30.366666793823242" y="0" font-family="Virgil, Segoe UI Emoji" font-size="20px" fill="#1e1e1e" text-anchor="middle" style="white-space: pre;" direction="ltr" dominant-baseline="text-before-edge">Player</text></g><g stroke-linecap="round" transform="translate(415.26000766709967 272.131147540984) rotate(0 51.147540983606575 51.14754098360652)"><path d="M24.69 -1.24 L82.12 2.03 L90.42 2.88 L98.97 11.53 L102.47 25.84 L102.13 82.29 L98.45 92.34 L94.1 99.48 L78.64 102.1 L18.64 101.97 L10.31 100.43 L3.34 92.6 L-0.8 75.57 L-0.87 23.77 L1.01 15.48 L1.72 8.4 L10.38 4.93 L26.76 -0.49" stroke="none" stroke-width="0" fill="#b2f2bb"></path><path d="M25.57 0 M25.57 0 C36.16 -0.25, 48.55 -0.13, 76.72 0 M25.57 0 C40.97 0.09, 56.48 0.44, 76.72 0 M76.72 0 C95.47 -1.47, 100.85 10.13, 102.3 25.57 M76.72 0 C91.68 1.24, 104.05 6.72, 102.3 25.57 M102.3 25.57 C102.85 43.93, 101.08 61.97, 102.3 76.72 M102.3 25.57 C102.63 40.47, 102.9 57.3, 102.3 76.72 M102.3 76.72 C100.93 92.38, 93.79 102.42, 76.72 102.3 M102.3 76.72 C100.7 91.69, 95.66 100.9, 76.72 102.3 M76.72 102.3 C65.89 101.31, 50.43 103.34, 25.57 102.3 M76.72 102.3 C66.13 101.98, 55.53 102.51, 25.57 102.3 M25.57 102.3 C6.54 103.01, 1.11 93.82, 0 76.72 M25.57 102.3 C9.14 101.15, 0.15 92.32, 0 76.72 M0 76.72 C-0.08 64.6, 0.61 51.51, 0 25.57 M0 76.72 C-0.02 63.57, 1.02 49.69, 0 25.57 M0 25.57 C-0.2 10.37, 6.96 0.27, 25.57 0 M0 25.57 C0.75 8.37, 7.59 1.9, 25.57 0" stroke="#1e1e1e" stroke-width="1" fill="none"></path></g><g transform="translate(436.41588185688306 310.98360655737736) rotate(0 29.991666793823242 12.29508196721315)"><text x="29.991666793823242" y="0" font-family="Virgil, Segoe UI Emoji" font-size="19.672131147540984px" fill="#1e1e1e" text-anchor="middle" style="white-space: pre;" direction="ltr" dominant-baseline="text-before-edge">Player</text></g><g stroke-linecap="round" transform="translate(160.42394209332906 51) rotate(0 184.5 44.5)"><path d="M20.37 -0.72 L352.24 1.88 L363.61 5.83 L367.84 12.09 L368.75 22.28 L370.44 72.75 L365.35 83.25 L355.55 87.69 L347.07 90.73 L16.78 88.95 L4.76 82.28 L0.53 74.68 L-0.59 67.84 L-1.88 20.66 L1.78 13.84 L6.75 5.07 L10.68 2.7 L20.66 -0.05" stroke="none" stroke-width="0" fill="#ffec99"></path><path d="M22.25 0 M22.25 0 C109.08 0.03, 195.84 0.33, 346.75 0 M22.25 0 C123.9 -1.54, 223.88 -0.48, 346.75 0 M346.75 0 C359.77 1.08, 370.52 5.84, 369 22.25 M346.75 0 C362.87 -0.14, 371.22 8.09, 369 22.25 M369 22.25 C368.91 36.4, 368.46 50, 369 66.75 M369 22.25 C368.53 30.93, 369.22 41.06, 369 66.75 M369 66.75 C367.61 79.78, 363.23 87.78, 346.75 89 M369 66.75 C367.73 82.37, 363.26 90.93, 346.75 89 M346.75 89 C270.25 89.47, 196.2 89.79, 22.25 89 M346.75 89 C257.7 89.82, 170.4 89.59, 22.25 89 M22.25 89 C7.95 88, 0.13 80.32, 0 66.75 M22.25 89 C6.48 88.18, 1.49 81.28, 0 66.75 M0 66.75 C-0.98 50.02, 1.1 34.49, 0 22.25 M0 66.75 C-0.46 54.64, -1.14 40.82, 0 22.25 M0 22.25 C0.66 7.28, 6.6 1.66, 22.25 0 M0 22.25 C1.35 9.28, 6.26 0.96, 22.25 0" stroke="#1e1e1e" stroke-width="1" fill="none"></path></g><g transform="translate(315.40727568097554 56) rotate(0 29.516666412353516 12.5)"><text x="29.516666412353516" y="0" font-family="Virgil, Segoe UI Emoji" font-size="20px" fill="#1e1e1e" text-anchor="middle" style="white-space: pre;" direction="ltr" dominant-baseline="text-before-edge">State</text></g><g stroke-linecap="round" transform="translate(173.42394209332906 96) rotate(0 51.5 17.5)"><path d="M8.93 0.26 L98.31 0.13 L102.21 4.95 L104.24 30.86 L99.99 34.26 L93.31 35.08 L5.24 36.19 L0.29 30.38 L-0.8 7.6 L1.32 0.38 L8.16 1.09" stroke="none" stroke-width="0" fill="#e9ecef"></path><path d="M8.75 0 M8.75 0 C27.7 1.02, 43.51 -2.01, 94.25 0 M8.75 0 C39.68 0.87, 70.99 0.07, 94.25 0 M94.25 0 C99.25 0.08, 102.6 3.15, 103 8.75 M94.25 0 C99.44 1.06, 104.95 1.22, 103 8.75 M103 8.75 C104.08 14.07, 101.76 17.71, 103 26.25 M103 8.75 C103.23 13.38, 103.16 19.11, 103 26.25 M103 26.25 C103.48 31.8, 100.5 33.21, 94.25 35 M103 26.25 C104.11 32.41, 98.52 33.4, 94.25 35 M94.25 35 C66.72 36.05, 41.59 33.3, 8.75 35 M94.25 35 C64.98 35.08, 37.42 34.79, 8.75 35 M8.75 35 C2.51 34.85, 0.06 31.53, 0 26.25 M8.75 35 C3.04 35.58, -2.28 32.9, 0 26.25 M0 26.25 C-0.88 20.14, -1.11 13.1, 0 8.75 M0 26.25 C0.39 21.81, 0.47 16.62, 0 8.75 M0 8.75 C-0.83 4.11, 2.44 -0.14, 8.75 0 M0 8.75 C1.86 0.94, 2.69 2.12, 8.75 0" stroke="#1e1e1e" stroke-width="1" fill="none"></path></g><g transform="translate(190.6239428562685 101) rotate(0 34.29999923706055 12.5)"><text x="34.29999923706055" y="0" font-family="Virgil, Segoe UI Emoji" font-size="20px" fill="#1e1e1e" text-anchor="middle" style="white-space: pre;" direction="ltr" dominant-baseline="text-before-edge">Pending</text></g><g stroke-linecap="round" transform="translate(294.92394209332906 95.5) rotate(0 51.5 17.5)"><path d="M8.5 0.03 L99.87 1.33 L104.37 4.73 L101.51 30.15 L98.39 36.19 L93.99 35.3 L4.12 33.3 L-0.32 28.27 L-0.59 9.84 L0.31 0.6 L9.14 1.33" stroke="none" stroke-width="0" fill="#b2f2bb"></path><path d="M8.75 0 M8.75 0 C40.79 -0.8, 70.17 0.13, 94.25 0 M8.75 0 C41.27 0, 74.42 0.07, 94.25 0 M94.25 0 C99.52 0.92, 104.69 1.44, 103 8.75 M94.25 0 C98.42 1.85, 100.91 4.16, 103 8.75 M103 8.75 C102.75 17.03, 103.37 22.04, 103 26.25 M103 8.75 C103.21 12.85, 103.18 16.4, 103 26.25 M103 26.25 C103.97 32.36, 98.72 33.61, 94.25 35 M103 26.25 C103.02 32.23, 98.49 32.92, 94.25 35 M94.25 35 C62.25 35.99, 30.55 33.16, 8.75 35 M94.25 35 C73.85 34.13, 53.88 33.93, 8.75 35 M8.75 35 C3.02 35.51, -1.98 32.79, 0 26.25 M8.75 35 C4.19 35.06, 0.62 30.94, 0 26.25 M0 26.25 C-0.52 22.02, -0.12 16.52, 0 8.75 M0 26.25 C-0.48 21.15, -0.32 14.95, 0 8.75 M0 8.75 C1.61 1.2, 2.72 1.84, 8.75 0 M0 8.75 C-1.8 3.23, 3.67 -0.16, 8.75 0" stroke="#2f9e44" stroke-width="1" fill="none"></path></g><g transform="translate(316.3072752995058 100.5) rotate(0 30.116666793823242 12.5)"><text x="30.116666793823242" y="0" font-family="Virgil, Segoe UI Emoji" font-size="20px" fill="#2f9e44" text-anchor="middle" style="white-space: pre;" direction="ltr" dominant-baseline="text-before-edge">Active</text></g><g stroke-linecap="round" transform="translate(414.92394209332906 94.5) rotate(0 51.5 17.5)"><path d="M10.67 -0.19 L97.14 0.62 L102.77 6.66 L102.2 30.38 L97.28 33.3 L93.38 33.2 L4.33 35.55 L-1.33 28.49 L0.39 10.08 L3.38 1.7 L6.91 1.31" stroke="none" stroke-width="0" fill="#e9ecef"></path><path d="M8.75 0 M8.75 0 C29.32 -0.26, 46.58 -0.55, 94.25 0 M8.75 0 C34.47 0.36, 61.59 -0.83, 94.25 0 M94.25 0 C98.64 1.61, 101.19 4, 103 8.75 M94.25 0 C101.84 -1.81, 104.29 2.77, 103 8.75 M103 8.75 C102.02 15.67, 103.2 23.06, 103 26.25 M103 8.75 C103.46 13.88, 102.44 18.15, 103 26.25 M103 26.25 C103.02 32.21, 98.69 33.19, 94.25 35 M103 26.25 C104.89 30.68, 98.81 35.79, 94.25 35 M94.25 35 C61.07 35.08, 28.6 34.01, 8.75 35 M94.25 35 C69.3 35.02, 43.25 35.12, 8.75 35 M8.75 35 C4.02 35.05, 0.54 31.09, 0 26.25 M8.75 35 C3.07 33.55, -0.93 31.26, 0 26.25 M0 26.25 C0.39 21.02, -0.75 12.75, 0 8.75 M0 26.25 C0.75 19.2, -0.04 14.46, 0 8.75 M0 8.75 C-1.56 3.19, 3.57 -0.14, 8.75 0 M0 8.75 C-0.94 4.82, 4.27 1.86, 8.75 0" stroke="#1e1e1e" stroke-width="1" fill="none"></path></g><g transform="translate(430.0989413303896 99.5) rotate(0 36.32500076293945 12.5)"><text x="36.32500076293945" y="0" font-family="Virgil, Segoe UI Emoji" font-size="20px" fill="#1e1e1e" text-anchor="middle" style="white-space: pre;" direction="ltr" dominant-baseline="text-before-edge">Finished</text></g><g transform="translate(27.24669890308519 10) rotate(0 99.41666412353516 12.5)"><text x="99.41666412353516" y="0" font-family="Virgil, Segoe UI Emoji" font-size="20px" fill="#1e1e1e" text-anchor="middle" style="white-space: pre;" direction="ltr" dominant-baseline="text-before-edge">Players choose card</text></g><g transform="translate(111.0406088871523 346.00000000000057) rotate(0 6.883333206176758 12.5)"><text x="6.883333206176758" y="0" font-family="Virgil, Segoe UI Emoji" font-size="20px" fill="#e03131" text-anchor="middle" style="white-space: pre;" direction="ltr" dominant-baseline="text-before-edge">0</text></g><g transform="translate(236.0406088871523 342.50000000000057) rotate(0 6.883333206176758 12.5)"><text x="6.883333206176758" y="0" font-family="Virgil, Segoe UI Emoji" font-size="20px" fill="#e03131" text-anchor="middle" style="white-space: pre;" direction="ltr" dominant-baseline="text-before-edge">0</text></g><g transform="translate(359.0406088871523 342.50000000000057) rotate(0 6.883333206176758 12.5)"><text x="6.883333206176758" y="0" font-family="Virgil, Segoe UI Emoji" font-size="20px" fill="#e03131" text-anchor="middle" style="white-space: pre;" direction="ltr" dominant-baseline="text-before-edge">0</text></g><g transform="translate(483.0406088871523 341.50000000000057) rotate(0 6.883333206176758 12.5)"><text x="6.883333206176758" y="0" font-family="Virgil, Segoe UI Emoji" font-size="20px" fill="#e03131" text-anchor="middle" style="white-space: pre;" direction="ltr" dominant-baseline="text-before-edge">0</text></g><g stroke-linecap="round" transform="translate(54.439755054185525 359.0013362931405) rotate(0 23.495044539930745 34.174610239899266)"><path d="M13.38 -1.77 L37.49 -1.03 L44.49 2.63 L46.49 5.46 L46.58 60.77 L47.16 63.71 L42.28 68.28 L10.04 67.73 L3.61 66.05 L0.07 61.8 L-0.26 9.39 L3.6 1.68 L13.33 0.96" stroke="none" stroke-width="0" fill="#e9ecef"></path><path d="M11.75 0 M11.75 0 C19.94 1.53, 28.07 1.32, 35.24 0 M35.24 0 C45.04 -0.12, 45.39 4.85, 46.99 11.75 M46.99 11.75 C46.72 26.76, 45.47 39.86, 46.99 56.6 M46.99 56.6 C48.12 64.31, 42.58 67.52, 35.24 68.35 M35.24 68.35 C30.46 66.83, 21.76 69.35, 11.75 68.35 M11.75 68.35 C4.67 66.94, -1.7 64.13, 0 56.6 M0 56.6 C-0.12 45.64, -1.6 35.3, 0 11.75 M0 11.75 C-1.27 4.56, 2.01 1.83, 11.75 0" stroke="#1e1e1e" stroke-width="1.5" fill="none" stroke-dasharray="8 9"></path></g><g stroke-linecap="round" transform="translate(180.45863031381418 356.15345210648195) rotate(0 23.495044539930745 34.174610239899266)"><path d="M11.97 -0.93 L37.57 -0.41 L43.66 3.71 L45.5 7.84 L46.53 58.05 L44.12 63.5 L39.21 66.02 L10.14 69.21 L1.02 66.49 L-0.05 61.61 L-0.25 10.47 L4.71 4.46 L12.01 1.95" stroke="none" stroke-width="0" fill="#ffc9c9"></path><path d="M11.75 0 M11.75 0 C16.64 -0.84, 24.13 1.92, 35.24 0 M11.75 0 C17.56 -0.49, 22.92 0.53, 35.24 0 M35.24 0 C43.41 1.62, 45.21 3.57, 46.99 11.75 M35.24 0 C44.72 -0.4, 45.44 2.83, 46.99 11.75 M46.99 11.75 C45.94 25.89, 47.18 42.88, 46.99 56.6 M46.99 11.75 C48.14 30.22, 47.64 46.74, 46.99 56.6 M46.99 56.6 C47.91 64.99, 43.58 67.83, 35.24 68.35 M46.99 56.6 C45.9 64.04, 40.98 66.39, 35.24 68.35 M35.24 68.35 C30.42 68.76, 23.52 67.68, 11.75 68.35 M35.24 68.35 C26.4 67.84, 19.29 67.5, 11.75 68.35 M11.75 68.35 C5.18 67.51, 0.33 64.22, 0 56.6 M11.75 68.35 C5.9 66.19, 0.81 66.11, 0 56.6 M0 56.6 C0.84 43.03, 0.87 26.25, 0 11.75 M0 56.6 C0 39.9, -0.08 23.27, 0 11.75 M0 11.75 C1.59 4.52, 4.68 1.88, 11.75 0 M0 11.75 C1.07 6.13, 5.8 -1.78, 11.75 0" stroke="#1e1e1e" stroke-width="1" fill="none"></path></g><g stroke-linecap="round" transform="translate(307.1894766201076 353.30556791982383) rotate(0 23.495044539930745 34.174610239899266)"><path d="M11.86 0.83 L38.05 -0.64 L43.95 1.42 L47.84 7.21 L47.57 61.24 L46.26 65.69 L42.02 66.07 L9.68 68.27 L1.26 66.63 L0.14 60.44 L1.76 7.77 L4.43 4.8 L10.75 1.34" stroke="none" stroke-width="0" fill="#e9ecef"></path><path d="M11.75 0 M11.75 0 C16.67 -1.06, 25.72 -0.65, 35.24 0 M35.24 0 C41.3 -1.04, 46.26 4.26, 46.99 11.75 M46.99 11.75 C45.76 24.17, 45.96 35.14, 46.99 56.6 M46.99 56.6 C48.57 66.16, 44.45 68.75, 35.24 68.35 M35.24 68.35 C30.92 70.09, 21.85 69.01, 11.75 68.35 M11.75 68.35 C2.28 68.67, -0.12 65.62, 0 56.6 M0 56.6 C-1.94 39.16, 0.94 24.12, 0 11.75 M0 11.75 C1.1 3.08, 3.5 -1.62, 11.75 0" stroke="#1e1e1e" stroke-width="1.5" fill="none" stroke-dasharray="8 9"></path></g><g stroke-linecap="round" transform="translate(428.22455455308386 350.45768373316525) rotate(0 23.495044539930745 34.174610239899266)"><path d="M10.13 1.26 L37.41 -1.23 L42.83 4.82 L44.53 6.11 L46.62 59.43 L43.56 64.4 L40.41 68.48 L9.3 67.39 L4.44 64.59 L-1.07 63.13 L0.14 10.86 L3.07 3.12 L10.43 1.66" stroke="none" stroke-width="0" fill="#ffc9c9"></path><path d="M11.75 0 M11.75 0 C16.8 -1.71, 21.75 0.26, 35.24 0 M11.75 0 C20.75 0.83, 28.46 0.03, 35.24 0 M35.24 0 C43.05 1.54, 47.8 3.3, 46.99 11.75 M35.24 0 C42.23 0.87, 48.73 2.22, 46.99 11.75 M46.99 11.75 C46.3 21.7, 45.43 29.13, 46.99 56.6 M46.99 11.75 C46.23 28.22, 46.91 42, 46.99 56.6 M46.99 56.6 C46.37 65.81, 42.39 67.59, 35.24 68.35 M46.99 56.6 C44.77 65.48, 43.45 67.79, 35.24 68.35 M35.24 68.35 C28.94 67.95, 25.81 67.26, 11.75 68.35 M35.24 68.35 C28.36 68.74, 22.16 69.29, 11.75 68.35 M11.75 68.35 C5.66 66.96, 1.89 64.01, 0 56.6 M11.75 68.35 C5.6 69.27, -2.28 62.54, 0 56.6 M0 56.6 C1.81 39.48, 0.83 23.71, 0 11.75 M0 56.6 C-0.05 40.89, -0.01 24.49, 0 11.75 M0 11.75 C1.33 3.73, 5.6 -1.39, 11.75 0 M0 11.75 C1.1 6.05, 6.04 1.41, 11.75 0" stroke="#1e1e1e" stroke-width="1" fill="none"></path></g><g stroke-linecap="round"><g transform="translate(415.93316676553707 514.2110244660167) rotate(0 24.728724957689337 -58.689085639367704)"><path d="M0.53 1.06 C8.35 -5.31, 40.03 -17.94, 46.8 -37.86 C53.57 -57.77, 42.13 -105.13, 41.15 -118.44" stroke="#1e1e1e" stroke-width="1.5" fill="none" stroke-dasharray="8 9"></path></g><g transform="translate(415.93316676553707 514.2110244660167) rotate(0 24.728724957689337 -58.689085639367704)"><path d="M57.26 -90.35 C49.88 -97.73, 46.71 -105.75, 41.95 -120.42" stroke="#1e1e1e" stroke-width="1.5" fill="none"></path></g><g transform="translate(415.93316676553707 514.2110244660167) rotate(0 24.728724957689337 -58.689085639367704)"><path d="M36.97 -87.3 C35.42 -95.65, 38.1 -104.55, 41.95 -120.42" stroke="#1e1e1e" stroke-width="1.5" fill="none"></path></g></g><mask></mask><g transform="translate(367.765625271893 518.4828507460037) rotate(0 66.86666870117188 25)"><text x="66.86666870117188" y="0" font-family="Virgil, Segoe UI Emoji" font-size="20px" fill="#1e1e1e" text-anchor="middle" style="white-space: pre;" direction="ltr" dominant-baseline="text-before-edge">played card</text><text x="66.86666870117188" y="25" font-family="Virgil, Segoe UI Emoji" font-size="20px" fill="#1e1e1e" text-anchor="middle" style="white-space: pre;" direction="ltr" dominant-baseline="text-before-edge">(hidden value)</text></g><g stroke-linecap="round"><g transform="translate(251.00689873461488 508.82271590557264) rotate(0 36.257001488851245 -51.20233821926456)"><path d="M0.66 0.61 C2.87 -6.79, 0.19 -27.47, 12.06 -44.74 C23.92 -62.01, 61.83 -93.44, 71.85 -103.01" stroke="#1e1e1e" stroke-width="1.5" fill="none" stroke-dasharray="8 9"></path></g><g transform="translate(251.00689873461488 508.82271590557264) rotate(0 36.257001488851245 -51.20233821926456)"><path d="M58.73 -75.73 C62.04 -81.18, 62.71 -85.99, 72.48 -101.41" stroke="#1e1e1e" stroke-width="1.5" fill="none"></path></g><g transform="translate(251.00689873461488 508.82271590557264) rotate(0 36.257001488851245 -51.20233821926456)"><path d="M45.03 -91 C51.06 -93.44, 54.5 -95.16, 72.48 -101.41" stroke="#1e1e1e" stroke-width="1.5" fill="none"></path></g></g><mask></mask><g transform="translate(221.16664812026465 520.2222716792952) rotate(0 32.625 12.5)"><text x="32.625" y="0" font-family="Virgil, Segoe UI Emoji" font-size="20px" fill="#1e1e1e" text-anchor="middle" style="white-space: pre;" direction="ltr" dominant-baseline="text-before-edge">pending</text></g></svg>